<svg width="84" height="15" viewBox="0 0 84 15" fill="none" xmlns="http://www.w3.org/2000/svg">
<path d="M1.70256 7.41455V11.4683H0.86174V1.51514H4.25237C5.28687 1.51514 6.10263 1.77946 6.69963 2.30811C7.30119 2.83675 7.60197 3.56364 7.60197 4.48877C7.60197 5.42301 7.31259 6.14535 6.73381 6.65576C6.15959 7.16162 5.32561 7.41455 4.23186 7.41455H1.70256ZM1.70256 6.70361H4.25237C5.06812 6.70361 5.69019 6.50993 6.11858 6.12256C6.54696 5.73519 6.76115 5.19515 6.76115 4.50244C6.76115 3.81429 6.54696 3.26742 6.11858 2.86182C5.69475 2.45166 5.09091 2.24202 4.30705 2.23291H1.70256V6.70361ZM12.7153 4.76904C12.5421 4.73714 12.3575 4.72119 12.1615 4.72119C11.6511 4.72119 11.2182 4.86475 10.8627 5.15186C10.5118 5.43441 10.2612 5.84684 10.1108 6.38916V11.4683H9.29729V4.07178H10.0971L10.1108 5.24756C10.5437 4.37256 11.2387 3.93506 12.1957 3.93506C12.4236 3.93506 12.6036 3.96468 12.7358 4.02393L12.7153 4.76904ZM14.9301 11.4683H14.1098V4.07178H14.9301V11.4683ZM13.9662 1.93213C13.9662 1.77718 14.0164 1.6473 14.1166 1.54248C14.2169 1.43311 14.3536 1.37842 14.5268 1.37842C14.7 1.37842 14.8367 1.43311 14.9369 1.54248C15.0418 1.6473 15.0942 1.77718 15.0942 1.93213C15.0942 2.08708 15.0418 2.21696 14.9369 2.32178C14.8367 2.4266 14.7 2.479 14.5268 2.479C14.3536 2.479 14.2169 2.4266 14.1166 2.32178C14.0164 2.21696 13.9662 2.08708 13.9662 1.93213ZM19.4623 10.3403L21.7113 4.07178H22.5522L19.7905 11.4683H19.1274L16.352 4.07178H17.1928L19.4623 10.3403ZM28.4584 11.4683C28.3764 11.2358 28.324 10.8918 28.3012 10.436C28.0141 10.8097 27.6472 11.0991 27.2006 11.3042C26.7586 11.5047 26.2891 11.605 25.7924 11.605C25.0815 11.605 24.505 11.4067 24.0629 11.0103C23.6254 10.6138 23.4067 10.1125 23.4067 9.50635C23.4067 8.7863 23.7052 8.21663 24.3022 7.79736C24.9037 7.37809 25.74 7.16846 26.811 7.16846H28.2944V6.32764C28.2944 5.79899 28.1303 5.38428 27.8022 5.0835C27.4786 4.77816 27.0046 4.62549 26.3803 4.62549C25.8106 4.62549 25.339 4.77132 24.9653 5.06299C24.5916 5.35465 24.4047 5.70557 24.4047 6.11572L23.5844 6.10889C23.5844 5.521 23.8578 5.01286 24.4047 4.58447C24.9516 4.15153 25.6238 3.93506 26.4213 3.93506C27.2462 3.93506 27.8956 4.14242 28.3696 4.55713C28.8481 4.96729 29.0942 5.5415 29.1078 6.27979V9.77979C29.1078 10.4953 29.183 11.0308 29.3334 11.3862V11.4683H28.4584ZM25.8881 10.8804C26.435 10.8804 26.9226 10.7482 27.351 10.4839C27.7839 10.2196 28.0984 9.86637 28.2944 9.42432V7.79736H26.8315C26.0157 7.80648 25.3777 7.95687 24.9174 8.24854C24.4571 8.53564 24.227 8.93213 24.227 9.43799C24.227 9.8527 24.3796 10.1968 24.685 10.4702C24.9949 10.7437 25.3959 10.8804 25.8881 10.8804ZM34.0297 10.9146C34.5994 10.9146 35.0756 10.755 35.4584 10.436C35.8458 10.1125 36.0554 9.69548 36.0873 9.18506H36.8735C36.8507 9.63623 36.7094 10.0487 36.4496 10.4224C36.1899 10.7915 35.8435 11.0809 35.4106 11.2905C34.9822 11.5002 34.5219 11.605 34.0297 11.605C33.059 11.605 32.2888 11.2677 31.7192 10.5933C31.1541 9.91878 30.8715 9.01188 30.8715 7.87256V7.62646C30.8715 6.8973 30.9991 6.25244 31.2543 5.69189C31.5095 5.13135 31.8741 4.6984 32.3481 4.39307C32.8266 4.08773 33.3849 3.93506 34.0229 3.93506C34.8341 3.93506 35.5017 4.1766 36.0258 4.65967C36.5544 5.14274 36.837 5.77848 36.8735 6.56689H36.0873C36.0509 5.98812 35.8412 5.521 35.4584 5.16553C35.0802 4.81006 34.6016 4.63232 34.0229 4.63232C33.2846 4.63232 32.7104 4.89893 32.3002 5.43213C31.8946 5.96533 31.6918 6.71273 31.6918 7.67432V7.91357C31.6918 8.85693 31.8946 9.59294 32.3002 10.1216C32.7104 10.6502 33.2869 10.9146 34.0297 10.9146ZM40.8588 10.2925L43.019 4.07178H43.9008L40.7426 12.7261L40.5785 13.1089C40.1729 14.0067 39.5463 14.4556 38.6987 14.4556C38.5027 14.4556 38.2931 14.4237 38.0697 14.3599L38.0629 13.6831L38.4867 13.7241C38.8878 13.7241 39.2113 13.6239 39.4574 13.4233C39.7081 13.2274 39.92 12.8879 40.0932 12.4048L40.4555 11.4067L37.6664 4.07178H38.5619L40.8588 10.2925ZM49.6088 7.41455V11.4683H48.768V1.51514H52.1586C53.1931 1.51514 54.0089 1.77946 54.6059 2.30811C55.2074 2.83675 55.5082 3.56364 55.5082 4.48877C55.5082 5.42301 55.2188 6.14535 54.6401 6.65576C54.0658 7.16162 53.2319 7.41455 52.1381 7.41455H49.6088ZM49.6088 6.70361H52.1586C52.9744 6.70361 53.5964 6.50993 54.0248 6.12256C54.4532 5.73519 54.6674 5.19515 54.6674 4.50244C54.6674 3.81429 54.4532 3.26742 54.0248 2.86182C53.601 2.45166 52.9972 2.24202 52.2133 2.23291H49.6088V6.70361ZM56.6567 7.66064C56.6567 6.94971 56.7934 6.30941 57.0668 5.73975C57.3448 5.17008 57.7345 4.72803 58.2358 4.41357C58.7416 4.09456 59.3136 3.93506 59.9516 3.93506C60.936 3.93506 61.7335 4.28141 62.3442 4.97412C62.9548 5.66227 63.2602 6.57601 63.2602 7.71533V7.88623C63.2602 8.60173 63.1212 9.24658 62.8432 9.8208C62.5697 10.3905 62.1824 10.8302 61.6811 11.1401C61.1798 11.45 60.6078 11.605 59.9653 11.605C58.9854 11.605 58.1879 11.2609 57.5727 10.5728C56.962 9.88005 56.6567 8.96403 56.6567 7.82471V7.66064ZM57.477 7.88623C57.477 8.77035 57.7048 9.49723 58.1606 10.0669C58.6209 10.632 59.2224 10.9146 59.9653 10.9146C60.7035 10.9146 61.3005 10.632 61.7563 10.0669C62.2166 9.49723 62.4467 8.74756 62.4467 7.81787V7.66064C62.4467 7.09554 62.3419 6.57829 62.1322 6.10889C61.9226 5.63949 61.6287 5.27718 61.2504 5.02197C60.8722 4.76221 60.4392 4.63232 59.9516 4.63232C59.2224 4.63232 58.6277 4.91943 58.1674 5.49365C57.7071 6.06331 57.477 6.81071 57.477 7.73584V7.88623ZM65.8715 11.4683H65.0512V0.968262H65.8715V11.4683ZM69.016 11.4683H68.1957V4.07178H69.016V11.4683ZM68.0522 1.93213C68.0522 1.77718 68.1023 1.6473 68.2026 1.54248C68.3028 1.43311 68.4395 1.37842 68.6127 1.37842C68.7859 1.37842 68.9226 1.43311 69.0229 1.54248C69.1277 1.6473 69.1801 1.77718 69.1801 1.93213C69.1801 2.08708 69.1277 2.21696 69.0229 2.32178C68.9226 2.4266 68.7859 2.479 68.6127 2.479C68.4395 2.479 68.3028 2.4266 68.2026 2.32178C68.1023 2.21696 68.0522 2.08708 68.0522 1.93213ZM73.9789 10.9146C74.5486 10.9146 75.0248 10.755 75.4076 10.436C75.795 10.1125 76.0046 9.69548 76.0365 9.18506H76.8227C76.7999 9.63623 76.6586 10.0487 76.3988 10.4224C76.1391 10.7915 75.7927 11.0809 75.3598 11.2905C74.9314 11.5002 74.4711 11.605 73.9789 11.605C73.0082 11.605 72.238 11.2677 71.6684 10.5933C71.1033 9.91878 70.8207 9.01188 70.8207 7.87256V7.62646C70.8207 6.8973 70.9483 6.25244 71.2035 5.69189C71.4587 5.13135 71.8233 4.6984 72.2973 4.39307C72.7758 4.08773 73.3341 3.93506 73.9721 3.93506C74.7833 3.93506 75.4509 4.1766 75.975 4.65967C76.5037 5.14274 76.7862 5.77848 76.8227 6.56689H76.0365C76.0001 5.98812 75.7905 5.521 75.4076 5.16553C75.0294 4.81006 74.5509 4.63232 73.9721 4.63232C73.2338 4.63232 72.6596 4.89893 72.2494 5.43213C71.8438 5.96533 71.641 6.71273 71.641 7.67432V7.91357C71.641 8.85693 71.8438 9.59294 72.2494 10.1216C72.6596 10.6502 73.2361 10.9146 73.9789 10.9146ZM80.808 10.2925L82.9682 4.07178H83.85L80.6918 12.7261L80.5278 13.1089C80.1222 14.0067 79.4955 14.4556 78.6479 14.4556C78.4519 14.4556 78.2423 14.4237 78.019 14.3599L78.0121 13.6831L78.436 13.7241C78.837 13.7241 79.1606 13.6239 79.4067 13.4233C79.6573 13.2274 79.8692 12.8879 80.0424 12.4048L80.4047 11.4067L77.6156 4.07178H78.5112L80.808 10.2925Z" fill="white"/>
</svg>
