<svg width="84" height="14" viewBox="0 0 84 14" fill="none" xmlns="http://www.w3.org/2000/svg">
<path d="M0.996826 6.8653V10.919H0.156006V0.965881H3.54663C4.58114 0.965881 5.39689 1.2302 5.9939 1.75885C6.59546 2.2875 6.89624 3.01438 6.89624 3.93951C6.89624 4.87376 6.60685 5.59609 6.02808 6.10651C5.45386 6.61237 4.61987 6.8653 3.52612 6.8653H0.996826ZM0.996826 6.15436H3.54663C4.36239 6.15436 4.98446 5.96067 5.41284 5.5733C5.84123 5.18593 6.05542 4.64589 6.05542 3.95319C6.05542 3.26503 5.84123 2.71816 5.41284 2.31256C4.98901 1.9024 4.38517 1.69277 3.60132 1.68365H0.996826V6.15436Z" fill="#503CEB"/>
<path d="M12.0095 4.21979C11.8363 4.18789 11.6518 4.17194 11.4558 4.17194C10.9454 4.17194 10.5125 4.31549 10.157 4.6026C9.80607 4.88515 9.55542 5.29759 9.40503 5.8399V10.919H8.59155V3.52252H9.39136L9.40503 4.6983C9.83797 3.8233 10.533 3.3858 11.49 3.3858C11.7179 3.3858 11.8979 3.41543 12.03 3.47467L12.0095 4.21979Z" fill="#503CEB"/>
<path d="M14.2244 10.919H13.4041V3.52252H14.2244V10.919ZM13.2605 1.38287C13.2605 1.22793 13.3106 1.09804 13.4109 0.993225C13.5111 0.88385 13.6479 0.829163 13.821 0.829163C13.9942 0.829163 14.1309 0.88385 14.2312 0.993225C14.336 1.09804 14.3884 1.22793 14.3884 1.38287C14.3884 1.53782 14.336 1.6677 14.2312 1.77252C14.1309 1.87734 13.9942 1.92975 13.821 1.92975C13.6479 1.92975 13.5111 1.87734 13.4109 1.77252C13.3106 1.6677 13.2605 1.53782 13.2605 1.38287Z" fill="#503CEB"/>
<path d="M18.7566 9.79108L21.0056 3.52252H21.8464L19.0847 10.919H18.4216L15.6462 3.52252H16.4871L18.7566 9.79108Z" fill="#503CEB"/>
<path d="M27.7527 10.919C27.6707 10.6866 27.6182 10.3425 27.5955 9.88678C27.3083 10.2605 26.9415 10.5499 26.4949 10.7549C26.0528 10.9555 25.5834 11.0557 25.0867 11.0557C24.3757 11.0557 23.7992 10.8575 23.3572 10.461C22.9197 10.0645 22.7009 9.56321 22.7009 8.95709C22.7009 8.23704 22.9994 7.66738 23.5964 7.24811C24.198 6.82884 25.0343 6.6192 26.1052 6.6192H27.5886V5.77838C27.5886 5.24974 27.4246 4.83502 27.0964 4.53424C26.7729 4.2289 26.2989 4.07623 25.6746 4.07623C25.1049 4.07623 24.6332 4.22207 24.2595 4.51373C23.8858 4.8054 23.699 5.15631 23.699 5.56647L22.8787 5.55963C22.8787 4.97174 23.1521 4.4636 23.699 4.03522C24.2458 3.60227 24.9181 3.3858 25.7156 3.3858C26.5404 3.3858 27.1899 3.59316 27.6638 4.00787C28.1423 4.41803 28.3884 4.99225 28.4021 5.73053V9.23053C28.4021 9.94602 28.4773 10.4815 28.6277 10.837V10.919H27.7527ZM25.1824 10.3311C25.7292 10.3311 26.2169 10.199 26.6453 9.93463C27.0782 9.67031 27.3927 9.31712 27.5886 8.87506V7.24811H26.1257C25.31 7.25722 24.672 7.40761 24.2117 7.69928C23.7514 7.98639 23.5212 8.38287 23.5212 8.88873C23.5212 9.30345 23.6739 9.64752 23.9792 9.92096C24.2891 10.1944 24.6902 10.3311 25.1824 10.3311Z" fill="#503CEB"/>
<path d="M33.324 10.3653C33.8936 10.3653 34.3699 10.2058 34.7527 9.88678C35.1401 9.56321 35.3497 9.14622 35.3816 8.6358H36.1677C36.1449 9.08698 36.0037 9.49941 35.7439 9.87311C35.4841 10.2422 35.1378 10.5316 34.7048 10.7413C34.2764 10.9509 33.8162 11.0557 33.324 11.0557C32.3533 11.0557 31.5831 10.7185 31.0134 10.044C30.4483 9.36953 30.1658 8.46263 30.1658 7.3233V7.07721C30.1658 6.34804 30.2934 5.70319 30.5486 5.14264C30.8038 4.58209 31.1684 4.14915 31.6423 3.84381C32.1208 3.53847 32.6791 3.3858 33.3171 3.3858C34.1283 3.3858 34.796 3.62734 35.3201 4.11041C35.8487 4.59349 36.1313 5.22923 36.1677 6.01764H35.3816C35.3451 5.43886 35.1355 4.97174 34.7527 4.61627C34.3744 4.2608 33.8959 4.08307 33.3171 4.08307C32.5789 4.08307 32.0046 4.34967 31.5945 4.88287C31.1889 5.41608 30.9861 6.16347 30.9861 7.12506V7.36432C30.9861 8.30768 31.1889 9.04368 31.5945 9.57233C32.0046 10.101 32.5811 10.3653 33.324 10.3653Z" fill="#503CEB"/>
<path d="M40.1531 9.74323L42.3132 3.52252H43.1951L40.0369 12.1768L39.8728 12.5596C39.4672 13.4574 38.8406 13.9063 37.9929 13.9063C37.797 13.9063 37.5873 13.8744 37.364 13.8106L37.3572 13.1339L37.781 13.1749C38.182 13.1749 38.5056 13.0746 38.7517 12.8741C39.0024 12.6781 39.2143 12.3386 39.3875 11.8555L39.7498 10.8575L36.9607 3.52252H37.8562L40.1531 9.74323Z" fill="#503CEB"/>
<path d="M48.9031 6.8653V10.919H48.0623V0.965881H51.4529C52.4874 0.965881 53.3031 1.2302 53.9001 1.75885C54.5017 2.2875 54.8025 3.01438 54.8025 3.93951C54.8025 4.87376 54.5131 5.59609 53.9343 6.10651C53.3601 6.61237 52.5261 6.8653 51.4324 6.8653H48.9031ZM48.9031 6.15436H51.4529C52.2686 6.15436 52.8907 5.96067 53.3191 5.5733C53.7475 5.18593 53.9617 4.64589 53.9617 3.95319C53.9617 3.26503 53.7475 2.71816 53.3191 2.31256C52.8953 1.9024 52.2914 1.69277 51.5076 1.68365H48.9031V6.15436Z" fill="#503CEB"/>
<path d="M55.9509 7.11139C55.9509 6.40045 56.0876 5.76015 56.3611 5.19049C56.6391 4.62083 57.0287 4.17877 57.53 3.86432C58.0359 3.54531 58.6078 3.3858 59.2458 3.3858C60.2302 3.3858 61.0278 3.73216 61.6384 4.42487C62.2491 5.11302 62.5544 6.02675 62.5544 7.16608V7.33698C62.5544 8.05247 62.4154 8.69733 62.1375 9.27155C61.864 9.84121 61.4766 10.281 60.9753 10.5909C60.474 10.9008 59.9021 11.0557 59.2595 11.0557C58.2797 11.0557 57.4822 10.7116 56.8669 10.0235C56.2563 9.33079 55.9509 8.41477 55.9509 7.27545V7.11139ZM56.7712 7.33698C56.7712 8.22109 56.9991 8.94798 57.4548 9.51764C57.9151 10.0827 58.5167 10.3653 59.2595 10.3653C59.9978 10.3653 60.5948 10.0827 61.0505 9.51764C61.5108 8.94798 61.741 8.1983 61.741 7.26862V7.11139C61.741 6.54628 61.6361 6.02903 61.4265 5.55963C61.2169 5.09023 60.9229 4.72793 60.5447 4.47272C60.1664 4.21295 59.7335 4.08307 59.2458 4.08307C58.5167 4.08307 57.922 4.37018 57.4617 4.9444C57.0014 5.51406 56.7712 6.26145 56.7712 7.18658V7.33698Z" fill="#503CEB"/>
<path d="M65.1658 10.919H64.3455V0.419006H65.1658V10.919Z" fill="#503CEB"/>
<path d="M68.3103 10.919H67.49V3.52252H68.3103V10.919ZM67.3464 1.38287C67.3464 1.22793 67.3966 1.09804 67.4968 0.993225C67.5971 0.88385 67.7338 0.829163 67.907 0.829163C68.0802 0.829163 68.2169 0.88385 68.3171 0.993225C68.422 1.09804 68.4744 1.22793 68.4744 1.38287C68.4744 1.53782 68.422 1.6677 68.3171 1.77252C68.2169 1.87734 68.0802 1.92975 67.907 1.92975C67.7338 1.92975 67.5971 1.87734 67.4968 1.77252C67.3966 1.6677 67.3464 1.53782 67.3464 1.38287Z" fill="#503CEB"/>
<path d="M73.2732 10.3653C73.8429 10.3653 74.3191 10.2058 74.7019 9.88678C75.0893 9.56321 75.2989 9.14622 75.3308 8.6358H76.1169C76.0942 9.08698 75.9529 9.49941 75.6931 9.87311C75.4333 10.2422 75.087 10.5316 74.6541 10.7413C74.2257 10.9509 73.7654 11.0557 73.2732 11.0557C72.3025 11.0557 71.5323 10.7185 70.9626 10.044C70.3975 9.36953 70.115 8.46263 70.115 7.3233V7.07721C70.115 6.34804 70.2426 5.70319 70.4978 5.14264C70.753 4.58209 71.1176 4.14915 71.5916 3.84381C72.0701 3.53847 72.6283 3.3858 73.2664 3.3858C74.0776 3.3858 74.7452 3.62734 75.2693 4.11041C75.7979 4.59349 76.0805 5.22923 76.1169 6.01764H75.3308C75.2944 5.43886 75.0847 4.97174 74.7019 4.61627C74.3236 4.2608 73.8451 4.08307 73.2664 4.08307C72.5281 4.08307 71.9539 4.34967 71.5437 4.88287C71.1381 5.41608 70.9353 6.16347 70.9353 7.12506V7.36432C70.9353 8.30768 71.1381 9.04368 71.5437 9.57233C71.9539 10.101 72.5304 10.3653 73.2732 10.3653Z" fill="#503CEB"/>
<path d="M80.1023 9.74323L82.2625 3.52252H83.1443L79.9861 12.1768L79.822 12.5596C79.4164 13.4574 78.7898 13.9063 77.9421 13.9063C77.7462 13.9063 77.5365 13.8744 77.3132 13.8106L77.3064 13.1339L77.7302 13.1749C78.1313 13.1749 78.4548 13.0746 78.7009 12.8741C78.9516 12.6781 79.1635 12.3386 79.3367 11.8555L79.699 10.8575L76.9099 3.52252H77.8054L80.1023 9.74323Z" fill="#503CEB"/>
</svg>
