<svg width="82" height="12" viewBox="0 0 82 12" fill="none" xmlns="http://www.w3.org/2000/svg">
<path d="M7.76001 2.23291H4.34888V11.4683H3.50806V2.23291H0.10376V1.51514H7.76001V2.23291Z" fill="white"/>
<path d="M11.3625 11.605C10.7336 11.605 10.164 11.45 9.65356 11.1401C9.14771 10.8302 8.7535 10.3996 8.47095 9.84814C8.1884 9.29215 8.04712 8.67008 8.04712 7.98193V7.68799C8.04712 6.97705 8.18384 6.33675 8.45728 5.76709C8.73527 5.19743 9.12036 4.75081 9.61255 4.42725C10.1047 4.09912 10.6379 3.93506 11.2122 3.93506C12.1099 3.93506 12.8209 4.24268 13.345 4.85791C13.8736 5.46859 14.1379 6.30485 14.1379 7.3667V7.82471H8.8606V7.98193C8.8606 8.82048 9.09985 9.52002 9.57837 10.0806C10.0614 10.6366 10.6676 10.9146 11.3967 10.9146C11.8342 10.9146 12.2193 10.8348 12.552 10.6753C12.8892 10.5158 13.1946 10.2606 13.468 9.90967L13.9807 10.2993C13.3792 11.1698 12.5064 11.605 11.3625 11.605ZM11.2122 4.63232C10.5969 4.63232 10.0774 4.85791 9.65356 5.30908C9.23429 5.76025 8.97909 6.36637 8.88794 7.12744H13.3245V7.03857C13.3017 6.32764 13.0989 5.74886 12.7161 5.30225C12.3333 4.85563 11.8319 4.63232 11.2122 4.63232Z" fill="white"/>
<path d="M19.1487 4.76904C18.9755 4.73714 18.7909 4.72119 18.595 4.72119C18.0846 4.72119 17.6516 4.86475 17.2961 5.15186C16.9452 5.43441 16.6946 5.84684 16.5442 6.38916V11.4683H15.7307V4.07178H16.5305L16.5442 5.24756C16.9771 4.37256 17.6721 3.93506 18.6292 3.93506C18.857 3.93506 19.037 3.96468 19.1692 4.02393L19.1487 4.76904Z" fill="white"/>
<path d="M21.1926 4.07178L21.22 5.2749C21.4934 4.82829 21.8352 4.49333 22.2454 4.27002C22.6555 4.04671 23.1112 3.93506 23.6125 3.93506C24.7792 3.93506 25.5198 4.41357 25.8342 5.37061C26.0986 4.91032 26.4517 4.55713 26.8938 4.31104C27.3359 4.06038 27.8235 3.93506 28.3567 3.93506C29.9426 3.93506 30.7515 4.80094 30.7834 6.53271V11.4683H29.9631V6.59424C29.9586 5.93343 29.815 5.44352 29.5325 5.12451C29.2545 4.8055 28.7987 4.646 28.1653 4.646C27.5774 4.65511 27.0806 4.84652 26.675 5.22021C26.2694 5.58936 26.0439 6.04053 25.9983 6.57373V11.4683H25.178V6.53271C25.1734 5.89925 25.023 5.42757 24.7268 5.11768C24.4351 4.80322 23.984 4.646 23.3733 4.646C22.8583 4.646 22.4163 4.79411 22.0471 5.09033C21.678 5.382 21.4045 5.81722 21.2268 6.396V11.4683H20.4065V4.07178H21.1926Z" fill="white"/>
<path d="M37.2913 9.58838C37.2913 9.18278 37.1272 8.85693 36.7991 8.61084C36.4755 8.36475 35.9856 8.17334 35.3293 8.03662C34.6731 7.89535 34.1627 7.73584 33.7981 7.55811C33.4381 7.37581 33.1692 7.15479 32.9915 6.89502C32.8183 6.63525 32.7317 6.3208 32.7317 5.95166C32.7317 5.36833 32.9755 4.88753 33.4631 4.50928C33.9508 4.12646 34.5751 3.93506 35.3362 3.93506C36.1611 3.93506 36.8219 4.14014 37.3186 4.55029C37.8199 4.95589 38.0706 5.48682 38.0706 6.14307H37.2502C37.2502 5.71012 37.068 5.3501 36.7034 5.06299C36.3433 4.77588 35.8876 4.63232 35.3362 4.63232C34.7984 4.63232 34.3655 4.75309 34.0374 4.99463C33.7138 5.23161 33.552 5.5415 33.552 5.92432C33.552 6.29346 33.6864 6.58057 33.9553 6.78564C34.2288 6.98617 34.7232 7.17074 35.4387 7.33936C36.1588 7.50798 36.6965 7.68799 37.052 7.87939C37.412 8.0708 37.6786 8.30094 37.8518 8.56982C38.025 8.8387 38.1116 9.16455 38.1116 9.54736C38.1116 10.1717 37.8586 10.6707 37.3528 11.0444C36.8515 11.4181 36.1952 11.605 35.384 11.605C34.5227 11.605 33.8232 11.3976 33.2854 10.9829C32.7522 10.5636 32.4856 10.035 32.4856 9.39697H33.3059C33.3378 9.87549 33.5383 10.2492 33.9075 10.5181C34.2812 10.7824 34.7734 10.9146 35.384 10.9146C35.9537 10.9146 36.414 10.7892 36.7649 10.5386C37.1158 10.2879 37.2913 9.97119 37.2913 9.58838Z" fill="white"/>
<path d="M42.9104 7.66064C42.9104 6.94971 43.0471 6.30941 43.3206 5.73975C43.5986 5.17008 43.9882 4.72803 44.4895 4.41357C44.9954 4.09456 45.5673 3.93506 46.2053 3.93506C47.1897 3.93506 47.9872 4.28141 48.5979 4.97412C49.2086 5.66227 49.5139 6.57601 49.5139 7.71533V7.88623C49.5139 8.60173 49.3749 9.24658 49.0969 9.8208C48.8235 10.3905 48.4361 10.8302 47.9348 11.1401C47.4335 11.45 46.8616 11.605 46.219 11.605C45.2392 11.605 44.4417 11.2609 43.8264 10.5728C43.2157 9.88005 42.9104 8.96403 42.9104 7.82471V7.66064ZM43.7307 7.88623C43.7307 8.77035 43.9586 9.49723 44.4143 10.0669C44.8746 10.632 45.4762 10.9146 46.219 10.9146C46.9573 10.9146 47.5543 10.632 48.01 10.0669C48.4703 9.49723 48.7004 8.74756 48.7004 7.81787V7.66064C48.7004 7.09554 48.5956 6.57829 48.386 6.10889C48.1764 5.63949 47.8824 5.27718 47.5042 5.02197C47.1259 4.76221 46.693 4.63232 46.2053 4.63232C45.4762 4.63232 44.8814 4.91943 44.4211 5.49365C43.9609 6.06331 43.7307 6.81071 43.7307 7.73584V7.88623Z" fill="white"/>
<path d="M51.7971 11.4683V4.7417H50.5735V4.07178H51.7971V3.17627C51.7971 2.41976 51.9885 1.8387 52.3713 1.43311C52.7587 1.02751 53.2965 0.824707 53.9846 0.824707C54.2945 0.824707 54.5839 0.863444 54.8528 0.940918L54.7913 1.62451C54.5634 1.56982 54.315 1.54248 54.0461 1.54248C53.595 1.54248 53.2441 1.68376 52.9934 1.96631C52.7428 2.2443 52.6174 2.64079 52.6174 3.15576V4.07178H54.3811V4.7417H52.6174V11.4683H51.7971Z" fill="white"/>
<path d="M66.2961 1.51514V8.31006C66.2916 8.97998 66.1435 9.56331 65.8518 10.0601C65.5601 10.5568 65.1477 10.9396 64.6145 11.2085C64.0859 11.4728 63.4775 11.605 62.7893 11.605C61.7411 11.605 60.9003 11.3201 60.2668 10.7505C59.6379 10.1763 59.3121 9.3833 59.2893 8.37158V1.51514H60.1233V8.24854C60.1233 9.08708 60.3625 9.73877 60.8411 10.2036C61.3196 10.6639 61.969 10.894 62.7893 10.894C63.6096 10.894 64.2568 10.6616 64.7307 10.1968C65.2092 9.73193 65.4485 9.0848 65.4485 8.25537V1.51514H66.2961Z" fill="white"/>
<path d="M72.8792 9.58838C72.8792 9.18278 72.7151 8.85693 72.387 8.61084C72.0634 8.36475 71.5735 8.17334 70.9172 8.03662C70.261 7.89535 69.7506 7.73584 69.386 7.55811C69.026 7.37581 68.7571 7.15479 68.5793 6.89502C68.4062 6.63525 68.3196 6.3208 68.3196 5.95166C68.3196 5.36833 68.5634 4.88753 69.051 4.50928C69.5387 4.12646 70.163 3.93506 70.9241 3.93506C71.7489 3.93506 72.4097 4.14014 72.9065 4.55029C73.4078 4.95589 73.6584 5.48682 73.6584 6.14307H72.8381C72.8381 5.71012 72.6558 5.3501 72.2913 5.06299C71.9312 4.77588 71.4755 4.63232 70.9241 4.63232C70.3863 4.63232 69.9534 4.75309 69.6252 4.99463C69.3017 5.23161 69.1399 5.5415 69.1399 5.92432C69.1399 6.29346 69.2743 6.58057 69.5432 6.78564C69.8167 6.98617 70.3111 7.17074 71.0266 7.33936C71.7467 7.50798 72.2844 7.68799 72.6399 7.87939C72.9999 8.0708 73.2665 8.30094 73.4397 8.56982C73.6129 8.8387 73.6995 9.16455 73.6995 9.54736C73.6995 10.1717 73.4465 10.6707 72.9407 11.0444C72.4394 11.4181 71.7831 11.605 70.9719 11.605C70.1106 11.605 69.4111 11.3976 68.8733 10.9829C68.3401 10.5636 68.0735 10.035 68.0735 9.39697H68.8938C68.9257 9.87549 69.1262 10.2492 69.4954 10.5181C69.8691 10.7824 70.3612 10.9146 70.9719 10.9146C71.5416 10.9146 72.0019 10.7892 72.3528 10.5386C72.7037 10.2879 72.8792 9.97119 72.8792 9.58838Z" fill="white"/>
<path d="M78.4094 11.605C77.7805 11.605 77.2109 11.45 76.7004 11.1401C76.1946 10.8302 75.8004 10.3996 75.5178 9.84814C75.2353 9.29215 75.094 8.67008 75.094 7.98193V7.68799C75.094 6.97705 75.2307 6.33675 75.5042 5.76709C75.7821 5.19743 76.1672 4.75081 76.6594 4.42725C77.1516 4.09912 77.6848 3.93506 78.259 3.93506C79.1568 3.93506 79.8678 4.24268 80.3918 4.85791C80.9205 5.46859 81.1848 6.30485 81.1848 7.3667V7.82471H75.9075V7.98193C75.9075 8.82048 76.1467 9.52002 76.6252 10.0806C77.1083 10.6366 77.7144 10.9146 78.4436 10.9146C78.8811 10.9146 79.2662 10.8348 79.5989 10.6753C79.9361 10.5158 80.2415 10.2606 80.5149 9.90967L81.0276 10.2993C80.426 11.1698 79.5533 11.605 78.4094 11.605ZM78.259 4.63232C77.6438 4.63232 77.1243 4.85791 76.7004 5.30908C76.2812 5.76025 76.026 6.36637 75.9348 7.12744H80.3713V7.03857C80.3486 6.32764 80.1458 5.74886 79.7629 5.30225C79.3801 4.85563 78.8788 4.63232 78.259 4.63232Z" fill="white"/>
</svg>
