<svg width="173" height="78" viewBox="0 0 173 78" fill="none" xmlns="http://www.w3.org/2000/svg">
<path d="M67.427 20.5459L71.2551 0.311523H77.095L70.7864 28.749H64.8879L60.259 9.72559L55.6301 28.749H49.7317L43.4231 0.311523H49.2629L53.1106 20.5068L57.7981 0.311523H62.759L67.427 20.5459Z" fill="white"/>
<path d="M103.423 28.749H97.5637V16.5615H86.1379V28.749H80.2786V0.311523H86.1379V11.835H97.5637V0.311523H103.423V28.749Z" fill="white"/>
<path d="M117.818 13.124L123.736 0.311523H130.142L120.806 18.4365V28.749H114.849V18.4365L105.513 0.311523H111.939L117.818 13.124Z" fill="white"/>
<path d="M15.9622 69.2881C15.9622 68.1813 15.5715 67.335 14.7903 66.749C14.009 66.1501 12.6028 65.5251 10.5715 64.874C8.54028 64.21 6.93221 63.5589 5.74731 62.9209C2.51815 61.1761 0.903564 58.8258 0.903564 55.8701C0.903564 54.3337 1.33325 52.9665 2.19263 51.7686C3.06502 50.5576 4.30851 49.6136 5.9231 48.9365C7.5507 48.2594 9.37362 47.9209 11.3918 47.9209C13.4231 47.9209 15.233 48.292 16.8215 49.0342C18.4101 49.7633 19.6405 50.7985 20.5129 52.1396C21.3984 53.4808 21.8411 55.0042 21.8411 56.71H15.9817C15.9817 55.4079 15.5715 54.3988 14.7512 53.6826C13.9309 52.9535 12.7786 52.5889 11.2942 52.5889C9.8619 52.5889 8.74862 52.8949 7.95435 53.5068C7.16007 54.1058 6.76294 54.9001 6.76294 55.8896C6.76294 56.8141 7.22518 57.5889 8.14966 58.2139C9.08716 58.8389 10.4609 59.4248 12.2708 59.9717C15.6041 60.9743 18.0325 62.2178 19.5559 63.7021C21.0793 65.1865 21.8411 67.0355 21.8411 69.249C21.8411 71.71 20.9101 73.6436 19.0481 75.0498C17.1861 76.443 14.6796 77.1396 11.5286 77.1396C9.34106 77.1396 7.34888 76.7425 5.552 75.9482C3.75513 75.141 2.38143 74.0407 1.43091 72.6475C0.493408 71.2542 0.0246582 69.6396 0.0246582 67.8037H5.90356C5.90356 70.9417 7.77856 72.5107 11.5286 72.5107C12.9218 72.5107 14.009 72.2308 14.7903 71.6709C15.5715 71.098 15.9622 70.3037 15.9622 69.2881Z" fill="white"/>
<path d="M48.97 76.749H43.1106V64.5615H31.6848V76.749H25.8254V48.3115H31.6848V59.835H43.1106V48.3115H48.97V76.749Z" fill="white"/>
<path d="M77.4661 63.1748C77.4661 65.9743 76.9713 68.4287 75.9817 70.5381C74.9921 72.6475 73.5728 74.2751 71.7239 75.4209C69.8879 76.5667 67.7786 77.1396 65.3958 77.1396C63.039 77.1396 60.9361 76.5732 59.0872 75.4404C57.2382 74.3076 55.8059 72.693 54.7903 70.5967C53.7747 68.4873 53.2603 66.0654 53.2473 63.3311V61.9248C53.2473 59.1253 53.7486 56.6644 54.7512 54.542C55.7668 52.4066 57.1926 50.7725 59.0286 49.6396C60.8775 48.4938 62.9869 47.9209 65.3567 47.9209C67.7265 47.9209 69.8293 48.4938 71.6653 49.6396C73.5142 50.7725 74.94 52.4066 75.9426 54.542C76.9583 56.6644 77.4661 59.1188 77.4661 61.9053V63.1748ZM71.5286 61.8857C71.5286 58.904 70.9947 56.6383 69.927 55.0889C68.8593 53.5394 67.3359 52.7646 65.3567 52.7646C63.3905 52.7646 61.8736 53.5329 60.8059 55.0693C59.7382 56.5928 59.1978 58.8324 59.1848 61.7881V63.1748C59.1848 66.0785 59.7187 68.3311 60.7864 69.9326C61.8541 71.5342 63.3905 72.335 65.3958 72.335C67.3619 72.335 68.8723 71.5667 69.927 70.0303C70.9817 68.4808 71.5155 66.2282 71.5286 63.2725V61.8857Z" fill="white"/>
<path d="M87.5833 66.7295V76.749H81.7239V48.3115H92.8176C94.953 48.3115 96.828 48.7021 98.4426 49.4834C100.07 50.2646 101.32 51.3779 102.193 52.8232C103.065 54.2555 103.501 55.8896 103.501 57.7256C103.501 60.512 102.544 62.7126 100.63 64.3271C98.7291 65.9287 96.0924 66.7295 92.72 66.7295H87.5833ZM87.5833 61.9834H92.8176C94.3671 61.9834 95.5455 61.6188 96.3528 60.8896C97.1731 60.1605 97.5833 59.1188 97.5833 57.7646C97.5833 56.3714 97.1731 55.2451 96.3528 54.3857C95.5325 53.5264 94.3997 53.0837 92.9543 53.0576H87.5833V61.9834Z" fill="white"/>
<path d="M122.29 69.2881C122.29 68.1813 121.9 67.335 121.118 66.749C120.337 66.1501 118.931 65.5251 116.9 64.874C114.868 64.21 113.26 63.5589 112.075 62.9209C108.846 61.1761 107.232 58.8258 107.232 55.8701C107.232 54.3337 107.661 52.9665 108.521 51.7686C109.393 50.5576 110.637 49.6136 112.251 48.9365C113.879 48.2594 115.702 47.9209 117.72 47.9209C119.751 47.9209 121.561 48.292 123.15 49.0342C124.738 49.7633 125.969 50.7985 126.841 52.1396C127.726 53.4808 128.169 55.0042 128.169 56.71H122.31C122.31 55.4079 121.9 54.3988 121.079 53.6826C120.259 52.9535 119.107 52.5889 117.622 52.5889C116.19 52.5889 115.077 52.8949 114.282 53.5068C113.488 54.1058 113.091 54.9001 113.091 55.8896C113.091 56.8141 113.553 57.5889 114.478 58.2139C115.415 58.8389 116.789 59.4248 118.599 59.9717C121.932 60.9743 124.361 62.2178 125.884 63.7021C127.407 65.1865 128.169 67.0355 128.169 69.249C128.169 71.71 127.238 73.6436 125.376 75.0498C123.514 76.443 121.008 77.1396 117.857 77.1396C115.669 77.1396 113.677 76.7425 111.88 75.9482C110.083 75.141 108.71 74.0407 107.759 72.6475C106.822 71.2542 106.353 69.6396 106.353 67.8037H112.232C112.232 70.9417 114.107 72.5107 117.857 72.5107C119.25 72.5107 120.337 72.2308 121.118 71.6709C121.9 71.098 122.29 70.3037 122.29 69.2881Z" fill="white"/>
<path d="M141.958 61.124L147.876 48.3115H154.282L144.947 66.4365V76.749H138.99V66.4365L129.654 48.3115H136.079L141.958 61.124Z" fill="white"/>
<path d="M161.118 68.0186C161.118 66.1956 161.34 64.7438 161.782 63.6631C162.225 62.5824 163.032 61.5212 164.204 60.4795C165.389 59.4248 166.177 58.5719 166.568 57.9209C166.958 57.2568 167.154 56.5602 167.154 55.8311C167.154 53.6305 166.138 52.5303 164.107 52.5303C163.143 52.5303 162.368 52.8298 161.782 53.4287C161.21 54.0146 160.91 54.8285 160.884 55.8701H155.22C155.246 53.3831 156.047 51.4365 157.622 50.0303C159.211 48.624 161.372 47.9209 164.107 47.9209C166.867 47.9209 169.009 48.5915 170.532 49.9326C172.056 51.2607 172.818 53.1423 172.818 55.5771C172.818 56.6839 172.57 57.7321 172.075 58.7217C171.581 59.6982 170.715 60.7855 169.478 61.9834L167.896 63.4873C166.906 64.4378 166.34 65.5511 166.197 66.8271L166.118 68.0186H161.118ZM160.552 74.0146C160.552 73.1423 160.845 72.4261 161.431 71.8662C162.03 71.2933 162.792 71.0068 163.716 71.0068C164.641 71.0068 165.396 71.2933 165.982 71.8662C166.581 72.4261 166.88 73.1423 166.88 74.0146C166.88 74.874 166.587 75.5837 166.001 76.1436C165.428 76.7035 164.667 76.9834 163.716 76.9834C162.766 76.9834 161.997 76.7035 161.411 76.1436C160.838 75.5837 160.552 74.874 160.552 74.0146Z" fill="white"/>
</svg>
