<svg width="82" height="12" viewBox="0 0 82 12" fill="none" xmlns="http://www.w3.org/2000/svg">
<path d="M8.01172 1.68365H4.60059V10.919H3.75977V1.68365H0.355469V0.965881H8.01172V1.68365Z" fill="#503CEB"/>
<path d="M11.6143 11.0557C10.9854 11.0557 10.4157 10.9008 9.90527 10.5909C9.39941 10.281 9.00521 9.85032 8.72266 9.29889C8.4401 8.7429 8.29883 8.12083 8.29883 7.43268V7.13873C8.29883 6.4278 8.43555 5.7875 8.70898 5.21783C8.98698 4.64817 9.37207 4.20156 9.86426 3.87799C10.3564 3.54987 10.8896 3.3858 11.4639 3.3858C12.3617 3.3858 13.0726 3.69342 13.5967 4.30865C14.1253 4.91933 14.3896 5.75559 14.3896 6.81744V7.27545H9.1123V7.43268C9.1123 8.27122 9.35156 8.97076 9.83008 9.53131C10.3132 10.0873 10.9193 10.3653 11.6484 10.3653C12.0859 10.3653 12.471 10.2855 12.8037 10.126C13.141 9.96653 13.4463 9.71132 13.7197 9.36041L14.2324 9.75006C13.6309 10.6205 12.7581 11.0557 11.6143 11.0557ZM11.4639 4.08307C10.8486 4.08307 10.3291 4.30865 9.90527 4.75983C9.486 5.211 9.23079 5.81712 9.13965 6.57819H13.5762V6.48932C13.5534 5.77838 13.3506 5.19961 12.9678 4.75299C12.585 4.30638 12.0837 4.08307 11.4639 4.08307Z" fill="#503CEB"/>
<path d="M19.4004 4.21979C19.2272 4.18789 19.0426 4.17194 18.8467 4.17194C18.3363 4.17194 17.9033 4.31549 17.5479 4.6026C17.1969 4.88515 16.9463 5.29759 16.7959 5.8399V10.919H15.9824V3.52252H16.7822L16.7959 4.6983C17.2288 3.8233 17.9238 3.3858 18.8809 3.3858C19.1087 3.3858 19.2887 3.41543 19.4209 3.47467L19.4004 4.21979Z" fill="#503CEB"/>
<path d="M21.4443 3.52252L21.4717 4.72565C21.7451 4.27903 22.0869 3.94407 22.4971 3.72076C22.9072 3.49746 23.363 3.3858 23.8643 3.3858C25.0309 3.3858 25.7715 3.86432 26.0859 4.82135C26.3503 4.36106 26.7035 4.00787 27.1455 3.76178C27.5876 3.51113 28.0752 3.3858 28.6084 3.3858C30.1943 3.3858 31.0033 4.25169 31.0352 5.98346V10.919H30.2148V6.04498C30.2103 5.38418 30.0667 4.89427 29.7842 4.57526C29.5062 4.25625 29.0505 4.09674 28.417 4.09674C27.8291 4.10586 27.3324 4.29726 26.9268 4.67096C26.5212 5.0401 26.2956 5.49127 26.25 6.02448V10.919H25.4297V5.98346C25.4251 5.35 25.2747 4.87832 24.9785 4.56842C24.6868 4.25397 24.2357 4.09674 23.625 4.09674C23.11 4.09674 22.668 4.24485 22.2988 4.54108C21.9297 4.83274 21.6562 5.26796 21.4785 5.84674V10.919H20.6582V3.52252H21.4443Z" fill="#503CEB"/>
<path d="M37.543 9.03912C37.543 8.63352 37.3789 8.30768 37.0508 8.06158C36.7272 7.81549 36.2373 7.62408 35.5811 7.48737C34.9248 7.34609 34.4144 7.18658 34.0498 7.00885C33.6898 6.82656 33.4209 6.60553 33.2432 6.34576C33.07 6.086 32.9834 5.77155 32.9834 5.4024C32.9834 4.81907 33.2272 4.33828 33.7148 3.96002C34.2025 3.57721 34.8268 3.3858 35.5879 3.3858C36.4128 3.3858 37.0736 3.59088 37.5703 4.00104C38.0716 4.40664 38.3223 4.93756 38.3223 5.59381H37.502C37.502 5.16087 37.3197 4.80084 36.9551 4.51373C36.5951 4.22662 36.1393 4.08307 35.5879 4.08307C35.0501 4.08307 34.6172 4.20384 34.2891 4.44537C33.9655 4.68235 33.8037 4.99225 33.8037 5.37506C33.8037 5.7442 33.9382 6.03131 34.207 6.23639C34.4805 6.43691 34.9749 6.62148 35.6904 6.7901C36.4105 6.95872 36.9482 7.13873 37.3037 7.33014C37.6637 7.52155 37.9303 7.75169 38.1035 8.02057C38.2767 8.28945 38.3633 8.6153 38.3633 8.99811C38.3633 9.62246 38.1104 10.1215 37.6045 10.4952C37.1032 10.8689 36.4469 11.0557 35.6357 11.0557C34.7744 11.0557 34.0749 10.8484 33.5371 10.4337C33.0039 10.0144 32.7373 9.48574 32.7373 8.84772H33.5576C33.5895 9.32623 33.79 9.69993 34.1592 9.96881C34.5329 10.2331 35.0251 10.3653 35.6357 10.3653C36.2054 10.3653 36.6657 10.24 37.0166 9.98932C37.3675 9.73867 37.543 9.42194 37.543 9.03912Z" fill="#503CEB"/>
<path d="M43.1621 7.11139C43.1621 6.40045 43.2988 5.76015 43.5723 5.19049C43.8503 4.62083 44.2399 4.17877 44.7412 3.86432C45.2471 3.54531 45.819 3.3858 46.457 3.3858C47.4414 3.3858 48.2389 3.73216 48.8496 4.42487C49.4603 5.11302 49.7656 6.02675 49.7656 7.16608V7.33698C49.7656 8.05247 49.6266 8.69733 49.3486 9.27155C49.0752 9.84121 48.6878 10.281 48.1865 10.5909C47.6852 10.9008 47.1133 11.0557 46.4707 11.0557C45.4909 11.0557 44.6934 10.7116 44.0781 10.0235C43.4674 9.33079 43.1621 8.41477 43.1621 7.27545V7.11139ZM43.9824 7.33698C43.9824 8.22109 44.2103 8.94798 44.666 9.51764C45.1263 10.0827 45.7279 10.3653 46.4707 10.3653C47.209 10.3653 47.806 10.0827 48.2617 9.51764C48.722 8.94798 48.9521 8.1983 48.9521 7.26862V7.11139C48.9521 6.54628 48.8473 6.02903 48.6377 5.55963C48.4281 5.09023 48.1341 4.72793 47.7559 4.47272C47.3776 4.21295 46.9447 4.08307 46.457 4.08307C45.7279 4.08307 45.1331 4.37018 44.6729 4.9444C44.2126 5.51406 43.9824 6.26145 43.9824 7.18658V7.33698Z" fill="#503CEB"/>
<path d="M52.0488 10.919V4.19244H50.8252V3.52252H52.0488V2.62701C52.0488 1.8705 52.2402 1.28945 52.623 0.88385C53.0104 0.478251 53.5482 0.275452 54.2363 0.275452C54.5462 0.275452 54.8356 0.314189 55.1045 0.391663L55.043 1.07526C54.8151 1.02057 54.5667 0.993225 54.2979 0.993225C53.8467 0.993225 53.4958 1.1345 53.2451 1.41705C52.9945 1.69505 52.8691 2.09153 52.8691 2.60651V3.52252H54.6328V4.19244H52.8691V10.919H52.0488Z" fill="#503CEB"/>
<path d="M66.5479 0.965881V7.7608C66.5433 8.43073 66.3952 9.01406 66.1035 9.5108C65.8118 10.0075 65.3994 10.3904 64.8662 10.6592C64.3376 10.9236 63.7292 11.0557 63.041 11.0557C61.9928 11.0557 61.152 10.7709 60.5186 10.2012C59.8896 9.62701 59.5638 8.83405 59.541 7.82233V0.965881H60.375V7.69928C60.375 8.53782 60.6143 9.18951 61.0928 9.65436C61.5713 10.1146 62.2207 10.3448 63.041 10.3448C63.8613 10.3448 64.5085 10.1124 64.9824 9.64752C65.4609 9.18268 65.7002 8.53554 65.7002 7.70612V0.965881H66.5479Z" fill="#503CEB"/>
<path d="M73.1309 9.03912C73.1309 8.63352 72.9668 8.30768 72.6387 8.06158C72.3151 7.81549 71.8252 7.62408 71.1689 7.48737C70.5127 7.34609 70.0023 7.18658 69.6377 7.00885C69.2777 6.82656 69.0088 6.60553 68.8311 6.34576C68.6579 6.086 68.5713 5.77155 68.5713 5.4024C68.5713 4.81907 68.8151 4.33828 69.3027 3.96002C69.7904 3.57721 70.4147 3.3858 71.1758 3.3858C72.0007 3.3858 72.6615 3.59088 73.1582 4.00104C73.6595 4.40664 73.9102 4.93756 73.9102 5.59381H73.0898C73.0898 5.16087 72.9076 4.80084 72.543 4.51373C72.1829 4.22662 71.7272 4.08307 71.1758 4.08307C70.638 4.08307 70.2051 4.20384 69.877 4.44537C69.5534 4.68235 69.3916 4.99225 69.3916 5.37506C69.3916 5.7442 69.526 6.03131 69.7949 6.23639C70.0684 6.43691 70.5628 6.62148 71.2783 6.7901C71.9984 6.95872 72.5361 7.13873 72.8916 7.33014C73.2516 7.52155 73.5182 7.75169 73.6914 8.02057C73.8646 8.28945 73.9512 8.6153 73.9512 8.99811C73.9512 9.62246 73.6982 10.1215 73.1924 10.4952C72.6911 10.8689 72.0348 11.0557 71.2236 11.0557C70.3623 11.0557 69.6628 10.8484 69.125 10.4337C68.5918 10.0144 68.3252 9.48574 68.3252 8.84772H69.1455C69.1774 9.32623 69.3779 9.69993 69.7471 9.96881C70.1208 10.2331 70.613 10.3653 71.2236 10.3653C71.7933 10.3653 72.2536 10.24 72.6045 9.98932C72.9554 9.73867 73.1309 9.42194 73.1309 9.03912Z" fill="#503CEB"/>
<path d="M78.6611 11.0557C78.0322 11.0557 77.4626 10.9008 76.9521 10.5909C76.4463 10.281 76.0521 9.85032 75.7695 9.29889C75.487 8.7429 75.3457 8.12083 75.3457 7.43268V7.13873C75.3457 6.4278 75.4824 5.7875 75.7559 5.21783C76.0339 4.64817 76.4189 4.20156 76.9111 3.87799C77.4033 3.54987 77.9365 3.3858 78.5107 3.3858C79.4085 3.3858 80.1195 3.69342 80.6436 4.30865C81.1722 4.91933 81.4365 5.75559 81.4365 6.81744V7.27545H76.1592V7.43268C76.1592 8.27122 76.3984 8.97076 76.877 9.53131C77.36 10.0873 77.9661 10.3653 78.6953 10.3653C79.1328 10.3653 79.5179 10.2855 79.8506 10.126C80.1878 9.96653 80.4932 9.71132 80.7666 9.36041L81.2793 9.75006C80.6777 10.6205 79.805 11.0557 78.6611 11.0557ZM78.5107 4.08307C77.8955 4.08307 77.376 4.30865 76.9521 4.75983C76.5329 5.211 76.2777 5.81712 76.1865 6.57819H80.623V6.48932C80.6003 5.77838 80.3975 5.19961 80.0146 4.75299C79.6318 4.30638 79.1305 4.08307 78.5107 4.08307Z" fill="#503CEB"/>
</svg>
