<svg width="274" height="119" viewBox="0 0 274 119" fill="none" xmlns="http://www.w3.org/2000/svg">
<path d="M46.125 21.8589C46.125 21.4526 46.0625 21.0881 45.9375 20.7651C45.8229 20.4318 45.6042 20.1297 45.2813 19.8589C44.9584 19.5776 44.5052 19.3016 43.9219 19.0308C43.3386 18.7599 42.5834 18.4787 41.6563 18.187C40.625 17.8537 39.6459 17.4787 38.7188 17.062C37.8021 16.6453 36.9896 16.161 36.2813 15.6089C35.5834 15.0464 35.0313 14.3953 34.625 13.6558C34.2292 12.9162 34.0313 12.0568 34.0313 11.0776C34.0313 10.1297 34.2396 9.27035 34.6563 8.49951C35.0729 7.71826 35.6563 7.0516 36.4063 6.49951C37.1563 5.93701 38.0417 5.50472 39.0625 5.20264C40.0938 4.90055 41.224 4.74951 42.4532 4.74951C44.1302 4.74951 45.5938 5.0516 46.8438 5.65576C48.0938 6.25993 49.0625 7.08805 49.75 8.14014C50.4479 9.19222 50.7969 10.3953 50.7969 11.7495H46.1407C46.1407 11.0828 46 10.4995 45.7188 9.99951C45.4479 9.4891 45.0313 9.08805 44.4688 8.79639C43.9167 8.50472 43.2188 8.35889 42.375 8.35889C41.5625 8.35889 40.8854 8.48389 40.3438 8.73389C39.8021 8.97347 39.3959 9.3016 39.125 9.71826C38.8542 10.1245 38.7188 10.5828 38.7188 11.0933C38.7188 11.4787 38.8125 11.8276 39 12.1401C39.1979 12.4526 39.4896 12.7443 39.875 13.0151C40.2604 13.286 40.7344 13.5412 41.2969 13.7808C41.8594 14.0203 42.5104 14.2547 43.25 14.4839C44.4896 14.8589 45.5782 15.2808 46.5157 15.7495C47.4636 16.2183 48.2552 16.7443 48.8907 17.3276C49.5261 17.911 50.0052 18.5724 50.3282 19.312C50.6511 20.0516 50.8125 20.8901 50.8125 21.8276C50.8125 22.8172 50.6198 23.7026 50.2344 24.4839C49.849 25.2651 49.2917 25.9266 48.5625 26.4683C47.8334 27.0099 46.9636 27.4214 45.9532 27.7026C44.9427 27.9839 43.8125 28.1245 42.5625 28.1245C41.4375 28.1245 40.3282 27.9787 39.2344 27.687C38.1407 27.3849 37.1459 26.9318 36.25 26.3276C35.3646 25.7235 34.6563 24.9526 34.125 24.0151C33.5938 23.0776 33.3282 21.9683 33.3282 20.687H38.0313C38.0313 21.3953 38.1407 21.9943 38.3594 22.4839C38.5782 22.9735 38.8854 23.3693 39.2813 23.6714C39.6875 23.9735 40.1667 24.1922 40.7188 24.3276C41.2813 24.4631 41.8959 24.5308 42.5625 24.5308C43.375 24.5308 44.0417 24.4162 44.5625 24.187C45.0938 23.9578 45.4844 23.6401 45.7344 23.2339C45.9948 22.8276 46.125 22.3693 46.125 21.8589ZM62 10.9058V14.0933H52.1563V10.9058H62ZM54.5938 6.73389H59.0938V22.7183C59.0938 23.2078 59.1563 23.5828 59.2813 23.8433C59.4167 24.1037 59.6146 24.286 59.875 24.3901C60.1354 24.4839 60.4636 24.5308 60.8594 24.5308C61.1407 24.5308 61.3907 24.5203 61.6094 24.4995C61.8386 24.4683 62.0313 24.437 62.1875 24.4058L62.2032 27.7183C61.8177 27.8433 61.4011 27.9422 60.9532 28.0151C60.5052 28.0881 60.0104 28.1245 59.4688 28.1245C58.4792 28.1245 57.6146 27.9631 56.875 27.6401C56.1459 27.3068 55.5834 26.7756 55.1875 26.0464C54.7917 25.3172 54.5938 24.3589 54.5938 23.1714V6.73389ZM72.3438 28.1245C71.0313 28.1245 69.8542 27.9162 68.8125 27.4995C67.7709 27.0724 66.8854 26.4839 66.1563 25.7339C65.4375 24.9839 64.8854 24.1141 64.5 23.1245C64.1146 22.1245 63.9219 21.062 63.9219 19.937V19.312C63.9219 18.0308 64.1042 16.8589 64.4688 15.7964C64.8334 14.7339 65.3542 13.812 66.0313 13.0308C66.7188 12.2495 67.5521 11.6506 68.5313 11.2339C69.5104 10.8068 70.6146 10.5933 71.8438 10.5933C73.0417 10.5933 74.1042 10.7912 75.0313 11.187C75.9584 11.5828 76.7344 12.1453 77.3594 12.8745C77.9948 13.6037 78.474 14.4787 78.7969 15.4995C79.1198 16.5099 79.2813 17.6349 79.2813 18.8745V20.7495H65.8438V17.7495H74.8594V17.4058C74.8594 16.7808 74.7448 16.2235 74.5157 15.7339C74.2969 15.2339 73.9636 14.8381 73.5157 14.5464C73.0677 14.2547 72.4948 14.1089 71.7969 14.1089C71.2032 14.1089 70.6927 14.2391 70.2657 14.4995C69.8386 14.7599 69.4896 15.1245 69.2188 15.5933C68.9584 16.062 68.7604 16.6141 68.625 17.2495C68.5 17.8745 68.4375 18.562 68.4375 19.312V19.937C68.4375 20.6141 68.5313 21.2391 68.7188 21.812C68.9167 22.3849 69.1927 22.8797 69.5469 23.2964C69.9115 23.7131 70.349 24.036 70.8594 24.2651C71.3802 24.4943 71.9688 24.6089 72.625 24.6089C73.4375 24.6089 74.1927 24.4526 74.8907 24.1401C75.599 23.8172 76.2084 23.3328 76.7188 22.687L78.9063 25.062C78.5521 25.5724 78.0677 26.062 77.4532 26.5308C76.849 26.9995 76.1198 27.3849 75.2657 27.687C74.4115 27.9787 73.4375 28.1245 72.3438 28.1245ZM90.9688 23.9995V16.4683C90.9688 15.9266 90.8802 15.4631 90.7032 15.0776C90.5261 14.6818 90.25 14.3745 89.875 14.1558C89.5104 13.937 89.0365 13.8276 88.4532 13.8276C87.9532 13.8276 87.5209 13.9162 87.1563 14.0933C86.7917 14.2599 86.5104 14.5047 86.3125 14.8276C86.1146 15.1401 86.0157 15.5099 86.0157 15.937H81.5157C81.5157 15.2183 81.6823 14.536 82.0157 13.8901C82.349 13.2443 82.8334 12.6766 83.4688 12.187C84.1042 11.687 84.8594 11.2964 85.7344 11.0151C86.6198 10.7339 87.6094 10.5933 88.7032 10.5933C90.0157 10.5933 91.1823 10.812 92.2032 11.2495C93.224 11.687 94.0261 12.3433 94.6094 13.2183C95.2032 14.0933 95.5 15.187 95.5 16.4995V23.7339C95.5 24.661 95.5573 25.4214 95.6719 26.0151C95.7865 26.5985 95.9532 27.1089 96.1719 27.5464V27.812H91.625C91.4063 27.3537 91.2396 26.7808 91.125 26.0933C91.0209 25.3953 90.9688 24.6974 90.9688 23.9995ZM91.5625 17.5151L91.5938 20.062H89.0782C88.4844 20.062 87.9688 20.1297 87.5313 20.2651C87.0938 20.4006 86.7344 20.5933 86.4532 20.8433C86.1719 21.0828 85.9636 21.3641 85.8282 21.687C85.7032 22.0099 85.6407 22.3641 85.6407 22.7495C85.6407 23.1349 85.7292 23.4839 85.9063 23.7964C86.0834 24.0985 86.3386 24.3381 86.6719 24.5151C87.0052 24.6818 87.3959 24.7651 87.8438 24.7651C88.5209 24.7651 89.1094 24.6297 89.6094 24.3589C90.1094 24.0881 90.4948 23.7547 90.7657 23.3589C91.0469 22.9631 91.1927 22.5881 91.2032 22.2339L92.3907 24.1401C92.224 24.5672 91.9948 25.0099 91.7032 25.4683C91.4219 25.9266 91.0625 26.3589 90.625 26.7651C90.1875 27.161 89.6615 27.4891 89.0469 27.7495C88.4323 27.9995 87.7032 28.1245 86.8594 28.1245C85.7865 28.1245 84.8125 27.911 83.9375 27.4839C83.0729 27.0464 82.3854 26.4474 81.875 25.687C81.375 24.9162 81.125 24.0412 81.125 23.062C81.125 22.1766 81.2917 21.3901 81.625 20.7026C81.9584 20.0151 82.4479 19.437 83.0938 18.9683C83.75 18.4891 84.5677 18.1297 85.5469 17.8901C86.5261 17.6401 87.6615 17.5151 88.9532 17.5151H91.5625ZM103.719 3.81201V27.812H99.2032V3.81201H103.719ZM122.672 27.812H117.719L117.75 24.1558H122.672C123.901 24.1558 124.938 23.8797 125.781 23.3276C126.625 22.7651 127.26 21.9474 127.688 20.8745C128.125 19.8016 128.344 18.5047 128.344 16.9839V15.8745C128.344 14.7078 128.219 13.6818 127.969 12.7964C127.729 11.911 127.37 11.1662 126.891 10.562C126.411 9.95785 125.823 9.50472 125.125 9.20264C124.427 8.89014 123.625 8.73389 122.719 8.73389H117.625V5.06201H122.719C124.24 5.06201 125.63 5.32243 126.891 5.84326C128.161 6.35368 129.26 7.08805 130.188 8.04639C131.115 9.00472 131.828 10.1506 132.328 11.4839C132.839 12.8068 133.094 14.2808 133.094 15.9058V16.9839C133.094 18.5985 132.839 20.0724 132.328 21.4058C131.828 22.7391 131.115 23.8849 130.188 24.8433C129.271 25.7912 128.172 26.5256 126.891 27.0464C125.62 27.5568 124.214 27.812 122.672 27.812ZM120.375 5.06201V27.812H115.688V5.06201H120.375ZM144 28.1245C142.688 28.1245 141.51 27.9162 140.469 27.4995C139.427 27.0724 138.542 26.4839 137.813 25.7339C137.094 24.9839 136.542 24.1141 136.156 23.1245C135.771 22.1245 135.578 21.062 135.578 19.937V19.312C135.578 18.0308 135.76 16.8589 136.125 15.7964C136.49 14.7339 137.01 13.812 137.688 13.0308C138.375 12.2495 139.208 11.6506 140.188 11.2339C141.167 10.8068 142.271 10.5933 143.5 10.5933C144.698 10.5933 145.76 10.7912 146.688 11.187C147.615 11.5828 148.391 12.1453 149.016 12.8745C149.651 13.6037 150.13 14.4787 150.453 15.4995C150.776 16.5099 150.938 17.6349 150.938 18.8745V20.7495H137.5V17.7495H146.516V17.4058C146.516 16.7808 146.401 16.2235 146.172 15.7339C145.953 15.2339 145.62 14.8381 145.172 14.5464C144.724 14.2547 144.151 14.1089 143.453 14.1089C142.859 14.1089 142.349 14.2391 141.922 14.4995C141.495 14.7599 141.146 15.1245 140.875 15.5933C140.615 16.062 140.417 16.6141 140.281 17.2495C140.156 17.8745 140.094 18.562 140.094 19.312V19.937C140.094 20.6141 140.188 21.2391 140.375 21.812C140.573 22.3849 140.849 22.8797 141.203 23.2964C141.568 23.7131 142.005 24.036 142.516 24.2651C143.036 24.4943 143.625 24.6089 144.281 24.6089C145.094 24.6089 145.849 24.4526 146.547 24.1401C147.255 23.8172 147.865 23.3328 148.375 22.687L150.563 25.062C150.208 25.5724 149.724 26.062 149.109 26.5308C148.505 26.9995 147.776 27.3849 146.922 27.687C146.068 27.9787 145.094 28.1245 144 28.1245ZM162.625 23.9995V16.4683C162.625 15.9266 162.536 15.4631 162.359 15.0776C162.182 14.6818 161.906 14.3745 161.531 14.1558C161.167 13.937 160.693 13.8276 160.109 13.8276C159.609 13.8276 159.177 13.9162 158.813 14.0933C158.448 14.2599 158.167 14.5047 157.969 14.8276C157.771 15.1401 157.672 15.5099 157.672 15.937H153.172C153.172 15.2183 153.339 14.536 153.672 13.8901C154.005 13.2443 154.49 12.6766 155.125 12.187C155.76 11.687 156.516 11.2964 157.391 11.0151C158.276 10.7339 159.266 10.5933 160.359 10.5933C161.672 10.5933 162.839 10.812 163.859 11.2495C164.88 11.687 165.682 12.3433 166.266 13.2183C166.859 14.0933 167.156 15.187 167.156 16.4995V23.7339C167.156 24.661 167.214 25.4214 167.328 26.0151C167.443 26.5985 167.609 27.1089 167.828 27.5464V27.812H163.281C163.063 27.3537 162.896 26.7808 162.781 26.0933C162.677 25.3953 162.625 24.6974 162.625 23.9995ZM163.219 17.5151L163.25 20.062H160.734C160.141 20.062 159.625 20.1297 159.188 20.2651C158.75 20.4006 158.391 20.5933 158.109 20.8433C157.828 21.0828 157.62 21.3641 157.484 21.687C157.359 22.0099 157.297 22.3641 157.297 22.7495C157.297 23.1349 157.385 23.4839 157.563 23.7964C157.74 24.0985 157.995 24.3381 158.328 24.5151C158.661 24.6818 159.052 24.7651 159.5 24.7651C160.177 24.7651 160.766 24.6297 161.266 24.3589C161.766 24.0881 162.151 23.7547 162.422 23.3589C162.703 22.9631 162.849 22.5881 162.859 22.2339L164.047 24.1401C163.88 24.5672 163.651 25.0099 163.359 25.4683C163.078 25.9266 162.719 26.3589 162.281 26.7651C161.844 27.161 161.318 27.4891 160.703 27.7495C160.089 27.9995 159.359 28.1245 158.516 28.1245C157.443 28.1245 156.469 27.911 155.594 27.4839C154.729 27.0464 154.042 26.4474 153.531 25.687C153.031 24.9162 152.781 24.0412 152.781 23.062C152.781 22.1766 152.948 21.3901 153.281 20.7026C153.615 20.0151 154.104 19.437 154.75 18.9683C155.406 18.4891 156.224 18.1297 157.203 17.8901C158.182 17.6401 159.318 17.5151 160.609 17.5151H163.219ZM175.375 3.81201V27.812H170.859V3.81201H175.375ZM188.234 23.1401C188.234 22.8172 188.141 22.5256 187.953 22.2651C187.766 22.0047 187.417 21.7651 186.906 21.5464C186.406 21.3172 185.682 21.1089 184.734 20.9214C183.88 20.7339 183.083 20.4995 182.344 20.2183C181.615 19.9266 180.979 19.5776 180.438 19.1714C179.906 18.7651 179.49 18.286 179.188 17.7339C178.885 17.1714 178.734 16.5308 178.734 15.812C178.734 15.1037 178.885 14.437 179.188 13.812C179.5 13.187 179.943 12.6349 180.516 12.1558C181.099 11.6662 181.807 11.286 182.641 11.0151C183.484 10.7339 184.432 10.5933 185.484 10.5933C186.953 10.5933 188.214 10.8276 189.266 11.2964C190.328 11.7651 191.141 12.411 191.703 13.2339C192.276 14.0464 192.563 14.9735 192.563 16.0151H188.063C188.063 15.5776 187.969 15.187 187.781 14.8433C187.604 14.4891 187.323 14.2131 186.938 14.0151C186.563 13.8068 186.073 13.7026 185.469 13.7026C184.969 13.7026 184.536 13.7912 184.172 13.9683C183.807 14.1349 183.526 14.3641 183.328 14.6558C183.141 14.937 183.047 15.2495 183.047 15.5933C183.047 15.8537 183.099 16.0881 183.203 16.2964C183.318 16.4943 183.5 16.6766 183.75 16.8433C184 17.0099 184.323 17.1662 184.719 17.312C185.125 17.4474 185.625 17.5724 186.219 17.687C187.438 17.937 188.526 18.2651 189.484 18.6714C190.443 19.0672 191.203 19.6089 191.766 20.2964C192.328 20.9735 192.609 21.8641 192.609 22.9683C192.609 23.7183 192.443 24.4058 192.109 25.0308C191.776 25.6558 191.297 26.2026 190.672 26.6714C190.047 27.1297 189.297 27.4891 188.422 27.7495C187.557 27.9995 186.583 28.1245 185.5 28.1245C183.927 28.1245 182.594 27.8433 181.5 27.2808C180.417 26.7183 179.594 26.0047 179.031 25.1401C178.479 24.2651 178.203 23.3693 178.203 22.4526H182.469C182.49 23.0672 182.646 23.562 182.938 23.937C183.24 24.312 183.62 24.5828 184.078 24.7495C184.547 24.9162 185.052 24.9995 185.594 24.9995C186.177 24.9995 186.661 24.9214 187.047 24.7651C187.432 24.5985 187.724 24.3797 187.922 24.1089C188.13 23.8276 188.234 23.5047 188.234 23.1401ZM222.469 15.9058V16.9839C222.469 18.7131 222.234 20.2651 221.766 21.6401C221.297 23.0151 220.635 24.187 219.781 25.1558C218.927 26.1141 217.906 26.8485 216.719 27.3589C215.542 27.8693 214.234 28.1245 212.797 28.1245C211.37 28.1245 210.063 27.8693 208.875 27.3589C207.698 26.8485 206.677 26.1141 205.813 25.1558C204.948 24.187 204.276 23.0151 203.797 21.6401C203.328 20.2651 203.094 18.7131 203.094 16.9839V15.9058C203.094 14.1662 203.328 12.6141 203.797 11.2495C204.266 9.87451 204.927 8.70264 205.781 7.73389C206.646 6.76514 207.667 6.02555 208.844 5.51514C210.031 5.00472 211.339 4.74951 212.766 4.74951C214.203 4.74951 215.51 5.00472 216.688 5.51514C217.875 6.02555 218.896 6.76514 219.75 7.73389C220.615 8.70264 221.281 9.87451 221.75 11.2495C222.229 12.6141 222.469 14.1662 222.469 15.9058ZM217.734 16.9839V15.8745C217.734 14.6662 217.625 13.6037 217.406 12.687C217.188 11.7703 216.865 10.9995 216.438 10.3745C216.01 9.74951 215.49 9.28076 214.875 8.96826C214.26 8.64535 213.557 8.48389 212.766 8.48389C211.974 8.48389 211.271 8.64535 210.656 8.96826C210.052 9.28076 209.536 9.74951 209.109 10.3745C208.693 10.9995 208.375 11.7703 208.156 12.687C207.938 13.6037 207.828 14.6662 207.828 15.8745V16.9839C207.828 18.1818 207.938 19.2443 208.156 20.1714C208.375 21.0881 208.698 21.8641 209.125 22.4995C209.552 23.1245 210.073 23.5985 210.688 23.9214C211.302 24.2443 212.005 24.4058 212.797 24.4058C213.589 24.4058 214.292 24.2443 214.906 23.9214C215.521 23.5985 216.036 23.1245 216.453 22.4995C216.87 21.8641 217.188 21.0881 217.406 20.1714C217.625 19.2443 217.734 18.1818 217.734 16.9839ZM229.969 14.5151V27.812H225.469V10.9058H229.688L229.969 14.5151ZM229.313 18.7651H228.094C228.094 17.5151 228.255 16.3901 228.578 15.3901C228.901 14.3797 229.354 13.5203 229.938 12.812C230.521 12.0933 231.214 11.5464 232.016 11.1714C232.828 10.786 233.734 10.5933 234.734 10.5933C235.526 10.5933 236.25 10.7078 236.906 10.937C237.563 11.1662 238.125 11.5308 238.594 12.0308C239.073 12.5308 239.438 13.1922 239.688 14.0151C239.948 14.8381 240.078 15.8433 240.078 17.0308V27.812H235.547V17.0151C235.547 16.2651 235.443 15.6818 235.234 15.2651C235.026 14.8485 234.719 14.5568 234.313 14.3901C233.917 14.2131 233.427 14.1245 232.844 14.1245C232.24 14.1245 231.714 14.2443 231.266 14.4839C230.828 14.7235 230.464 15.0568 230.172 15.4839C229.891 15.9006 229.677 16.3901 229.531 16.9526C229.385 17.5151 229.313 18.1193 229.313 18.7651ZM55.25 56.1558V59.812H43.7969V56.1558H55.25ZM45.3125 37.062V59.812H40.625V37.062H45.3125ZM66.7813 55.9995V48.4683C66.7813 47.9266 66.6927 47.4631 66.5157 47.0776C66.3386 46.6818 66.0625 46.3745 65.6875 46.1558C65.3229 45.937 64.849 45.8276 64.2657 45.8276C63.7657 45.8276 63.3334 45.9162 62.9688 46.0933C62.6042 46.2599 62.3229 46.5047 62.125 46.8276C61.9271 47.1401 61.8282 47.5099 61.8282 47.937H57.3282C57.3282 47.2183 57.4948 46.536 57.8282 45.8901C58.1615 45.2443 58.6459 44.6766 59.2813 44.187C59.9167 43.687 60.6719 43.2964 61.5469 43.0151C62.4323 42.7339 63.4219 42.5933 64.5157 42.5933C65.8282 42.5933 66.9948 42.812 68.0157 43.2495C69.0365 43.687 69.8386 44.3433 70.4219 45.2183C71.0157 46.0933 71.3125 47.187 71.3125 48.4995V55.7339C71.3125 56.661 71.3698 57.4214 71.4844 58.0151C71.599 58.5985 71.7657 59.1089 71.9844 59.5464V59.812H67.4375C67.2188 59.3537 67.0521 58.7808 66.9375 58.0933C66.8334 57.3953 66.7813 56.6974 66.7813 55.9995ZM67.375 49.5151L67.4063 52.062H64.8907C64.2969 52.062 63.7813 52.1297 63.3438 52.2651C62.9063 52.4006 62.5469 52.5933 62.2657 52.8433C61.9844 53.0828 61.7761 53.3641 61.6407 53.687C61.5157 54.0099 61.4532 54.3641 61.4532 54.7495C61.4532 55.1349 61.5417 55.4839 61.7188 55.7964C61.8959 56.0985 62.1511 56.3381 62.4844 56.5151C62.8177 56.6818 63.2084 56.7651 63.6563 56.7651C64.3334 56.7651 64.9219 56.6297 65.4219 56.3589C65.9219 56.0881 66.3073 55.7547 66.5782 55.3589C66.8594 54.9631 67.0052 54.5881 67.0157 54.2339L68.2032 56.1401C68.0365 56.5672 67.8073 57.0099 67.5157 57.4683C67.2344 57.9266 66.875 58.3589 66.4375 58.7651C66 59.161 65.474 59.4891 64.8594 59.7495C64.2448 59.9995 63.5157 60.1245 62.6719 60.1245C61.599 60.1245 60.625 59.911 59.75 59.4839C58.8854 59.0464 58.1979 58.4474 57.6875 57.687C57.1875 56.9162 56.9375 56.0412 56.9375 55.062C56.9375 54.1766 57.1042 53.3901 57.4375 52.7026C57.7709 52.0151 58.2604 51.437 58.9063 50.9683C59.5625 50.4891 60.3802 50.1297 61.3594 49.8901C62.3386 49.6401 63.474 49.5151 64.7657 49.5151H67.375ZM83.0625 42.9058V46.0933H73.2188V42.9058H83.0625ZM75.6563 38.7339H80.1563V54.7183C80.1563 55.2078 80.2188 55.5828 80.3438 55.8433C80.4792 56.1037 80.6771 56.286 80.9375 56.3901C81.1979 56.4839 81.5261 56.5308 81.9219 56.5308C82.2032 56.5308 82.4532 56.5203 82.6719 56.4995C82.9011 56.4683 83.0938 56.437 83.25 56.4058L83.2657 59.7183C82.8802 59.8433 82.4636 59.9422 82.0157 60.0151C81.5677 60.0881 81.0729 60.1245 80.5313 60.1245C79.5417 60.1245 78.6771 59.9631 77.9375 59.6401C77.2084 59.3068 76.6459 58.7756 76.25 58.0464C75.8542 57.3172 75.6563 56.3589 75.6563 55.1714V38.7339ZM93.4063 60.1245C92.0938 60.1245 90.9167 59.9162 89.875 59.4995C88.8334 59.0724 87.9479 58.4839 87.2188 57.7339C86.5 56.9839 85.9479 56.1141 85.5625 55.1245C85.1771 54.1245 84.9844 53.062 84.9844 51.937V51.312C84.9844 50.0308 85.1667 48.8589 85.5313 47.7964C85.8959 46.7339 86.4167 45.812 87.0938 45.0308C87.7813 44.2495 88.6146 43.6506 89.5938 43.2339C90.5729 42.8068 91.6771 42.5933 92.9063 42.5933C94.1042 42.5933 95.1667 42.7912 96.0938 43.187C97.0209 43.5828 97.7969 44.1453 98.4219 44.8745C99.0573 45.6037 99.5365 46.4787 99.8594 47.4995C100.182 48.5099 100.344 49.6349 100.344 50.8745V52.7495H86.9063V49.7495H95.9219V49.4058C95.9219 48.7808 95.8073 48.2235 95.5782 47.7339C95.3594 47.2339 95.0261 46.8381 94.5782 46.5464C94.1302 46.2547 93.5573 46.1089 92.8594 46.1089C92.2657 46.1089 91.7552 46.2391 91.3282 46.4995C90.9011 46.7599 90.5521 47.1245 90.2813 47.5933C90.0209 48.062 89.8229 48.6141 89.6875 49.2495C89.5625 49.8745 89.5 50.562 89.5 51.312V51.937C89.5 52.6141 89.5938 53.2391 89.7813 53.812C89.9792 54.3849 90.2552 54.8797 90.6094 55.2964C90.974 55.7131 91.4115 56.036 91.9219 56.2651C92.4427 56.4943 93.0313 56.6089 93.6875 56.6089C94.5 56.6089 95.2552 56.4526 95.9532 56.1401C96.6615 55.8172 97.2709 55.3328 97.7813 54.687L99.9688 57.062C99.6146 57.5724 99.1302 58.062 98.5157 58.5308C97.9115 58.9995 97.1823 59.3849 96.3282 59.687C95.474 59.9787 94.5 60.1245 93.4063 60.1245ZM112.047 55.1401C112.047 54.8172 111.953 54.5256 111.766 54.2651C111.578 54.0047 111.229 53.7651 110.719 53.5464C110.219 53.3172 109.495 53.1089 108.547 52.9214C107.693 52.7339 106.896 52.4995 106.156 52.2183C105.427 51.9266 104.792 51.5776 104.25 51.1714C103.719 50.7651 103.302 50.286 103 49.7339C102.698 49.1714 102.547 48.5308 102.547 47.812C102.547 47.1037 102.698 46.437 103 45.812C103.313 45.187 103.755 44.6349 104.328 44.1558C104.911 43.6662 105.62 43.286 106.453 43.0151C107.297 42.7339 108.245 42.5933 109.297 42.5933C110.766 42.5933 112.026 42.8276 113.078 43.2964C114.141 43.7651 114.953 44.411 115.516 45.2339C116.089 46.0464 116.375 46.9735 116.375 48.0151H111.875C111.875 47.5776 111.781 47.187 111.594 46.8433C111.417 46.4891 111.135 46.2131 110.75 46.0151C110.375 45.8068 109.885 45.7026 109.281 45.7026C108.781 45.7026 108.349 45.7912 107.984 45.9683C107.62 46.1349 107.339 46.3641 107.141 46.6558C106.953 46.937 106.859 47.2495 106.859 47.5933C106.859 47.8537 106.911 48.0881 107.016 48.2964C107.13 48.4943 107.313 48.6766 107.563 48.8433C107.813 49.0099 108.135 49.1662 108.531 49.312C108.938 49.4474 109.438 49.5724 110.031 49.687C111.25 49.937 112.339 50.2651 113.297 50.6714C114.255 51.0672 115.016 51.6089 115.578 52.2964C116.141 52.9735 116.422 53.8641 116.422 54.9683C116.422 55.7183 116.255 56.4058 115.922 57.0308C115.589 57.6558 115.109 58.2026 114.484 58.6714C113.859 59.1297 113.109 59.4891 112.234 59.7495C111.37 59.9995 110.396 60.1245 109.313 60.1245C107.74 60.1245 106.406 59.8433 105.313 59.2808C104.229 58.7183 103.406 58.0047 102.844 57.1401C102.292 56.2651 102.016 55.3693 102.016 54.4526H106.281C106.302 55.0672 106.458 55.562 106.75 55.937C107.052 56.312 107.432 56.5828 107.891 56.7495C108.359 56.9162 108.865 56.9995 109.406 56.9995C109.99 56.9995 110.474 56.9214 110.859 56.7651C111.245 56.5985 111.536 56.3797 111.734 56.1089C111.943 55.8276 112.047 55.5047 112.047 55.1401ZM127.625 42.9058V46.0933H117.781V42.9058H127.625ZM120.219 38.7339H124.719V54.7183C124.719 55.2078 124.781 55.5828 124.906 55.8433C125.042 56.1037 125.24 56.286 125.5 56.3901C125.76 56.4839 126.089 56.5308 126.484 56.5308C126.766 56.5308 127.016 56.5203 127.234 56.4995C127.464 56.4683 127.656 56.437 127.813 56.4058L127.828 59.7183C127.443 59.8433 127.026 59.9422 126.578 60.0151C126.13 60.0881 125.635 60.1245 125.094 60.1245C124.104 60.1245 123.24 59.9631 122.5 59.6401C121.771 59.3068 121.208 58.7756 120.813 58.0464C120.417 57.3172 120.219 56.3589 120.219 55.1714V38.7339ZM147.766 37.062V59.812H143.094V37.062H147.766ZM154.766 37.062V40.7339H136.203V37.062H154.766ZM160.563 46.5933V59.812H156.063V42.9058H160.297L160.563 46.5933ZM165.656 42.7964L165.578 46.9683C165.359 46.937 165.094 46.911 164.781 46.8901C164.479 46.8589 164.203 46.8433 163.953 46.8433C163.318 46.8433 162.766 46.9266 162.297 47.0933C161.839 47.2495 161.453 47.4839 161.141 47.7964C160.839 48.1089 160.609 48.4891 160.453 48.937C160.307 49.3849 160.224 49.8953 160.203 50.4683L159.297 50.187C159.297 49.0933 159.406 48.0881 159.625 47.1714C159.844 46.2443 160.161 45.437 160.578 44.7495C161.005 44.062 161.526 43.5308 162.141 43.1558C162.755 42.7808 163.458 42.5933 164.25 42.5933C164.5 42.5933 164.755 42.6141 165.016 42.6558C165.276 42.687 165.49 42.7339 165.656 42.7964ZM175.25 60.1245C173.938 60.1245 172.76 59.9162 171.719 59.4995C170.677 59.0724 169.792 58.4839 169.063 57.7339C168.344 56.9839 167.792 56.1141 167.406 55.1245C167.021 54.1245 166.828 53.062 166.828 51.937V51.312C166.828 50.0308 167.01 48.8589 167.375 47.7964C167.74 46.7339 168.26 45.812 168.938 45.0308C169.625 44.2495 170.458 43.6506 171.438 43.2339C172.417 42.8068 173.521 42.5933 174.75 42.5933C175.948 42.5933 177.01 42.7912 177.938 43.187C178.865 43.5828 179.641 44.1453 180.266 44.8745C180.901 45.6037 181.38 46.4787 181.703 47.4995C182.026 48.5099 182.188 49.6349 182.188 50.8745V52.7495H168.75V49.7495H177.766V49.4058C177.766 48.7808 177.651 48.2235 177.422 47.7339C177.203 47.2339 176.87 46.8381 176.422 46.5464C175.974 46.2547 175.401 46.1089 174.703 46.1089C174.109 46.1089 173.599 46.2391 173.172 46.4995C172.745 46.7599 172.396 47.1245 172.125 47.5933C171.865 48.062 171.667 48.6141 171.531 49.2495C171.406 49.8745 171.344 50.562 171.344 51.312V51.937C171.344 52.6141 171.438 53.2391 171.625 53.812C171.823 54.3849 172.099 54.8797 172.453 55.2964C172.818 55.7131 173.255 56.036 173.766 56.2651C174.286 56.4943 174.875 56.6089 175.531 56.6089C176.344 56.6089 177.099 56.4526 177.797 56.1401C178.505 55.8172 179.115 55.3328 179.625 54.687L181.813 57.062C181.458 57.5724 180.974 58.062 180.359 58.5308C179.755 58.9995 179.026 59.3849 178.172 59.687C177.318 59.9787 176.344 60.1245 175.25 60.1245ZM189.156 46.5151V59.812H184.656V42.9058H188.875L189.156 46.5151ZM188.5 50.7651H187.281C187.281 49.5151 187.443 48.3901 187.766 47.3901C188.089 46.3797 188.542 45.5203 189.125 44.812C189.708 44.0933 190.401 43.5464 191.203 43.1714C192.016 42.786 192.922 42.5933 193.922 42.5933C194.714 42.5933 195.438 42.7078 196.094 42.937C196.75 43.1662 197.313 43.5308 197.781 44.0308C198.26 44.5308 198.625 45.1922 198.875 46.0151C199.135 46.8381 199.266 47.8433 199.266 49.0308V59.812H194.734V49.0151C194.734 48.2651 194.63 47.6818 194.422 47.2651C194.214 46.8485 193.906 46.5568 193.5 46.3901C193.104 46.2131 192.615 46.1245 192.031 46.1245C191.427 46.1245 190.901 46.2443 190.453 46.4839C190.016 46.7235 189.651 47.0568 189.359 47.4839C189.078 47.9006 188.865 48.3901 188.719 48.9526C188.573 49.5151 188.5 50.1193 188.5 50.7651ZM212.672 56.1245V35.812H217.203V59.812H213.125L212.672 56.1245ZM201.984 51.562V51.2339C201.984 49.9422 202.13 48.7703 202.422 47.7183C202.714 46.6558 203.141 45.7443 203.703 44.9839C204.266 44.2235 204.958 43.6349 205.781 43.2183C206.604 42.8016 207.542 42.5933 208.594 42.5933C209.583 42.5933 210.448 42.8016 211.188 43.2183C211.938 43.6349 212.573 44.2287 213.094 44.9995C213.625 45.7599 214.052 46.661 214.375 47.7026C214.698 48.7339 214.932 49.8641 215.078 51.0933V51.812C214.932 52.9891 214.698 54.0828 214.375 55.0933C214.052 56.1037 213.625 56.9891 213.094 57.7495C212.573 58.4995 211.938 59.0828 211.188 59.4995C210.438 59.9162 209.563 60.1245 208.563 60.1245C207.51 60.1245 206.573 59.911 205.75 59.4839C204.938 59.0568 204.25 58.4578 203.688 57.687C203.135 56.9162 202.714 56.0099 202.422 54.9683C202.13 53.9266 201.984 52.7912 201.984 51.562ZM206.484 51.2339V51.562C206.484 52.2599 206.536 52.911 206.641 53.5151C206.755 54.1193 206.938 54.6558 207.188 55.1245C207.448 55.5828 207.781 55.9422 208.188 56.2026C208.604 56.4526 209.109 56.5776 209.703 56.5776C210.474 56.5776 211.109 56.4058 211.609 56.062C212.109 55.7078 212.49 55.2235 212.75 54.6089C213.021 53.9943 213.177 53.286 213.219 52.4839V50.437C213.188 49.7808 213.094 49.1922 212.938 48.6714C212.792 48.1401 212.573 47.687 212.281 47.312C212 46.937 211.646 46.6453 211.219 46.437C210.802 46.2287 210.307 46.1245 209.734 46.1245C209.151 46.1245 208.651 46.2599 208.234 46.5308C207.818 46.7912 207.479 47.1506 207.219 47.6089C206.969 48.0672 206.781 48.6089 206.656 49.2339C206.542 49.8485 206.484 50.5151 206.484 51.2339ZM229.859 55.1401C229.859 54.8172 229.766 54.5256 229.578 54.2651C229.391 54.0047 229.042 53.7651 228.531 53.5464C228.031 53.3172 227.307 53.1089 226.359 52.9214C225.505 52.7339 224.708 52.4995 223.969 52.2183C223.24 51.9266 222.604 51.5776 222.063 51.1714C221.531 50.7651 221.115 50.286 220.813 49.7339C220.51 49.1714 220.359 48.5308 220.359 47.812C220.359 47.1037 220.51 46.437 220.813 45.812C221.125 45.187 221.568 44.6349 222.141 44.1558C222.724 43.6662 223.432 43.286 224.266 43.0151C225.109 42.7339 226.057 42.5933 227.109 42.5933C228.578 42.5933 229.839 42.8276 230.891 43.2964C231.953 43.7651 232.766 44.411 233.328 45.2339C233.901 46.0464 234.188 46.9735 234.188 48.0151H229.688C229.688 47.5776 229.594 47.187 229.406 46.8433C229.229 46.4891 228.948 46.2131 228.563 46.0151C228.188 45.8068 227.698 45.7026 227.094 45.7026C226.594 45.7026 226.161 45.7912 225.797 45.9683C225.432 46.1349 225.151 46.3641 224.953 46.6558C224.766 46.937 224.672 47.2495 224.672 47.5933C224.672 47.8537 224.724 48.0881 224.828 48.2964C224.943 48.4943 225.125 48.6766 225.375 48.8433C225.625 49.0099 225.948 49.1662 226.344 49.312C226.75 49.4474 227.25 49.5724 227.844 49.687C229.063 49.937 230.151 50.2651 231.109 50.6714C232.068 51.0672 232.828 51.6089 233.391 52.2964C233.953 52.9735 234.234 53.8641 234.234 54.9683C234.234 55.7183 234.068 56.4058 233.734 57.0308C233.401 57.6558 232.922 58.2026 232.297 58.6714C231.672 59.1297 230.922 59.4891 230.047 59.7495C229.182 59.9995 228.208 60.1245 227.125 60.1245C225.552 60.1245 224.219 59.8433 223.125 59.2808C222.042 58.7183 221.219 58.0047 220.656 57.1401C220.104 56.2651 219.828 55.3693 219.828 54.4526H224.094C224.115 55.0672 224.271 55.562 224.563 55.937C224.865 56.312 225.245 56.5828 225.703 56.7495C226.172 56.9162 226.677 56.9995 227.219 56.9995C227.802 56.9995 228.286 56.9214 228.672 56.7651C229.057 56.5985 229.349 56.3797 229.547 56.1089C229.755 55.8276 229.859 55.5047 229.859 55.1401Z" fill="#D6EB3D"/>
<rect x="71.9875" y="86.9775" width="130.024" height="30.6875" rx="7" stroke="white" stroke-width="2"/>
<path d="M88.7904 99.6994C88.6668 99.3116 88.5006 98.9643 88.2918 98.6575C88.0873 98.3464 87.8422 98.0822 87.5567 97.8649C87.2712 97.6433 86.9452 97.475 86.5788 97.3599C86.2165 97.2449 85.8181 97.1873 85.3834 97.1873C84.6462 97.1873 83.9814 97.377 83.3891 97.7562C82.7968 98.1355 82.328 98.6916 81.9829 99.4245C81.642 100.153 81.4715 101.046 81.4715 102.103C81.4715 103.164 81.6441 104.061 81.9893 104.794C82.3344 105.527 82.8074 106.083 83.4083 106.462C84.0091 106.841 84.6931 107.031 85.4601 107.031C86.1718 107.031 86.7918 106.886 87.3202 106.596C87.8529 106.307 88.2641 105.898 88.5539 105.369C88.8479 104.836 88.9949 104.21 88.9949 103.49L89.5063 103.586H85.7606V101.956H90.9062V103.445C90.9062 104.545 90.6718 105.499 90.203 106.309C89.7386 107.114 89.0951 107.736 88.2726 108.175C87.4545 108.614 86.517 108.834 85.4601 108.834C84.2755 108.834 83.2357 108.561 82.3408 108.015C81.4502 107.47 80.7556 106.697 80.257 105.695C79.7584 104.689 79.5091 103.496 79.5091 102.116C79.5091 101.072 79.654 100.134 79.9438 99.3031C80.2336 98.4721 80.6405 97.7669 81.1647 97.1873C81.6931 96.6035 82.3131 96.1582 83.0248 95.8514C83.7407 95.5403 84.5226 95.3848 85.3707 95.3848C86.078 95.3848 86.7364 95.4892 87.3458 95.698C87.9594 95.9068 88.5049 96.203 88.9822 96.5865C89.4637 96.97 89.8621 97.426 90.1775 97.9544C90.4928 98.4785 90.7059 99.0602 90.8167 99.6994H88.7904ZM93.6134 108.655V95.5638H101.821V97.264H95.5886V101.253H101.393V102.947H95.5886V106.954H101.898V108.655H93.6134ZM104.014 97.264V95.5638H114.145V97.264H110.06V108.655H108.092V97.264H104.014ZM128.687 99.0027C128.619 98.3976 128.338 97.9288 127.844 97.5964C127.349 97.2598 126.727 97.0915 125.977 97.0915C125.44 97.0915 124.976 97.1767 124.584 97.3471C124.192 97.5133 123.887 97.7434 123.67 98.0375C123.457 98.3272 123.35 98.6575 123.35 99.0282C123.35 99.3393 123.422 99.6078 123.567 99.8336C123.716 100.059 123.91 100.249 124.149 100.403C124.392 100.552 124.652 100.677 124.929 100.78C125.206 100.878 125.472 100.959 125.728 101.023L127.006 101.355C127.424 101.457 127.852 101.596 128.291 101.77C128.73 101.945 129.137 102.175 129.512 102.461C129.887 102.746 130.189 103.1 130.42 103.522C130.654 103.944 130.771 104.449 130.771 105.037C130.771 105.778 130.579 106.437 130.196 107.012C129.817 107.587 129.265 108.041 128.54 108.373C127.82 108.706 126.949 108.872 125.926 108.872C124.946 108.872 124.098 108.716 123.382 108.405C122.666 108.094 122.106 107.653 121.701 107.082C121.296 106.507 121.072 105.825 121.03 105.037H123.011C123.05 105.51 123.203 105.904 123.471 106.219C123.744 106.53 124.091 106.763 124.513 106.916C124.939 107.065 125.406 107.14 125.913 107.14C126.471 107.14 126.968 107.052 127.403 106.878C127.841 106.699 128.187 106.452 128.438 106.136C128.689 105.817 128.815 105.444 128.815 105.018C128.815 104.63 128.704 104.312 128.483 104.065C128.265 103.818 127.969 103.613 127.594 103.452C127.224 103.29 126.804 103.147 126.335 103.023L124.788 102.601C123.74 102.316 122.909 101.896 122.295 101.342C121.686 100.788 121.381 100.055 121.381 99.1433C121.381 98.389 121.586 97.7307 121.995 97.1682C122.404 96.6057 122.958 96.1689 123.657 95.8578C124.356 95.5424 125.144 95.3848 126.022 95.3848C126.908 95.3848 127.69 95.5403 128.368 95.8514C129.05 96.1625 129.586 96.5907 129.979 97.1362C130.371 97.6774 130.575 98.2995 130.592 99.0027H128.687ZM133.331 108.655V95.5638H135.307V101.253H141.833V95.5638H143.814V108.655H141.833V102.947H135.307V108.655H133.331ZM158.262 102.109C158.262 103.507 158.007 104.709 157.495 105.714C156.984 106.716 156.283 107.487 155.392 108.028C154.506 108.565 153.498 108.834 152.369 108.834C151.235 108.834 150.223 108.565 149.333 108.028C148.446 107.487 147.747 106.714 147.236 105.708C146.725 104.702 146.469 103.503 146.469 102.109C146.469 100.711 146.725 99.5119 147.236 98.5105C147.747 97.5048 148.446 96.7335 149.333 96.1966C150.223 95.6554 151.235 95.3848 152.369 95.3848C153.498 95.3848 154.506 95.6554 155.392 96.1966C156.283 96.7335 156.984 97.5048 157.495 98.5105C158.007 99.5119 158.262 100.711 158.262 102.109ZM156.306 102.109C156.306 101.044 156.134 100.147 155.789 99.4182C155.448 98.6852 154.979 98.1312 154.382 97.7562C153.79 97.377 153.119 97.1873 152.369 97.1873C151.615 97.1873 150.941 97.377 150.349 97.7562C149.757 98.1312 149.288 98.6852 148.943 99.4182C148.602 100.147 148.431 101.044 148.431 102.109C148.431 103.175 148.602 104.074 148.943 104.807C149.288 105.535 149.757 106.089 150.349 106.469C150.941 106.844 151.615 107.031 152.369 107.031C153.119 107.031 153.79 106.844 154.382 106.469C154.979 106.089 155.448 105.535 155.789 104.807C156.134 104.074 156.306 103.175 156.306 102.109ZM160.925 108.655V95.5638H165.591C166.609 95.5638 167.453 95.7491 168.122 96.1199C168.791 96.4906 169.292 96.9977 169.624 97.6412C169.957 98.2804 170.123 99.0005 170.123 99.8017C170.123 100.607 169.955 101.332 169.618 101.975C169.286 102.614 168.783 103.121 168.109 103.496C167.44 103.867 166.599 104.052 165.585 104.052H162.376V102.378H165.406C166.049 102.378 166.571 102.267 166.972 102.045C167.372 101.819 167.666 101.513 167.854 101.125C168.041 100.737 168.135 100.296 168.135 99.8017C168.135 99.3074 168.041 98.8684 167.854 98.4849C167.666 98.1014 167.37 97.801 166.965 97.5836C166.565 97.3663 166.036 97.2576 165.38 97.2576H162.9V108.655H160.925ZM179.778 99.0027C179.71 98.3976 179.429 97.9288 178.935 97.5964C178.44 97.2598 177.818 97.0915 177.068 97.0915C176.531 97.0915 176.067 97.1767 175.675 97.3471C175.283 97.5133 174.978 97.7434 174.761 98.0375C174.548 98.3272 174.441 98.6575 174.441 99.0282C174.441 99.3393 174.513 99.6078 174.658 99.8336C174.807 100.059 175.001 100.249 175.24 100.403C175.483 100.552 175.743 100.677 176.02 100.78C176.297 100.878 176.563 100.959 176.819 101.023L178.097 101.355C178.515 101.457 178.943 101.596 179.382 101.77C179.821 101.945 180.228 102.175 180.603 102.461C180.978 102.746 181.28 103.1 181.511 103.522C181.745 103.944 181.862 104.449 181.862 105.037C181.862 105.778 181.67 106.437 181.287 107.012C180.908 107.587 180.356 108.041 179.631 108.373C178.911 108.706 178.04 108.872 177.017 108.872C176.037 108.872 175.189 108.716 174.473 108.405C173.757 108.094 173.197 107.653 172.792 107.082C172.387 106.507 172.163 105.825 172.121 105.037H174.102C174.141 105.51 174.294 105.904 174.562 106.219C174.835 106.53 175.182 106.763 175.604 106.916C176.03 107.065 176.497 107.14 177.004 107.14C177.562 107.14 178.059 107.052 178.494 106.878C178.932 106.699 179.278 106.452 179.529 106.136C179.78 105.817 179.906 105.444 179.906 105.018C179.906 104.63 179.795 104.312 179.574 104.065C179.356 103.818 179.06 103.613 178.685 103.452C178.315 103.29 177.895 103.147 177.426 103.023L175.879 102.601C174.831 102.316 174 101.896 173.386 101.342C172.777 100.788 172.472 100.055 172.472 99.1433C172.472 98.389 172.677 97.7307 173.086 97.1682C173.495 96.6057 174.049 96.1689 174.748 95.8578C175.447 95.5424 176.235 95.3848 177.113 95.3848C177.999 95.3848 178.781 95.5403 179.459 95.8514C180.141 96.1625 180.678 96.5907 181.07 97.1362C181.462 97.6774 181.666 98.2995 181.683 99.0027H179.778ZM183.412 95.5638H185.656L189.076 101.515H189.216L192.636 95.5638H194.88L190.131 103.515V108.655H188.162V103.515L183.412 95.5638Z" fill="white"/>
</svg>
