<svg width="328" height="100" viewBox="0 0 328 100" fill="none" xmlns="http://www.w3.org/2000/svg">
<path d="M97.6201 65.541L100.585 48.4785L105.026 48.4902C106.347 48.4902 107.491 48.8301 108.46 49.5098C109.429 50.1816 110.128 51.1152 110.558 52.3105C110.995 53.498 111.124 54.8066 110.944 56.2363L110.733 57.6543C110.374 60.0215 109.429 61.9277 107.897 63.373C106.366 64.8184 104.487 65.541 102.261 65.541H97.6201ZM101.804 49.709L99.2607 64.3223L102.308 64.334C103.503 64.334 104.593 64.0605 105.577 63.5137C106.562 62.9668 107.374 62.1973 108.015 61.2051C108.663 60.2051 109.085 59.0801 109.28 57.8301C109.483 56.5723 109.589 55.7051 109.597 55.2285C109.612 54.752 109.589 54.291 109.526 53.8457C109.347 52.5957 108.87 51.6035 108.097 50.8691C107.323 50.1348 106.323 49.752 105.097 49.7207L101.804 49.709ZM117.706 65.7754C116.69 65.7598 115.812 65.4785 115.069 64.9316C114.327 64.377 113.78 63.627 113.429 62.6816C113.085 61.7285 112.964 60.7012 113.065 59.5996L113.101 59.2012C113.21 58.0293 113.558 56.916 114.144 55.8613C114.729 54.7988 115.472 53.9902 116.37 53.4355C117.269 52.873 118.229 52.6035 119.253 52.627C120.198 52.6426 120.995 52.9004 121.644 53.4004C122.3 53.9004 122.776 54.5957 123.073 55.4863C123.37 56.377 123.464 57.3613 123.354 58.4395L123.261 59.2949H114.483L114.448 59.5762C114.331 60.4277 114.394 61.2441 114.636 62.0254C114.878 62.7988 115.272 63.416 115.819 63.877C116.374 64.3301 117.038 64.5645 117.812 64.5801C118.562 64.6035 119.237 64.459 119.839 64.1465C120.44 63.834 120.995 63.416 121.503 62.8926L122.323 63.5605C121.753 64.2949 121.073 64.8535 120.284 65.2363C119.503 65.6113 118.644 65.791 117.706 65.7754ZM119.183 53.8223C118.167 53.7832 117.257 54.1426 116.452 54.9004C115.647 55.6582 115.042 56.7246 114.636 58.0996L121.995 58.1113L122.03 57.9355C122.171 56.8262 121.976 55.873 121.444 55.0762C120.913 54.2715 120.159 53.8535 119.183 53.8223ZM126.378 65.541H124.972L128.101 47.541H129.507L126.378 65.541ZM131.722 65.541H130.315L132.53 52.8613H133.925L131.722 65.541ZM132.917 49.1934C132.956 48.6855 133.292 48.3652 133.925 48.2324C134.229 48.2871 134.444 48.3848 134.569 48.5254C134.702 48.6582 134.788 48.8809 134.827 49.1934C134.749 49.4902 134.636 49.709 134.487 49.8496C134.339 49.9824 134.116 50.0801 133.819 50.1426C133.187 50.0488 132.886 49.7324 132.917 49.1934ZM139.749 63.5605L145.163 52.8613H146.64L140.065 65.541H138.929L136.292 52.8613H137.675L139.749 63.5605ZM151.69 65.7754C150.675 65.7598 149.796 65.4785 149.054 64.9316C148.312 64.377 147.765 63.627 147.413 62.6816C147.069 61.7285 146.948 60.7012 147.05 59.5996L147.085 59.2012C147.194 58.0293 147.542 56.916 148.128 55.8613C148.714 54.7988 149.456 53.9902 150.354 53.4355C151.253 52.873 152.214 52.6035 153.237 52.627C154.183 52.6426 154.979 52.9004 155.628 53.4004C156.284 53.9004 156.761 54.5957 157.058 55.4863C157.354 56.377 157.448 57.3613 157.339 58.4395L157.245 59.2949H148.468L148.433 59.5762C148.315 60.4277 148.378 61.2441 148.62 62.0254C148.862 62.7988 149.257 63.416 149.804 63.877C150.358 64.3301 151.022 64.5645 151.796 64.5801C152.546 64.6035 153.222 64.459 153.823 64.1465C154.425 63.834 154.979 63.416 155.487 62.8926L156.308 63.5605C155.737 64.2949 155.058 64.8535 154.269 65.2363C153.487 65.6113 152.628 65.791 151.69 65.7754ZM153.167 53.8223C152.151 53.7832 151.241 54.1426 150.437 54.9004C149.632 55.6582 149.026 56.7246 148.62 58.0996L155.979 58.1113L156.015 57.9355C156.155 56.8262 155.96 55.873 155.429 55.0762C154.897 54.2715 154.144 53.8535 153.167 53.8223ZM166.55 54.0449C166.245 53.9824 165.937 53.9473 165.624 53.9395C164.733 53.9395 163.917 54.2129 163.175 54.7598C162.433 55.2988 161.937 55.9863 161.687 56.8223L160.187 65.541H158.804L161.007 52.8613H162.378L161.956 54.877C162.417 54.127 162.972 53.5566 163.62 53.166C164.276 52.7754 164.995 52.5879 165.776 52.6035C166.05 52.6035 166.37 52.6582 166.737 52.7676L166.55 54.0449ZM171.202 63.4785L176.628 52.8613H178.187L170.452 67.5801C169.882 68.7207 169.276 69.5293 168.636 70.0059C168.003 70.4824 167.296 70.7129 166.515 70.6973C166.218 70.6816 165.843 70.6191 165.39 70.5098L165.53 69.3613L166.233 69.4434C167.546 69.498 168.581 68.7246 169.339 67.123L170.229 65.3535L167.78 52.8613H169.245L171.202 63.4785ZM187.397 62.623V63.6191L187.854 62.5293L192.483 52.8613H193.679L194.933 62.5527L195.003 63.748L195.483 62.541L199.679 52.8613H201.167L195.378 65.541H194.183L192.788 55.4863L192.776 54.7832L192.507 55.498L187.655 65.541H186.46L185.112 52.8613L186.425 52.8496L187.397 62.623ZM203.159 65.541H201.753L203.968 52.8613H205.362L203.159 65.541ZM204.354 49.1934C204.394 48.6855 204.729 48.3652 205.362 48.2324C205.667 48.2871 205.882 48.3848 206.007 48.5254C206.14 48.6582 206.226 48.8809 206.265 49.1934C206.187 49.4902 206.073 49.709 205.925 49.8496C205.776 49.9824 205.554 50.0801 205.257 50.1426C204.624 50.0488 204.323 49.7324 204.354 49.1934ZM211.854 49.6152L211.292 52.8613H213.835L213.636 54.0098H211.093L209.687 62.4707L209.663 63.1973C209.663 64.0488 210.054 64.4863 210.835 64.5098C211.077 64.5176 211.456 64.4902 211.972 64.4277L211.913 65.5762C211.452 65.709 210.983 65.7676 210.507 65.752C209.687 65.7363 209.089 65.4512 208.714 64.8965C208.339 64.334 208.202 63.5215 208.304 62.459L209.698 54.0098H207.425L207.636 52.8613H209.886L210.46 49.6152H211.854ZM217.667 55.0059C218.886 53.3887 220.323 52.5957 221.979 52.627C223.198 52.6582 224.085 53.084 224.64 53.9043C225.194 54.7246 225.39 55.8535 225.226 57.291L223.843 65.541H222.46L223.843 57.2676C223.89 56.8223 223.897 56.3926 223.866 55.9785C223.733 54.5879 222.976 53.873 221.593 53.834C220.772 53.8184 220.007 54.0645 219.296 54.5723C218.585 55.0723 217.96 55.8301 217.421 56.8457L215.921 65.541H214.538L217.667 47.541H219.05L217.667 55.0059ZM228.987 65.541H227.581L229.796 52.8613H231.19L228.987 65.541ZM230.183 49.1934C230.222 48.6855 230.558 48.3652 231.19 48.2324C231.495 48.2871 231.71 48.3848 231.835 48.5254C231.968 48.6582 232.054 48.8809 232.093 49.1934C232.015 49.4902 231.901 49.709 231.753 49.8496C231.604 49.9824 231.382 50.0801 231.085 50.1426C230.452 50.0488 230.151 49.7324 230.183 49.1934ZM236.312 52.8613L235.89 55.0293C236.452 54.248 237.101 53.6504 237.835 53.2363C238.577 52.8145 239.37 52.6113 240.214 52.627C241.433 52.6582 242.319 53.084 242.874 53.9043C243.429 54.7246 243.624 55.8535 243.46 57.291L242.077 65.541H240.694L242.077 57.2676C242.124 56.8223 242.132 56.3926 242.101 55.9785C241.968 54.5879 241.21 53.873 239.827 53.834C239.007 53.8184 238.241 54.0645 237.53 54.5723C236.819 55.0723 236.194 55.8301 235.655 56.8457L234.155 65.541H232.772L234.976 52.8613H236.312ZM110.405 78.5527L101.733 93.541H98.0889L106.737 79.2207H98.5811L99.0146 76.4785H110.722L110.405 78.5527ZM120.132 90.623V91.6191L120.589 90.5293L125.218 80.8613H126.413L127.667 90.5527L127.737 91.748L128.218 90.541L132.413 80.8613H133.901L128.112 93.541H126.917L125.522 83.4863L125.511 82.7832L125.241 83.498L120.39 93.541H119.194L117.847 80.8613L119.159 80.8496L120.132 90.623ZM134.675 87.084C134.815 85.8574 135.19 84.7363 135.8 83.7207C136.409 82.6973 137.167 81.9199 138.073 81.3887C138.987 80.8574 139.976 80.6035 141.038 80.627C142.085 80.6426 142.976 80.9316 143.71 81.4941C144.452 82.0488 144.991 82.8105 145.327 83.7793C145.671 84.7402 145.788 85.8066 145.679 86.9785L145.655 87.2012C145.421 89.2012 144.71 90.8066 143.522 92.0176C142.343 93.2285 140.925 93.8145 139.269 93.7754C137.847 93.752 136.71 93.2285 135.858 92.2051C135.007 91.1816 134.589 89.8301 134.604 88.1504L134.64 87.4824L134.675 87.084ZM136.034 87.4824C135.933 88.4121 135.999 89.2715 136.233 90.0605C136.476 90.8418 136.858 91.4551 137.382 91.9004C137.905 92.3457 138.558 92.5801 139.339 92.6035C140.183 92.6191 140.952 92.4043 141.647 91.959C142.351 91.5137 142.929 90.8848 143.382 90.0723C143.835 89.2598 144.128 88.3613 144.261 87.377L144.296 86.9902C144.437 85.4824 144.202 84.252 143.593 83.2988C142.991 82.3379 142.116 81.8457 140.968 81.8223C139.718 81.7832 138.636 82.2676 137.722 83.2754C136.815 84.2754 136.261 85.6074 136.058 87.2715L136.034 87.4824ZM155.253 82.0449C154.948 81.9824 154.64 81.9473 154.327 81.9395C153.437 81.9395 152.62 82.2129 151.878 82.7598C151.136 83.2988 150.64 83.9863 150.39 84.8223L148.89 93.541H147.507L149.71 80.8613H151.081L150.659 82.877C151.12 82.127 151.675 81.5566 152.323 81.166C152.979 80.7754 153.698 80.5879 154.479 80.6035C154.753 80.6035 155.073 80.6582 155.44 80.7676L155.253 82.0449ZM159.554 87.1777L157.679 88.7598L156.847 93.541H155.452L158.581 75.541H159.976L157.983 86.9551L159.437 85.6191L164.956 80.8613H166.819L160.585 86.2637L164.956 93.541H163.409L159.554 87.1777ZM168.542 93.541H167.136L169.351 80.8613H170.745L168.542 93.541ZM169.737 77.1934C169.776 76.6855 170.112 76.3652 170.745 76.2324C171.05 76.2871 171.265 76.3848 171.39 76.5254C171.522 76.6582 171.608 76.8809 171.647 77.1934C171.569 77.4902 171.456 77.709 171.308 77.8496C171.159 77.9824 170.937 78.0801 170.64 78.1426C170.007 78.0488 169.706 77.7324 169.737 77.1934ZM175.866 80.8613L175.444 83.0293C176.007 82.248 176.655 81.6504 177.39 81.2363C178.132 80.8145 178.925 80.6113 179.769 80.627C180.987 80.6582 181.874 81.084 182.429 81.9043C182.983 82.7246 183.179 83.8535 183.015 85.291L181.632 93.541H180.249L181.632 85.2676C181.679 84.8223 181.687 84.3926 181.655 83.9785C181.522 82.5879 180.765 81.873 179.382 81.834C178.562 81.8184 177.796 82.0645 177.085 82.5723C176.374 83.0723 175.749 83.8301 175.21 84.8457L173.71 93.541H172.327L174.53 80.8613H175.866ZM191.558 80.6152C192.315 80.6387 193.007 80.8184 193.632 81.1543C194.257 81.4902 194.749 82.002 195.108 82.6895L195.542 80.8613H196.843L194.71 93.3184C194.562 94.3809 194.226 95.3184 193.702 96.1309C193.179 96.9434 192.507 97.5645 191.687 97.9941C190.874 98.4316 189.968 98.6348 188.968 98.6035C188.171 98.5879 187.409 98.3887 186.683 98.0059C185.948 97.6152 185.358 97.0723 184.913 96.377L185.78 95.5566C186.585 96.7676 187.636 97.3887 188.933 97.4199C190.089 97.4512 191.054 97.0996 191.827 96.3652C192.608 95.6387 193.101 94.6465 193.304 93.3887L193.608 91.9121C192.483 93.2012 191.128 93.8223 189.542 93.7754C188.354 93.7441 187.429 93.291 186.765 92.416C186.108 91.5332 185.765 90.334 185.733 88.8184C185.687 87.4199 185.921 86.0371 186.437 84.6699C186.952 83.3027 187.651 82.2793 188.534 81.5996C189.425 80.9121 190.433 80.584 191.558 80.6152ZM187.198 87.4121L187.128 88.502C187.104 89.7832 187.327 90.7754 187.796 91.4785C188.265 92.1738 188.956 92.5371 189.87 92.5684C190.651 92.5996 191.382 92.416 192.062 92.0176C192.741 91.6191 193.327 91.0293 193.819 90.248L194.815 84.3301C194.604 83.5723 194.237 82.9746 193.714 82.5371C193.198 82.0918 192.534 81.8574 191.722 81.834C190.526 81.7949 189.534 82.2559 188.745 83.2168C187.964 84.1777 187.448 85.5762 187.198 87.4121ZM204.624 87.166C204.804 85.8379 205.167 84.6621 205.714 83.6387C206.261 82.6074 206.929 81.8418 207.718 81.3418C208.515 80.8418 209.405 80.6035 210.39 80.627C211.14 80.6426 211.823 80.8184 212.44 81.1543C213.058 81.4824 213.546 81.9824 213.905 82.6543L215.194 75.541H216.577L213.448 93.541H212.147L212.464 91.8535C211.362 93.1816 209.995 93.8223 208.362 93.7754C207.183 93.7441 206.257 93.2871 205.585 92.4043C204.921 91.5137 204.573 90.3184 204.542 88.8184C204.526 88.334 204.546 87.8652 204.601 87.4121L204.624 87.166ZM206.03 87.4004C205.968 87.9238 205.944 88.4824 205.96 89.0762C205.991 90.1465 206.237 90.9902 206.698 91.6074C207.167 92.2168 207.831 92.5371 208.69 92.5684C209.558 92.5918 210.319 92.3926 210.976 91.9707C211.632 91.5488 212.187 90.9863 212.64 90.2832L213.659 84.3066C213.433 83.5488 213.058 82.9551 212.534 82.5254C212.019 82.0879 211.358 81.8574 210.554 81.834C209.366 81.7949 208.374 82.252 207.577 83.2051C206.788 84.1504 206.28 85.4668 206.054 87.1543L206.03 87.4004ZM225.003 93.541C224.964 93.2441 224.952 92.9473 224.968 92.6504L225.073 91.7715C224.487 92.4043 223.815 92.9004 223.058 93.2598C222.308 93.6191 221.495 93.791 220.62 93.7754C219.55 93.7598 218.679 93.4238 218.007 92.7676C217.343 92.1035 217.046 91.2715 217.116 90.2715C217.179 89.4355 217.464 88.7129 217.972 88.1035C218.487 87.4863 219.218 87.0098 220.163 86.6738C221.108 86.3301 222.167 86.1582 223.339 86.1582L225.929 86.1699L226.14 84.7168C226.233 83.8496 226.046 83.1543 225.577 82.6309C225.108 82.1074 224.417 81.8301 223.503 81.7988C222.581 81.7832 221.776 82.0137 221.089 82.4902C220.409 82.959 219.983 83.5801 219.812 84.3535H218.44C218.597 83.2441 219.167 82.3418 220.151 81.6465C221.136 80.9434 222.3 80.5996 223.644 80.6152C224.948 80.6465 225.952 81.041 226.655 81.7988C227.366 82.5566 227.655 83.541 227.522 84.752L226.468 91.127L226.374 92.1465C226.351 92.5684 226.382 92.9863 226.468 93.4004L226.444 93.541H225.003ZM220.854 92.5449C221.714 92.5762 222.534 92.373 223.315 91.9355C224.104 91.4902 224.757 90.8613 225.272 90.0488L225.753 87.248L223.515 87.2363C222.093 87.2363 220.933 87.4902 220.034 87.998C219.136 88.498 218.64 89.2168 218.546 90.1543C218.476 90.8418 218.655 91.4082 219.085 91.8535C219.522 92.2988 220.112 92.5293 220.854 92.5449ZM233.757 91.4785L239.183 80.8613H240.741L233.007 95.5801C232.437 96.7207 231.831 97.5293 231.19 98.0059C230.558 98.4824 229.851 98.7129 229.069 98.6973C228.772 98.6816 228.397 98.6191 227.944 98.5098L228.085 97.3613L228.788 97.4434C230.101 97.498 231.136 96.7246 231.894 95.123L232.784 93.3535L230.335 80.8613H231.8L233.757 91.4785ZM248.71 90.2363C248.835 89.1582 248.179 88.377 246.741 87.8926L244.726 87.2949C242.874 86.6699 241.999 85.627 242.101 84.166C242.155 83.1113 242.64 82.2559 243.554 81.5996C244.476 80.9355 245.569 80.6113 246.835 80.627C248.077 80.6426 249.085 80.9941 249.858 81.6816C250.632 82.3613 250.991 83.2715 250.937 84.4121H249.554C249.601 83.6543 249.362 83.0371 248.839 82.5605C248.323 82.084 247.636 81.8379 246.776 81.8223C245.886 81.8223 245.136 82.0332 244.526 82.4551C243.917 82.8691 243.573 83.4199 243.495 84.1074C243.378 85.1152 243.995 85.8223 245.347 86.2285L246.812 86.6504L247.597 86.9199C249.362 87.584 250.194 88.666 250.093 90.166C250.03 91.1816 249.589 92.0176 248.769 92.6738C247.956 93.3223 246.905 93.6855 245.616 93.7637L245.136 93.7754C244.284 93.7598 243.515 93.5957 242.827 93.2832C242.14 92.9629 241.612 92.5176 241.245 91.9473C240.878 91.377 240.718 90.7207 240.765 89.9785L242.159 89.9902C242.159 90.7871 242.429 91.416 242.968 91.877C243.507 92.3379 244.249 92.5762 245.194 92.5918C246.132 92.5918 246.929 92.3809 247.585 91.959C248.241 91.5293 248.616 90.9551 248.71 90.2363ZM256.948 81.7871L253.397 80.5215L253.948 79.3848L257.499 80.8379L258.214 76.4785H259.433L258.577 80.8027L262.491 79.3379L262.667 80.5801L258.636 81.9277L260.581 85.3965L259.538 86.0996L257.733 82.5254L254.804 86.0527L253.89 85.2793L256.948 81.7871Z" fill="white"/>
<path d="M98.542 5.22705H105.966C107.488 5.22705 108.796 5.45492 109.89 5.91064C110.993 6.36637 111.84 7.04085 112.433 7.93408C113.025 8.82731 113.321 9.92562 113.321 11.229C113.321 12.2954 113.139 13.2114 112.774 13.9771C112.419 14.7336 111.913 15.367 111.257 15.8774C110.61 16.3787 109.849 16.7798 108.974 17.0806L107.675 17.7642H101.222L101.194 14.5649H105.993C106.713 14.5649 107.31 14.4373 107.784 14.1821C108.258 13.9269 108.614 13.5715 108.851 13.1157C109.097 12.66 109.22 12.1313 109.22 11.5298C109.22 10.8918 109.101 10.3403 108.864 9.87549C108.627 9.41064 108.267 9.05518 107.784 8.80908C107.301 8.56299 106.695 8.43994 105.966 8.43994H102.644V25.1333H98.542V5.22705ZM109.671 25.1333L105.132 16.2603L109.466 16.2329L114.06 24.9419V25.1333H109.671ZM123.042 25.4067C121.894 25.4067 120.864 25.2244 119.952 24.8599C119.041 24.4862 118.266 23.9712 117.628 23.3149C116.999 22.6587 116.516 21.8976 116.179 21.0317C115.841 20.1567 115.673 19.2271 115.673 18.2427V17.6958C115.673 16.5747 115.832 15.5493 116.151 14.6196C116.47 13.6899 116.926 12.8833 117.519 12.1997C118.12 11.5161 118.849 10.992 119.706 10.6274C120.563 10.2537 121.529 10.0669 122.604 10.0669C123.653 10.0669 124.582 10.2401 125.394 10.5864C126.205 10.9328 126.884 11.425 127.431 12.063C127.987 12.701 128.406 13.4666 128.688 14.3599C128.971 15.244 129.112 16.2284 129.112 17.313V18.9536H117.354V16.3286H125.243V16.0278C125.243 15.481 125.143 14.9933 124.942 14.5649C124.751 14.1274 124.459 13.7811 124.067 13.5259C123.675 13.2707 123.174 13.1431 122.563 13.1431C122.044 13.1431 121.597 13.257 121.224 13.4849C120.85 13.7127 120.545 14.0317 120.308 14.4419C120.08 14.8521 119.907 15.3351 119.788 15.8911C119.679 16.438 119.624 17.0396 119.624 17.6958V18.2427C119.624 18.8351 119.706 19.382 119.87 19.8833C120.043 20.3846 120.285 20.8175 120.595 21.1821C120.914 21.5467 121.297 21.8293 121.743 22.0298C122.199 22.2303 122.714 22.3306 123.288 22.3306C123.999 22.3306 124.66 22.1938 125.271 21.9204C125.89 21.6379 126.424 21.214 126.87 20.6489L128.784 22.7271C128.474 23.1737 128.05 23.6021 127.513 24.0122C126.984 24.4224 126.346 24.7596 125.599 25.0239C124.851 25.2791 123.999 25.4067 123.042 25.4067ZM135.511 4.1333V25.1333H131.56V4.1333H135.511ZM142.921 10.3403V25.1333H138.97V10.3403H142.921ZM138.724 6.48486C138.724 5.91064 138.924 5.43669 139.325 5.06299C139.726 4.68929 140.264 4.50244 140.938 4.50244C141.604 4.50244 142.137 4.68929 142.538 5.06299C142.948 5.43669 143.153 5.91064 143.153 6.48486C143.153 7.05908 142.948 7.53304 142.538 7.90674C142.137 8.28044 141.604 8.46729 140.938 8.46729C140.264 8.46729 139.726 8.28044 139.325 7.90674C138.924 7.53304 138.724 7.05908 138.724 6.48486ZM154.159 21.7974V15.2075C154.159 14.7336 154.082 14.328 153.927 13.9907C153.772 13.6444 153.53 13.3755 153.202 13.1841C152.883 12.9927 152.468 12.897 151.958 12.897C151.521 12.897 151.142 12.9744 150.823 13.1294C150.504 13.2752 150.258 13.4894 150.085 13.772C149.912 14.0454 149.825 14.369 149.825 14.7427H145.888C145.888 14.1138 146.034 13.5168 146.325 12.9517C146.617 12.3866 147.041 11.8898 147.597 11.4614C148.153 11.0239 148.813 10.6821 149.579 10.436C150.354 10.1899 151.22 10.0669 152.177 10.0669C153.325 10.0669 154.346 10.2583 155.239 10.6411C156.132 11.0239 156.834 11.5981 157.345 12.3638C157.864 13.1294 158.124 14.0864 158.124 15.2349V21.5649C158.124 22.3761 158.174 23.0415 158.274 23.561C158.375 24.0715 158.521 24.5181 158.712 24.9009V25.1333H154.733C154.542 24.7323 154.396 24.231 154.296 23.6294C154.205 23.0187 154.159 22.408 154.159 21.7974ZM154.679 16.1235L154.706 18.3521H152.505C151.985 18.3521 151.534 18.4113 151.151 18.5298C150.769 18.6483 150.454 18.8169 150.208 19.0356C149.962 19.2453 149.78 19.4914 149.661 19.7739C149.552 20.0565 149.497 20.3664 149.497 20.7036C149.497 21.0409 149.575 21.3462 149.729 21.6196C149.884 21.884 150.108 22.0936 150.399 22.2485C150.691 22.3944 151.033 22.4673 151.425 22.4673C152.017 22.4673 152.532 22.3488 152.97 22.1118C153.407 21.8748 153.744 21.5832 153.981 21.2368C154.228 20.8905 154.355 20.5623 154.364 20.2524L155.403 21.9204C155.257 22.2941 155.057 22.6815 154.802 23.0825C154.556 23.4836 154.241 23.8618 153.858 24.2173C153.476 24.5636 153.015 24.8507 152.478 25.0786C151.94 25.2974 151.302 25.4067 150.563 25.4067C149.625 25.4067 148.772 25.2199 148.007 24.8462C147.25 24.4634 146.649 23.9393 146.202 23.2739C145.765 22.5994 145.546 21.8338 145.546 20.9771C145.546 20.2023 145.692 19.5142 145.983 18.9126C146.275 18.311 146.703 17.8052 147.269 17.395C147.843 16.9757 148.558 16.6613 149.415 16.4517C150.272 16.2329 151.265 16.1235 152.396 16.1235H154.679ZM161.159 4.1333H165.097V21.7427L164.7 25.1333H161.159V4.1333ZM174.462 17.5864V17.8735C174.462 18.9764 174.343 19.9881 174.106 20.9087C173.879 21.8293 173.523 22.6268 173.04 23.3013C172.557 23.9666 171.955 24.4862 171.235 24.8599C170.524 25.2244 169.686 25.4067 168.72 25.4067C167.817 25.4067 167.034 25.2244 166.368 24.8599C165.712 24.4953 165.16 23.9803 164.714 23.3149C164.267 22.6496 163.907 21.8703 163.634 20.9771C163.36 20.0838 163.155 19.1086 163.019 18.0513V17.4224C163.155 16.3651 163.36 15.3898 163.634 14.4966C163.907 13.6034 164.267 12.8241 164.714 12.1587C165.16 11.4933 165.712 10.9784 166.368 10.6138C167.024 10.2492 167.799 10.0669 168.692 10.0669C169.668 10.0669 170.515 10.2537 171.235 10.6274C171.965 10.992 172.566 11.5116 173.04 12.186C173.523 12.8514 173.879 13.6444 174.106 14.5649C174.343 15.4764 174.462 16.4836 174.462 17.5864ZM170.524 17.8735V17.5864C170.524 16.9849 170.479 16.4198 170.388 15.8911C170.306 15.3534 170.16 14.884 169.95 14.4829C169.741 14.0728 169.453 13.7492 169.089 13.5122C168.733 13.2752 168.273 13.1567 167.708 13.1567C167.17 13.1567 166.715 13.2479 166.341 13.4302C165.967 13.6125 165.657 13.8677 165.411 14.1958C165.174 14.5239 164.996 14.9159 164.878 15.3716C164.759 15.8182 164.687 16.3104 164.659 16.8481V18.6392C164.687 19.3592 164.805 19.9972 165.015 20.5532C165.233 21.1001 165.562 21.533 165.999 21.8521C166.446 22.1619 167.024 22.3169 167.735 22.3169C168.291 22.3169 168.752 22.2075 169.116 21.9888C169.481 21.77 169.763 21.4601 169.964 21.0591C170.174 20.658 170.319 20.1886 170.401 19.6509C170.483 19.104 170.524 18.5116 170.524 17.8735ZM181.065 4.1333V25.1333H177.114V4.1333H181.065ZM191.128 25.4067C189.979 25.4067 188.95 25.2244 188.038 24.8599C187.127 24.4862 186.352 23.9712 185.714 23.3149C185.085 22.6587 184.602 21.8976 184.265 21.0317C183.927 20.1567 183.759 19.2271 183.759 18.2427V17.6958C183.759 16.5747 183.918 15.5493 184.237 14.6196C184.556 13.6899 185.012 12.8833 185.604 12.1997C186.206 11.5161 186.935 10.992 187.792 10.6274C188.649 10.2537 189.615 10.0669 190.69 10.0669C191.739 10.0669 192.668 10.2401 193.479 10.5864C194.291 10.9328 194.97 11.425 195.517 12.063C196.073 12.701 196.492 13.4666 196.774 14.3599C197.057 15.244 197.198 16.2284 197.198 17.313V18.9536H185.44V16.3286H193.329V16.0278C193.329 15.481 193.229 14.9933 193.028 14.5649C192.837 14.1274 192.545 13.7811 192.153 13.5259C191.761 13.2707 191.26 13.1431 190.649 13.1431C190.13 13.1431 189.683 13.257 189.31 13.4849C188.936 13.7127 188.631 14.0317 188.394 14.4419C188.166 14.8521 187.993 15.3351 187.874 15.8911C187.765 16.438 187.71 17.0396 187.71 17.6958V18.2427C187.71 18.8351 187.792 19.382 187.956 19.8833C188.129 20.3846 188.371 20.8175 188.681 21.1821C189 21.5467 189.382 21.8293 189.829 22.0298C190.285 22.2303 190.8 22.3306 191.374 22.3306C192.085 22.3306 192.746 22.1938 193.356 21.9204C193.976 21.6379 194.509 21.214 194.956 20.6489L196.87 22.7271C196.56 23.1737 196.136 23.6021 195.599 24.0122C195.07 24.4224 194.432 24.7596 193.685 25.0239C192.937 25.2791 192.085 25.4067 191.128 25.4067ZM212.771 25.1333H208.437L208.464 21.9341H212.771C213.846 21.9341 214.753 21.6925 215.491 21.2095C216.229 20.7173 216.785 20.0018 217.159 19.063C217.542 18.1242 217.733 16.9894 217.733 15.6587V14.688C217.733 13.6672 217.624 12.7694 217.405 11.9946C217.196 11.2199 216.881 10.5682 216.462 10.0396C216.043 9.5109 215.528 9.11442 214.917 8.8501C214.306 8.57666 213.604 8.43994 212.812 8.43994H208.354V5.22705H212.812C214.142 5.22705 215.359 5.45492 216.462 5.91064C217.574 6.35726 218.535 6.99984 219.347 7.83838C220.158 8.67692 220.782 9.67952 221.22 10.8462C221.666 12.0037 221.89 13.2935 221.89 14.7153V15.6587C221.89 17.0715 221.666 18.3612 221.22 19.5278C220.782 20.6945 220.158 21.6971 219.347 22.5356C218.545 23.3651 217.583 24.0076 216.462 24.4634C215.35 24.91 214.119 25.1333 212.771 25.1333ZM210.761 5.22705V25.1333H206.659V5.22705H210.761ZM231.433 25.4067C230.284 25.4067 229.254 25.2244 228.343 24.8599C227.431 24.4862 226.657 23.9712 226.019 23.3149C225.39 22.6587 224.907 21.8976 224.569 21.0317C224.232 20.1567 224.063 19.2271 224.063 18.2427V17.6958C224.063 16.5747 224.223 15.5493 224.542 14.6196C224.861 13.6899 225.317 12.8833 225.909 12.1997C226.511 11.5161 227.24 10.992 228.097 10.6274C228.953 10.2537 229.92 10.0669 230.995 10.0669C232.043 10.0669 232.973 10.2401 233.784 10.5864C234.595 10.9328 235.274 11.425 235.821 12.063C236.377 12.701 236.797 13.4666 237.079 14.3599C237.362 15.244 237.503 16.2284 237.503 17.313V18.9536H225.745V16.3286H233.634V16.0278C233.634 15.481 233.534 14.9933 233.333 14.5649C233.142 14.1274 232.85 13.7811 232.458 13.5259C232.066 13.2707 231.565 13.1431 230.954 13.1431C230.435 13.1431 229.988 13.257 229.614 13.4849C229.241 13.7127 228.935 14.0317 228.698 14.4419C228.47 14.8521 228.297 15.3351 228.179 15.8911C228.069 16.438 228.015 17.0396 228.015 17.6958V18.2427C228.015 18.8351 228.097 19.382 228.261 19.8833C228.434 20.3846 228.675 20.8175 228.985 21.1821C229.304 21.5467 229.687 21.8293 230.134 22.0298C230.59 22.2303 231.104 22.3306 231.679 22.3306C232.39 22.3306 233.05 22.1938 233.661 21.9204C234.281 21.6379 234.814 21.214 235.261 20.6489L237.175 22.7271C236.865 23.1737 236.441 23.6021 235.903 24.0122C235.375 24.4224 234.737 24.7596 233.989 25.0239C233.242 25.2791 232.39 25.4067 231.433 25.4067ZM243.901 4.1333V25.1333H239.95V4.1333H243.901ZM251.312 10.3403V25.1333H247.36V10.3403H251.312ZM247.114 6.48486C247.114 5.91064 247.315 5.43669 247.716 5.06299C248.117 4.68929 248.655 4.50244 249.329 4.50244C249.994 4.50244 250.528 4.68929 250.929 5.06299C251.339 5.43669 251.544 5.91064 251.544 6.48486C251.544 7.05908 251.339 7.53304 250.929 7.90674C250.528 8.28044 249.994 8.46729 249.329 8.46729C248.655 8.46729 248.117 8.28044 247.716 7.90674C247.315 7.53304 247.114 7.05908 247.114 6.48486ZM259.597 22.2622L262.878 10.3403H266.993L262.003 25.1333H259.515L259.597 22.2622ZM257.341 10.3403L260.636 22.2759L260.704 25.1333H258.202L253.212 10.3403H257.341ZM275.374 25.4067C274.226 25.4067 273.196 25.2244 272.284 24.8599C271.373 24.4862 270.598 23.9712 269.96 23.3149C269.331 22.6587 268.848 21.8976 268.511 21.0317C268.174 20.1567 268.005 19.2271 268.005 18.2427V17.6958C268.005 16.5747 268.164 15.5493 268.483 14.6196C268.802 13.6899 269.258 12.8833 269.851 12.1997C270.452 11.5161 271.181 10.992 272.038 10.6274C272.895 10.2537 273.861 10.0669 274.937 10.0669C275.985 10.0669 276.914 10.2401 277.726 10.5864C278.537 10.9328 279.216 11.425 279.763 12.063C280.319 12.701 280.738 13.4666 281.021 14.3599C281.303 15.244 281.444 16.2284 281.444 17.313V18.9536H269.687V16.3286H277.575V16.0278C277.575 15.481 277.475 14.9933 277.274 14.5649C277.083 14.1274 276.791 13.7811 276.399 13.5259C276.007 13.2707 275.506 13.1431 274.896 13.1431C274.376 13.1431 273.929 13.257 273.556 13.4849C273.182 13.7127 272.877 14.0317 272.64 14.4419C272.412 14.8521 272.239 15.3351 272.12 15.8911C272.011 16.438 271.956 17.0396 271.956 17.6958V18.2427C271.956 18.8351 272.038 19.382 272.202 19.8833C272.375 20.3846 272.617 20.8175 272.927 21.1821C273.246 21.5467 273.629 21.8293 274.075 22.0298C274.531 22.2303 275.046 22.3306 275.62 22.3306C276.331 22.3306 276.992 22.1938 277.603 21.9204C278.222 21.6379 278.756 21.214 279.202 20.6489L281.116 22.7271C280.806 23.1737 280.382 23.6021 279.845 24.0122C279.316 24.4224 278.678 24.7596 277.931 25.0239C277.183 25.2791 276.331 25.4067 275.374 25.4067ZM287.624 13.5669V25.1333H283.687V10.3403H287.392L287.624 13.5669ZM292.081 10.2446L292.013 13.895C291.821 13.8677 291.589 13.8449 291.315 13.8267C291.051 13.7993 290.81 13.7856 290.591 13.7856C290.035 13.7856 289.552 13.8586 289.142 14.0044C288.741 14.1411 288.403 14.3462 288.13 14.6196C287.866 14.8931 287.665 15.2257 287.528 15.6177C287.401 16.0096 287.328 16.4562 287.31 16.9575L286.517 16.7114C286.517 15.7544 286.612 14.8748 286.804 14.0728C286.995 13.2616 287.273 12.5552 287.638 11.9536C288.011 11.3521 288.467 10.8872 289.005 10.5591C289.543 10.231 290.158 10.0669 290.851 10.0669C291.069 10.0669 291.293 10.0851 291.521 10.1216C291.748 10.1489 291.935 10.1899 292.081 10.2446ZM298.575 23.4653L302.499 10.3403H306.724L300.776 27.3618C300.649 27.7355 300.476 28.1366 300.257 28.5649C300.047 28.9933 299.76 29.3989 299.396 29.7817C299.04 30.1737 298.589 30.4927 298.042 30.7388C297.504 30.9849 296.843 31.1079 296.06 31.1079C295.686 31.1079 295.381 31.0851 295.144 31.0396C294.907 30.994 294.624 30.9302 294.296 30.8481V27.9634C294.396 27.9634 294.501 27.9634 294.61 27.9634C294.72 27.9725 294.825 27.9771 294.925 27.9771C295.444 27.9771 295.868 27.9178 296.196 27.7993C296.524 27.6808 296.789 27.4985 296.989 27.2524C297.19 27.0155 297.349 26.7056 297.468 26.3228L298.575 23.4653ZM296.935 10.3403L300.147 21.0591L300.708 25.229L298.028 25.5161L292.71 10.3403H296.935Z" fill="#D7EB3E"/>
<path d="M65.2604 88.5407H72.7525V74.6888L61.5143 57.0591H47.7789V88.5407H52.7737" fill="#D7EB3E"/>
<path d="M10.3186 88.5404H0.329102V48.2441H47.779V88.5404H22.8053" fill="#D7EB3E"/>
<path d="M7.82122 82.2446H0.329102V84.7632H7.82122V82.2446Z" fill="#503CEB"/>
<path d="M47.7791 82.2449H25.3029V84.7634H47.7791V82.2449Z" fill="#503CEB"/>
<path d="M72.7528 82.2446H67.7581V84.7632H72.7528V82.2446Z" fill="white"/>
<path d="M47.7786 52.022H4.07471V54.5405H47.7786V52.022Z" fill="#503CEB"/>
<path d="M16.5618 94.8373C20.0099 94.8373 22.8052 92.0183 22.8052 88.541C22.8052 85.0636 20.0099 82.2446 16.5618 82.2446C13.1136 82.2446 10.3184 85.0636 10.3184 88.541C10.3184 92.0183 13.1136 94.8373 16.5618 94.8373Z" fill="white"/>
<path d="M59.0167 94.8373C62.4649 94.8373 65.2602 92.0183 65.2602 88.541C65.2602 85.0636 62.4649 82.2446 59.0167 82.2446C55.5686 82.2446 52.7733 85.0636 52.7733 88.541C52.7733 92.0183 55.5686 94.8373 59.0167 94.8373Z" fill="white"/>
<path d="M17.8105 87.2815H15.3131V89.8H17.8105V87.2815Z" fill="#503CEB"/>
<path d="M60.2656 87.2815H57.7682V89.8H60.2656V87.2815Z" fill="#503CEB"/>
<path d="M64.7238 62.0964H52.7739V73.4299H71.9536L64.7238 62.0964Z" fill="#BBEEEE"/>
<path d="M50.2762 57.0588H47.7788V88.5404H50.2762V57.0588Z" fill="#AEBF29"/>
<path d="M71.9536 73.4299L65.1733 62.7891C61.8406 66.7771 57.5813 69.8699 52.7739 71.7927V73.4297H71.9536V73.4299Z" fill="#BFF7F7"/>
<path d="M34.1899 59.2639C33.7962 59.2639 33.7768 59.6193 33.7755 59.6271C33.7755 59.8567 33.9607 60.0434 34.1899 60.0434C34.4178 60.0434 34.603 59.858 34.6043 59.6284C34.603 59.6154 34.5784 59.2639 34.1899 59.2639Z" fill="#008BD2"/>
<path d="M27.5024 59.2639C27.1074 59.2639 27.0893 59.6193 27.088 59.6271C27.0893 59.8567 27.2745 60.0434 27.5024 60.0434C27.7303 60.0434 27.9155 59.858 27.9168 59.6284C27.9155 59.6154 27.8909 59.2639 27.5024 59.2639Z" fill="#008BD2"/>
<path d="M37.9039 59.9349V58.8273C37.9039 58.8 37.8832 58.7702 37.8146 58.743L36.9612 58.4213C36.9612 58.4213 36.864 58.3811 36.6361 58.3811H30.986H25.4124C25.1845 58.3811 24.9099 58.4213 24.9099 58.4213L24.0552 58.743C23.9879 58.7689 23.9672 58.8 23.9659 58.8273V59.9349L22.8055 60.7248V60.8416V60.8753V73.7794C22.8055 74.2684 23.2057 74.6653 23.6991 74.6653H30.5004L30.9666 72.0609H29.164C29.1238 72.0609 24.0099 71.8689 24.0099 71.8689L28.747 71.6095L28.6848 71.3177L27.0959 71.0907L28.6071 70.961L28.5074 70.603L26.0366 70.2307C26.0366 70.2307 28.7211 69.9324 28.7612 69.9324H31.359L31.5571 68.8702C31.7902 67.5809 32.316 66.6315 33.1422 65.9233C33.971 65.2125 35.0251 64.8611 36.3059 64.8611C36.8226 64.8611 37.1515 64.9817 37.294 65.2307C37.3885 65.3786 37.4559 65.6419 37.518 65.9155C37.5776 66.197 37.6307 66.4512 37.5944 66.6367C37.5491 66.9117 37.2253 67.0089 36.6335 67.0089H36.4302C35.3644 67.0089 34.7156 67.6185 34.4981 68.852L34.3025 69.9324H35.5405C36.0016 69.9324 36.1686 70.2528 36.0404 70.9739C35.9031 71.7249 35.6079 72.0596 35.1482 72.0596H33.9114L33.4504 74.664H38.172C38.6654 74.664 39.0655 74.2671 39.0655 73.7781V60.874V60.8403V60.7235L37.9039 59.9349ZM34.5136 62.2151C34.4566 62.9479 34.1225 63.6198 33.5579 64.1256C32.8845 64.7301 31.943 65.0491 30.8345 65.0491C29.8698 65.0491 28.9503 64.7236 28.2432 64.1308C27.6152 63.6042 27.2293 62.9181 27.158 62.2177C27.0182 62.1632 26.9185 62.027 26.9185 61.8662C26.9185 61.6587 27.0868 61.4901 27.2953 61.4901C27.5038 61.4901 27.6721 61.6587 27.6721 61.8662C27.6721 61.9038 27.667 61.9388 27.6566 61.9726C27.6566 61.9959 27.6566 62.0115 27.6566 62.0115C27.6566 63.376 29.3155 64.5459 31.0132 64.5459C33.1992 64.5459 34.0008 63.2268 34.0047 61.9946C33.9878 61.9505 33.9775 61.9025 33.9775 61.8532C33.9775 61.6392 34.1523 61.4641 34.366 61.4641C34.581 61.4641 34.7558 61.6392 34.7558 61.8532C34.7558 62.0167 34.6561 62.1567 34.5136 62.2151ZM37.3328 59.0102C37.202 59.0685 37.1347 59.158 37.1023 59.2488C37.0997 59.2566 37.0984 59.2631 37.0958 59.2696C37.0958 59.2709 37.0945 59.2735 37.0945 59.2748C37.0933 59.2812 37.092 59.2864 37.0907 59.2916C37.0894 59.2942 37.0894 59.2968 37.0881 59.2994C37.0855 59.3046 37.0855 59.3085 37.0855 59.3137C37.0855 59.3176 37.0842 59.3214 37.0829 59.3253C37.0829 59.3292 37.0816 59.3318 37.0816 59.3357C37.0816 59.3409 37.0803 59.3461 37.079 59.3513C37.079 59.3539 37.079 59.3552 37.0777 59.3578C37.0777 59.363 37.0764 59.3681 37.0764 59.3733L37.0712 59.3707V59.3759V59.5017V60.8766H24.7972V59.4991V59.3746V59.3694L24.7921 59.372C24.783 59.2436 24.726 59.0945 24.5357 59.0102L24.1044 58.8714L24.928 58.577C25.0524 58.5225 25.2363 58.5225 25.2363 58.5225H36.6348C36.6348 58.5225 36.7993 58.5212 36.9612 58.5744L37.7667 58.8701L37.3328 59.0102Z" fill="#008BD2"/>
<path d="M65.2603 88.5406H72.7524V74.6888L61.5142 57.0591H47.7788V88.5406H52.7736" fill="#F7C647"/>
<path d="M10.319 88.5404H0.329468V48.2441H47.7794V88.5404H22.8057" fill="#F7C647"/>
<path d="M7.82121 82.2444H0.329102V84.7629H7.82121V82.2444Z" fill="#503CEB"/>
<path d="M47.7792 82.2446H25.303V84.7632H47.7792V82.2446Z" fill="#503CEB"/>
<path d="M72.753 82.2444H67.7583V84.7629H72.753V82.2444Z" fill="white"/>
<path d="M47.7786 52.022H4.07471V54.5405H47.7786V52.022Z" fill="#503CEB"/>
<path d="M16.5617 94.8373C20.0098 94.8373 22.8051 92.0183 22.8051 88.541C22.8051 85.0636 20.0098 82.2446 16.5617 82.2446C13.1135 82.2446 10.3182 85.0636 10.3182 88.541C10.3182 92.0183 13.1135 94.8373 16.5617 94.8373Z" fill="white"/>
<path d="M59.0167 94.8373C62.4649 94.8373 65.2602 92.0183 65.2602 88.541C65.2602 85.0636 62.4649 82.2446 59.0167 82.2446C55.5686 82.2446 52.7733 85.0636 52.7733 88.541C52.7733 92.0183 55.5686 94.8373 59.0167 94.8373Z" fill="white"/>
<path d="M17.8105 87.2817H15.3131V89.8003H17.8105V87.2817Z" fill="#503CEB"/>
<path d="M60.2653 87.2817H57.7679V89.8003H60.2653V87.2817Z" fill="#503CEB"/>
<path d="M64.7238 62.0964H52.7739V73.4298H71.9536L64.7238 62.0964Z" fill="#BBEEEE"/>
<path d="M50.2761 57.0591H47.7787V88.5406H50.2761V57.0591Z" fill="#FFA83D"/>
<path d="M71.9536 73.4299L65.1733 62.7891C61.8406 66.7771 57.5813 69.8699 52.7739 71.7927V73.4297H71.9536V73.4299Z" fill="#BFF7F7"/>
<path d="M34.1897 59.2642C33.796 59.2642 33.7766 59.6195 33.7753 59.6273C33.7753 59.8569 33.9605 60.0437 34.1897 60.0437C34.4176 60.0437 34.6028 59.8582 34.6041 59.6286C34.6028 59.6157 34.5782 59.2642 34.1897 59.2642Z" fill="#008BD2"/>
<path d="M27.5022 59.2642C27.1072 59.2642 27.0891 59.6195 27.0878 59.6273C27.0891 59.8569 27.2742 60.0437 27.5022 60.0437C27.7301 60.0437 27.9153 59.8582 27.9166 59.6286C27.9153 59.6157 27.8907 59.2642 27.5022 59.2642Z" fill="#008BD2"/>
<path d="M37.9042 59.9347V58.827C37.9042 58.7998 37.8834 58.77 37.8148 58.7427L36.9614 58.4211C36.9614 58.4211 36.8643 58.3809 36.6364 58.3809H30.9863H25.4126C25.1847 58.3809 24.9102 58.4211 24.9102 58.4211L24.0555 58.7427C23.9881 58.7687 23.9674 58.7998 23.9661 58.827V59.9347L22.8058 60.7246V60.8413V60.875V73.7792C22.8058 74.2681 23.2059 74.665 23.6993 74.665H30.5007L30.9669 72.0606H29.1642C29.1241 72.0606 24.0101 71.8686 24.0101 71.8686L28.7472 71.6092L28.6851 71.3174L27.0961 71.0904L28.6074 70.9607L28.5077 70.6027L26.0368 70.2305C26.0368 70.2305 28.7213 69.9322 28.7615 69.9322H31.3592L31.5574 68.8699C31.7905 67.5807 32.3162 66.6312 33.1425 65.9231C33.9712 65.2123 35.0254 64.8608 36.3061 64.8608C36.8228 64.8608 37.1518 64.9814 37.2942 65.2305C37.3887 65.3783 37.4561 65.6416 37.5182 65.9153C37.5778 66.1967 37.6309 66.451 37.5947 66.6364C37.5493 66.9114 37.2256 67.0087 36.6338 67.0087H36.4304C35.3647 67.0087 34.7159 67.6183 34.4983 68.8518L34.3028 69.9322H35.5408C36.0018 69.9322 36.1689 70.2525 36.0407 70.9737C35.9034 71.7247 35.6081 72.0593 35.1484 72.0593H33.9117L33.4507 74.6637H38.1722C38.6656 74.6637 39.0658 74.2668 39.0658 73.7779V60.8737V60.84V60.7233L37.9042 59.9347ZM34.5139 62.2149C34.4569 62.9477 34.1228 63.6195 33.5581 64.1254C32.8847 64.7298 31.9433 65.0489 30.8348 65.0489C29.87 65.0489 28.9505 64.7233 28.2435 64.1306C27.6154 63.604 27.2295 62.9179 27.1583 62.2175C27.0184 62.163 26.9187 62.0268 26.9187 61.866C26.9187 61.6584 27.087 61.4898 27.2955 61.4898C27.504 61.4898 27.6724 61.6584 27.6724 61.866C27.6724 61.9036 27.6672 61.9386 27.6568 61.9723C27.6568 61.9957 27.6568 62.0112 27.6568 62.0112C27.6568 63.3757 29.3157 64.5456 31.0135 64.5456C33.1994 64.5456 34.001 63.2266 34.0049 61.9944C33.9881 61.9503 33.9777 61.9023 33.9777 61.853C33.9777 61.639 34.1525 61.4639 34.3662 61.4639C34.5812 61.4639 34.756 61.639 34.756 61.853C34.756 62.0164 34.6563 62.1565 34.5139 62.2149ZM37.3331 59.0099C37.2023 59.0683 37.1349 59.1578 37.1026 59.2486C37.1 59.2564 37.0987 59.2628 37.0961 59.2693C37.0961 59.2706 37.0948 59.2732 37.0948 59.2745C37.0935 59.281 37.0922 59.2862 37.0909 59.2914C37.0896 59.294 37.0896 59.2966 37.0883 59.2992C37.0857 59.3043 37.0857 59.3082 37.0857 59.3134C37.0857 59.3173 37.0844 59.3212 37.0831 59.3251C37.0831 59.329 37.0818 59.3316 37.0818 59.3355C37.0818 59.3407 37.0805 59.3458 37.0792 59.351C37.0792 59.3536 37.0792 59.3549 37.0779 59.3575C37.0779 59.3627 37.0767 59.3679 37.0767 59.3731L37.0715 59.3705V59.3757V59.5015V60.8763H24.7975V59.4989V59.3744V59.3692L24.7923 59.3718C24.7832 59.2434 24.7263 59.0942 24.5359 59.0099L24.1047 58.8711L24.9283 58.5767C25.0526 58.5222 25.2365 58.5222 25.2365 58.5222H36.6351C36.6351 58.5222 36.7995 58.5209 36.9614 58.5741L37.7669 58.8698L37.3331 59.0099Z" fill="#008BD2"/>
</svg>
