<svg width="138" height="26" viewBox="0 0 138 26" fill="none" xmlns="http://www.w3.org/2000/svg">
<rect x="1.48633" y="1.46057" width="135.514" height="23" rx="7" stroke="#968AF3" stroke-width="2"/>
<path d="M11.9395 18.2939H8.64329V8.11213H12.0439C13.0415 8.11213 13.8983 8.31596 14.6142 8.72363C15.3301 9.12799 15.8786 9.70966 16.2598 10.4687C16.6442 11.2243 16.8365 12.1308 16.8365 13.1881C16.8365 14.2487 16.6426 15.1602 16.2548 15.9225C15.8703 16.6848 15.3135 17.2715 14.5843 17.6824C13.8552 18.0901 12.9735 18.2939 11.9395 18.2939ZM10.1795 16.9516H11.8549C12.6305 16.9516 13.2752 16.8058 13.7889 16.5141C14.3026 16.2191 14.6871 15.7932 14.9423 15.2364C15.1975 14.6763 15.3251 13.9935 15.3251 13.1881C15.3251 12.3894 15.1975 11.7116 14.9423 11.1547C14.6904 10.5979 14.3142 10.1753 13.8137 9.88698C13.3133 9.59863 12.6918 9.45446 11.9494 9.45446H10.1795V16.9516ZM27.7913 13.203C27.7913 14.2902 27.5924 15.2248 27.1947 16.007C26.7969 16.7859 26.2517 17.3858 25.559 17.8067C24.8696 18.2243 24.0858 18.4331 23.2075 18.4331C22.3258 18.4331 21.5387 18.2243 20.846 17.8067C20.1566 17.3858 19.613 16.7842 19.2153 16.002C18.8175 15.2198 18.6187 14.2868 18.6187 13.203C18.6187 12.1159 18.8175 11.1829 19.2153 10.404C19.613 9.62183 20.1566 9.02193 20.846 8.60431C21.5387 8.18339 22.3258 7.97292 23.2075 7.97292C24.0858 7.97292 24.8696 8.18339 25.559 8.60431C26.2517 9.02193 26.7969 9.62183 27.1947 10.404C27.5924 11.1829 27.7913 12.1159 27.7913 13.203ZM26.27 13.203C26.27 12.3744 26.1357 11.6768 25.8673 11.11C25.6021 10.5399 25.2375 10.109 24.7735 9.81738C24.3128 9.5224 23.7908 9.37491 23.2075 9.37491C22.6208 9.37491 22.0971 9.5224 21.6364 9.81738C21.1757 10.109 20.8112 10.5399 20.5427 11.11C20.2775 11.6768 20.145 12.3744 20.145 13.203C20.145 14.0316 20.2775 14.731 20.5427 15.301C20.8112 15.8678 21.1757 16.2987 21.6364 16.5937C22.0971 16.8853 22.6208 17.0312 23.2075 17.0312C23.7908 17.0312 24.3128 16.8853 24.7735 16.5937C25.2375 16.2987 25.6021 15.8678 25.8673 15.301C26.1357 14.731 26.27 14.0316 26.27 13.203ZM31.7771 18.2939L28.9533 8.11213H30.569L32.5527 15.9971H32.6472L34.7104 8.11213H36.3112L38.3744 16.002H38.4689L40.4476 8.11213H42.0683L39.2395 18.2939H37.6933L35.5506 10.6675H35.471L33.3283 18.2939H31.7771ZM51.8871 8.11213V18.2939H50.4752L45.2998 10.8266H45.2053V18.2939H43.6691V8.11213H45.0909L50.2713 15.5894H50.3658V8.11213H51.8871ZM54.3281 18.2939V8.11213H55.8643V16.9715H60.4779V18.2939H54.3281ZM70.8784 13.203C70.8784 14.2902 70.6795 15.2248 70.2818 16.007C69.8841 16.7859 69.3388 17.3858 68.6461 17.8067C67.9567 18.2243 67.1729 18.4331 66.2946 18.4331C65.4129 18.4331 64.6258 18.2243 63.9331 17.8067C63.2437 17.3858 62.7001 16.7842 62.3024 16.002C61.9047 15.2198 61.7058 14.2868 61.7058 13.203C61.7058 12.1159 61.9047 11.1829 62.3024 10.404C62.7001 9.62183 63.2437 9.02193 63.9331 8.60431C64.6258 8.18339 65.4129 7.97292 66.2946 7.97292C67.1729 7.97292 67.9567 8.18339 68.6461 8.60431C69.3388 9.02193 69.8841 9.62183 70.2818 10.404C70.6795 11.1829 70.8784 12.1159 70.8784 13.203ZM69.3571 13.203C69.3571 12.3744 69.2228 11.6768 68.9544 11.11C68.6892 10.5399 68.3246 10.109 67.8606 9.81738C67.3999 9.5224 66.8779 9.37491 66.2946 9.37491C65.7079 9.37491 65.1842 9.5224 64.7235 9.81738C64.2628 10.109 63.8983 10.5399 63.6298 11.11C63.3646 11.6768 63.2321 12.3744 63.2321 13.203C63.2321 14.0316 63.3646 14.731 63.6298 15.301C63.8983 15.8678 64.2628 16.2987 64.7235 16.5937C65.1842 16.8853 65.7079 17.0312 66.2946 17.0312C66.8779 17.0312 67.3999 16.8853 67.8606 16.5937C68.3246 16.2987 68.6892 15.8678 68.9544 15.301C69.2228 14.731 69.3571 14.0316 69.3571 13.203ZM73.3479 18.2939H71.7172L75.3813 8.11213H77.1561L80.8202 18.2939H79.1895L76.311 9.96156H76.2314L73.3479 18.2939ZM73.6213 14.3067H78.9111V15.5993H73.6213V14.3067ZM85.7867 18.2939H82.4906V8.11213H85.8911C86.8888 8.11213 87.7455 8.31596 88.4614 8.72363C89.1773 9.12799 89.7259 9.70966 90.107 10.4687C90.4915 11.2243 90.6837 12.1308 90.6837 13.1881C90.6837 14.2487 90.4898 15.1602 90.1021 15.9225C89.7176 16.6848 89.1608 17.2715 88.4316 17.6824C87.7024 18.0901 86.8208 18.2939 85.7867 18.2939ZM84.0268 16.9516H85.7022C86.4778 16.9516 87.1224 16.8058 87.6362 16.5141C88.1499 16.2191 88.5344 15.7932 88.7896 15.2364C89.0448 14.6763 89.1724 13.9935 89.1724 13.1881C89.1724 12.3894 89.0448 11.7116 88.7896 11.1547C88.5377 10.5979 88.1615 10.1753 87.661 9.88698C87.1605 9.59863 86.5391 9.45446 85.7967 9.45446H84.0268V16.9516ZM104.917 8.11213V18.2939H103.505L98.3298 10.8266H98.2354V18.2939H96.6992V8.11213H98.121L103.301 15.5894H103.396V8.11213H104.917ZM116.203 13.203C116.203 14.2902 116.004 15.2248 115.606 16.007C115.208 16.7859 114.663 17.3858 113.97 17.8067C113.281 18.2243 112.497 18.4331 111.619 18.4331C110.737 18.4331 109.95 18.2243 109.257 17.8067C108.568 17.3858 108.024 16.7842 107.627 16.002C107.229 15.2198 107.03 14.2868 107.03 13.203C107.03 12.1159 107.229 11.1829 107.627 10.404C108.024 9.62183 108.568 9.02193 109.257 8.60431C109.95 8.18339 110.737 7.97292 111.619 7.97292C112.497 7.97292 113.281 8.18339 113.97 8.60431C114.663 9.02193 115.208 9.62183 115.606 10.404C116.004 11.1829 116.203 12.1159 116.203 13.203ZM114.681 13.203C114.681 12.3744 114.547 11.6768 114.279 11.11C114.013 10.5399 113.649 10.109 113.185 9.81738C112.724 9.5224 112.202 9.37491 111.619 9.37491C111.032 9.37491 110.508 9.5224 110.048 9.81738C109.587 10.109 109.222 10.5399 108.954 11.11C108.689 11.6768 108.556 12.3744 108.556 13.203C108.556 14.0316 108.689 14.731 108.954 15.301C109.222 15.8678 109.587 16.2987 110.048 16.5937C110.508 16.8853 111.032 17.0312 111.619 17.0312C112.202 17.0312 112.724 16.8853 113.185 16.5937C113.649 16.2987 114.013 15.8678 114.279 15.301C114.547 14.731 114.681 14.0316 114.681 13.203ZM120.188 18.2939L117.365 8.11213H118.98L120.964 15.9971H121.058L123.122 8.11213H124.723L126.786 16.002H126.88L128.859 8.11213H130.48L127.651 18.2939H126.105L123.962 10.6675H123.882L121.74 18.2939H120.188Z" fill="white"/>
</svg>
