<svg width="321" height="118" viewBox="0 0 321 118" fill="none" xmlns="http://www.w3.org/2000/svg">
<path d="M89.1727 19.2629H83.3758V15.6067H89.1727C90.0685 15.6067 90.7977 15.4609 91.3602 15.1692C91.9227 14.8671 92.3342 14.4504 92.5946 13.9192C92.855 13.3879 92.9852 12.789 92.9852 12.1223C92.9852 11.4452 92.855 10.815 92.5946 10.2317C92.3342 9.64836 91.9227 9.17961 91.3602 8.82544C90.7977 8.47127 90.0685 8.29419 89.1727 8.29419H85.0008V27.3723H80.3133V4.62231H89.1727C90.9539 4.62231 92.48 4.94523 93.7508 5.59106C95.0321 6.22648 96.0112 7.10669 96.6883 8.23169C97.3654 9.35669 97.7039 10.6431 97.7039 12.0911C97.7039 13.5598 97.3654 14.8306 96.6883 15.9036C96.0112 16.9765 95.0321 17.8046 93.7508 18.3879C92.48 18.9713 90.9539 19.2629 89.1727 19.2629ZM105.157 14.1536V27.3723H100.657V10.4661H104.891L105.157 14.1536ZM110.251 10.3567L110.173 14.5286C109.954 14.4973 109.688 14.4713 109.376 14.4504C109.074 14.4192 108.798 14.4036 108.548 14.4036C107.912 14.4036 107.36 14.4869 106.891 14.6536C106.433 14.8098 106.048 15.0442 105.735 15.3567C105.433 15.6692 105.204 16.0494 105.048 16.4973C104.902 16.9452 104.819 17.4556 104.798 18.0286L103.891 17.7473C103.891 16.6536 104.001 15.6484 104.22 14.7317C104.438 13.8046 104.756 12.9973 105.173 12.3098C105.6 11.6223 106.121 11.0911 106.735 10.7161C107.35 10.3411 108.053 10.1536 108.845 10.1536C109.095 10.1536 109.35 10.1744 109.61 10.2161C109.871 10.2473 110.084 10.2942 110.251 10.3567ZM117.126 10.4661V27.3723H112.61V10.4661H117.126ZM112.329 6.05981C112.329 5.40356 112.558 4.8619 113.016 4.43481C113.475 4.00773 114.089 3.79419 114.86 3.79419C115.621 3.79419 116.23 4.00773 116.688 4.43481C117.157 4.8619 117.391 5.40356 117.391 6.05981C117.391 6.71606 117.157 7.25773 116.688 7.68481C116.23 8.1119 115.621 8.32544 114.86 8.32544C114.089 8.32544 113.475 8.1119 113.016 7.68481C112.558 7.25773 112.329 6.71606 112.329 6.05981ZM127.829 24.1692C128.381 24.1692 128.871 24.065 129.298 23.8567C129.725 23.6379 130.058 23.3359 130.298 22.9504C130.548 22.5546 130.678 22.0911 130.688 21.5598H134.923C134.912 22.7473 134.595 23.8046 133.97 24.7317C133.345 25.6484 132.506 26.3723 131.454 26.9036C130.402 27.4244 129.225 27.6848 127.923 27.6848C126.61 27.6848 125.464 27.4661 124.485 27.0286C123.516 26.5911 122.709 25.9869 122.063 25.2161C121.417 24.4348 120.933 23.5286 120.61 22.4973C120.287 21.4556 120.126 20.3411 120.126 19.1536V18.7004C120.126 17.5025 120.287 16.3879 120.61 15.3567C120.933 14.315 121.417 13.4088 122.063 12.6379C122.709 11.8567 123.516 11.2473 124.485 10.8098C125.454 10.3723 126.589 10.1536 127.891 10.1536C129.277 10.1536 130.49 10.4192 131.532 10.9504C132.584 11.4817 133.407 12.2421 134.001 13.2317C134.605 14.2109 134.912 15.3723 134.923 16.7161H130.688C130.678 16.1536 130.558 15.6431 130.329 15.1848C130.11 14.7265 129.787 14.3619 129.36 14.0911C128.944 13.8098 128.428 13.6692 127.813 13.6692C127.157 13.6692 126.621 13.8098 126.204 14.0911C125.787 14.3619 125.464 14.7369 125.235 15.2161C125.006 15.6848 124.845 16.2213 124.751 16.8254C124.667 17.4192 124.626 18.0442 124.626 18.7004V19.1536C124.626 19.8098 124.667 20.44 124.751 21.0442C124.834 21.6484 124.99 22.1848 125.22 22.6536C125.459 23.1223 125.787 23.4921 126.204 23.7629C126.621 24.0338 127.162 24.1692 127.829 24.1692ZM145.313 27.6848C144.001 27.6848 142.824 27.4765 141.782 27.0598C140.74 26.6327 139.855 26.0442 139.126 25.2942C138.407 24.5442 137.855 23.6744 137.47 22.6848C137.084 21.6848 136.891 20.6223 136.891 19.4973V18.8723C136.891 17.5911 137.074 16.4192 137.438 15.3567C137.803 14.2942 138.324 13.3723 139.001 12.5911C139.688 11.8098 140.522 11.2109 141.501 10.7942C142.48 10.3671 143.584 10.1536 144.813 10.1536C146.011 10.1536 147.074 10.3515 148.001 10.7473C148.928 11.1431 149.704 11.7056 150.329 12.4348C150.964 13.164 151.444 14.039 151.766 15.0598C152.089 16.0702 152.251 17.1952 152.251 18.4348V20.3098H138.813V17.3098H147.829V16.9661C147.829 16.3411 147.714 15.7838 147.485 15.2942C147.266 14.7942 146.933 14.3984 146.485 14.1067C146.037 13.815 145.464 13.6692 144.766 13.6692C144.173 13.6692 143.662 13.7994 143.235 14.0598C142.808 14.3202 142.459 14.6848 142.188 15.1536C141.928 15.6223 141.73 16.1744 141.595 16.8098C141.47 17.4348 141.407 18.1223 141.407 18.8723V19.4973C141.407 20.1744 141.501 20.7994 141.688 21.3723C141.886 21.9452 142.162 22.44 142.516 22.8567C142.881 23.2734 143.319 23.5963 143.829 23.8254C144.35 24.0546 144.938 24.1692 145.595 24.1692C146.407 24.1692 147.162 24.0129 147.86 23.7004C148.569 23.3775 149.178 22.8931 149.688 22.2473L151.876 24.6223C151.522 25.1327 151.037 25.6223 150.423 26.0911C149.819 26.5598 149.089 26.9452 148.235 27.2473C147.381 27.539 146.407 27.6848 145.313 27.6848ZM163.954 22.7004C163.954 22.3775 163.86 22.0859 163.673 21.8254C163.485 21.565 163.136 21.3254 162.626 21.1067C162.126 20.8775 161.402 20.6692 160.454 20.4817C159.6 20.2942 158.803 20.0598 158.063 19.7786C157.334 19.4869 156.699 19.1379 156.157 18.7317C155.626 18.3254 155.209 17.8463 154.907 17.2942C154.605 16.7317 154.454 16.0911 154.454 15.3723C154.454 14.664 154.605 13.9973 154.907 13.3723C155.22 12.7473 155.662 12.1952 156.235 11.7161C156.819 11.2265 157.527 10.8463 158.36 10.5754C159.204 10.2942 160.152 10.1536 161.204 10.1536C162.673 10.1536 163.933 10.3879 164.985 10.8567C166.048 11.3254 166.86 11.9713 167.423 12.7942C167.996 13.6067 168.282 14.5338 168.282 15.5754H163.782C163.782 15.1379 163.688 14.7473 163.501 14.4036C163.324 14.0494 163.042 13.7734 162.657 13.5754C162.282 13.3671 161.792 13.2629 161.188 13.2629C160.688 13.2629 160.256 13.3515 159.891 13.5286C159.527 13.6952 159.246 13.9244 159.048 14.2161C158.86 14.4973 158.766 14.8098 158.766 15.1536C158.766 15.414 158.819 15.6484 158.923 15.8567C159.037 16.0546 159.22 16.2369 159.47 16.4036C159.72 16.5702 160.042 16.7265 160.438 16.8723C160.845 17.0077 161.345 17.1327 161.938 17.2473C163.157 17.4973 164.246 17.8254 165.204 18.2317C166.162 18.6275 166.923 19.1692 167.485 19.8567C168.048 20.5338 168.329 21.4244 168.329 22.5286C168.329 23.2786 168.162 23.9661 167.829 24.5911C167.496 25.2161 167.016 25.7629 166.391 26.2317C165.766 26.69 165.016 27.0494 164.141 27.3098C163.277 27.5598 162.303 27.6848 161.22 27.6848C159.647 27.6848 158.313 27.4036 157.22 26.8411C156.136 26.2786 155.313 25.565 154.751 24.7004C154.199 23.8254 153.923 22.9296 153.923 22.0129H158.188C158.209 22.6275 158.365 23.1223 158.657 23.4973C158.959 23.8723 159.339 24.1431 159.798 24.3098C160.266 24.4765 160.772 24.5598 161.313 24.5598C161.897 24.5598 162.381 24.4817 162.766 24.3254C163.152 24.1588 163.444 23.94 163.641 23.6692C163.85 23.3879 163.954 23.065 163.954 22.7004ZM188.829 4.62231V27.3723H184.157V4.62231H188.829ZM195.829 4.62231V8.29419H177.266V4.62231H195.829ZM202.61 3.37231V27.3723H198.11V3.37231H202.61ZM201.97 18.3254H200.735C200.746 17.1484 200.902 16.065 201.204 15.0754C201.506 14.0754 201.938 13.2109 202.501 12.4817C203.063 11.7421 203.735 11.1692 204.516 10.7629C205.308 10.3567 206.183 10.1536 207.141 10.1536C207.975 10.1536 208.73 10.2734 209.407 10.5129C210.095 10.7421 210.683 11.1171 211.173 11.6379C211.673 12.1484 212.058 12.8202 212.329 13.6536C212.6 14.4869 212.735 15.4973 212.735 16.6848V27.3723H208.204V16.6536C208.204 15.9036 208.095 15.315 207.876 14.8879C207.667 14.4504 207.36 14.1431 206.954 13.9661C206.558 13.7786 206.069 13.6848 205.485 13.6848C204.839 13.6848 204.287 13.8046 203.829 14.0442C203.381 14.2838 203.022 14.6171 202.751 15.0442C202.48 15.4609 202.282 15.9504 202.157 16.5129C202.032 17.0754 201.97 17.6796 201.97 18.3254ZM225.282 23.5598V16.0286C225.282 15.4869 225.194 15.0234 225.016 14.6379C224.839 14.2421 224.563 13.9348 224.188 13.7161C223.824 13.4973 223.35 13.3879 222.766 13.3879C222.266 13.3879 221.834 13.4765 221.47 13.6536C221.105 13.8202 220.824 14.065 220.626 14.3879C220.428 14.7004 220.329 15.0702 220.329 15.4973H215.829C215.829 14.7786 215.996 14.0963 216.329 13.4504C216.662 12.8046 217.147 12.2369 217.782 11.7473C218.417 11.2473 219.173 10.8567 220.048 10.5754C220.933 10.2942 221.923 10.1536 223.016 10.1536C224.329 10.1536 225.496 10.3723 226.516 10.8098C227.537 11.2473 228.339 11.9036 228.923 12.7786C229.516 13.6536 229.813 14.7473 229.813 16.0598V23.2942C229.813 24.2213 229.871 24.9817 229.985 25.5754C230.1 26.1588 230.266 26.6692 230.485 27.1067V27.3723H225.938C225.72 26.914 225.553 26.3411 225.438 25.6536C225.334 24.9556 225.282 24.2577 225.282 23.5598ZM225.876 17.0754L225.907 19.6223H223.391C222.798 19.6223 222.282 19.69 221.845 19.8254C221.407 19.9609 221.048 20.1536 220.766 20.4036C220.485 20.6431 220.277 20.9244 220.141 21.2473C220.016 21.5702 219.954 21.9244 219.954 22.3098C219.954 22.6952 220.042 23.0442 220.22 23.3567C220.397 23.6588 220.652 23.8984 220.985 24.0754C221.319 24.2421 221.709 24.3254 222.157 24.3254C222.834 24.3254 223.423 24.19 223.923 23.9192C224.423 23.6484 224.808 23.315 225.079 22.9192C225.36 22.5234 225.506 22.1484 225.516 21.7942L226.704 23.7004C226.537 24.1275 226.308 24.5702 226.016 25.0286C225.735 25.4869 225.376 25.9192 224.938 26.3254C224.501 26.7213 223.975 27.0494 223.36 27.3098C222.746 27.5598 222.016 27.6848 221.173 27.6848C220.1 27.6848 219.126 27.4713 218.251 27.0442C217.386 26.6067 216.699 26.0077 216.188 25.2473C215.688 24.4765 215.438 23.6015 215.438 22.6223C215.438 21.7369 215.605 20.9504 215.938 20.2629C216.272 19.5754 216.761 18.9973 217.407 18.5286C218.063 18.0494 218.881 17.69 219.86 17.4504C220.839 17.2004 221.975 17.0754 223.266 17.0754H225.876ZM241.563 10.4661V13.6536H231.72V10.4661H241.563ZM234.157 6.29419H238.657V22.2786C238.657 22.7681 238.72 23.1431 238.845 23.4036C238.98 23.664 239.178 23.8463 239.438 23.9504C239.699 24.0442 240.027 24.0911 240.423 24.0911C240.704 24.0911 240.954 24.0806 241.173 24.0598C241.402 24.0286 241.595 23.9973 241.751 23.9661L241.766 27.2786C241.381 27.4036 240.964 27.5025 240.516 27.5754C240.069 27.6484 239.574 27.6848 239.032 27.6848C238.042 27.6848 237.178 27.5234 236.438 27.2004C235.709 26.8671 235.147 26.3359 234.751 25.6067C234.355 24.8775 234.157 23.9192 234.157 22.7317V6.29419ZM51.6414 53.4192C51.6414 53.0129 51.5789 52.6484 51.4539 52.3254C51.3394 51.9921 51.1206 51.69 50.7977 51.4192C50.4748 51.1379 50.0217 50.8619 49.4383 50.5911C48.855 50.3202 48.0998 50.039 47.1727 49.7473C46.1414 49.414 45.1623 49.039 44.2352 48.6223C43.3185 48.2056 42.506 47.7213 41.7977 47.1692C41.0998 46.6067 40.5477 45.9556 40.1414 45.2161C39.7456 44.4765 39.5477 43.6171 39.5477 42.6379C39.5477 41.69 39.756 40.8306 40.1727 40.0598C40.5894 39.2786 41.1727 38.6119 41.9227 38.0598C42.6727 37.4973 43.5581 37.065 44.5789 36.7629C45.6102 36.4609 46.7404 36.3098 47.9696 36.3098C49.6467 36.3098 51.1102 36.6119 52.3602 37.2161C53.6102 37.8202 54.5789 38.6484 55.2664 39.7004C55.9644 40.7525 56.3133 41.9556 56.3133 43.3098H51.6571C51.6571 42.6431 51.5164 42.0598 51.2352 41.5598C50.9644 41.0494 50.5477 40.6484 49.9852 40.3567C49.4331 40.065 48.7352 39.9192 47.8914 39.9192C47.0789 39.9192 46.4019 40.0442 45.8602 40.2942C45.3185 40.5338 44.9123 40.8619 44.6414 41.2786C44.3706 41.6848 44.2352 42.1431 44.2352 42.6536C44.2352 43.039 44.3289 43.3879 44.5164 43.7004C44.7144 44.0129 45.006 44.3046 45.3914 44.5754C45.7769 44.8463 46.2508 45.1015 46.8133 45.3411C47.3758 45.5806 48.0269 45.815 48.7664 46.0442C50.006 46.4192 51.0946 46.8411 52.0321 47.3098C52.98 47.7786 53.7717 48.3046 54.4071 48.8879C55.0425 49.4713 55.5217 50.1327 55.8446 50.8723C56.1675 51.6119 56.3289 52.4504 56.3289 53.3879C56.3289 54.3775 56.1362 55.2629 55.7508 56.0442C55.3654 56.8254 54.8081 57.4869 54.0789 58.0286C53.3498 58.5702 52.48 58.9817 51.4696 59.2629C50.4592 59.5442 49.3289 59.6848 48.0789 59.6848C46.9539 59.6848 45.8446 59.539 44.7508 59.2473C43.6571 58.9452 42.6623 58.4921 41.7664 57.8879C40.881 57.2838 40.1727 56.5129 39.6414 55.5754C39.1102 54.6379 38.8446 53.5286 38.8446 52.2473H43.5477C43.5477 52.9556 43.6571 53.5546 43.8758 54.0442C44.0946 54.5338 44.4019 54.9296 44.7977 55.2317C45.2039 55.5338 45.6831 55.7525 46.2352 55.8879C46.7977 56.0234 47.4123 56.0911 48.0789 56.0911C48.8914 56.0911 49.5581 55.9765 50.0789 55.7473C50.6102 55.5181 51.0008 55.2004 51.2508 54.7942C51.5112 54.3879 51.6414 53.9296 51.6414 53.4192ZM66.2196 56.1692C66.7717 56.1692 67.2612 56.065 67.6883 55.8567C68.1154 55.6379 68.4487 55.3359 68.6883 54.9504C68.9383 54.5546 69.0685 54.0911 69.0789 53.5598H73.3133C73.3029 54.7473 72.9852 55.8046 72.3602 56.7317C71.7352 57.6484 70.8967 58.3723 69.8446 58.9036C68.7925 59.4244 67.6154 59.6848 66.3133 59.6848C65.0008 59.6848 63.855 59.4661 62.8758 59.0286C61.9071 58.5911 61.0998 57.9869 60.4539 57.2161C59.8081 56.4348 59.3237 55.5286 59.0008 54.4973C58.6779 53.4556 58.5164 52.3411 58.5164 51.1536V50.7004C58.5164 49.5025 58.6779 48.3879 59.0008 47.3567C59.3237 46.315 59.8081 45.4088 60.4539 44.6379C61.0998 43.8567 61.9071 43.2473 62.8758 42.8098C63.8446 42.3723 64.98 42.1536 66.2821 42.1536C67.6675 42.1536 68.881 42.4192 69.9227 42.9504C70.9748 43.4817 71.7977 44.2421 72.3914 45.2317C72.9956 46.2109 73.3029 47.3723 73.3133 48.7161H69.0789C69.0685 48.1536 68.9487 47.6431 68.7196 47.1848C68.5008 46.7265 68.1779 46.3619 67.7508 46.0911C67.3342 45.8098 66.8185 45.6692 66.2039 45.6692C65.5477 45.6692 65.0112 45.8098 64.5946 46.0911C64.1779 46.3619 63.855 46.7369 63.6258 47.2161C63.3967 47.6848 63.2352 48.2213 63.1414 48.8254C63.0581 49.4192 63.0164 50.0442 63.0164 50.7004V51.1536C63.0164 51.8098 63.0581 52.44 63.1414 53.0442C63.2248 53.6484 63.381 54.1848 63.6102 54.6536C63.8498 55.1223 64.1779 55.4921 64.5946 55.7629C65.0112 56.0338 65.5529 56.1692 66.2196 56.1692ZM80.4227 46.1536V59.3723H75.9227V42.4661H80.1571L80.4227 46.1536ZM85.5164 42.3567L85.4383 46.5286C85.2196 46.4973 84.9539 46.4713 84.6414 46.4504C84.3394 46.4192 84.0633 46.4036 83.8133 46.4036C83.1779 46.4036 82.6258 46.4869 82.1571 46.6536C81.6987 46.8098 81.3133 47.0442 81.0008 47.3567C80.6987 47.6692 80.4696 48.0494 80.3133 48.4973C80.1675 48.9452 80.0842 49.4556 80.0633 50.0286L79.1571 49.7473C79.1571 48.6536 79.2664 47.6484 79.4852 46.7317C79.7039 45.8046 80.0217 44.9973 80.4383 44.3098C80.8654 43.6223 81.3862 43.0911 82.0008 42.7161C82.6154 42.3411 83.3185 42.1536 84.1102 42.1536C84.3602 42.1536 84.6154 42.1744 84.8758 42.2161C85.1362 42.2473 85.3498 42.2942 85.5164 42.3567ZM95.1102 59.6848C93.7977 59.6848 92.6206 59.4765 91.5789 59.0598C90.5373 58.6327 89.6519 58.0442 88.9227 57.2942C88.2039 56.5442 87.6519 55.6744 87.2664 54.6848C86.881 53.6848 86.6883 52.6223 86.6883 51.4973V50.8723C86.6883 49.5911 86.8706 48.4192 87.2352 47.3567C87.5998 46.2942 88.1206 45.3723 88.7977 44.5911C89.4852 43.8098 90.3185 43.2109 91.2977 42.7942C92.2769 42.3671 93.381 42.1536 94.6102 42.1536C95.8081 42.1536 96.8706 42.3515 97.7977 42.7473C98.7248 43.1431 99.5008 43.7056 100.126 44.4348C100.761 45.164 101.24 46.039 101.563 47.0598C101.886 48.0702 102.048 49.1952 102.048 50.4348V52.3098H88.6102V49.3098H97.6258V48.9661C97.6258 48.3411 97.5112 47.7838 97.2821 47.2942C97.0633 46.7942 96.73 46.3984 96.2821 46.1067C95.8342 45.815 95.2612 45.6692 94.5633 45.6692C93.9696 45.6692 93.4592 45.7994 93.0321 46.0598C92.605 46.3202 92.256 46.6848 91.9852 47.1536C91.7248 47.6223 91.5269 48.1744 91.3914 48.8098C91.2664 49.4348 91.2039 50.1223 91.2039 50.8723V51.4973C91.2039 52.1744 91.2977 52.7994 91.4852 53.3723C91.6831 53.9452 91.9592 54.44 92.3133 54.8567C92.6779 55.2734 93.1154 55.5963 93.6258 55.8254C94.1467 56.0546 94.7352 56.1692 95.3914 56.1692C96.2039 56.1692 96.9592 56.0129 97.6571 55.7004C98.3654 55.3775 98.9748 54.8931 99.4852 54.2473L101.673 56.6223C101.319 57.1327 100.834 57.6223 100.22 58.0911C99.6154 58.5598 98.8862 58.9452 98.0321 59.2473C97.1779 59.539 96.2039 59.6848 95.1102 59.6848ZM113.735 55.5598V48.0286C113.735 47.4869 113.647 47.0234 113.47 46.6379C113.292 46.2421 113.016 45.9348 112.641 45.7161C112.277 45.4973 111.803 45.3879 111.22 45.3879C110.72 45.3879 110.287 45.4765 109.923 45.6536C109.558 45.8202 109.277 46.065 109.079 46.3879C108.881 46.7004 108.782 47.0702 108.782 47.4973H104.282C104.282 46.7786 104.449 46.0963 104.782 45.4504C105.115 44.8046 105.6 44.2369 106.235 43.7473C106.871 43.2473 107.626 42.8567 108.501 42.5754C109.386 42.2942 110.376 42.1536 111.47 42.1536C112.782 42.1536 113.949 42.3723 114.97 42.8098C115.99 43.2473 116.792 43.9036 117.376 44.7786C117.97 45.6536 118.266 46.7473 118.266 48.0598V55.2942C118.266 56.2213 118.324 56.9817 118.438 57.5754C118.553 58.1588 118.72 58.6692 118.938 59.1067V59.3723H114.391C114.173 58.914 114.006 58.3411 113.891 57.6536C113.787 56.9556 113.735 56.2577 113.735 55.5598ZM114.329 49.0754L114.36 51.6223H111.845C111.251 51.6223 110.735 51.69 110.298 51.8254C109.86 51.9609 109.501 52.1536 109.22 52.4036C108.938 52.6431 108.73 52.9244 108.595 53.2473C108.47 53.5702 108.407 53.9244 108.407 54.3098C108.407 54.6952 108.496 55.0442 108.673 55.3567C108.85 55.6588 109.105 55.8984 109.438 56.0754C109.772 56.2421 110.162 56.3254 110.61 56.3254C111.287 56.3254 111.876 56.19 112.376 55.9192C112.876 55.6484 113.261 55.315 113.532 54.9192C113.813 54.5234 113.959 54.1484 113.97 53.7942L115.157 55.7004C114.99 56.1275 114.761 56.5702 114.47 57.0286C114.188 57.4869 113.829 57.9192 113.391 58.3254C112.954 58.7213 112.428 59.0494 111.813 59.3098C111.199 59.5598 110.47 59.6848 109.626 59.6848C108.553 59.6848 107.579 59.4713 106.704 59.0442C105.839 58.6067 105.152 58.0077 104.641 57.2473C104.141 56.4765 103.891 55.6015 103.891 54.6223C103.891 53.7369 104.058 52.9504 104.391 52.2629C104.725 51.5754 105.214 50.9973 105.86 50.5286C106.516 50.0494 107.334 49.69 108.313 49.4504C109.292 49.2004 110.428 49.0754 111.72 49.0754H114.329ZM126.235 45.9661V59.3723H121.72V42.4661H125.954L126.235 45.9661ZM125.61 50.3254H124.36C124.36 49.1484 124.501 48.065 124.782 47.0754C125.074 46.0754 125.496 45.2109 126.048 44.4817C126.61 43.7421 127.303 43.1692 128.126 42.7629C128.949 42.3567 129.902 42.1536 130.985 42.1536C131.735 42.1536 132.423 42.2681 133.048 42.4973C133.673 42.7161 134.209 43.065 134.657 43.5442C135.115 44.0129 135.47 44.6275 135.72 45.3879C135.97 46.1379 136.095 47.039 136.095 48.0911V59.3723H131.595V48.5911C131.595 47.8202 131.49 47.2265 131.282 46.8098C131.074 46.3931 130.777 46.1015 130.391 45.9348C130.016 45.7681 129.563 45.6848 129.032 45.6848C128.449 45.6848 127.938 45.8046 127.501 46.0442C127.074 46.2838 126.72 46.6171 126.438 47.0442C126.157 47.4609 125.949 47.9504 125.813 48.5129C125.678 49.0754 125.61 49.6796 125.61 50.3254ZM135.673 49.8098L134.063 50.0129C134.063 48.9088 134.199 47.8827 134.47 46.9348C134.751 45.9869 135.162 45.1536 135.704 44.4348C136.256 43.7161 136.938 43.1588 137.751 42.7629C138.563 42.3567 139.501 42.1536 140.563 42.1536C141.376 42.1536 142.115 42.2734 142.782 42.5129C143.449 42.7421 144.016 43.1119 144.485 43.6223C144.964 44.1223 145.329 44.7786 145.579 45.5911C145.839 46.4036 145.97 47.3984 145.97 48.5754V59.3723H141.454V48.5754C141.454 47.7942 141.35 47.2004 141.141 46.7942C140.944 46.3775 140.652 46.0911 140.266 45.9348C139.891 45.7681 139.444 45.6848 138.923 45.6848C138.381 45.6848 137.907 45.7942 137.501 46.0129C137.095 46.2213 136.756 46.5129 136.485 46.8879C136.214 47.2629 136.011 47.7004 135.876 48.2004C135.74 48.69 135.673 49.2265 135.673 49.8098ZM172.329 55.7161V59.3723H160.876V55.7161H172.329ZM162.391 36.6223V59.3723H157.704V36.6223H162.391ZM192.673 47.4661V48.5442C192.673 50.2734 192.438 51.8254 191.97 53.2004C191.501 54.5754 190.839 55.7473 189.985 56.7161C189.131 57.6744 188.11 58.4088 186.923 58.9192C185.746 59.4296 184.438 59.6848 183.001 59.6848C181.574 59.6848 180.266 59.4296 179.079 58.9192C177.902 58.4088 176.881 57.6744 176.016 56.7161C175.152 55.7473 174.48 54.5754 174.001 53.2004C173.532 51.8254 173.298 50.2734 173.298 48.5442V47.4661C173.298 45.7265 173.532 44.1744 174.001 42.8098C174.47 41.4348 175.131 40.2629 175.985 39.2942C176.85 38.3254 177.871 37.5859 179.048 37.0754C180.235 36.565 181.542 36.3098 182.97 36.3098C184.407 36.3098 185.714 36.565 186.891 37.0754C188.079 37.5859 189.1 38.3254 189.954 39.2942C190.819 40.2629 191.485 41.4348 191.954 42.8098C192.433 44.1744 192.673 45.7265 192.673 47.4661ZM187.938 48.5442V47.4348C187.938 46.2265 187.829 45.164 187.61 44.2473C187.391 43.3306 187.069 42.5598 186.641 41.9348C186.214 41.3098 185.694 40.8411 185.079 40.5286C184.464 40.2056 183.761 40.0442 182.97 40.0442C182.178 40.0442 181.475 40.2056 180.86 40.5286C180.256 40.8411 179.74 41.3098 179.313 41.9348C178.897 42.5598 178.579 43.3306 178.36 44.2473C178.141 45.164 178.032 46.2265 178.032 47.4348V48.5442C178.032 49.7421 178.141 50.8046 178.36 51.7317C178.579 52.6484 178.902 53.4244 179.329 54.0598C179.756 54.6848 180.277 55.1588 180.891 55.4817C181.506 55.8046 182.209 55.9661 183.001 55.9661C183.792 55.9661 184.496 55.8046 185.11 55.4817C185.725 55.1588 186.24 54.6848 186.657 54.0598C187.074 53.4244 187.391 52.6484 187.61 51.7317C187.829 50.8046 187.938 49.7421 187.938 48.5442ZM214.735 47.4661V48.5442C214.735 50.2734 214.501 51.8254 214.032 53.2004C213.563 54.5754 212.902 55.7473 212.048 56.7161C211.194 57.6744 210.173 58.4088 208.985 58.9192C207.808 59.4296 206.501 59.6848 205.063 59.6848C203.636 59.6848 202.329 59.4296 201.141 58.9192C199.964 58.4088 198.944 57.6744 198.079 56.7161C197.214 55.7473 196.542 54.5754 196.063 53.2004C195.595 51.8254 195.36 50.2734 195.36 48.5442V47.4661C195.36 45.7265 195.595 44.1744 196.063 42.8098C196.532 41.4348 197.194 40.2629 198.048 39.2942C198.912 38.3254 199.933 37.5859 201.11 37.0754C202.298 36.565 203.605 36.3098 205.032 36.3098C206.47 36.3098 207.777 36.565 208.954 37.0754C210.141 37.5859 211.162 38.3254 212.016 39.2942C212.881 40.2629 213.548 41.4348 214.016 42.8098C214.496 44.1744 214.735 45.7265 214.735 47.4661ZM210.001 48.5442V47.4348C210.001 46.2265 209.891 45.164 209.673 44.2473C209.454 43.3306 209.131 42.5598 208.704 41.9348C208.277 41.3098 207.756 40.8411 207.141 40.5286C206.527 40.2056 205.824 40.0442 205.032 40.0442C204.24 40.0442 203.537 40.2056 202.923 40.5286C202.319 40.8411 201.803 41.3098 201.376 41.9348C200.959 42.5598 200.641 43.3306 200.423 44.2473C200.204 45.164 200.095 46.2265 200.095 47.4348V48.5442C200.095 49.7421 200.204 50.8046 200.423 51.7317C200.641 52.6484 200.964 53.4244 201.391 54.0598C201.819 54.6848 202.339 55.1588 202.954 55.4817C203.569 55.8046 204.272 55.9661 205.063 55.9661C205.855 55.9661 206.558 55.8046 207.173 55.4817C207.787 55.1588 208.303 54.6848 208.72 54.0598C209.136 53.4244 209.454 52.6484 209.673 51.7317C209.891 50.8046 210.001 49.7421 210.001 48.5442ZM236.798 47.4661V48.5442C236.798 50.2734 236.563 51.8254 236.095 53.2004C235.626 54.5754 234.964 55.7473 234.11 56.7161C233.256 57.6744 232.235 58.4088 231.048 58.9192C229.871 59.4296 228.563 59.6848 227.126 59.6848C225.699 59.6848 224.391 59.4296 223.204 58.9192C222.027 58.4088 221.006 57.6744 220.141 56.7161C219.277 55.7473 218.605 54.5754 218.126 53.2004C217.657 51.8254 217.423 50.2734 217.423 48.5442V47.4661C217.423 45.7265 217.657 44.1744 218.126 42.8098C218.595 41.4348 219.256 40.2629 220.11 39.2942C220.975 38.3254 221.996 37.5859 223.173 37.0754C224.36 36.565 225.667 36.3098 227.095 36.3098C228.532 36.3098 229.839 36.565 231.016 37.0754C232.204 37.5859 233.225 38.3254 234.079 39.2942C234.944 40.2629 235.61 41.4348 236.079 42.8098C236.558 44.1744 236.798 45.7265 236.798 47.4661ZM232.063 48.5442V47.4348C232.063 46.2265 231.954 45.164 231.735 44.2473C231.516 43.3306 231.194 42.5598 230.766 41.9348C230.339 41.3098 229.819 40.8411 229.204 40.5286C228.589 40.2056 227.886 40.0442 227.095 40.0442C226.303 40.0442 225.6 40.2056 224.985 40.5286C224.381 40.8411 223.865 41.3098 223.438 41.9348C223.022 42.5598 222.704 43.3306 222.485 44.2473C222.266 45.164 222.157 46.2265 222.157 47.4348V48.5442C222.157 49.7421 222.266 50.8046 222.485 51.7317C222.704 52.6484 223.027 53.4244 223.454 54.0598C223.881 54.6848 224.402 55.1588 225.016 55.4817C225.631 55.8046 226.334 55.9661 227.126 55.9661C227.917 55.9661 228.621 55.8046 229.235 55.4817C229.85 55.1588 230.365 54.6848 230.782 54.0598C231.199 53.4244 231.516 52.6484 231.735 51.7317C231.954 50.8046 232.063 49.7421 232.063 48.5442ZM249.282 36.6223V59.3723H244.61V36.6223H249.282ZM256.282 36.6223V40.2942H237.72V36.6223H256.282ZM263.751 36.6223L263.235 52.4192H259.485L258.954 36.6223H263.751ZM258.829 57.3098C258.829 56.6431 259.058 56.0911 259.516 55.6536C259.985 55.2056 260.6 54.9817 261.36 54.9817C262.131 54.9817 262.746 55.2056 263.204 55.6536C263.662 56.0911 263.891 56.6431 263.891 57.3098C263.891 57.9556 263.662 58.5025 263.204 58.9504C262.746 59.3984 262.131 59.6223 261.36 59.6223C260.6 59.6223 259.985 59.3984 259.516 58.9504C259.058 58.5025 258.829 57.9556 258.829 57.3098ZM272.407 36.6223L271.891 52.4192H268.141L267.61 36.6223H272.407ZM267.485 57.3098C267.485 56.6431 267.714 56.0911 268.173 55.6536C268.641 55.2056 269.256 54.9817 270.016 54.9817C270.787 54.9817 271.402 55.2056 271.86 55.6536C272.319 56.0911 272.548 56.6431 272.548 57.3098C272.548 57.9556 272.319 58.5025 271.86 58.9504C271.402 59.3984 270.787 59.6223 270.016 59.6223C269.256 59.6223 268.641 59.3984 268.173 58.9504C267.714 58.5025 267.485 57.9556 267.485 57.3098ZM281.063 36.6223L280.548 52.4192H276.798L276.266 36.6223H281.063ZM276.141 57.3098C276.141 56.6431 276.371 56.0911 276.829 55.6536C277.298 55.2056 277.912 54.9817 278.673 54.9817C279.444 54.9817 280.058 55.2056 280.516 55.6536C280.975 56.0911 281.204 56.6431 281.204 57.3098C281.204 57.9556 280.975 58.5025 280.516 58.9504C280.058 59.3984 279.444 59.6223 278.673 59.6223C277.912 59.6223 277.298 59.3984 276.829 58.9504C276.371 58.5025 276.141 57.9556 276.141 57.3098Z" fill="#503CEB"/>
<rect x="96.8169" y="85.9775" width="130.024" height="30.6875" rx="7" stroke="#503CEB" stroke-opacity="0.5" stroke-width="2"/>
<path d="M113.619 98.6994H115.646C115.205 96.149 113.025 94.3848 110.2 94.3848C106.812 94.3848 104.338 96.9352 104.338 101.116C104.338 105.258 106.742 107.834 110.289 107.834C113.466 107.834 115.735 105.75 115.735 102.445V100.956H110.59V102.586H113.824C113.779 104.695 112.386 106.031 110.289 106.031C107.982 106.031 106.301 104.286 106.301 101.103C106.301 97.9324 107.994 96.1873 110.213 96.1873C111.951 96.1873 113.127 97.1461 113.619 98.6994ZM118.443 107.655H126.727V105.954H120.418V101.947H126.222V100.253H120.418V96.264H126.65V94.5638H118.443V107.655ZM128.843 96.264H132.921V107.655H134.89V96.264H138.974V94.5638H128.843V96.264ZM153.516 98.0027H155.421C155.364 95.9061 153.51 94.3848 150.851 94.3848C148.224 94.3848 146.21 95.8869 146.21 98.1433C146.21 99.965 147.514 101.033 149.617 101.601L151.164 102.023C152.564 102.394 153.644 102.854 153.644 104.018C153.644 105.296 152.423 106.14 150.742 106.14C149.221 106.14 147.955 105.462 147.84 104.037H145.859C145.987 106.408 147.821 107.872 150.755 107.872C153.83 107.872 155.6 106.255 155.6 104.037C155.6 101.678 153.497 100.764 151.835 100.355L150.557 100.023C149.534 99.7605 148.173 99.2811 148.179 98.0282C148.179 96.916 149.195 96.0915 150.806 96.0915C152.308 96.0915 153.376 96.7946 153.516 98.0027ZM158.161 107.655H160.136V101.947H166.662V107.655H168.643V94.5638H166.662V100.253H160.136V94.5638H158.161V107.655ZM183.091 101.109C183.091 96.9224 180.586 94.3848 177.198 94.3848C173.797 94.3848 171.298 96.9224 171.298 101.109C171.298 105.29 173.797 107.834 177.198 107.834C180.586 107.834 183.091 105.296 183.091 101.109ZM181.135 101.109C181.135 104.299 179.448 106.031 177.198 106.031C174.941 106.031 173.26 104.299 173.26 101.109C173.26 97.9196 174.941 96.1873 177.198 96.1873C179.448 96.1873 181.135 97.9196 181.135 101.109ZM185.754 107.655H187.729V103.052H190.414C193.45 103.052 194.952 101.218 194.952 98.8017C194.952 96.3919 193.463 94.5638 190.42 94.5638H185.754V107.655ZM187.729 101.378V96.2576H190.209C192.165 96.2576 192.964 97.3187 192.964 98.8017C192.964 100.285 192.165 101.378 190.235 101.378H187.729ZM204.607 98.0027H206.512C206.455 95.9061 204.601 94.3848 201.942 94.3848C199.315 94.3848 197.301 95.8869 197.301 98.1433C197.301 99.965 198.605 101.033 200.708 101.601L202.255 102.023C203.655 102.394 204.735 102.854 204.735 104.018C204.735 105.296 203.514 106.14 201.833 106.14C200.312 106.14 199.046 105.462 198.931 104.037H196.95C197.078 106.408 198.912 107.872 201.846 107.872C204.921 107.872 206.691 106.255 206.691 104.037C206.691 101.678 204.588 100.764 202.926 100.355L201.648 100.023C200.625 99.7605 199.264 99.2811 199.27 98.0282C199.27 96.916 200.286 96.0915 201.897 96.0915C203.399 96.0915 204.467 96.7946 204.607 98.0027ZM208.242 94.5638L212.991 102.515V107.655H214.96V102.515L219.709 94.5638H217.465L214.046 100.515H213.905L210.485 94.5638H208.242Z" fill="#503CEB"/>
</svg>
