<svg width="274" height="119" viewBox="0 0 274 119" fill="none" xmlns="http://www.w3.org/2000/svg">
<path d="M71.4219 15.9214V24.937C71.0677 25.3641 70.5209 25.8276 69.7813 26.3276C69.0417 26.8172 68.0886 27.2391 66.9219 27.5933C65.7552 27.9474 64.3438 28.1245 62.6875 28.1245C61.2188 28.1245 59.8802 27.8849 58.6719 27.4058C57.4636 26.9162 56.4219 26.2026 55.5469 25.2651C54.6823 24.3276 54.0157 23.1818 53.5469 21.8276C53.0782 20.4631 52.8438 18.9058 52.8438 17.1558V15.7339C52.8438 13.9839 53.0677 12.4266 53.5157 11.062C53.974 9.69743 54.625 8.54639 55.4688 7.60889C56.3125 6.67139 57.3177 5.95785 58.4844 5.46826C59.6511 4.97868 60.9479 4.73389 62.375 4.73389C64.3542 4.73389 65.9792 5.0568 67.25 5.70264C68.5209 6.33805 69.4896 7.22347 70.1563 8.35889C70.8334 9.48389 71.25 10.7756 71.4063 12.2339H66.8594C66.7448 11.4631 66.5261 10.7912 66.2032 10.2183C65.8802 9.64535 65.4167 9.19743 64.8125 8.87451C64.2188 8.5516 63.4479 8.39014 62.5 8.39014C61.7188 8.39014 61.0209 8.5516 60.4063 8.87451C59.8021 9.18701 59.2917 9.65055 58.875 10.2651C58.4584 10.8797 58.1407 11.6401 57.9219 12.5464C57.7032 13.4526 57.5938 14.5047 57.5938 15.7026V17.1558C57.5938 18.3433 57.7084 19.3953 57.9375 20.312C58.1667 21.2183 58.5052 21.9839 58.9532 22.6089C59.4115 23.2235 59.974 23.687 60.6407 23.9995C61.3073 24.312 62.0834 24.4683 62.9688 24.4683C63.7084 24.4683 64.3229 24.4058 64.8125 24.2808C65.3125 24.1558 65.7136 24.0047 66.0157 23.8276C66.3282 23.6401 66.5677 23.4631 66.7344 23.2964V19.2651H62.4532V15.9214H71.4219ZM82.7032 28.1245C81.3907 28.1245 80.2136 27.9162 79.1719 27.4995C78.1302 27.0724 77.2448 26.4839 76.5157 25.7339C75.7969 24.9839 75.2448 24.1141 74.8594 23.1245C74.474 22.1245 74.2813 21.062 74.2813 19.937V19.312C74.2813 18.0308 74.4636 16.8589 74.8282 15.7964C75.1927 14.7339 75.7136 13.812 76.3907 13.0308C77.0782 12.2495 77.9115 11.6506 78.8907 11.2339C79.8698 10.8068 80.974 10.5933 82.2032 10.5933C83.4011 10.5933 84.4636 10.7912 85.3907 11.187C86.3177 11.5828 87.0938 12.1453 87.7188 12.8745C88.3542 13.6037 88.8334 14.4787 89.1563 15.4995C89.4792 16.5099 89.6407 17.6349 89.6407 18.8745V20.7495H76.2032V17.7495H85.2188V17.4058C85.2188 16.7808 85.1042 16.2235 84.875 15.7339C84.6563 15.2339 84.3229 14.8381 83.875 14.5464C83.4271 14.2547 82.8542 14.1089 82.1563 14.1089C81.5625 14.1089 81.0521 14.2391 80.625 14.4995C80.1979 14.7599 79.849 15.1245 79.5782 15.5933C79.3177 16.062 79.1198 16.6141 78.9844 17.2495C78.8594 17.8745 78.7969 18.562 78.7969 19.312V19.937C78.7969 20.6141 78.8907 21.2391 79.0782 21.812C79.2761 22.3849 79.5521 22.8797 79.9063 23.2964C80.2709 23.7131 80.7084 24.036 81.2188 24.2651C81.7396 24.4943 82.3282 24.6089 82.9844 24.6089C83.7969 24.6089 84.5521 24.4526 85.25 24.1401C85.9584 23.8172 86.5677 23.3328 87.0782 22.687L89.2657 25.062C88.9115 25.5724 88.4271 26.062 87.8125 26.5308C87.2084 26.9995 86.4792 27.3849 85.625 27.687C84.7709 27.9787 83.7969 28.1245 82.7032 28.1245ZM100.484 10.9058V14.0933H90.6407V10.9058H100.484ZM93.0782 6.73389H97.5782V22.7183C97.5782 23.2078 97.6407 23.5828 97.7657 23.8433C97.9011 24.1037 98.099 24.286 98.3594 24.3901C98.6198 24.4839 98.9479 24.5308 99.3438 24.5308C99.625 24.5308 99.875 24.5203 100.094 24.4995C100.323 24.4683 100.516 24.437 100.672 24.4058L100.688 27.7183C100.302 27.8433 99.8854 27.9422 99.4375 28.0151C98.9896 28.0881 98.4948 28.1245 97.9532 28.1245C96.9636 28.1245 96.099 27.9631 95.3594 27.6401C94.6302 27.3068 94.0677 26.7756 93.6719 26.0464C93.2761 25.3172 93.0782 24.3589 93.0782 23.1714V6.73389ZM126.391 24.2964V27.812H110.828V24.812L118.188 16.9214C118.927 16.0985 119.51 15.3745 119.938 14.7495C120.365 14.1141 120.672 13.5464 120.859 13.0464C121.057 12.536 121.156 12.0516 121.156 11.5933C121.156 10.9058 121.042 10.3172 120.813 9.82764C120.583 9.32764 120.245 8.94222 119.797 8.67139C119.359 8.40055 118.818 8.26514 118.172 8.26514C117.484 8.26514 116.891 8.4318 116.391 8.76514C115.901 9.09847 115.526 9.56201 115.266 10.1558C115.016 10.7495 114.891 11.4214 114.891 12.1714H110.375C110.375 10.8172 110.698 9.57764 111.344 8.45264C111.99 7.31722 112.901 6.41618 114.078 5.74951C115.255 5.07243 116.651 4.73389 118.266 4.73389C119.859 4.73389 121.203 4.9943 122.297 5.51514C123.401 6.02555 124.234 6.76514 124.797 7.73389C125.37 8.69222 125.656 9.83805 125.656 11.1714C125.656 11.9214 125.536 12.6558 125.297 13.3745C125.057 14.0828 124.714 14.7912 124.266 15.4995C123.828 16.1974 123.297 16.9058 122.672 17.6245C122.047 18.3433 121.354 19.0881 120.594 19.8589L116.641 24.2964H126.391ZM144.516 14.437V18.3745C144.516 20.0828 144.333 21.5568 143.969 22.7964C143.604 24.0256 143.078 25.036 142.391 25.8276C141.714 26.6089 140.906 27.187 139.969 27.562C139.031 27.937 137.99 28.1245 136.844 28.1245C135.927 28.1245 135.073 28.0099 134.281 27.7808C133.49 27.5412 132.776 27.1714 132.141 26.6714C131.516 26.1714 130.974 25.5412 130.516 24.7808C130.068 24.0099 129.724 23.0933 129.484 22.0308C129.245 20.9683 129.125 19.7495 129.125 18.3745V14.437C129.125 12.7287 129.307 11.2651 129.672 10.0464C130.047 8.81722 130.573 7.81201 131.25 7.03076C131.938 6.24951 132.75 5.6766 133.688 5.31201C134.625 4.93701 135.667 4.74951 136.813 4.74951C137.729 4.74951 138.578 4.8693 139.359 5.10889C140.151 5.33805 140.865 5.69743 141.5 6.18701C142.135 6.6766 142.677 7.3068 143.125 8.07764C143.573 8.83805 143.917 9.74951 144.156 10.812C144.396 11.8641 144.516 13.0724 144.516 14.437ZM140 18.9683V13.8276C140 13.0047 139.953 12.286 139.859 11.6714C139.776 11.0568 139.646 10.536 139.469 10.1089C139.292 9.67139 139.073 9.31722 138.813 9.04639C138.552 8.77555 138.255 8.57764 137.922 8.45264C137.589 8.32764 137.219 8.26514 136.813 8.26514C136.302 8.26514 135.849 8.3641 135.453 8.56201C135.068 8.75993 134.74 9.07764 134.469 9.51514C134.198 9.94222 133.99 10.5151 133.844 11.2339C133.708 11.9422 133.641 12.8068 133.641 13.8276V18.9683C133.641 19.7912 133.682 20.5151 133.766 21.1401C133.859 21.7651 133.995 22.3016 134.172 22.7495C134.359 23.187 134.578 23.5464 134.828 23.8276C135.089 24.0985 135.385 24.2964 135.719 24.4214C136.063 24.5464 136.438 24.6089 136.844 24.6089C137.344 24.6089 137.786 24.5099 138.172 24.312C138.568 24.1037 138.901 23.7808 139.172 23.3433C139.453 22.8953 139.661 22.312 139.797 21.5933C139.932 20.8745 140 19.9995 140 18.9683ZM147.516 10.6401V9.43701C147.516 8.57243 147.703 7.78597 148.078 7.07764C148.453 6.3693 149.005 5.8016 149.734 5.37451C150.464 4.94743 151.359 4.73389 152.422 4.73389C153.516 4.73389 154.427 4.94743 155.156 5.37451C155.896 5.8016 156.448 6.3693 156.813 7.07764C157.188 7.78597 157.375 8.57243 157.375 9.43701V10.6401C157.375 11.4839 157.188 12.2599 156.813 12.9683C156.448 13.6766 155.901 14.2443 155.172 14.6714C154.443 15.0985 153.542 15.312 152.469 15.312C151.385 15.312 150.474 15.0985 149.734 14.6714C149.005 14.2443 148.453 13.6766 148.078 12.9683C147.703 12.2599 147.516 11.4839 147.516 10.6401ZM150.5 9.43701V10.6401C150.5 11.0047 150.568 11.3537 150.703 11.687C150.849 12.0099 151.068 12.2756 151.359 12.4839C151.661 12.6818 152.026 12.7808 152.453 12.7808C152.901 12.7808 153.266 12.6818 153.547 12.4839C153.828 12.2756 154.036 12.0099 154.172 11.687C154.307 11.3537 154.375 11.0047 154.375 10.6401V9.43701C154.375 9.0516 154.302 8.69743 154.156 8.37451C154.021 8.04118 153.807 7.77555 153.516 7.57764C153.234 7.3693 152.87 7.26514 152.422 7.26514C152.005 7.26514 151.651 7.3693 151.359 7.57764C151.068 7.77555 150.849 8.04118 150.703 8.37451C150.568 8.69743 150.5 9.0516 150.5 9.43701ZM158.391 23.437V22.2339C158.391 21.3797 158.578 20.5985 158.953 19.8901C159.339 19.1818 159.896 18.6141 160.625 18.187C161.365 17.7599 162.271 17.5464 163.344 17.5464C164.427 17.5464 165.333 17.7599 166.063 18.187C166.792 18.6141 167.344 19.1818 167.719 19.8901C168.094 20.5985 168.281 21.3797 168.281 22.2339V23.437C168.281 24.2912 168.094 25.0724 167.719 25.7808C167.354 26.4891 166.807 27.0568 166.078 27.4839C165.349 27.911 164.448 28.1245 163.375 28.1245C162.292 28.1245 161.38 27.911 160.641 27.4839C159.901 27.0568 159.339 26.4891 158.953 25.7808C158.578 25.0724 158.391 24.2912 158.391 23.437ZM161.391 22.2339V23.437C161.391 23.812 161.474 24.1662 161.641 24.4995C161.807 24.8328 162.036 25.0985 162.328 25.2964C162.63 25.4943 162.979 25.5933 163.375 25.5933C163.875 25.5933 164.266 25.4943 164.547 25.2964C164.828 25.0985 165.021 24.8328 165.125 24.4995C165.24 24.1662 165.297 23.812 165.297 23.437V22.2339C165.297 21.8589 165.224 21.5099 165.078 21.187C164.932 20.8537 164.714 20.5881 164.422 20.3901C164.141 20.1818 163.781 20.0776 163.344 20.0776C162.906 20.0776 162.542 20.1818 162.25 20.3901C161.969 20.5881 161.755 20.8537 161.609 21.187C161.464 21.5099 161.391 21.8589 161.391 22.2339ZM164.453 8.31201L153.344 26.0933L151.156 24.937L162.266 7.15576L164.453 8.31201ZM198.359 15.9058V16.9839C198.359 18.7131 198.125 20.2651 197.656 21.6401C197.188 23.0151 196.526 24.187 195.672 25.1558C194.818 26.1141 193.797 26.8485 192.609 27.3589C191.432 27.8693 190.125 28.1245 188.688 28.1245C187.26 28.1245 185.953 27.8693 184.766 27.3589C183.589 26.8485 182.568 26.1141 181.703 25.1558C180.839 24.187 180.167 23.0151 179.688 21.6401C179.219 20.2651 178.984 18.7131 178.984 16.9839V15.9058C178.984 14.1662 179.219 12.6141 179.688 11.2495C180.156 9.87451 180.818 8.70264 181.672 7.73389C182.536 6.76514 183.557 6.02555 184.734 5.51514C185.922 5.00472 187.229 4.74951 188.656 4.74951C190.094 4.74951 191.401 5.00472 192.578 5.51514C193.766 6.02555 194.786 6.76514 195.641 7.73389C196.505 8.70264 197.172 9.87451 197.641 11.2495C198.12 12.6141 198.359 14.1662 198.359 15.9058ZM193.625 16.9839V15.8745C193.625 14.6662 193.516 13.6037 193.297 12.687C193.078 11.7703 192.755 10.9995 192.328 10.3745C191.901 9.74951 191.38 9.28076 190.766 8.96826C190.151 8.64535 189.448 8.48389 188.656 8.48389C187.865 8.48389 187.161 8.64535 186.547 8.96826C185.943 9.28076 185.427 9.74951 185 10.3745C184.583 10.9995 184.266 11.7703 184.047 12.687C183.828 13.6037 183.719 14.6662 183.719 15.8745V16.9839C183.719 18.1818 183.828 19.2443 184.047 20.1714C184.266 21.0881 184.589 21.8641 185.016 22.4995C185.443 23.1245 185.964 23.5985 186.578 23.9214C187.193 24.2443 187.896 24.4058 188.688 24.4058C189.479 24.4058 190.182 24.2443 190.797 23.9214C191.411 23.5985 191.927 23.1245 192.344 22.4995C192.76 21.8641 193.078 21.0881 193.297 20.1714C193.516 19.2443 193.625 18.1818 193.625 16.9839ZM207.188 27.812H202.656V9.40576C202.656 8.12451 202.906 7.04639 203.406 6.17139C203.917 5.28597 204.63 4.6193 205.547 4.17139C206.474 3.71305 207.573 3.48389 208.844 3.48389C209.26 3.48389 209.661 3.51514 210.047 3.57764C210.432 3.62972 210.807 3.69743 211.172 3.78076L211.125 7.17139C210.927 7.1193 210.719 7.08285 210.5 7.06201C210.281 7.04118 210.026 7.03076 209.734 7.03076C209.193 7.03076 208.729 7.12451 208.344 7.31201C207.969 7.4891 207.682 7.75472 207.484 8.10889C207.286 8.46305 207.188 8.89535 207.188 9.40576V27.812ZM210.563 10.9058V14.0933H200.141V10.9058H210.563ZM218.656 27.812H214.125V9.40576C214.125 8.12451 214.375 7.04639 214.875 6.17139C215.385 5.28597 216.099 4.6193 217.016 4.17139C217.943 3.71305 219.042 3.48389 220.313 3.48389C220.729 3.48389 221.13 3.51514 221.516 3.57764C221.901 3.62972 222.276 3.69743 222.641 3.78076L222.594 7.17139C222.396 7.1193 222.188 7.08285 221.969 7.06201C221.75 7.04118 221.495 7.03076 221.203 7.03076C220.661 7.03076 220.198 7.12451 219.813 7.31201C219.438 7.4891 219.151 7.75472 218.953 8.10889C218.755 8.46305 218.656 8.89535 218.656 9.40576V27.812ZM222.031 10.9058V14.0933H211.609V10.9058H222.031ZM56.9844 47.9058V48.9839C56.9844 50.7131 56.75 52.2651 56.2813 53.6401C55.8125 55.0151 55.1511 56.187 54.2969 57.1558C53.4427 58.1141 52.4219 58.8485 51.2344 59.3589C50.0573 59.8693 48.75 60.1245 47.3125 60.1245C45.8854 60.1245 44.5782 59.8693 43.3907 59.3589C42.2136 58.8485 41.1927 58.1141 40.3282 57.1558C39.4636 56.187 38.7917 55.0151 38.3125 53.6401C37.8438 52.2651 37.6094 50.7131 37.6094 48.9839V47.9058C37.6094 46.1662 37.8438 44.6141 38.3125 43.2495C38.7813 41.8745 39.4427 40.7026 40.2969 39.7339C41.1615 38.7651 42.1823 38.0256 43.3594 37.5151C44.5469 37.0047 45.8542 36.7495 47.2813 36.7495C48.7188 36.7495 50.0261 37.0047 51.2032 37.5151C52.3907 38.0256 53.4115 38.7651 54.2657 39.7339C55.1302 40.7026 55.7969 41.8745 56.2657 43.2495C56.7448 44.6141 56.9844 46.1662 56.9844 47.9058ZM52.25 48.9839V47.8745C52.25 46.6662 52.1407 45.6037 51.9219 44.687C51.7032 43.7703 51.3802 42.9995 50.9532 42.3745C50.5261 41.7495 50.0052 41.2808 49.3907 40.9683C48.7761 40.6453 48.0729 40.4839 47.2813 40.4839C46.4896 40.4839 45.7865 40.6453 45.1719 40.9683C44.5677 41.2808 44.0521 41.7495 43.625 42.3745C43.2084 42.9995 42.8907 43.7703 42.6719 44.687C42.4532 45.6037 42.3438 46.6662 42.3438 47.8745V48.9839C42.3438 50.1818 42.4532 51.2443 42.6719 52.1714C42.8907 53.0881 43.2136 53.8641 43.6407 54.4995C44.0677 55.1245 44.5886 55.5985 45.2032 55.9214C45.8177 56.2443 46.5209 56.4058 47.3125 56.4058C48.1042 56.4058 48.8073 56.2443 49.4219 55.9214C50.0365 55.5985 50.5521 55.1245 50.9688 54.4995C51.3854 53.8641 51.7032 53.0881 51.9219 52.1714C52.1407 51.2443 52.25 50.1818 52.25 48.9839ZM64.4844 46.5151V59.812H59.9844V42.9058H64.2032L64.4844 46.5151ZM63.8282 50.7651H62.6094C62.6094 49.5151 62.7709 48.3901 63.0938 47.3901C63.4167 46.3797 63.8698 45.5203 64.4532 44.812C65.0365 44.0933 65.7292 43.5464 66.5313 43.1714C67.3438 42.786 68.25 42.5933 69.25 42.5933C70.0417 42.5933 70.7657 42.7078 71.4219 42.937C72.0782 43.1662 72.6407 43.5308 73.1094 44.0308C73.5886 44.5308 73.9532 45.1922 74.2032 46.0151C74.4636 46.8381 74.5938 47.8433 74.5938 49.0308V59.812H70.0625V49.0151C70.0625 48.2651 69.9584 47.6818 69.75 47.2651C69.5417 46.8485 69.2344 46.5568 68.8282 46.3901C68.4323 46.2131 67.9427 46.1245 67.3594 46.1245C66.7552 46.1245 66.2292 46.2443 65.7813 46.4839C65.3438 46.7235 64.9792 47.0568 64.6875 47.4839C64.4063 47.9006 64.1927 48.3901 64.0469 48.9526C63.9011 49.5151 63.8282 50.1193 63.8282 50.7651ZM90.9532 37.062V59.812H86.2657V37.062H90.9532ZM100.016 46.7808V50.437H89.6719V46.7808H100.016ZM101.109 37.062V40.7339H89.6719V37.062H101.109ZM108.297 42.9058V59.812H103.781V42.9058H108.297ZM103.5 38.4995C103.5 37.8433 103.729 37.3016 104.188 36.8745C104.646 36.4474 105.26 36.2339 106.031 36.2339C106.792 36.2339 107.401 36.4474 107.859 36.8745C108.328 37.3016 108.563 37.8433 108.563 38.4995C108.563 39.1558 108.328 39.6974 107.859 40.1245C107.401 40.5516 106.792 40.7651 106.031 40.7651C105.26 40.7651 104.646 40.5516 104.188 40.1245C103.729 39.6974 103.5 39.1558 103.5 38.4995ZM116.516 46.5933V59.812H112.016V42.9058H116.25L116.516 46.5933ZM121.609 42.7964L121.531 46.9683C121.313 46.937 121.047 46.911 120.734 46.8901C120.432 46.8589 120.156 46.8433 119.906 46.8433C119.271 46.8433 118.719 46.9266 118.25 47.0933C117.792 47.2495 117.406 47.4839 117.094 47.7964C116.792 48.1089 116.563 48.4891 116.406 48.937C116.26 49.3849 116.177 49.8953 116.156 50.4683L115.25 50.187C115.25 49.0933 115.359 48.0881 115.578 47.1714C115.797 46.2443 116.115 45.437 116.531 44.7495C116.958 44.062 117.479 43.5308 118.094 43.1558C118.708 42.7808 119.411 42.5933 120.203 42.5933C120.453 42.5933 120.708 42.6141 120.969 42.6558C121.229 42.687 121.443 42.7339 121.609 42.7964ZM132.875 55.1401C132.875 54.8172 132.781 54.5256 132.594 54.2651C132.406 54.0047 132.057 53.7651 131.547 53.5464C131.047 53.3172 130.323 53.1089 129.375 52.9214C128.521 52.7339 127.724 52.4995 126.984 52.2183C126.255 51.9266 125.62 51.5776 125.078 51.1714C124.547 50.7651 124.13 50.286 123.828 49.7339C123.526 49.1714 123.375 48.5308 123.375 47.812C123.375 47.1037 123.526 46.437 123.828 45.812C124.141 45.187 124.583 44.6349 125.156 44.1558C125.74 43.6662 126.448 43.286 127.281 43.0151C128.125 42.7339 129.073 42.5933 130.125 42.5933C131.594 42.5933 132.854 42.8276 133.906 43.2964C134.969 43.7651 135.781 44.411 136.344 45.2339C136.917 46.0464 137.203 46.9735 137.203 48.0151H132.703C132.703 47.5776 132.609 47.187 132.422 46.8433C132.245 46.4891 131.964 46.2131 131.578 46.0151C131.203 45.8068 130.714 45.7026 130.109 45.7026C129.609 45.7026 129.177 45.7912 128.813 45.9683C128.448 46.1349 128.167 46.3641 127.969 46.6558C127.781 46.937 127.688 47.2495 127.688 47.5933C127.688 47.8537 127.74 48.0881 127.844 48.2964C127.958 48.4943 128.141 48.6766 128.391 48.8433C128.641 49.0099 128.964 49.1662 129.359 49.312C129.766 49.4474 130.266 49.5724 130.859 49.687C132.078 49.937 133.167 50.2651 134.125 50.6714C135.083 51.0672 135.844 51.6089 136.406 52.2964C136.969 52.9735 137.25 53.8641 137.25 54.9683C137.25 55.7183 137.083 56.4058 136.75 57.0308C136.417 57.6558 135.938 58.2026 135.313 58.6714C134.688 59.1297 133.938 59.4891 133.063 59.7495C132.198 59.9995 131.224 60.1245 130.141 60.1245C128.568 60.1245 127.234 59.8433 126.141 59.2808C125.057 58.7183 124.234 58.0047 123.672 57.1401C123.12 56.2651 122.844 55.3693 122.844 54.4526H127.109C127.13 55.0672 127.286 55.562 127.578 55.937C127.88 56.312 128.26 56.5828 128.719 56.7495C129.188 56.9162 129.693 56.9995 130.234 56.9995C130.818 56.9995 131.302 56.9214 131.688 56.7651C132.073 56.5985 132.365 56.3797 132.563 56.1089C132.771 55.8276 132.875 55.5047 132.875 55.1401ZM148.453 42.9058V46.0933H138.609V42.9058H148.453ZM141.047 38.7339H145.547V54.7183C145.547 55.2078 145.609 55.5828 145.734 55.8433C145.87 56.1037 146.068 56.286 146.328 56.3901C146.589 56.4839 146.917 56.5308 147.313 56.5308C147.594 56.5308 147.844 56.5203 148.063 56.4995C148.292 56.4683 148.484 56.437 148.641 56.4058L148.656 59.7183C148.271 59.8433 147.854 59.9422 147.406 60.0151C146.958 60.0881 146.464 60.1245 145.922 60.1245C144.932 60.1245 144.068 59.9631 143.328 59.6401C142.599 59.3068 142.036 58.7756 141.641 58.0464C141.245 57.3172 141.047 56.3589 141.047 55.1714V38.7339ZM177.953 47.9058V48.9839C177.953 50.7131 177.719 52.2651 177.25 53.6401C176.781 55.0151 176.12 56.187 175.266 57.1558C174.411 58.1141 173.391 58.8485 172.203 59.3589C171.026 59.8693 169.719 60.1245 168.281 60.1245C166.854 60.1245 165.547 59.8693 164.359 59.3589C163.182 58.8485 162.161 58.1141 161.297 57.1558C160.432 56.187 159.76 55.0151 159.281 53.6401C158.813 52.2651 158.578 50.7131 158.578 48.9839V47.9058C158.578 46.1662 158.813 44.6141 159.281 43.2495C159.75 41.8745 160.411 40.7026 161.266 39.7339C162.13 38.7651 163.151 38.0256 164.328 37.5151C165.516 37.0047 166.823 36.7495 168.25 36.7495C169.688 36.7495 170.995 37.0047 172.172 37.5151C173.359 38.0256 174.38 38.7651 175.234 39.7339C176.099 40.7026 176.766 41.8745 177.234 43.2495C177.714 44.6141 177.953 46.1662 177.953 47.9058ZM173.219 48.9839V47.8745C173.219 46.6662 173.109 45.6037 172.891 44.687C172.672 43.7703 172.349 42.9995 171.922 42.3745C171.495 41.7495 170.974 41.2808 170.359 40.9683C169.745 40.6453 169.042 40.4839 168.25 40.4839C167.458 40.4839 166.755 40.6453 166.141 40.9683C165.536 41.2808 165.021 41.7495 164.594 42.3745C164.177 42.9995 163.859 43.7703 163.641 44.687C163.422 45.6037 163.313 46.6662 163.313 47.8745V48.9839C163.313 50.1818 163.422 51.2443 163.641 52.1714C163.859 53.0881 164.182 53.8641 164.609 54.4995C165.036 55.1245 165.557 55.5985 166.172 55.9214C166.786 56.2443 167.49 56.4058 168.281 56.4058C169.073 56.4058 169.776 56.2443 170.391 55.9214C171.005 55.5985 171.521 55.1245 171.938 54.4995C172.354 53.8641 172.672 53.0881 172.891 52.1714C173.109 51.2443 173.219 50.1818 173.219 48.9839ZM185.547 46.5933V59.812H181.047V42.9058H185.281L185.547 46.5933ZM190.641 42.7964L190.563 46.9683C190.344 46.937 190.078 46.911 189.766 46.8901C189.464 46.8589 189.188 46.8433 188.938 46.8433C188.302 46.8433 187.75 46.9266 187.281 47.0933C186.823 47.2495 186.438 47.4839 186.125 47.7964C185.823 48.1089 185.594 48.4891 185.438 48.937C185.292 49.3849 185.208 49.8953 185.188 50.4683L184.281 50.187C184.281 49.0933 184.391 48.0881 184.609 47.1714C184.828 46.2443 185.146 45.437 185.563 44.7495C185.99 44.062 186.51 43.5308 187.125 43.1558C187.74 42.7808 188.443 42.5933 189.234 42.5933C189.484 42.5933 189.74 42.6141 190 42.6558C190.26 42.687 190.474 42.7339 190.641 42.7964ZM202.438 56.1245V35.812H206.969V59.812H202.891L202.438 56.1245ZM191.75 51.562V51.2339C191.75 49.9422 191.896 48.7703 192.188 47.7183C192.479 46.6558 192.906 45.7443 193.469 44.9839C194.031 44.2235 194.724 43.6349 195.547 43.2183C196.37 42.8016 197.307 42.5933 198.359 42.5933C199.349 42.5933 200.214 42.8016 200.953 43.2183C201.703 43.6349 202.339 44.2287 202.859 44.9995C203.391 45.7599 203.818 46.661 204.141 47.7026C204.464 48.7339 204.698 49.8641 204.844 51.0933V51.812C204.698 52.9891 204.464 54.0828 204.141 55.0933C203.818 56.1037 203.391 56.9891 202.859 57.7495C202.339 58.4995 201.703 59.0828 200.953 59.4995C200.203 59.9162 199.328 60.1245 198.328 60.1245C197.276 60.1245 196.339 59.911 195.516 59.4839C194.703 59.0568 194.016 58.4578 193.453 57.687C192.901 56.9162 192.479 56.0099 192.188 54.9683C191.896 53.9266 191.75 52.7912 191.75 51.562ZM196.25 51.2339V51.562C196.25 52.2599 196.302 52.911 196.406 53.5151C196.521 54.1193 196.703 54.6558 196.953 55.1245C197.214 55.5828 197.547 55.9422 197.953 56.2026C198.37 56.4526 198.875 56.5776 199.469 56.5776C200.24 56.5776 200.875 56.4058 201.375 56.062C201.875 55.7078 202.255 55.2235 202.516 54.6089C202.786 53.9943 202.943 53.286 202.984 52.4839V50.437C202.953 49.7808 202.859 49.1922 202.703 48.6714C202.557 48.1401 202.339 47.687 202.047 47.312C201.766 46.937 201.411 46.6453 200.984 46.437C200.568 46.2287 200.073 46.1245 199.5 46.1245C198.917 46.1245 198.417 46.2599 198 46.5308C197.583 46.7912 197.245 47.1506 196.984 47.6089C196.734 48.0672 196.547 48.6089 196.422 49.2339C196.307 49.8485 196.25 50.5151 196.25 51.2339ZM218.266 60.1245C216.953 60.1245 215.776 59.9162 214.734 59.4995C213.693 59.0724 212.807 58.4839 212.078 57.7339C211.359 56.9839 210.807 56.1141 210.422 55.1245C210.036 54.1245 209.844 53.062 209.844 51.937V51.312C209.844 50.0308 210.026 48.8589 210.391 47.7964C210.755 46.7339 211.276 45.812 211.953 45.0308C212.641 44.2495 213.474 43.6506 214.453 43.2339C215.432 42.8068 216.536 42.5933 217.766 42.5933C218.964 42.5933 220.026 42.7912 220.953 43.187C221.88 43.5828 222.656 44.1453 223.281 44.8745C223.917 45.6037 224.396 46.4787 224.719 47.4995C225.042 48.5099 225.203 49.6349 225.203 50.8745V52.7495H211.766V49.7495H220.781V49.4058C220.781 48.7808 220.667 48.2235 220.438 47.7339C220.219 47.2339 219.885 46.8381 219.438 46.5464C218.99 46.2547 218.417 46.1089 217.719 46.1089C217.125 46.1089 216.615 46.2391 216.188 46.4995C215.76 46.7599 215.411 47.1245 215.141 47.5933C214.88 48.062 214.682 48.6141 214.547 49.2495C214.422 49.8745 214.359 50.562 214.359 51.312V51.937C214.359 52.6141 214.453 53.2391 214.641 53.812C214.839 54.3849 215.115 54.8797 215.469 55.2964C215.833 55.7131 216.271 56.036 216.781 56.2651C217.302 56.4943 217.891 56.6089 218.547 56.6089C219.359 56.6089 220.115 56.4526 220.813 56.1401C221.521 55.8172 222.13 55.3328 222.641 54.687L224.828 57.062C224.474 57.5724 223.99 58.062 223.375 58.5308C222.771 58.9995 222.042 59.3849 221.188 59.687C220.333 59.9787 219.359 60.1245 218.266 60.1245ZM232.266 46.5933V59.812H227.766V42.9058H232L232.266 46.5933ZM237.359 42.7964L237.281 46.9683C237.063 46.937 236.797 46.911 236.484 46.8901C236.182 46.8589 235.906 46.8433 235.656 46.8433C235.021 46.8433 234.469 46.9266 234 47.0933C233.542 47.2495 233.156 47.4839 232.844 47.7964C232.542 48.1089 232.313 48.4891 232.156 48.937C232.01 49.3849 231.927 49.8953 231.906 50.4683L231 50.187C231 49.0933 231.109 48.0881 231.328 47.1714C231.547 46.2443 231.865 45.437 232.281 44.7495C232.708 44.062 233.229 43.5308 233.844 43.1558C234.458 42.7808 235.161 42.5933 235.953 42.5933C236.203 42.5933 236.458 42.6141 236.719 42.6558C236.979 42.687 237.193 42.7339 237.359 42.7964Z" fill="#D6EB3D"/>
<rect x="71.9875" y="86.9775" width="130.024" height="30.6875" rx="7" stroke="white" stroke-width="2"/>
<path d="M88.7904 99.6994C88.6668 99.3116 88.5006 98.9643 88.2918 98.6575C88.0873 98.3464 87.8422 98.0822 87.5567 97.8649C87.2712 97.6433 86.9452 97.475 86.5788 97.3599C86.2165 97.2449 85.8181 97.1873 85.3834 97.1873C84.6462 97.1873 83.9814 97.377 83.3891 97.7562C82.7968 98.1355 82.328 98.6916 81.9829 99.4245C81.642 100.153 81.4715 101.046 81.4715 102.103C81.4715 103.164 81.6441 104.061 81.9893 104.794C82.3344 105.527 82.8074 106.083 83.4083 106.462C84.0091 106.841 84.6931 107.031 85.4601 107.031C86.1718 107.031 86.7918 106.886 87.3202 106.596C87.8529 106.307 88.2641 105.898 88.5539 105.369C88.8479 104.836 88.9949 104.21 88.9949 103.49L89.5063 103.586H85.7606V101.956H90.9062V103.445C90.9062 104.545 90.6718 105.499 90.203 106.309C89.7386 107.114 89.0951 107.736 88.2726 108.175C87.4545 108.614 86.517 108.834 85.4601 108.834C84.2755 108.834 83.2357 108.561 82.3408 108.015C81.4502 107.47 80.7556 106.697 80.257 105.695C79.7584 104.689 79.5091 103.496 79.5091 102.116C79.5091 101.072 79.654 100.134 79.9438 99.3031C80.2336 98.4721 80.6405 97.7669 81.1647 97.1873C81.6931 96.6035 82.3131 96.1582 83.0248 95.8514C83.7407 95.5403 84.5226 95.3848 85.3707 95.3848C86.078 95.3848 86.7364 95.4892 87.3458 95.698C87.9594 95.9068 88.5049 96.203 88.9822 96.5865C89.4637 96.97 89.8621 97.426 90.1775 97.9544C90.4928 98.4785 90.7059 99.0602 90.8167 99.6994H88.7904ZM93.6134 108.655V95.5638H101.821V97.264H95.5886V101.253H101.393V102.947H95.5886V106.954H101.898V108.655H93.6134ZM104.014 97.264V95.5638H114.145V97.264H110.06V108.655H108.092V97.264H104.014ZM128.687 99.0027C128.619 98.3976 128.338 97.9288 127.844 97.5964C127.349 97.2598 126.727 97.0915 125.977 97.0915C125.44 97.0915 124.976 97.1767 124.584 97.3471C124.192 97.5133 123.887 97.7434 123.67 98.0375C123.457 98.3272 123.35 98.6575 123.35 99.0282C123.35 99.3393 123.422 99.6078 123.567 99.8336C123.716 100.059 123.91 100.249 124.149 100.403C124.392 100.552 124.652 100.677 124.929 100.78C125.206 100.878 125.472 100.959 125.728 101.023L127.006 101.355C127.424 101.457 127.852 101.596 128.291 101.77C128.73 101.945 129.137 102.175 129.512 102.461C129.887 102.746 130.189 103.1 130.42 103.522C130.654 103.944 130.771 104.449 130.771 105.037C130.771 105.778 130.579 106.437 130.196 107.012C129.817 107.587 129.265 108.041 128.54 108.373C127.82 108.706 126.949 108.872 125.926 108.872C124.946 108.872 124.098 108.716 123.382 108.405C122.666 108.094 122.106 107.653 121.701 107.082C121.296 106.507 121.072 105.825 121.03 105.037H123.011C123.05 105.51 123.203 105.904 123.471 106.219C123.744 106.53 124.091 106.763 124.513 106.916C124.939 107.065 125.406 107.14 125.913 107.14C126.471 107.14 126.968 107.052 127.403 106.878C127.841 106.699 128.187 106.452 128.438 106.136C128.689 105.817 128.815 105.444 128.815 105.018C128.815 104.63 128.704 104.312 128.483 104.065C128.265 103.818 127.969 103.613 127.594 103.452C127.224 103.29 126.804 103.147 126.335 103.023L124.788 102.601C123.74 102.316 122.909 101.896 122.295 101.342C121.686 100.788 121.381 100.055 121.381 99.1433C121.381 98.389 121.586 97.7307 121.995 97.1682C122.404 96.6057 122.958 96.1689 123.657 95.8578C124.356 95.5424 125.144 95.3848 126.022 95.3848C126.908 95.3848 127.69 95.5403 128.368 95.8514C129.05 96.1625 129.586 96.5907 129.979 97.1362C130.371 97.6774 130.575 98.2995 130.592 99.0027H128.687ZM133.331 108.655V95.5638H135.307V101.253H141.833V95.5638H143.814V108.655H141.833V102.947H135.307V108.655H133.331ZM158.262 102.109C158.262 103.507 158.007 104.709 157.495 105.714C156.984 106.716 156.283 107.487 155.392 108.028C154.506 108.565 153.498 108.834 152.369 108.834C151.235 108.834 150.223 108.565 149.333 108.028C148.446 107.487 147.747 106.714 147.236 105.708C146.725 104.702 146.469 103.503 146.469 102.109C146.469 100.711 146.725 99.5119 147.236 98.5105C147.747 97.5048 148.446 96.7335 149.333 96.1966C150.223 95.6554 151.235 95.3848 152.369 95.3848C153.498 95.3848 154.506 95.6554 155.392 96.1966C156.283 96.7335 156.984 97.5048 157.495 98.5105C158.007 99.5119 158.262 100.711 158.262 102.109ZM156.306 102.109C156.306 101.044 156.134 100.147 155.789 99.4182C155.448 98.6852 154.979 98.1312 154.382 97.7562C153.79 97.377 153.119 97.1873 152.369 97.1873C151.615 97.1873 150.941 97.377 150.349 97.7562C149.757 98.1312 149.288 98.6852 148.943 99.4182C148.602 100.147 148.431 101.044 148.431 102.109C148.431 103.175 148.602 104.074 148.943 104.807C149.288 105.535 149.757 106.089 150.349 106.469C150.941 106.844 151.615 107.031 152.369 107.031C153.119 107.031 153.79 106.844 154.382 106.469C154.979 106.089 155.448 105.535 155.789 104.807C156.134 104.074 156.306 103.175 156.306 102.109ZM160.925 108.655V95.5638H165.591C166.609 95.5638 167.453 95.7491 168.122 96.1199C168.791 96.4906 169.292 96.9977 169.624 97.6412C169.957 98.2804 170.123 99.0005 170.123 99.8017C170.123 100.607 169.955 101.332 169.618 101.975C169.286 102.614 168.783 103.121 168.109 103.496C167.44 103.867 166.599 104.052 165.585 104.052H162.376V102.378H165.406C166.049 102.378 166.571 102.267 166.972 102.045C167.372 101.819 167.666 101.513 167.854 101.125C168.041 100.737 168.135 100.296 168.135 99.8017C168.135 99.3074 168.041 98.8684 167.854 98.4849C167.666 98.1014 167.37 97.801 166.965 97.5836C166.565 97.3663 166.036 97.2576 165.38 97.2576H162.9V108.655H160.925ZM179.778 99.0027C179.71 98.3976 179.429 97.9288 178.935 97.5964C178.44 97.2598 177.818 97.0915 177.068 97.0915C176.531 97.0915 176.067 97.1767 175.675 97.3471C175.283 97.5133 174.978 97.7434 174.761 98.0375C174.548 98.3272 174.441 98.6575 174.441 99.0282C174.441 99.3393 174.513 99.6078 174.658 99.8336C174.807 100.059 175.001 100.249 175.24 100.403C175.483 100.552 175.743 100.677 176.02 100.78C176.297 100.878 176.563 100.959 176.819 101.023L178.097 101.355C178.515 101.457 178.943 101.596 179.382 101.77C179.821 101.945 180.228 102.175 180.603 102.461C180.978 102.746 181.28 103.1 181.511 103.522C181.745 103.944 181.862 104.449 181.862 105.037C181.862 105.778 181.67 106.437 181.287 107.012C180.908 107.587 180.356 108.041 179.631 108.373C178.911 108.706 178.04 108.872 177.017 108.872C176.037 108.872 175.189 108.716 174.473 108.405C173.757 108.094 173.197 107.653 172.792 107.082C172.387 106.507 172.163 105.825 172.121 105.037H174.102C174.141 105.51 174.294 105.904 174.562 106.219C174.835 106.53 175.182 106.763 175.604 106.916C176.03 107.065 176.497 107.14 177.004 107.14C177.562 107.14 178.059 107.052 178.494 106.878C178.932 106.699 179.278 106.452 179.529 106.136C179.78 105.817 179.906 105.444 179.906 105.018C179.906 104.63 179.795 104.312 179.574 104.065C179.356 103.818 179.06 103.613 178.685 103.452C178.315 103.29 177.895 103.147 177.426 103.023L175.879 102.601C174.831 102.316 174 101.896 173.386 101.342C172.777 100.788 172.472 100.055 172.472 99.1433C172.472 98.389 172.677 97.7307 173.086 97.1682C173.495 96.6057 174.049 96.1689 174.748 95.8578C175.447 95.5424 176.235 95.3848 177.113 95.3848C177.999 95.3848 178.781 95.5403 179.459 95.8514C180.141 96.1625 180.678 96.5907 181.07 97.1362C181.462 97.6774 181.666 98.2995 181.683 99.0027H179.778ZM183.412 95.5638H185.656L189.076 101.515H189.216L192.636 95.5638H194.88L190.131 103.515V108.655H188.162V103.515L183.412 95.5638Z" fill="white"/>
</svg>
