<svg width="293" height="180" viewBox="0 0 293 180" fill="none" xmlns="http://www.w3.org/2000/svg">
<path d="M38.5234 156.938H44.8867C46.1914 156.938 47.3125 157.133 48.25 157.523C49.1953 157.914 49.9219 158.492 50.4297 159.258C50.9375 160.023 51.1914 160.965 51.1914 162.082C51.1914 162.996 51.0352 163.781 50.7227 164.438C50.418 165.086 49.9844 165.629 49.4219 166.066C48.8672 166.496 48.2148 166.84 47.4648 167.098L46.3516 167.684H40.8203L40.7969 164.941H44.9102C45.5273 164.941 46.0391 164.832 46.4453 164.613C46.8516 164.395 47.1562 164.09 47.3594 163.699C47.5703 163.309 47.6758 162.855 47.6758 162.34C47.6758 161.793 47.5742 161.32 47.3711 160.922C47.168 160.523 46.8594 160.219 46.4453 160.008C46.0312 159.797 45.5117 159.691 44.8867 159.691H42.0391V174H38.5234V156.938ZM48.0625 174L44.1719 166.395L47.8867 166.371L51.8242 173.836V174H48.0625ZM59.5234 174.234C58.5391 174.234 57.6562 174.078 56.875 173.766C56.0938 173.445 55.4297 173.004 54.8828 172.441C54.3438 171.879 53.9297 171.227 53.6406 170.484C53.3516 169.734 53.207 168.938 53.207 168.094V167.625C53.207 166.664 53.3438 165.785 53.6172 164.988C53.8906 164.191 54.2812 163.5 54.7891 162.914C55.3047 162.328 55.9297 161.879 56.6641 161.566C57.3984 161.246 58.2266 161.086 59.1484 161.086C60.0469 161.086 60.8438 161.234 61.5391 161.531C62.2344 161.828 62.8164 162.25 63.2852 162.797C63.7617 163.344 64.1211 164 64.3633 164.766C64.6055 165.523 64.7266 166.367 64.7266 167.297V168.703H54.6484V166.453H61.4102V166.195C61.4102 165.727 61.3242 165.309 61.1523 164.941C60.9883 164.566 60.7383 164.27 60.4023 164.051C60.0664 163.832 59.6367 163.723 59.1133 163.723C58.668 163.723 58.2852 163.82 57.9648 164.016C57.6445 164.211 57.3828 164.484 57.1797 164.836C56.9844 165.188 56.8359 165.602 56.7344 166.078C56.6406 166.547 56.5938 167.062 56.5938 167.625V168.094C56.5938 168.602 56.6641 169.07 56.8047 169.5C56.9531 169.93 57.1602 170.301 57.4258 170.613C57.6992 170.926 58.0273 171.168 58.4102 171.34C58.8008 171.512 59.2422 171.598 59.7344 171.598C60.3438 171.598 60.9102 171.48 61.4336 171.246C61.9648 171.004 62.4219 170.641 62.8047 170.156L64.4453 171.938C64.1797 172.32 63.8164 172.688 63.3555 173.039C62.9023 173.391 62.3555 173.68 61.7148 173.906C61.0742 174.125 60.3438 174.234 59.5234 174.234ZM70.9492 174H67.5508V160.195C67.5508 159.234 67.7383 158.426 68.1133 157.77C68.4961 157.105 69.0312 156.605 69.7188 156.27C70.4141 155.926 71.2383 155.754 72.1914 155.754C72.5039 155.754 72.8047 155.777 73.0938 155.824C73.3828 155.863 73.6641 155.914 73.9375 155.977L73.9023 158.52C73.7539 158.48 73.5977 158.453 73.4336 158.438C73.2695 158.422 73.0781 158.414 72.8594 158.414C72.4531 158.414 72.1055 158.484 71.8164 158.625C71.5352 158.758 71.3203 158.957 71.1719 159.223C71.0234 159.488 70.9492 159.812 70.9492 160.195V174ZM73.4805 161.32V163.711H65.6641V161.32H73.4805ZM80.8047 174.234C79.8203 174.234 78.9375 174.078 78.1562 173.766C77.375 173.445 76.7109 173.004 76.1641 172.441C75.625 171.879 75.2109 171.227 74.9219 170.484C74.6328 169.734 74.4883 168.938 74.4883 168.094V167.625C74.4883 166.664 74.625 165.785 74.8984 164.988C75.1719 164.191 75.5625 163.5 76.0703 162.914C76.5859 162.328 77.2109 161.879 77.9453 161.566C78.6797 161.246 79.5078 161.086 80.4297 161.086C81.3281 161.086 82.125 161.234 82.8203 161.531C83.5156 161.828 84.0977 162.25 84.5664 162.797C85.043 163.344 85.4023 164 85.6445 164.766C85.8867 165.523 86.0078 166.367 86.0078 167.297V168.703H75.9297V166.453H82.6914V166.195C82.6914 165.727 82.6055 165.309 82.4336 164.941C82.2695 164.566 82.0195 164.27 81.6836 164.051C81.3477 163.832 80.918 163.723 80.3945 163.723C79.9492 163.723 79.5664 163.82 79.2461 164.016C78.9258 164.211 78.6641 164.484 78.4609 164.836C78.2656 165.188 78.1172 165.602 78.0156 166.078C77.9219 166.547 77.875 167.062 77.875 167.625V168.094C77.875 168.602 77.9453 169.07 78.0859 169.5C78.2344 169.93 78.4414 170.301 78.707 170.613C78.9805 170.926 79.3086 171.168 79.6914 171.34C80.082 171.512 80.5234 171.598 81.0156 171.598C81.625 171.598 82.1914 171.48 82.7148 171.246C83.2461 171.004 83.7031 170.641 84.0859 170.156L85.7266 171.938C85.4609 172.32 85.0977 172.688 84.6367 173.039C84.1836 173.391 83.6367 173.68 82.9961 173.906C82.3555 174.125 81.625 174.234 80.8047 174.234ZM91.3047 164.086V174H87.9297V161.32H91.1055L91.3047 164.086ZM95.125 161.238L95.0664 164.367C94.9023 164.344 94.7031 164.324 94.4688 164.309C94.2422 164.285 94.0352 164.273 93.8477 164.273C93.3711 164.273 92.957 164.336 92.6055 164.461C92.2617 164.578 91.9727 164.754 91.7383 164.988C91.5117 165.223 91.3398 165.508 91.2227 165.844C91.1133 166.18 91.0508 166.562 91.0352 166.992L90.3555 166.781C90.3555 165.961 90.4375 165.207 90.6016 164.52C90.7656 163.824 91.0039 163.219 91.3164 162.703C91.6367 162.188 92.0273 161.789 92.4883 161.508C92.9492 161.227 93.4766 161.086 94.0703 161.086C94.2578 161.086 94.4492 161.102 94.6445 161.133C94.8398 161.156 95 161.191 95.125 161.238ZM105.379 164.871L108.66 162.75C109.145 162.43 109.469 162.121 109.633 161.824C109.797 161.527 109.879 161.195 109.879 160.828C109.879 160.461 109.742 160.121 109.469 159.809C109.195 159.488 108.812 159.328 108.32 159.328C107.969 159.328 107.672 159.41 107.43 159.574C107.188 159.73 107.004 159.941 106.879 160.207C106.762 160.473 106.703 160.77 106.703 161.098C106.703 161.449 106.797 161.809 106.984 162.176C107.172 162.535 107.426 162.918 107.746 163.324C108.066 163.723 108.422 164.156 108.812 164.625L116.863 174H113.031L106.469 166.406C105.914 165.719 105.43 165.09 105.016 164.52C104.602 163.941 104.277 163.379 104.043 162.832C103.809 162.285 103.691 161.723 103.691 161.145C103.691 160.254 103.883 159.477 104.266 158.812C104.648 158.141 105.188 157.621 105.883 157.254C106.578 156.879 107.395 156.691 108.332 156.691C109.215 156.691 109.98 156.875 110.629 157.242C111.277 157.602 111.777 158.078 112.129 158.672C112.488 159.266 112.668 159.918 112.668 160.629C112.668 161.16 112.57 161.652 112.375 162.105C112.18 162.551 111.91 162.965 111.566 163.348C111.223 163.723 110.828 164.07 110.383 164.391L106.645 167.051C106.355 167.316 106.137 167.578 105.988 167.836C105.84 168.094 105.738 168.34 105.684 168.574C105.629 168.801 105.602 169.02 105.602 169.23C105.602 169.684 105.699 170.09 105.895 170.449C106.09 170.809 106.363 171.09 106.715 171.293C107.066 171.496 107.477 171.598 107.945 171.598C108.586 171.598 109.207 171.457 109.809 171.176C110.41 170.895 110.949 170.492 111.426 169.969C111.902 169.438 112.281 168.809 112.562 168.082C112.844 167.355 112.984 166.555 112.984 165.68H115.844C115.844 166.555 115.758 167.387 115.586 168.176C115.414 168.957 115.137 169.684 114.754 170.355C114.371 171.02 113.863 171.609 113.23 172.125C113.184 172.164 113.117 172.223 113.031 172.301C112.953 172.371 112.887 172.426 112.832 172.465C112.082 173.066 111.301 173.516 110.488 173.812C109.676 174.102 108.77 174.246 107.77 174.246C106.629 174.246 105.641 174.039 104.805 173.625C103.977 173.211 103.336 172.641 102.883 171.914C102.438 171.188 102.215 170.355 102.215 169.418C102.215 168.73 102.348 168.133 102.613 167.625C102.887 167.109 103.262 166.633 103.738 166.195C104.215 165.758 104.762 165.316 105.379 164.871ZM136.129 171.258V174H127.047V171.258H136.129ZM128.195 156.938V174H124.68V156.938H128.195ZM134.945 163.887V166.559H127.047V163.887H134.945ZM136.117 156.938V159.691H127.047V156.938H136.117ZM144.812 171.141V165.492C144.812 165.086 144.746 164.738 144.613 164.449C144.48 164.152 144.273 163.922 143.992 163.758C143.719 163.594 143.363 163.512 142.926 163.512C142.551 163.512 142.227 163.578 141.953 163.711C141.68 163.836 141.469 164.02 141.32 164.262C141.172 164.496 141.098 164.773 141.098 165.094H137.723C137.723 164.555 137.848 164.043 138.098 163.559C138.348 163.074 138.711 162.648 139.188 162.281C139.664 161.906 140.23 161.613 140.887 161.402C141.551 161.191 142.293 161.086 143.113 161.086C144.098 161.086 144.973 161.25 145.738 161.578C146.504 161.906 147.105 162.398 147.543 163.055C147.988 163.711 148.211 164.531 148.211 165.516V170.941C148.211 171.637 148.254 172.207 148.34 172.652C148.426 173.09 148.551 173.473 148.715 173.801V174H145.305C145.141 173.656 145.016 173.227 144.93 172.711C144.852 172.188 144.812 171.664 144.812 171.141ZM145.258 166.277L145.281 168.188H143.395C142.949 168.188 142.562 168.238 142.234 168.34C141.906 168.441 141.637 168.586 141.426 168.773C141.215 168.953 141.059 169.164 140.957 169.406C140.863 169.648 140.816 169.914 140.816 170.203C140.816 170.492 140.883 170.754 141.016 170.988C141.148 171.215 141.34 171.395 141.59 171.527C141.84 171.652 142.133 171.715 142.469 171.715C142.977 171.715 143.418 171.613 143.793 171.41C144.168 171.207 144.457 170.957 144.66 170.66C144.871 170.363 144.98 170.082 144.988 169.816L145.879 171.246C145.754 171.566 145.582 171.898 145.363 172.242C145.152 172.586 144.883 172.91 144.555 173.215C144.227 173.512 143.832 173.758 143.371 173.953C142.91 174.141 142.363 174.234 141.73 174.234C140.926 174.234 140.195 174.074 139.539 173.754C138.891 173.426 138.375 172.977 137.992 172.406C137.617 171.828 137.43 171.172 137.43 170.438C137.43 169.773 137.555 169.184 137.805 168.668C138.055 168.152 138.422 167.719 138.906 167.367C139.398 167.008 140.012 166.738 140.746 166.559C141.48 166.371 142.332 166.277 143.301 166.277H145.258ZM154.188 164.086V174H150.812V161.32H153.988L154.188 164.086ZM158.008 161.238L157.949 164.367C157.785 164.344 157.586 164.324 157.352 164.309C157.125 164.285 156.918 164.273 156.73 164.273C156.254 164.273 155.84 164.336 155.488 164.461C155.145 164.578 154.855 164.754 154.621 164.988C154.395 165.223 154.223 165.508 154.105 165.844C153.996 166.18 153.934 166.562 153.918 166.992L153.238 166.781C153.238 165.961 153.32 165.207 153.484 164.52C153.648 163.824 153.887 163.219 154.199 162.703C154.52 162.188 154.91 161.789 155.371 161.508C155.832 161.227 156.359 161.086 156.953 161.086C157.141 161.086 157.332 161.102 157.527 161.133C157.723 161.156 157.883 161.191 158.008 161.238ZM162.906 164.027V174H159.531V161.32H162.695L162.906 164.027ZM162.414 167.215H161.5C161.5 166.277 161.621 165.434 161.863 164.684C162.105 163.926 162.445 163.281 162.883 162.75C163.32 162.211 163.84 161.801 164.441 161.52C165.051 161.23 165.73 161.086 166.48 161.086C167.074 161.086 167.617 161.172 168.109 161.344C168.602 161.516 169.023 161.789 169.375 162.164C169.734 162.539 170.008 163.035 170.195 163.652C170.391 164.27 170.488 165.023 170.488 165.914V174H167.09V165.902C167.09 165.34 167.012 164.902 166.855 164.59C166.699 164.277 166.469 164.059 166.164 163.934C165.867 163.801 165.5 163.734 165.062 163.734C164.609 163.734 164.215 163.824 163.879 164.004C163.551 164.184 163.277 164.434 163.059 164.754C162.848 165.066 162.688 165.434 162.578 165.855C162.469 166.277 162.414 166.73 162.414 167.215Z" fill="white"/>
<rect y="154.776" width="22.4466" height="22.4466" rx="11.2233" fill="#D6EB3D"/>
<path d="M15.7034 162.64L9.54341 168.8L6.74341 166" stroke="#4E3BE5" stroke-width="2" stroke-linecap="round" stroke-linejoin="round"/>
<path d="M52.1172 64.9297V66.0078C52.1172 67.2891 51.957 68.4375 51.6367 69.4531C51.3164 70.4688 50.8555 71.332 50.2539 72.043C49.6523 72.7539 48.9297 73.2969 48.0859 73.6719C47.25 74.0469 46.3125 74.2344 45.2734 74.2344C44.2656 74.2344 43.3398 74.0469 42.4961 73.6719C41.6602 73.2969 40.9336 72.7539 40.3164 72.043C39.707 71.332 39.2344 70.4688 38.8984 69.4531C38.5625 68.4375 38.3945 67.2891 38.3945 66.0078V64.9297C38.3945 63.6484 38.5586 62.5039 38.8867 61.4961C39.2227 60.4805 39.6953 59.6172 40.3047 58.9062C40.9141 58.1875 41.6367 57.6406 42.4727 57.2656C43.3164 56.8906 44.2422 56.7031 45.25 56.7031C46.2891 56.7031 47.2266 56.8906 48.0625 57.2656C48.9062 57.6406 49.6289 58.1875 50.2305 58.9062C50.8398 59.6172 51.3047 60.4805 51.625 61.4961C51.9531 62.5039 52.1172 63.6484 52.1172 64.9297ZM49.8789 66.0078V64.9062C49.8789 63.8906 49.7734 62.9922 49.5625 62.2109C49.3594 61.4297 49.0586 60.7734 48.6602 60.2422C48.2617 59.7109 47.7734 59.3086 47.1953 59.0352C46.625 58.7617 45.9766 58.625 45.25 58.625C44.5469 58.625 43.9102 58.7617 43.3398 59.0352C42.7773 59.3086 42.293 59.7109 41.8867 60.2422C41.4883 60.7734 41.1797 61.4297 40.9609 62.2109C40.7422 62.9922 40.6328 63.8906 40.6328 64.9062V66.0078C40.6328 67.0312 40.7422 67.9375 40.9609 68.7266C41.1797 69.5078 41.4922 70.168 41.8984 70.707C42.3125 71.2383 42.8008 71.6406 43.3633 71.9141C43.9336 72.1875 44.5703 72.3242 45.2734 72.3242C46.0078 72.3242 46.6602 72.1875 47.2305 71.9141C47.8008 71.6406 48.2812 71.2383 48.6719 70.707C49.0703 70.168 49.3711 69.5078 49.5742 68.7266C49.7773 67.9375 49.8789 67.0312 49.8789 66.0078ZM59.0312 72.043L62.5 61.3203H64.7148L60.1562 74H58.7031L59.0312 72.043ZM56.1367 61.3203L59.7109 72.1016L59.957 74H58.5039L53.9102 61.3203H56.1367ZM71.8984 74.2344C71.0156 74.2344 70.2148 74.0859 69.4961 73.7891C68.7852 73.4844 68.1719 73.0586 67.6562 72.5117C67.1484 71.9648 66.7578 71.3164 66.4844 70.5664C66.2109 69.8164 66.0742 68.9961 66.0742 68.1055V67.6133C66.0742 66.582 66.2266 65.6641 66.5312 64.8594C66.8359 64.0469 67.25 63.3594 67.7734 62.7969C68.2969 62.2344 68.8906 61.8086 69.5547 61.5195C70.2188 61.2305 70.9062 61.0859 71.6172 61.0859C72.5234 61.0859 73.3047 61.2422 73.9609 61.5547C74.625 61.8672 75.168 62.3047 75.5898 62.8672C76.0117 63.4219 76.3242 64.0781 76.5273 64.8359C76.7305 65.5859 76.832 66.4062 76.832 67.2969V68.2695H67.3633V66.5H74.6641V66.3359C74.6328 65.7734 74.5156 65.2266 74.3125 64.6953C74.1172 64.1641 73.8047 63.7266 73.375 63.3828C72.9453 63.0391 72.3594 62.8672 71.6172 62.8672C71.125 62.8672 70.6719 62.9727 70.2578 63.1836C69.8438 63.3867 69.4883 63.6914 69.1914 64.0977C68.8945 64.5039 68.6641 65 68.5 65.5859C68.3359 66.1719 68.2539 66.8477 68.2539 67.6133V68.1055C68.2539 68.707 68.3359 69.2734 68.5 69.8047C68.6719 70.3281 68.918 70.7891 69.2383 71.1875C69.5664 71.5859 69.9609 71.8984 70.4219 72.125C70.8906 72.3516 71.4219 72.4648 72.0156 72.4648C72.7812 72.4648 73.4297 72.3086 73.9609 71.9961C74.4922 71.6836 74.957 71.2656 75.3555 70.7422L76.668 71.7852C76.3945 72.1992 76.0469 72.5938 75.625 72.9688C75.2031 73.3438 74.6836 73.6484 74.0664 73.8828C73.457 74.1172 72.7344 74.2344 71.8984 74.2344ZM81.5312 63.3125V74H79.3633V61.3203H81.4727L81.5312 63.3125ZM85.4922 61.25L85.4805 63.2656C85.3008 63.2266 85.1289 63.2031 84.9648 63.1953C84.8086 63.1797 84.6289 63.1719 84.4258 63.1719C83.9258 63.1719 83.4844 63.25 83.1016 63.4062C82.7188 63.5625 82.3945 63.7812 82.1289 64.0625C81.8633 64.3438 81.6523 64.6797 81.4961 65.0703C81.3477 65.4531 81.25 65.875 81.2031 66.3359L80.5938 66.6875C80.5938 65.9219 80.668 65.2031 80.8164 64.5312C80.9727 63.8594 81.2109 63.2656 81.5312 62.75C81.8516 62.2266 82.2578 61.8203 82.75 61.5312C83.25 61.2344 83.8438 61.0859 84.5312 61.0859C84.6875 61.0859 84.8672 61.1055 85.0703 61.1445C85.2734 61.1758 85.4141 61.2109 85.4922 61.25ZM101.219 56.9023V74H97.8438V60.793L93.7891 62.082V59.4219L100.855 56.9023H101.219ZM109.949 66.2305L107.254 65.5859L108.227 56.9375H117.812V59.668H111.004L110.582 63.4531C110.809 63.3203 111.152 63.1797 111.613 63.0312C112.074 62.875 112.59 62.7969 113.16 62.7969C113.988 62.7969 114.723 62.9258 115.363 63.1836C116.004 63.4414 116.547 63.8164 116.992 64.3086C117.445 64.8008 117.789 65.4023 118.023 66.1133C118.258 66.8242 118.375 67.6289 118.375 68.5273C118.375 69.2852 118.258 70.0078 118.023 70.6953C117.789 71.375 117.434 71.9844 116.957 72.5234C116.48 73.0547 115.883 73.4727 115.164 73.7773C114.445 74.082 113.594 74.2344 112.609 74.2344C111.875 74.2344 111.164 74.125 110.477 73.9062C109.797 73.6875 109.184 73.3633 108.637 72.9336C108.098 72.5039 107.664 71.9844 107.336 71.375C107.016 70.7578 106.848 70.0547 106.832 69.2656H110.184C110.23 69.75 110.355 70.168 110.559 70.5195C110.77 70.8633 111.047 71.1289 111.391 71.3164C111.734 71.5039 112.137 71.5977 112.598 71.5977C113.027 71.5977 113.395 71.5156 113.699 71.3516C114.004 71.1875 114.25 70.9609 114.438 70.6719C114.625 70.375 114.762 70.0312 114.848 69.6406C114.941 69.2422 114.988 68.8125 114.988 68.3516C114.988 67.8906 114.934 67.4727 114.824 67.0977C114.715 66.7227 114.547 66.3984 114.32 66.125C114.094 65.8516 113.805 65.6406 113.453 65.4922C113.109 65.3438 112.707 65.2695 112.246 65.2695C111.621 65.2695 111.137 65.3672 110.793 65.5625C110.457 65.7578 110.176 65.9805 109.949 66.2305ZM136.773 68.3398H140.277C140.207 69.4883 139.891 70.5078 139.328 71.3984C138.773 72.2891 137.996 72.9844 136.996 73.4844C136.004 73.9844 134.809 74.2344 133.41 74.2344C132.316 74.2344 131.336 74.0469 130.469 73.6719C129.602 73.2891 128.859 72.7422 128.242 72.0312C127.633 71.3203 127.168 70.4609 126.848 69.4531C126.527 68.4453 126.367 67.3164 126.367 66.0664V64.8828C126.367 63.6328 126.531 62.5039 126.859 61.4961C127.195 60.4805 127.672 59.6172 128.289 58.9062C128.914 58.1953 129.66 57.6484 130.527 57.2656C131.395 56.8828 132.363 56.6914 133.434 56.6914C134.855 56.6914 136.055 56.9492 137.031 57.4648C138.016 57.9805 138.777 58.6914 139.316 59.5977C139.863 60.5039 140.191 61.5352 140.301 62.6914H136.785C136.746 62.0039 136.609 61.4219 136.375 60.9453C136.141 60.4609 135.785 60.0977 135.309 59.8555C134.84 59.6055 134.215 59.4805 133.434 59.4805C132.848 59.4805 132.336 59.5898 131.898 59.8086C131.461 60.0273 131.094 60.3594 130.797 60.8047C130.5 61.25 130.277 61.8125 130.129 62.4922C129.988 63.1641 129.918 63.9531 129.918 64.8594V66.0664C129.918 66.9492 129.984 67.7266 130.117 68.3984C130.25 69.0625 130.453 69.625 130.727 70.0859C131.008 70.5391 131.367 70.8828 131.805 71.1172C132.25 71.3438 132.785 71.457 133.41 71.457C134.145 71.457 134.75 71.3398 135.227 71.1055C135.703 70.8711 136.066 70.5234 136.316 70.0625C136.574 69.6016 136.727 69.0273 136.773 68.3398ZM145.75 64.0859V74H142.375V61.3203H145.551L145.75 64.0859ZM149.57 61.2383L149.512 64.3672C149.348 64.3438 149.148 64.3242 148.914 64.3086C148.688 64.2852 148.48 64.2734 148.293 64.2734C147.816 64.2734 147.402 64.3359 147.051 64.4609C146.707 64.5781 146.418 64.7539 146.184 64.9883C145.957 65.2227 145.785 65.5078 145.668 65.8438C145.559 66.1797 145.496 66.5625 145.48 66.9922L144.801 66.7812C144.801 65.9609 144.883 65.207 145.047 64.5195C145.211 63.8242 145.449 63.2188 145.762 62.7031C146.082 62.1875 146.473 61.7891 146.934 61.5078C147.395 61.2266 147.922 61.0859 148.516 61.0859C148.703 61.0859 148.895 61.1016 149.09 61.1328C149.285 61.1562 149.445 61.1914 149.57 61.2383ZM150.273 67.7891V67.543C150.273 66.6133 150.406 65.7578 150.672 64.9766C150.938 64.1875 151.324 63.5039 151.832 62.9258C152.34 62.3477 152.965 61.8984 153.707 61.5781C154.449 61.25 155.301 61.0859 156.262 61.0859C157.223 61.0859 158.078 61.25 158.828 61.5781C159.578 61.8984 160.207 62.3477 160.715 62.9258C161.23 63.5039 161.621 64.1875 161.887 64.9766C162.152 65.7578 162.285 66.6133 162.285 67.543V67.7891C162.285 68.7109 162.152 69.5664 161.887 70.3555C161.621 71.1367 161.23 71.8203 160.715 72.4062C160.207 72.9844 159.582 73.4336 158.84 73.7539C158.098 74.0742 157.246 74.2344 156.285 74.2344C155.324 74.2344 154.469 74.0742 153.719 73.7539C152.977 73.4336 152.348 72.9844 151.832 72.4062C151.324 71.8203 150.938 71.1367 150.672 70.3555C150.406 69.5664 150.273 68.7109 150.273 67.7891ZM153.648 67.543V67.7891C153.648 68.3203 153.695 68.8164 153.789 69.2773C153.883 69.7383 154.031 70.1445 154.234 70.4961C154.445 70.8398 154.719 71.1094 155.055 71.3047C155.391 71.5 155.801 71.5977 156.285 71.5977C156.754 71.5977 157.156 71.5 157.492 71.3047C157.828 71.1094 158.098 70.8398 158.301 70.4961C158.504 70.1445 158.652 69.7383 158.746 69.2773C158.848 68.8164 158.898 68.3203 158.898 67.7891V67.543C158.898 67.0273 158.848 66.543 158.746 66.0898C158.652 65.6289 158.5 65.2227 158.289 64.8711C158.086 64.5117 157.816 64.2305 157.48 64.0273C157.145 63.8242 156.738 63.7227 156.262 63.7227C155.785 63.7227 155.379 63.8242 155.043 64.0273C154.715 64.2305 154.445 64.5117 154.234 64.8711C154.031 65.2227 153.883 65.6289 153.789 66.0898C153.695 66.543 153.648 67.0273 153.648 67.543ZM167.734 64.0859V74H164.359V61.3203H167.535L167.734 64.0859ZM171.555 61.2383L171.496 64.3672C171.332 64.3438 171.133 64.3242 170.898 64.3086C170.672 64.2852 170.465 64.2734 170.277 64.2734C169.801 64.2734 169.387 64.3359 169.035 64.4609C168.691 64.5781 168.402 64.7539 168.168 64.9883C167.941 65.2227 167.77 65.5078 167.652 65.8438C167.543 66.1797 167.48 66.5625 167.465 66.9922L166.785 66.7812C166.785 65.9609 166.867 65.207 167.031 64.5195C167.195 63.8242 167.434 63.2188 167.746 62.7031C168.066 62.1875 168.457 61.7891 168.918 61.5078C169.379 61.2266 169.906 61.0859 170.5 61.0859C170.688 61.0859 170.879 61.1016 171.074 61.1328C171.27 61.1562 171.43 61.1914 171.555 61.2383ZM178.75 74.2344C177.766 74.2344 176.883 74.0781 176.102 73.7656C175.32 73.4453 174.656 73.0039 174.109 72.4414C173.57 71.8789 173.156 71.2266 172.867 70.4844C172.578 69.7344 172.434 68.9375 172.434 68.0938V67.625C172.434 66.6641 172.57 65.7852 172.844 64.9883C173.117 64.1914 173.508 63.5 174.016 62.9141C174.531 62.3281 175.156 61.8789 175.891 61.5664C176.625 61.2461 177.453 61.0859 178.375 61.0859C179.273 61.0859 180.07 61.2344 180.766 61.5312C181.461 61.8281 182.043 62.25 182.512 62.7969C182.988 63.3438 183.348 64 183.59 64.7656C183.832 65.5234 183.953 66.3672 183.953 67.2969V68.7031H173.875V66.4531H180.637V66.1953C180.637 65.7266 180.551 65.3086 180.379 64.9414C180.215 64.5664 179.965 64.2695 179.629 64.0508C179.293 63.832 178.863 63.7227 178.34 63.7227C177.895 63.7227 177.512 63.8203 177.191 64.0156C176.871 64.2109 176.609 64.4844 176.406 64.8359C176.211 65.1875 176.062 65.6016 175.961 66.0781C175.867 66.5469 175.82 67.0625 175.82 67.625V68.0938C175.82 68.6016 175.891 69.0703 176.031 69.5C176.18 69.9297 176.387 70.3008 176.652 70.6133C176.926 70.9258 177.254 71.168 177.637 71.3398C178.027 71.5117 178.469 71.5977 178.961 71.5977C179.57 71.5977 180.137 71.4805 180.66 71.2461C181.191 71.0039 181.648 70.6406 182.031 70.1562L183.672 71.9375C183.406 72.3203 183.043 72.6875 182.582 73.0391C182.129 73.3906 181.582 73.6797 180.941 73.9062C180.301 74.125 179.57 74.2344 178.75 74.2344ZM196.914 64.4961V67.4375H185.219V64.4961H196.914ZM192.672 59.8672V72.2891H189.473V59.8672H192.672ZM216.109 71.2578V74H207.52V71.2578H216.109ZM208.656 56.9375V74H205.141V56.9375H208.656ZM221.477 61.3203V74H218.09V61.3203H221.477ZM217.879 58.0156C217.879 57.5234 218.051 57.1172 218.395 56.7969C218.738 56.4766 219.199 56.3164 219.777 56.3164C220.348 56.3164 220.805 56.4766 221.148 56.7969C221.5 57.1172 221.676 57.5234 221.676 58.0156C221.676 58.5078 221.5 58.9141 221.148 59.2344C220.805 59.5547 220.348 59.7148 219.777 59.7148C219.199 59.7148 218.738 59.5547 218.395 59.2344C218.051 58.9141 217.879 58.5078 217.879 58.0156ZM231.121 70.4961C231.121 70.2539 231.051 70.0352 230.91 69.8398C230.77 69.6445 230.508 69.4648 230.125 69.3008C229.75 69.1289 229.207 68.9727 228.496 68.832C227.855 68.6914 227.258 68.5156 226.703 68.3047C226.156 68.0859 225.68 67.8242 225.273 67.5195C224.875 67.2148 224.562 66.8555 224.336 66.4414C224.109 66.0195 223.996 65.5391 223.996 65C223.996 64.4688 224.109 63.9688 224.336 63.5C224.57 63.0312 224.902 62.6172 225.332 62.2578C225.77 61.8906 226.301 61.6055 226.926 61.4023C227.559 61.1914 228.27 61.0859 229.059 61.0859C230.16 61.0859 231.105 61.2617 231.895 61.6133C232.691 61.9648 233.301 62.4492 233.723 63.0664C234.152 63.6758 234.367 64.3711 234.367 65.1523H230.992C230.992 64.8242 230.922 64.5312 230.781 64.2734C230.648 64.0078 230.438 63.8008 230.148 63.6523C229.867 63.4961 229.5 63.418 229.047 63.418C228.672 63.418 228.348 63.4844 228.074 63.6172C227.801 63.7422 227.59 63.9141 227.441 64.1328C227.301 64.3438 227.23 64.5781 227.23 64.8359C227.23 65.0312 227.27 65.207 227.348 65.3633C227.434 65.5117 227.57 65.6484 227.758 65.7734C227.945 65.8984 228.188 66.0156 228.484 66.125C228.789 66.2266 229.164 66.3203 229.609 66.4062C230.523 66.5938 231.34 66.8398 232.059 67.1445C232.777 67.4414 233.348 67.8477 233.77 68.3633C234.191 68.8711 234.402 69.5391 234.402 70.3672C234.402 70.9297 234.277 71.4453 234.027 71.9141C233.777 72.3828 233.418 72.793 232.949 73.1445C232.48 73.4883 231.918 73.7578 231.262 73.9531C230.613 74.1406 229.883 74.2344 229.07 74.2344C227.891 74.2344 226.891 74.0234 226.07 73.6016C225.258 73.1797 224.641 72.6445 224.219 71.9961C223.805 71.3398 223.598 70.668 223.598 69.9805H226.797C226.812 70.4414 226.93 70.8125 227.148 71.0938C227.375 71.375 227.66 71.5781 228.004 71.7031C228.355 71.8281 228.734 71.8906 229.141 71.8906C229.578 71.8906 229.941 71.832 230.23 71.7148C230.52 71.5898 230.738 71.4258 230.887 71.2227C231.043 71.0117 231.121 70.7695 231.121 70.4961ZM242.805 61.3203V63.7109H235.422V61.3203H242.805ZM237.25 58.1914H240.625V70.1797C240.625 70.5469 240.672 70.8281 240.766 71.0234C240.867 71.2188 241.016 71.3555 241.211 71.4336C241.406 71.5039 241.652 71.5391 241.949 71.5391C242.16 71.5391 242.348 71.5312 242.512 71.5156C242.684 71.4922 242.828 71.4688 242.945 71.4453L242.957 73.9297C242.668 74.0234 242.355 74.0977 242.02 74.1523C241.684 74.207 241.312 74.2344 240.906 74.2344C240.164 74.2344 239.516 74.1133 238.961 73.8711C238.414 73.6211 237.992 73.2227 237.695 72.6758C237.398 72.1289 237.25 71.4102 237.25 70.5195V58.1914ZM248.289 61.3203V74H244.902V61.3203H248.289ZM244.691 58.0156C244.691 57.5234 244.863 57.1172 245.207 56.7969C245.551 56.4766 246.012 56.3164 246.59 56.3164C247.16 56.3164 247.617 56.4766 247.961 56.7969C248.312 57.1172 248.488 57.5234 248.488 58.0156C248.488 58.5078 248.312 58.9141 247.961 59.2344C247.617 59.5547 247.16 59.7148 246.59 59.7148C246.012 59.7148 245.551 59.5547 245.207 59.2344C244.863 58.9141 244.691 58.5078 244.691 58.0156ZM254.383 64.0273V74H251.008V61.3203H254.172L254.383 64.0273ZM253.891 67.2148H252.977C252.977 66.2773 253.098 65.4336 253.34 64.6836C253.582 63.9258 253.922 63.2812 254.359 62.75C254.797 62.2109 255.316 61.8008 255.918 61.5195C256.527 61.2305 257.207 61.0859 257.957 61.0859C258.551 61.0859 259.094 61.1719 259.586 61.3438C260.078 61.5156 260.5 61.7891 260.852 62.1641C261.211 62.5391 261.484 63.0352 261.672 63.6523C261.867 64.2695 261.965 65.0234 261.965 65.9141V74H258.566V65.9023C258.566 65.3398 258.488 64.9023 258.332 64.5898C258.176 64.2773 257.945 64.0586 257.641 63.9336C257.344 63.8008 256.977 63.7344 256.539 63.7344C256.086 63.7344 255.691 63.8242 255.355 64.0039C255.027 64.1836 254.754 64.4336 254.535 64.7539C254.324 65.0664 254.164 65.4336 254.055 65.8555C253.945 66.2773 253.891 66.7305 253.891 67.2148ZM272.559 61.3203H275.617V73.5781C275.617 74.7344 275.359 75.7148 274.844 76.5195C274.336 77.332 273.625 77.9453 272.711 78.3594C271.797 78.7812 270.734 78.9922 269.523 78.9922C268.992 78.9922 268.43 78.9219 267.836 78.7812C267.25 78.6406 266.688 78.4219 266.148 78.125C265.617 77.8281 265.172 77.4531 264.812 77L266.301 75.0078C266.691 75.4609 267.145 75.8125 267.66 76.0625C268.176 76.3203 268.746 76.4492 269.371 76.4492C269.98 76.4492 270.496 76.3359 270.918 76.1094C271.34 75.8906 271.664 75.5664 271.891 75.1367C272.117 74.7148 272.23 74.2031 272.23 73.6016V64.25L272.559 61.3203ZM264.027 67.8125V67.5664C264.027 66.5977 264.145 65.7188 264.379 64.9297C264.621 64.1328 264.961 63.4492 265.398 62.8789C265.844 62.3086 266.383 61.8672 267.016 61.5547C267.648 61.2422 268.363 61.0859 269.16 61.0859C270.004 61.0859 270.711 61.2422 271.281 61.5547C271.852 61.8672 272.32 62.3125 272.688 62.8906C273.055 63.4609 273.34 64.1367 273.543 64.918C273.754 65.6914 273.918 66.5391 274.035 67.4609V68C273.918 68.8828 273.742 69.7031 273.508 70.4609C273.273 71.2188 272.965 71.8828 272.582 72.4531C272.199 73.0156 271.723 73.4531 271.152 73.7656C270.59 74.0781 269.918 74.2344 269.137 74.2344C268.355 74.2344 267.648 74.0742 267.016 73.7539C266.391 73.4336 265.855 72.9844 265.41 72.4062C264.965 71.8281 264.621 71.1484 264.379 70.3672C264.145 69.5859 264.027 68.7344 264.027 67.8125ZM267.402 67.5664V67.8125C267.402 68.3359 267.453 68.8242 267.555 69.2773C267.656 69.7305 267.812 70.1328 268.023 70.4844C268.242 70.8281 268.512 71.0977 268.832 71.293C269.16 71.4805 269.547 71.5742 269.992 71.5742C270.609 71.5742 271.113 71.4453 271.504 71.1875C271.895 70.9219 272.188 70.5586 272.383 70.0977C272.578 69.6367 272.691 69.1055 272.723 68.5039V66.9688C272.707 66.4766 272.641 66.0352 272.523 65.6445C272.406 65.2461 272.242 64.9062 272.031 64.625C271.82 64.3438 271.547 64.125 271.211 63.9688C270.875 63.8125 270.477 63.7344 270.016 63.7344C269.57 63.7344 269.184 63.8359 268.855 64.0391C268.535 64.2344 268.266 64.5039 268.047 64.8477C267.836 65.1914 267.676 65.5977 267.566 66.0664C267.457 66.5273 267.402 67.0273 267.402 67.5664ZM285.098 70.4961C285.098 70.2539 285.027 70.0352 284.887 69.8398C284.746 69.6445 284.484 69.4648 284.102 69.3008C283.727 69.1289 283.184 68.9727 282.473 68.832C281.832 68.6914 281.234 68.5156 280.68 68.3047C280.133 68.0859 279.656 67.8242 279.25 67.5195C278.852 67.2148 278.539 66.8555 278.312 66.4414C278.086 66.0195 277.973 65.5391 277.973 65C277.973 64.4688 278.086 63.9688 278.312 63.5C278.547 63.0312 278.879 62.6172 279.309 62.2578C279.746 61.8906 280.277 61.6055 280.902 61.4023C281.535 61.1914 282.246 61.0859 283.035 61.0859C284.137 61.0859 285.082 61.2617 285.871 61.6133C286.668 61.9648 287.277 62.4492 287.699 63.0664C288.129 63.6758 288.344 64.3711 288.344 65.1523H284.969C284.969 64.8242 284.898 64.5312 284.758 64.2734C284.625 64.0078 284.414 63.8008 284.125 63.6523C283.844 63.4961 283.477 63.418 283.023 63.418C282.648 63.418 282.324 63.4844 282.051 63.6172C281.777 63.7422 281.566 63.9141 281.418 64.1328C281.277 64.3438 281.207 64.5781 281.207 64.8359C281.207 65.0312 281.246 65.207 281.324 65.3633C281.41 65.5117 281.547 65.6484 281.734 65.7734C281.922 65.8984 282.164 66.0156 282.461 66.125C282.766 66.2266 283.141 66.3203 283.586 66.4062C284.5 66.5938 285.316 66.8398 286.035 67.1445C286.754 67.4414 287.324 67.8477 287.746 68.3633C288.168 68.8711 288.379 69.5391 288.379 70.3672C288.379 70.9297 288.254 71.4453 288.004 71.9141C287.754 72.3828 287.395 72.793 286.926 73.1445C286.457 73.4883 285.895 73.7578 285.238 73.9531C284.59 74.1406 283.859 74.2344 283.047 74.2344C281.867 74.2344 280.867 74.0234 280.047 73.6016C279.234 73.1797 278.617 72.6445 278.195 71.9961C277.781 71.3398 277.574 70.668 277.574 69.9805H280.773C280.789 70.4414 280.906 70.8125 281.125 71.0938C281.352 71.375 281.637 71.5781 281.98 71.7031C282.332 71.8281 282.711 71.8906 283.117 71.8906C283.555 71.8906 283.918 71.832 284.207 71.7148C284.496 71.5898 284.715 71.4258 284.863 71.2227C285.02 71.0117 285.098 70.7695 285.098 70.4961Z" fill="white"/>
<rect y="54.0566" width="22.4466" height="22.4466" rx="11.2233" fill="#D6EB3D"/>
<path d="M15.7034 61.9199L9.54341 68.0799L6.74341 65.2799" stroke="#4E3BE5" stroke-width="2" stroke-linecap="round" stroke-linejoin="round"/>
<path d="M48.0742 119.688C48.0742 119.289 48.0117 118.938 47.8867 118.633C47.7695 118.32 47.5586 118.039 47.2539 117.789C46.957 117.539 46.543 117.301 46.0117 117.074C45.4883 116.848 44.8242 116.617 44.0195 116.383C43.1758 116.133 42.4141 115.855 41.7344 115.551C41.0547 115.238 40.4727 114.883 39.9883 114.484C39.5039 114.086 39.1328 113.629 38.875 113.113C38.6172 112.598 38.4883 112.008 38.4883 111.344C38.4883 110.68 38.625 110.066 38.8984 109.504C39.1719 108.941 39.5625 108.453 40.0703 108.039C40.5859 107.617 41.1992 107.289 41.9102 107.055C42.6211 106.82 43.4141 106.703 44.2891 106.703C45.5703 106.703 46.6562 106.949 47.5469 107.441C48.4453 107.926 49.1289 108.562 49.5977 109.352C50.0664 110.133 50.3008 110.969 50.3008 111.859H48.0508C48.0508 111.219 47.9141 110.652 47.6406 110.16C47.3672 109.66 46.9531 109.27 46.3984 108.988C45.8438 108.699 45.1406 108.555 44.2891 108.555C43.4844 108.555 42.8203 108.676 42.2969 108.918C41.7734 109.16 41.3828 109.488 41.125 109.902C40.875 110.316 40.75 110.789 40.75 111.32C40.75 111.68 40.8242 112.008 40.9727 112.305C41.1289 112.594 41.3672 112.863 41.6875 113.113C42.0156 113.363 42.4297 113.594 42.9297 113.805C43.4375 114.016 44.043 114.219 44.7461 114.414C45.7148 114.688 46.5508 114.992 47.2539 115.328C47.957 115.664 48.5352 116.043 48.9883 116.465C49.4492 116.879 49.7891 117.352 50.0078 117.883C50.2344 118.406 50.3477 119 50.3477 119.664C50.3477 120.359 50.207 120.988 49.9258 121.551C49.6445 122.113 49.2422 122.594 48.7188 122.992C48.1953 123.391 47.5664 123.699 46.832 123.918C46.1055 124.129 45.293 124.234 44.3945 124.234C43.6055 124.234 42.8281 124.125 42.0625 123.906C41.3047 123.688 40.6133 123.359 39.9883 122.922C39.3711 122.484 38.875 121.945 38.5 121.305C38.1328 120.656 37.9492 119.906 37.9492 119.055H40.1992C40.1992 119.641 40.3125 120.145 40.5391 120.566C40.7656 120.98 41.0742 121.324 41.4648 121.598C41.8633 121.871 42.3125 122.074 42.8125 122.207C43.3203 122.332 43.8477 122.395 44.3945 122.395C45.1836 122.395 45.8516 122.285 46.3984 122.066C46.9453 121.848 47.3594 121.535 47.6406 121.129C47.9297 120.723 48.0742 120.242 48.0742 119.688ZM60.6602 121.07V111.32H62.8398V124H60.7656L60.6602 121.07ZM61.0703 118.398L61.9727 118.375C61.9727 119.219 61.8828 120 61.7031 120.719C61.5312 121.43 61.25 122.047 60.8594 122.57C60.4688 123.094 59.957 123.504 59.3242 123.801C58.6914 124.09 57.9219 124.234 57.0156 124.234C56.3984 124.234 55.832 124.145 55.3164 123.965C54.8086 123.785 54.3711 123.508 54.0039 123.133C53.6367 122.758 53.3516 122.27 53.1484 121.668C52.9531 121.066 52.8555 120.344 52.8555 119.5V111.32H55.0234V119.523C55.0234 120.094 55.0859 120.566 55.2109 120.941C55.3438 121.309 55.5195 121.602 55.7383 121.82C55.9648 122.031 56.2148 122.18 56.4883 122.266C56.7695 122.352 57.0586 122.395 57.3555 122.395C58.2773 122.395 59.0078 122.219 59.5469 121.867C60.0859 121.508 60.4727 121.027 60.707 120.426C60.9492 119.816 61.0703 119.141 61.0703 118.398ZM68.3125 113.758V128.875H66.1328V111.32H68.125L68.3125 113.758ZM76.8555 117.555V117.801C76.8555 118.723 76.7461 119.578 76.5273 120.367C76.3086 121.148 75.9883 121.828 75.5664 122.406C75.1523 122.984 74.6406 123.434 74.0312 123.754C73.4219 124.074 72.7227 124.234 71.9336 124.234C71.1289 124.234 70.418 124.102 69.8008 123.836C69.1836 123.57 68.6602 123.184 68.2305 122.676C67.8008 122.168 67.457 121.559 67.1992 120.848C66.9492 120.137 66.7773 119.336 66.6836 118.445V117.133C66.7773 116.195 66.9531 115.355 67.2109 114.613C67.4688 113.871 67.8086 113.238 68.2305 112.715C68.6602 112.184 69.1797 111.781 69.7891 111.508C70.3984 111.227 71.1016 111.086 71.8984 111.086C72.6953 111.086 73.4023 111.242 74.0195 111.555C74.6367 111.859 75.1562 112.297 75.5781 112.867C76 113.438 76.3164 114.121 76.5273 114.918C76.7461 115.707 76.8555 116.586 76.8555 117.555ZM74.6758 117.801V117.555C74.6758 116.922 74.6094 116.328 74.4766 115.773C74.3438 115.211 74.1367 114.719 73.8555 114.297C73.582 113.867 73.2305 113.531 72.8008 113.289C72.3711 113.039 71.8594 112.914 71.2656 112.914C70.7188 112.914 70.2422 113.008 69.8359 113.195C69.4375 113.383 69.0977 113.637 68.8164 113.957C68.5352 114.27 68.3047 114.629 68.125 115.035C67.9531 115.434 67.8242 115.848 67.7383 116.277V119.312C67.8945 119.859 68.1133 120.375 68.3945 120.859C68.6758 121.336 69.0508 121.723 69.5195 122.02C69.9883 122.309 70.5781 122.453 71.2891 122.453C71.875 122.453 72.3789 122.332 72.8008 122.09C73.2305 121.84 73.582 121.5 73.8555 121.07C74.1367 120.641 74.3438 120.148 74.4766 119.594C74.6094 119.031 74.6758 118.434 74.6758 117.801ZM84.8828 124.234C84 124.234 83.1992 124.086 82.4805 123.789C81.7695 123.484 81.1562 123.059 80.6406 122.512C80.1328 121.965 79.7422 121.316 79.4688 120.566C79.1953 119.816 79.0586 118.996 79.0586 118.105V117.613C79.0586 116.582 79.2109 115.664 79.5156 114.859C79.8203 114.047 80.2344 113.359 80.7578 112.797C81.2812 112.234 81.875 111.809 82.5391 111.52C83.2031 111.23 83.8906 111.086 84.6016 111.086C85.5078 111.086 86.2891 111.242 86.9453 111.555C87.6094 111.867 88.1523 112.305 88.5742 112.867C88.9961 113.422 89.3086 114.078 89.5117 114.836C89.7148 115.586 89.8164 116.406 89.8164 117.297V118.27H80.3477V116.5H87.6484V116.336C87.6172 115.773 87.5 115.227 87.2969 114.695C87.1016 114.164 86.7891 113.727 86.3594 113.383C85.9297 113.039 85.3438 112.867 84.6016 112.867C84.1094 112.867 83.6562 112.973 83.2422 113.184C82.8281 113.387 82.4727 113.691 82.1758 114.098C81.8789 114.504 81.6484 115 81.4844 115.586C81.3203 116.172 81.2383 116.848 81.2383 117.613V118.105C81.2383 118.707 81.3203 119.273 81.4844 119.805C81.6562 120.328 81.9023 120.789 82.2227 121.188C82.5508 121.586 82.9453 121.898 83.4062 122.125C83.875 122.352 84.4062 122.465 85 122.465C85.7656 122.465 86.4141 122.309 86.9453 121.996C87.4766 121.684 87.9414 121.266 88.3398 120.742L89.6523 121.785C89.3789 122.199 89.0312 122.594 88.6094 122.969C88.1875 123.344 87.668 123.648 87.0508 123.883C86.4414 124.117 85.7188 124.234 84.8828 124.234ZM94.5156 113.312V124H92.3477V111.32H94.457L94.5156 113.312ZM98.4766 111.25L98.4648 113.266C98.2852 113.227 98.1133 113.203 97.9492 113.195C97.793 113.18 97.6133 113.172 97.4102 113.172C96.9102 113.172 96.4688 113.25 96.0859 113.406C95.7031 113.562 95.3789 113.781 95.1133 114.062C94.8477 114.344 94.6367 114.68 94.4805 115.07C94.332 115.453 94.2344 115.875 94.1875 116.336L93.5781 116.688C93.5781 115.922 93.6523 115.203 93.8008 114.531C93.957 113.859 94.1953 113.266 94.5156 112.75C94.8359 112.227 95.2422 111.82 95.7344 111.531C96.2344 111.234 96.8281 111.086 97.5156 111.086C97.6719 111.086 97.8516 111.105 98.0547 111.145C98.2578 111.176 98.3984 111.211 98.4766 111.25ZM117.754 121.258V124H108.672V121.258H117.754ZM109.82 106.938V124H106.305V106.938H109.82ZM116.57 113.887V116.559H108.672V113.887H116.57ZM117.742 106.938V109.691H108.672V106.938H117.742ZM126.438 121.141V115.492C126.438 115.086 126.371 114.738 126.238 114.449C126.105 114.152 125.898 113.922 125.617 113.758C125.344 113.594 124.988 113.512 124.551 113.512C124.176 113.512 123.852 113.578 123.578 113.711C123.305 113.836 123.094 114.02 122.945 114.262C122.797 114.496 122.723 114.773 122.723 115.094H119.348C119.348 114.555 119.473 114.043 119.723 113.559C119.973 113.074 120.336 112.648 120.812 112.281C121.289 111.906 121.855 111.613 122.512 111.402C123.176 111.191 123.918 111.086 124.738 111.086C125.723 111.086 126.598 111.25 127.363 111.578C128.129 111.906 128.73 112.398 129.168 113.055C129.613 113.711 129.836 114.531 129.836 115.516V120.941C129.836 121.637 129.879 122.207 129.965 122.652C130.051 123.09 130.176 123.473 130.34 123.801V124H126.93C126.766 123.656 126.641 123.227 126.555 122.711C126.477 122.188 126.438 121.664 126.438 121.141ZM126.883 116.277L126.906 118.188H125.02C124.574 118.188 124.188 118.238 123.859 118.34C123.531 118.441 123.262 118.586 123.051 118.773C122.84 118.953 122.684 119.164 122.582 119.406C122.488 119.648 122.441 119.914 122.441 120.203C122.441 120.492 122.508 120.754 122.641 120.988C122.773 121.215 122.965 121.395 123.215 121.527C123.465 121.652 123.758 121.715 124.094 121.715C124.602 121.715 125.043 121.613 125.418 121.41C125.793 121.207 126.082 120.957 126.285 120.66C126.496 120.363 126.605 120.082 126.613 119.816L127.504 121.246C127.379 121.566 127.207 121.898 126.988 122.242C126.777 122.586 126.508 122.91 126.18 123.215C125.852 123.512 125.457 123.758 124.996 123.953C124.535 124.141 123.988 124.234 123.355 124.234C122.551 124.234 121.82 124.074 121.164 123.754C120.516 123.426 120 122.977 119.617 122.406C119.242 121.828 119.055 121.172 119.055 120.438C119.055 119.773 119.18 119.184 119.43 118.668C119.68 118.152 120.047 117.719 120.531 117.367C121.023 117.008 121.637 116.738 122.371 116.559C123.105 116.371 123.957 116.277 124.926 116.277H126.883ZM139.293 120.496C139.293 120.254 139.223 120.035 139.082 119.84C138.941 119.645 138.68 119.465 138.297 119.301C137.922 119.129 137.379 118.973 136.668 118.832C136.027 118.691 135.43 118.516 134.875 118.305C134.328 118.086 133.852 117.824 133.445 117.52C133.047 117.215 132.734 116.855 132.508 116.441C132.281 116.02 132.168 115.539 132.168 115C132.168 114.469 132.281 113.969 132.508 113.5C132.742 113.031 133.074 112.617 133.504 112.258C133.941 111.891 134.473 111.605 135.098 111.402C135.73 111.191 136.441 111.086 137.23 111.086C138.332 111.086 139.277 111.262 140.066 111.613C140.863 111.965 141.473 112.449 141.895 113.066C142.324 113.676 142.539 114.371 142.539 115.152H139.164C139.164 114.824 139.094 114.531 138.953 114.273C138.82 114.008 138.609 113.801 138.32 113.652C138.039 113.496 137.672 113.418 137.219 113.418C136.844 113.418 136.52 113.484 136.246 113.617C135.973 113.742 135.762 113.914 135.613 114.133C135.473 114.344 135.402 114.578 135.402 114.836C135.402 115.031 135.441 115.207 135.52 115.363C135.605 115.512 135.742 115.648 135.93 115.773C136.117 115.898 136.359 116.016 136.656 116.125C136.961 116.227 137.336 116.32 137.781 116.406C138.695 116.594 139.512 116.84 140.23 117.145C140.949 117.441 141.52 117.848 141.941 118.363C142.363 118.871 142.574 119.539 142.574 120.367C142.574 120.93 142.449 121.445 142.199 121.914C141.949 122.383 141.59 122.793 141.121 123.145C140.652 123.488 140.09 123.758 139.434 123.953C138.785 124.141 138.055 124.234 137.242 124.234C136.062 124.234 135.062 124.023 134.242 123.602C133.43 123.18 132.812 122.645 132.391 121.996C131.977 121.34 131.77 120.668 131.77 119.98H134.969C134.984 120.441 135.102 120.812 135.32 121.094C135.547 121.375 135.832 121.578 136.176 121.703C136.527 121.828 136.906 121.891 137.312 121.891C137.75 121.891 138.113 121.832 138.402 121.715C138.691 121.59 138.91 121.426 139.059 121.223C139.215 121.012 139.293 120.77 139.293 120.496ZM148.527 122.57L151.891 111.32H155.512L150.414 125.91C150.305 126.23 150.156 126.574 149.969 126.941C149.789 127.309 149.543 127.656 149.23 127.984C148.926 128.32 148.539 128.594 148.07 128.805C147.609 129.016 147.043 129.121 146.371 129.121C146.051 129.121 145.789 129.102 145.586 129.062C145.383 129.023 145.141 128.969 144.859 128.898V126.426C144.945 126.426 145.035 126.426 145.129 126.426C145.223 126.434 145.312 126.438 145.398 126.438C145.844 126.438 146.207 126.387 146.488 126.285C146.77 126.184 146.996 126.027 147.168 125.816C147.34 125.613 147.477 125.348 147.578 125.02L148.527 122.57ZM147.121 111.32L149.875 120.508L150.355 124.082L148.059 124.328L143.5 111.32H147.121ZM163.047 106.938H169.41C170.715 106.938 171.836 107.133 172.773 107.523C173.719 107.914 174.445 108.492 174.953 109.258C175.461 110.023 175.715 110.965 175.715 112.082C175.715 112.996 175.559 113.781 175.246 114.438C174.941 115.086 174.508 115.629 173.945 116.066C173.391 116.496 172.738 116.84 171.988 117.098L170.875 117.684H165.344L165.32 114.941H169.434C170.051 114.941 170.562 114.832 170.969 114.613C171.375 114.395 171.68 114.09 171.883 113.699C172.094 113.309 172.199 112.855 172.199 112.34C172.199 111.793 172.098 111.32 171.895 110.922C171.691 110.523 171.383 110.219 170.969 110.008C170.555 109.797 170.035 109.691 169.41 109.691H166.562V124H163.047V106.938ZM172.586 124L168.695 116.395L172.41 116.371L176.348 123.836V124H172.586ZM184.047 124.234C183.062 124.234 182.18 124.078 181.398 123.766C180.617 123.445 179.953 123.004 179.406 122.441C178.867 121.879 178.453 121.227 178.164 120.484C177.875 119.734 177.73 118.938 177.73 118.094V117.625C177.73 116.664 177.867 115.785 178.141 114.988C178.414 114.191 178.805 113.5 179.312 112.914C179.828 112.328 180.453 111.879 181.188 111.566C181.922 111.246 182.75 111.086 183.672 111.086C184.57 111.086 185.367 111.234 186.062 111.531C186.758 111.828 187.34 112.25 187.809 112.797C188.285 113.344 188.645 114 188.887 114.766C189.129 115.523 189.25 116.367 189.25 117.297V118.703H179.172V116.453H185.934V116.195C185.934 115.727 185.848 115.309 185.676 114.941C185.512 114.566 185.262 114.27 184.926 114.051C184.59 113.832 184.16 113.723 183.637 113.723C183.191 113.723 182.809 113.82 182.488 114.016C182.168 114.211 181.906 114.484 181.703 114.836C181.508 115.188 181.359 115.602 181.258 116.078C181.164 116.547 181.117 117.062 181.117 117.625V118.094C181.117 118.602 181.188 119.07 181.328 119.5C181.477 119.93 181.684 120.301 181.949 120.613C182.223 120.926 182.551 121.168 182.934 121.34C183.324 121.512 183.766 121.598 184.258 121.598C184.867 121.598 185.434 121.48 185.957 121.246C186.488 121.004 186.945 120.641 187.328 120.156L188.969 121.938C188.703 122.32 188.34 122.688 187.879 123.039C187.426 123.391 186.879 123.68 186.238 123.906C185.598 124.125 184.867 124.234 184.047 124.234ZM197.383 111.32V113.711H190V111.32H197.383ZM191.828 108.191H195.203V120.18C195.203 120.547 195.25 120.828 195.344 121.023C195.445 121.219 195.594 121.355 195.789 121.434C195.984 121.504 196.23 121.539 196.527 121.539C196.738 121.539 196.926 121.531 197.09 121.516C197.262 121.492 197.406 121.469 197.523 121.445L197.535 123.93C197.246 124.023 196.934 124.098 196.598 124.152C196.262 124.207 195.891 124.234 195.484 124.234C194.742 124.234 194.094 124.113 193.539 123.871C192.992 123.621 192.57 123.223 192.273 122.676C191.977 122.129 191.828 121.41 191.828 120.52V108.191ZM206.805 120.965V111.32H210.18V124H207.004L206.805 120.965ZM207.18 118.363L208.176 118.34C208.176 119.184 208.078 119.969 207.883 120.695C207.688 121.414 207.395 122.039 207.004 122.57C206.613 123.094 206.121 123.504 205.527 123.801C204.934 124.09 204.234 124.234 203.43 124.234C202.812 124.234 202.242 124.148 201.719 123.977C201.203 123.797 200.758 123.52 200.383 123.145C200.016 122.762 199.727 122.273 199.516 121.68C199.312 121.078 199.211 120.355 199.211 119.512V111.32H202.586V119.535C202.586 119.91 202.629 120.227 202.715 120.484C202.809 120.742 202.938 120.953 203.102 121.117C203.266 121.281 203.457 121.398 203.676 121.469C203.902 121.539 204.152 121.574 204.426 121.574C205.121 121.574 205.668 121.434 206.066 121.152C206.473 120.871 206.758 120.488 206.922 120.004C207.094 119.512 207.18 118.965 207.18 118.363ZM216.133 114.086V124H212.758V111.32H215.934L216.133 114.086ZM219.953 111.238L219.895 114.367C219.73 114.344 219.531 114.324 219.297 114.309C219.07 114.285 218.863 114.273 218.676 114.273C218.199 114.273 217.785 114.336 217.434 114.461C217.09 114.578 216.801 114.754 216.566 114.988C216.34 115.223 216.168 115.508 216.051 115.844C215.941 116.18 215.879 116.562 215.863 116.992L215.184 116.781C215.184 115.961 215.266 115.207 215.43 114.52C215.594 113.824 215.832 113.219 216.145 112.703C216.465 112.188 216.855 111.789 217.316 111.508C217.777 111.227 218.305 111.086 218.898 111.086C219.086 111.086 219.277 111.102 219.473 111.133C219.668 111.156 219.828 111.191 219.953 111.238ZM224.852 114.027V124H221.477V111.32H224.641L224.852 114.027ZM224.359 117.215H223.445C223.445 116.277 223.566 115.434 223.809 114.684C224.051 113.926 224.391 113.281 224.828 112.75C225.266 112.211 225.785 111.801 226.387 111.52C226.996 111.23 227.676 111.086 228.426 111.086C229.02 111.086 229.562 111.172 230.055 111.344C230.547 111.516 230.969 111.789 231.32 112.164C231.68 112.539 231.953 113.035 232.141 113.652C232.336 114.27 232.434 115.023 232.434 115.914V124H229.035V115.902C229.035 115.34 228.957 114.902 228.801 114.59C228.645 114.277 228.414 114.059 228.109 113.934C227.812 113.801 227.445 113.734 227.008 113.734C226.555 113.734 226.16 113.824 225.824 114.004C225.496 114.184 225.223 114.434 225.004 114.754C224.793 115.066 224.633 115.434 224.523 115.855C224.414 116.277 224.359 116.73 224.359 117.215ZM241.855 120.496C241.855 120.254 241.785 120.035 241.645 119.84C241.504 119.645 241.242 119.465 240.859 119.301C240.484 119.129 239.941 118.973 239.23 118.832C238.59 118.691 237.992 118.516 237.438 118.305C236.891 118.086 236.414 117.824 236.008 117.52C235.609 117.215 235.297 116.855 235.07 116.441C234.844 116.02 234.73 115.539 234.73 115C234.73 114.469 234.844 113.969 235.07 113.5C235.305 113.031 235.637 112.617 236.066 112.258C236.504 111.891 237.035 111.605 237.66 111.402C238.293 111.191 239.004 111.086 239.793 111.086C240.895 111.086 241.84 111.262 242.629 111.613C243.426 111.965 244.035 112.449 244.457 113.066C244.887 113.676 245.102 114.371 245.102 115.152H241.727C241.727 114.824 241.656 114.531 241.516 114.273C241.383 114.008 241.172 113.801 240.883 113.652C240.602 113.496 240.234 113.418 239.781 113.418C239.406 113.418 239.082 113.484 238.809 113.617C238.535 113.742 238.324 113.914 238.176 114.133C238.035 114.344 237.965 114.578 237.965 114.836C237.965 115.031 238.004 115.207 238.082 115.363C238.168 115.512 238.305 115.648 238.492 115.773C238.68 115.898 238.922 116.016 239.219 116.125C239.523 116.227 239.898 116.32 240.344 116.406C241.258 116.594 242.074 116.84 242.793 117.145C243.512 117.441 244.082 117.848 244.504 118.363C244.926 118.871 245.137 119.539 245.137 120.367C245.137 120.93 245.012 121.445 244.762 121.914C244.512 122.383 244.152 122.793 243.684 123.145C243.215 123.488 242.652 123.758 241.996 123.953C241.348 124.141 240.617 124.234 239.805 124.234C238.625 124.234 237.625 124.023 236.805 123.602C235.992 123.18 235.375 122.645 234.953 121.996C234.539 121.34 234.332 120.668 234.332 119.98H237.531C237.547 120.441 237.664 120.812 237.883 121.094C238.109 121.375 238.395 121.578 238.738 121.703C239.09 121.828 239.469 121.891 239.875 121.891C240.312 121.891 240.676 121.832 240.965 121.715C241.254 121.59 241.473 121.426 241.621 121.223C241.777 121.012 241.855 120.77 241.855 120.496Z" fill="white"/>
<rect y="104.776" width="22.4466" height="22.4466" rx="11.2233" fill="#D6EB3D"/>
<path d="M15.7034 112.64L9.54341 118.8L6.74341 116" stroke="#4E3BE5" stroke-width="2" stroke-linecap="round" stroke-linejoin="round"/>
<path d="M48.0742 17.6875C48.0742 17.2891 48.0117 16.9375 47.8867 16.6328C47.7695 16.3203 47.5586 16.0391 47.2539 15.7891C46.957 15.5391 46.543 15.3008 46.0117 15.0742C45.4883 14.8477 44.8242 14.6172 44.0195 14.3828C43.1758 14.1328 42.4141 13.8555 41.7344 13.5508C41.0547 13.2383 40.4727 12.8828 39.9883 12.4844C39.5039 12.0859 39.1328 11.6289 38.875 11.1133C38.6172 10.5977 38.4883 10.0078 38.4883 9.34375C38.4883 8.67969 38.625 8.06641 38.8984 7.50391C39.1719 6.94141 39.5625 6.45312 40.0703 6.03906C40.5859 5.61719 41.1992 5.28906 41.9102 5.05469C42.6211 4.82031 43.4141 4.70312 44.2891 4.70312C45.5703 4.70312 46.6562 4.94922 47.5469 5.44141C48.4453 5.92578 49.1289 6.5625 49.5977 7.35156C50.0664 8.13281 50.3008 8.96875 50.3008 9.85938H48.0508C48.0508 9.21875 47.9141 8.65234 47.6406 8.16016C47.3672 7.66016 46.9531 7.26953 46.3984 6.98828C45.8438 6.69922 45.1406 6.55469 44.2891 6.55469C43.4844 6.55469 42.8203 6.67578 42.2969 6.91797C41.7734 7.16016 41.3828 7.48828 41.125 7.90234C40.875 8.31641 40.75 8.78906 40.75 9.32031C40.75 9.67969 40.8242 10.0078 40.9727 10.3047C41.1289 10.5938 41.3672 10.8633 41.6875 11.1133C42.0156 11.3633 42.4297 11.5938 42.9297 11.8047C43.4375 12.0156 44.043 12.2188 44.7461 12.4141C45.7148 12.6875 46.5508 12.9922 47.2539 13.3281C47.957 13.6641 48.5352 14.043 48.9883 14.4648C49.4492 14.8789 49.7891 15.3516 50.0078 15.8828C50.2344 16.4062 50.3477 17 50.3477 17.6641C50.3477 18.3594 50.207 18.9883 49.9258 19.5508C49.6445 20.1133 49.2422 20.5938 48.7188 20.9922C48.1953 21.3906 47.5664 21.6992 46.832 21.918C46.1055 22.1289 45.293 22.2344 44.3945 22.2344C43.6055 22.2344 42.8281 22.125 42.0625 21.9062C41.3047 21.6875 40.6133 21.3594 39.9883 20.9219C39.3711 20.4844 38.875 19.9453 38.5 19.3047C38.1328 18.6562 37.9492 17.9062 37.9492 17.0547H40.1992C40.1992 17.6406 40.3125 18.1445 40.5391 18.5664C40.7656 18.9805 41.0742 19.3242 41.4648 19.5977C41.8633 19.8711 42.3125 20.0742 42.8125 20.207C43.3203 20.332 43.8477 20.3945 44.3945 20.3945C45.1836 20.3945 45.8516 20.2852 46.3984 20.0664C46.9453 19.8477 47.3594 19.5352 47.6406 19.1289C47.9297 18.7227 48.0742 18.2422 48.0742 17.6875ZM55.0703 4V22H52.9023V4H55.0703ZM54.5547 15.1797L53.6523 15.1445C53.6602 14.2773 53.7891 13.4766 54.0391 12.7422C54.2891 12 54.6406 11.3555 55.0938 10.8086C55.5469 10.2617 56.0859 9.83984 56.7109 9.54297C57.3438 9.23828 58.043 9.08594 58.8086 9.08594C59.4336 9.08594 59.9961 9.17188 60.4961 9.34375C60.9961 9.50781 61.4219 9.77344 61.7734 10.1406C62.1328 10.5078 62.4062 10.9844 62.5938 11.5703C62.7812 12.1484 62.875 12.8555 62.875 13.6914V22H60.6953V13.668C60.6953 13.0039 60.5977 12.4727 60.4023 12.0742C60.207 11.668 59.9219 11.375 59.5469 11.1953C59.1719 11.0078 58.7109 10.9141 58.1641 10.9141C57.625 10.9141 57.1328 11.0273 56.6875 11.2539C56.25 11.4805 55.8711 11.793 55.5508 12.1914C55.2383 12.5898 54.9922 13.0469 54.8125 13.5625C54.6406 14.0703 54.5547 14.6094 54.5547 15.1797ZM65.5469 15.8008V15.5312C65.5469 14.6172 65.6797 13.7695 65.9453 12.9883C66.2109 12.1992 66.5938 11.5156 67.0938 10.9375C67.5938 10.3516 68.1992 9.89844 68.9102 9.57812C69.6211 9.25 70.418 9.08594 71.3008 9.08594C72.1914 9.08594 72.9922 9.25 73.7031 9.57812C74.4219 9.89844 75.0312 10.3516 75.5312 10.9375C76.0391 11.5156 76.4258 12.1992 76.6914 12.9883C76.957 13.7695 77.0898 14.6172 77.0898 15.5312V15.8008C77.0898 16.7148 76.957 17.5625 76.6914 18.3438C76.4258 19.125 76.0391 19.8086 75.5312 20.3945C75.0312 20.9727 74.4258 21.4258 73.7148 21.7539C73.0117 22.0742 72.2148 22.2344 71.3242 22.2344C70.4336 22.2344 69.6328 22.0742 68.9219 21.7539C68.2109 21.4258 67.6016 20.9727 67.0938 20.3945C66.5938 19.8086 66.2109 19.125 65.9453 18.3438C65.6797 17.5625 65.5469 16.7148 65.5469 15.8008ZM67.7148 15.5312V15.8008C67.7148 16.4336 67.7891 17.0312 67.9375 17.5938C68.0859 18.1484 68.3086 18.6406 68.6055 19.0703C68.9102 19.5 69.2891 19.8398 69.7422 20.0898C70.1953 20.332 70.7227 20.4531 71.3242 20.4531C71.918 20.4531 72.4375 20.332 72.8828 20.0898C73.3359 19.8398 73.7109 19.5 74.0078 19.0703C74.3047 18.6406 74.5273 18.1484 74.6758 17.5938C74.832 17.0312 74.9102 16.4336 74.9102 15.8008V15.5312C74.9102 14.9062 74.832 14.3164 74.6758 13.7617C74.5273 13.1992 74.3008 12.7031 73.9961 12.2734C73.6992 11.8359 73.3242 11.4922 72.8711 11.2422C72.4258 10.9922 71.9023 10.8672 71.3008 10.8672C70.707 10.8672 70.1836 10.9922 69.7305 11.2422C69.2852 11.4922 68.9102 11.8359 68.6055 12.2734C68.3086 12.7031 68.0859 13.1992 67.9375 13.7617C67.7891 14.3164 67.7148 14.9062 67.7148 15.5312ZM81.9766 11.7578V26.875H79.7969V9.32031H81.7891L81.9766 11.7578ZM90.5195 15.5547V15.8008C90.5195 16.7227 90.4102 17.5781 90.1914 18.3672C89.9727 19.1484 89.6523 19.8281 89.2305 20.4062C88.8164 20.9844 88.3047 21.4336 87.6953 21.7539C87.0859 22.0742 86.3867 22.2344 85.5977 22.2344C84.793 22.2344 84.082 22.1016 83.4648 21.8359C82.8477 21.5703 82.3242 21.1836 81.8945 20.6758C81.4648 20.168 81.1211 19.5586 80.8633 18.8477C80.6133 18.1367 80.4414 17.3359 80.3477 16.4453V15.1328C80.4414 14.1953 80.6172 13.3555 80.875 12.6133C81.1328 11.8711 81.4727 11.2383 81.8945 10.7148C82.3242 10.1836 82.8438 9.78125 83.4531 9.50781C84.0625 9.22656 84.7656 9.08594 85.5625 9.08594C86.3594 9.08594 87.0664 9.24219 87.6836 9.55469C88.3008 9.85938 88.8203 10.2969 89.2422 10.8672C89.6641 11.4375 89.9805 12.1211 90.1914 12.918C90.4102 13.707 90.5195 14.5859 90.5195 15.5547ZM88.3398 15.8008V15.5547C88.3398 14.9219 88.2734 14.3281 88.1406 13.7734C88.0078 13.2109 87.8008 12.7188 87.5195 12.2969C87.2461 11.8672 86.8945 11.5312 86.4648 11.2891C86.0352 11.0391 85.5234 10.9141 84.9297 10.9141C84.3828 10.9141 83.9062 11.0078 83.5 11.1953C83.1016 11.3828 82.7617 11.6367 82.4805 11.957C82.1992 12.2695 81.9688 12.6289 81.7891 13.0352C81.6172 13.4336 81.4883 13.8477 81.4023 14.2773V17.3125C81.5586 17.8594 81.7773 18.375 82.0586 18.8594C82.3398 19.3359 82.7148 19.7227 83.1836 20.0195C83.6523 20.3086 84.2422 20.4531 84.9531 20.4531C85.5391 20.4531 86.043 20.332 86.4648 20.0898C86.8945 19.8398 87.2461 19.5 87.5195 19.0703C87.8008 18.6406 88.0078 18.1484 88.1406 17.5938C88.2734 17.0312 88.3398 16.4336 88.3398 15.8008ZM108.555 4.9375H112.059V16.2109C112.059 17.5234 111.777 18.6289 111.215 19.5273C110.66 20.4258 109.891 21.1016 108.906 21.5547C107.93 22.0078 106.805 22.2344 105.531 22.2344C104.258 22.2344 103.125 22.0078 102.133 21.5547C101.148 21.1016 100.375 20.4258 99.8125 19.5273C99.2578 18.6289 98.9805 17.5234 98.9805 16.2109V4.9375H102.496V16.2109C102.496 16.9766 102.617 17.6016 102.859 18.0859C103.102 18.5703 103.449 18.9258 103.902 19.1523C104.363 19.3789 104.906 19.4922 105.531 19.4922C106.172 19.4922 106.715 19.3789 107.16 19.1523C107.613 18.9258 107.957 18.5703 108.191 18.0859C108.434 17.6016 108.555 16.9766 108.555 16.2109V4.9375ZM118.047 12.0273V22H114.672V9.32031H117.836L118.047 12.0273ZM117.555 15.2148H116.641C116.641 14.2773 116.762 13.4336 117.004 12.6836C117.246 11.9258 117.586 11.2812 118.023 10.75C118.461 10.2109 118.98 9.80078 119.582 9.51953C120.191 9.23047 120.871 9.08594 121.621 9.08594C122.215 9.08594 122.758 9.17188 123.25 9.34375C123.742 9.51562 124.164 9.78906 124.516 10.1641C124.875 10.5391 125.148 11.0352 125.336 11.6523C125.531 12.2695 125.629 13.0234 125.629 13.9141V22H122.23V13.9023C122.23 13.3398 122.152 12.9023 121.996 12.5898C121.84 12.2773 121.609 12.0586 121.305 11.9336C121.008 11.8008 120.641 11.7344 120.203 11.7344C119.75 11.7344 119.355 11.8242 119.02 12.0039C118.691 12.1836 118.418 12.4336 118.199 12.7539C117.988 13.0664 117.828 13.4336 117.719 13.8555C117.609 14.2773 117.555 14.7305 117.555 15.2148ZM135.684 19.2344V4H139.082V22H136.023L135.684 19.2344ZM127.668 15.8125V15.5664C127.668 14.5977 127.777 13.7188 127.996 12.9297C128.215 12.1328 128.535 11.4492 128.957 10.8789C129.379 10.3086 129.898 9.86719 130.516 9.55469C131.133 9.24219 131.836 9.08594 132.625 9.08594C133.367 9.08594 134.016 9.24219 134.57 9.55469C135.133 9.86719 135.609 10.3125 136 10.8906C136.398 11.4609 136.719 12.1367 136.961 12.918C137.203 13.6914 137.379 14.5391 137.488 15.4609V16C137.379 16.8828 137.203 17.7031 136.961 18.4609C136.719 19.2188 136.398 19.8828 136 20.4531C135.609 21.0156 135.133 21.4531 134.57 21.7656C134.008 22.0781 133.352 22.2344 132.602 22.2344C131.812 22.2344 131.109 22.0742 130.492 21.7539C129.883 21.4336 129.367 20.9844 128.945 20.4062C128.531 19.8281 128.215 19.1484 127.996 18.3672C127.777 17.5859 127.668 16.7344 127.668 15.8125ZM131.043 15.5664V15.8125C131.043 16.3359 131.082 16.8242 131.16 17.2773C131.246 17.7305 131.383 18.1328 131.57 18.4844C131.766 18.8281 132.016 19.0977 132.32 19.293C132.633 19.4805 133.012 19.5742 133.457 19.5742C134.035 19.5742 134.512 19.4453 134.887 19.1875C135.262 18.9219 135.547 18.5586 135.742 18.0977C135.945 17.6367 136.062 17.1055 136.094 16.5039V14.9688C136.07 14.4766 136 14.0352 135.883 13.6445C135.773 13.2461 135.609 12.9062 135.391 12.625C135.18 12.3438 134.914 12.125 134.594 11.9688C134.281 11.8125 133.91 11.7344 133.48 11.7344C133.043 11.7344 132.668 11.8359 132.355 12.0391C132.043 12.2344 131.789 12.5039 131.594 12.8477C131.406 13.1914 131.266 13.5977 131.172 14.0664C131.086 14.5273 131.043 15.0273 131.043 15.5664ZM147.555 22.2344C146.57 22.2344 145.688 22.0781 144.906 21.7656C144.125 21.4453 143.461 21.0039 142.914 20.4414C142.375 19.8789 141.961 19.2266 141.672 18.4844C141.383 17.7344 141.238 16.9375 141.238 16.0938V15.625C141.238 14.6641 141.375 13.7852 141.648 12.9883C141.922 12.1914 142.312 11.5 142.82 10.9141C143.336 10.3281 143.961 9.87891 144.695 9.56641C145.43 9.24609 146.258 9.08594 147.18 9.08594C148.078 9.08594 148.875 9.23438 149.57 9.53125C150.266 9.82812 150.848 10.25 151.316 10.7969C151.793 11.3438 152.152 12 152.395 12.7656C152.637 13.5234 152.758 14.3672 152.758 15.2969V16.7031H142.68V14.4531H149.441V14.1953C149.441 13.7266 149.355 13.3086 149.184 12.9414C149.02 12.5664 148.77 12.2695 148.434 12.0508C148.098 11.832 147.668 11.7227 147.145 11.7227C146.699 11.7227 146.316 11.8203 145.996 12.0156C145.676 12.2109 145.414 12.4844 145.211 12.8359C145.016 13.1875 144.867 13.6016 144.766 14.0781C144.672 14.5469 144.625 15.0625 144.625 15.625V16.0938C144.625 16.6016 144.695 17.0703 144.836 17.5C144.984 17.9297 145.191 18.3008 145.457 18.6133C145.73 18.9258 146.059 19.168 146.441 19.3398C146.832 19.5117 147.273 19.5977 147.766 19.5977C148.375 19.5977 148.941 19.4805 149.465 19.2461C149.996 19.0039 150.453 18.6406 150.836 18.1562L152.477 19.9375C152.211 20.3203 151.848 20.6875 151.387 21.0391C150.934 21.3906 150.387 21.6797 149.746 21.9062C149.105 22.125 148.375 22.2344 147.555 22.2344ZM158.055 12.0859V22H154.68V9.32031H157.855L158.055 12.0859ZM161.875 9.23828L161.816 12.3672C161.652 12.3438 161.453 12.3242 161.219 12.3086C160.992 12.2852 160.785 12.2734 160.598 12.2734C160.121 12.2734 159.707 12.3359 159.355 12.4609C159.012 12.5781 158.723 12.7539 158.488 12.9883C158.262 13.2227 158.09 13.5078 157.973 13.8438C157.863 14.1797 157.801 14.5625 157.785 14.9922L157.105 14.7812C157.105 13.9609 157.188 13.207 157.352 12.5195C157.516 11.8242 157.754 11.2188 158.066 10.7031C158.387 10.1875 158.777 9.78906 159.238 9.50781C159.699 9.22656 160.227 9.08594 160.82 9.08594C161.008 9.08594 161.199 9.10156 161.395 9.13281C161.59 9.15625 161.75 9.19141 161.875 9.23828ZM180.262 9.21484L179.664 11.4883H168.613L169.223 9.21484H180.262ZM174.602 22L168.953 15.3086L168.941 13.3047H171.695C172.336 13.3047 172.863 13.1797 173.277 12.9297C173.691 12.6797 174 12.3438 174.203 11.9219C174.406 11.4922 174.508 11.0156 174.508 10.4922C174.508 9.94531 174.414 9.46094 174.227 9.03906C174.039 8.61719 173.738 8.28906 173.324 8.05469C172.91 7.8125 172.359 7.69141 171.672 7.69141H168.625L169.316 4.9375H171.672C173.078 4.9375 174.25 5.14844 175.188 5.57031C176.125 5.99219 176.828 6.60156 177.297 7.39844C177.766 8.1875 178 9.14453 178 10.2695C178 11.2539 177.844 12.1172 177.531 12.8594C177.219 13.6016 176.723 14.2148 176.043 14.6992C175.363 15.1758 174.469 15.5117 173.359 15.707L178.445 21.8359V22H174.602ZM180.285 4.9375L179.676 7.19922H170.523L171.133 4.9375H180.285ZM193.891 15.625V18.2734H181.598L181.434 16.2227L188.547 4.9375H191.23L188.324 9.80078L184.785 15.625H193.891ZM191.957 4.9375V22H188.582V4.9375H191.957ZM198.895 14.2305L196.199 13.5859L197.172 4.9375H206.758V7.66797H199.949L199.527 11.4531C199.754 11.3203 200.098 11.1797 200.559 11.0312C201.02 10.875 201.535 10.7969 202.105 10.7969C202.934 10.7969 203.668 10.9258 204.309 11.1836C204.949 11.4414 205.492 11.8164 205.938 12.3086C206.391 12.8008 206.734 13.4023 206.969 14.1133C207.203 14.8242 207.32 15.6289 207.32 16.5273C207.32 17.2852 207.203 18.0078 206.969 18.6953C206.734 19.375 206.379 19.9844 205.902 20.5234C205.426 21.0547 204.828 21.4727 204.109 21.7773C203.391 22.082 202.539 22.2344 201.555 22.2344C200.82 22.2344 200.109 22.125 199.422 21.9062C198.742 21.6875 198.129 21.3633 197.582 20.9336C197.043 20.5039 196.609 19.9844 196.281 19.375C195.961 18.7578 195.793 18.0547 195.777 17.2656H199.129C199.176 17.75 199.301 18.168 199.504 18.5195C199.715 18.8633 199.992 19.1289 200.336 19.3164C200.68 19.5039 201.082 19.5977 201.543 19.5977C201.973 19.5977 202.34 19.5156 202.645 19.3516C202.949 19.1875 203.195 18.9609 203.383 18.6719C203.57 18.375 203.707 18.0312 203.793 17.6406C203.887 17.2422 203.934 16.8125 203.934 16.3516C203.934 15.8906 203.879 15.4727 203.77 15.0977C203.66 14.7227 203.492 14.3984 203.266 14.125C203.039 13.8516 202.75 13.6406 202.398 13.4922C202.055 13.3438 201.652 13.2695 201.191 13.2695C200.566 13.2695 200.082 13.3672 199.738 13.5625C199.402 13.7578 199.121 13.9805 198.895 14.2305Z" fill="white"/>
<rect y="3.05664" width="22.4466" height="22.4466" rx="11.2233" fill="#D6EB3D"/>
<path d="M15.7034 10.9199L9.54341 17.0799L6.74341 14.2799" stroke="#4E3BE5" stroke-width="2" stroke-linecap="round" stroke-linejoin="round"/>
</svg>
