<svg width="321" height="118" viewBox="0 0 321 118" fill="none" xmlns="http://www.w3.org/2000/svg">
<path d="M71.5789 23.7161V27.3723H60.1258V23.7161H71.5789ZM61.6414 4.62231V27.3723H56.9539V4.62231H61.6414ZM83.1102 23.5598V16.0286C83.1102 15.4869 83.0217 15.0234 82.8446 14.6379C82.6675 14.2421 82.3914 13.9348 82.0164 13.7161C81.6519 13.4973 81.1779 13.3879 80.5946 13.3879C80.0946 13.3879 79.6623 13.4765 79.2977 13.6536C78.9331 13.8202 78.6519 14.065 78.4539 14.3879C78.256 14.7004 78.1571 15.0702 78.1571 15.4973H73.6571C73.6571 14.7786 73.8237 14.0963 74.1571 13.4504C74.4904 12.8046 74.9748 12.2369 75.6102 11.7473C76.2456 11.2473 77.0008 10.8567 77.8758 10.5754C78.7612 10.2942 79.7508 10.1536 80.8446 10.1536C82.1571 10.1536 83.3237 10.3723 84.3446 10.8098C85.3654 11.2473 86.1675 11.9036 86.7508 12.7786C87.3446 13.6536 87.6414 14.7473 87.6414 16.0598V23.2942C87.6414 24.2213 87.6987 24.9817 87.8133 25.5754C87.9279 26.1588 88.0946 26.6692 88.3133 27.1067V27.3723H83.7664C83.5477 26.914 83.381 26.3411 83.2664 25.6536C83.1623 24.9556 83.1102 24.2577 83.1102 23.5598ZM83.7039 17.0754L83.7352 19.6223H81.2196C80.6258 19.6223 80.1102 19.69 79.6727 19.8254C79.2352 19.9609 78.8758 20.1536 78.5946 20.4036C78.3133 20.6431 78.105 20.9244 77.9696 21.2473C77.8446 21.5702 77.7821 21.9244 77.7821 22.3098C77.7821 22.6952 77.8706 23.0442 78.0477 23.3567C78.2248 23.6588 78.48 23.8984 78.8133 24.0754C79.1467 24.2421 79.5373 24.3254 79.9852 24.3254C80.6623 24.3254 81.2508 24.19 81.7508 23.9192C82.2508 23.6484 82.6362 23.315 82.9071 22.9192C83.1883 22.5234 83.3342 22.1484 83.3446 21.7942L84.5321 23.7004C84.3654 24.1275 84.1362 24.5702 83.8446 25.0286C83.5633 25.4869 83.2039 25.9192 82.7664 26.3254C82.3289 26.7213 81.8029 27.0494 81.1883 27.3098C80.5737 27.5598 79.8446 27.6848 79.0008 27.6848C77.9279 27.6848 76.9539 27.4713 76.0789 27.0442C75.2144 26.6067 74.5269 26.0077 74.0164 25.2473C73.5164 24.4765 73.2664 23.6015 73.2664 22.6223C73.2664 21.7369 73.4331 20.9504 73.7664 20.2629C74.0998 19.5754 74.5894 18.9973 75.2352 18.5286C75.8914 18.0494 76.7092 17.69 77.6883 17.4504C78.6675 17.2004 79.8029 17.0754 81.0946 17.0754H83.7039ZM99.3914 10.4661V13.6536H89.5477V10.4661H99.3914ZM91.9852 6.29419H96.4852V22.2786C96.4852 22.7681 96.5477 23.1431 96.6727 23.4036C96.8081 23.664 97.006 23.8463 97.2664 23.9504C97.5269 24.0442 97.855 24.0911 98.2508 24.0911C98.5321 24.0911 98.7821 24.0806 99.0008 24.0598C99.23 24.0286 99.4227 23.9973 99.5789 23.9661L99.5946 27.2786C99.2092 27.4036 98.7925 27.5025 98.3446 27.5754C97.8967 27.6484 97.4019 27.6848 96.8602 27.6848C95.8706 27.6848 95.006 27.5234 94.2664 27.2004C93.5373 26.8671 92.9748 26.3359 92.5789 25.6067C92.1831 24.8775 91.9852 23.9192 91.9852 22.7317V6.29419ZM109.735 27.6848C108.423 27.6848 107.246 27.4765 106.204 27.0598C105.162 26.6327 104.277 26.0442 103.548 25.2942C102.829 24.5442 102.277 23.6744 101.891 22.6848C101.506 21.6848 101.313 20.6223 101.313 19.4973V18.8723C101.313 17.5911 101.496 16.4192 101.86 15.3567C102.225 14.2942 102.746 13.3723 103.423 12.5911C104.11 11.8098 104.944 11.2109 105.923 10.7942C106.902 10.3671 108.006 10.1536 109.235 10.1536C110.433 10.1536 111.496 10.3515 112.423 10.7473C113.35 11.1431 114.126 11.7056 114.751 12.4348C115.386 13.164 115.865 14.039 116.188 15.0598C116.511 16.0702 116.673 17.1952 116.673 18.4348V20.3098H103.235V17.3098H112.251V16.9661C112.251 16.3411 112.136 15.7838 111.907 15.2942C111.688 14.7942 111.355 14.3984 110.907 14.1067C110.459 13.815 109.886 13.6692 109.188 13.6692C108.595 13.6692 108.084 13.7994 107.657 14.0598C107.23 14.3202 106.881 14.6848 106.61 15.1536C106.35 15.6223 106.152 16.1744 106.016 16.8098C105.891 17.4348 105.829 18.1223 105.829 18.8723V19.4973C105.829 20.1744 105.923 20.7994 106.11 21.3723C106.308 21.9452 106.584 22.44 106.938 22.8567C107.303 23.2734 107.74 23.5963 108.251 23.8254C108.772 24.0546 109.36 24.1692 110.016 24.1692C110.829 24.1692 111.584 24.0129 112.282 23.7004C112.99 23.3775 113.6 22.8931 114.11 22.2473L116.298 24.6223C115.944 25.1327 115.459 25.6223 114.845 26.0911C114.24 26.5598 113.511 26.9452 112.657 27.2473C111.803 27.539 110.829 27.6848 109.735 27.6848ZM128.376 22.7004C128.376 22.3775 128.282 22.0859 128.095 21.8254C127.907 21.565 127.558 21.3254 127.048 21.1067C126.548 20.8775 125.824 20.6692 124.876 20.4817C124.022 20.2942 123.225 20.0598 122.485 19.7786C121.756 19.4869 121.121 19.1379 120.579 18.7317C120.048 18.3254 119.631 17.8463 119.329 17.2942C119.027 16.7317 118.876 16.0911 118.876 15.3723C118.876 14.664 119.027 13.9973 119.329 13.3723C119.641 12.7473 120.084 12.1952 120.657 11.7161C121.24 11.2265 121.949 10.8463 122.782 10.5754C123.626 10.2942 124.574 10.1536 125.626 10.1536C127.095 10.1536 128.355 10.3879 129.407 10.8567C130.47 11.3254 131.282 11.9713 131.845 12.7942C132.417 13.6067 132.704 14.5338 132.704 15.5754H128.204C128.204 15.1379 128.11 14.7473 127.923 14.4036C127.746 14.0494 127.464 13.7734 127.079 13.5754C126.704 13.3671 126.214 13.2629 125.61 13.2629C125.11 13.2629 124.678 13.3515 124.313 13.5286C123.949 13.6952 123.667 13.9244 123.47 14.2161C123.282 14.4973 123.188 14.8098 123.188 15.1536C123.188 15.414 123.24 15.6484 123.345 15.8567C123.459 16.0546 123.641 16.2369 123.891 16.4036C124.141 16.5702 124.464 16.7265 124.86 16.8723C125.266 17.0077 125.766 17.1327 126.36 17.2473C127.579 17.4973 128.667 17.8254 129.626 18.2317C130.584 18.6275 131.345 19.1692 131.907 19.8567C132.47 20.5338 132.751 21.4244 132.751 22.5286C132.751 23.2786 132.584 23.9661 132.251 24.5911C131.917 25.2161 131.438 25.7629 130.813 26.2317C130.188 26.69 129.438 27.0494 128.563 27.3098C127.699 27.5598 126.725 27.6848 125.641 27.6848C124.069 27.6848 122.735 27.4036 121.641 26.8411C120.558 26.2786 119.735 25.565 119.173 24.7004C118.621 23.8254 118.345 22.9296 118.345 22.0129H122.61C122.631 22.6275 122.787 23.1223 123.079 23.4973C123.381 23.8723 123.761 24.1431 124.22 24.3098C124.688 24.4765 125.194 24.5598 125.735 24.5598C126.319 24.5598 126.803 24.4817 127.188 24.3254C127.574 24.1588 127.865 23.94 128.063 23.6692C128.272 23.3879 128.376 23.065 128.376 22.7004ZM143.954 10.4661V13.6536H134.11V10.4661H143.954ZM136.548 6.29419H141.048V22.2786C141.048 22.7681 141.11 23.1431 141.235 23.4036C141.371 23.664 141.569 23.8463 141.829 23.9504C142.089 24.0442 142.417 24.0911 142.813 24.0911C143.095 24.0911 143.345 24.0806 143.563 24.0598C143.792 24.0286 143.985 23.9973 144.141 23.9661L144.157 27.2786C143.772 27.4036 143.355 27.5025 142.907 27.5754C142.459 27.6484 141.964 27.6848 141.423 27.6848C140.433 27.6848 139.569 27.5234 138.829 27.2004C138.1 26.8671 137.537 26.3359 137.141 25.6067C136.746 24.8775 136.548 23.9192 136.548 22.7317V6.29419ZM159.454 4.62231V27.3723H154.766V4.62231H159.454ZM168.516 14.3411V17.9973H158.173V14.3411H168.516ZM169.61 4.62231V8.29419H158.173V4.62231H169.61ZM180.641 23.5598V16.0286C180.641 15.4869 180.553 15.0234 180.376 14.6379C180.199 14.2421 179.923 13.9348 179.548 13.7161C179.183 13.4973 178.709 13.3879 178.126 13.3879C177.626 13.3879 177.194 13.4765 176.829 13.6536C176.464 13.8202 176.183 14.065 175.985 14.3879C175.787 14.7004 175.688 15.0702 175.688 15.4973H171.188C171.188 14.7786 171.355 14.0963 171.688 13.4504C172.022 12.8046 172.506 12.2369 173.141 11.7473C173.777 11.2473 174.532 10.8567 175.407 10.5754C176.292 10.2942 177.282 10.1536 178.376 10.1536C179.688 10.1536 180.855 10.3723 181.876 10.8098C182.897 11.2473 183.699 11.9036 184.282 12.7786C184.876 13.6536 185.173 14.7473 185.173 16.0598V23.2942C185.173 24.2213 185.23 24.9817 185.345 25.5754C185.459 26.1588 185.626 26.6692 185.845 27.1067V27.3723H181.298C181.079 26.914 180.912 26.3411 180.798 25.6536C180.694 24.9556 180.641 24.2577 180.641 23.5598ZM181.235 17.0754L181.266 19.6223H178.751C178.157 19.6223 177.641 19.69 177.204 19.8254C176.766 19.9609 176.407 20.1536 176.126 20.4036C175.845 20.6431 175.636 20.9244 175.501 21.2473C175.376 21.5702 175.313 21.9244 175.313 22.3098C175.313 22.6952 175.402 23.0442 175.579 23.3567C175.756 23.6588 176.011 23.8984 176.345 24.0754C176.678 24.2421 177.069 24.3254 177.516 24.3254C178.194 24.3254 178.782 24.19 179.282 23.9192C179.782 23.6484 180.167 23.315 180.438 22.9192C180.72 22.5234 180.865 22.1484 180.876 21.7942L182.063 23.7004C181.897 24.1275 181.667 24.5702 181.376 25.0286C181.095 25.4869 180.735 25.9192 180.298 26.3254C179.86 26.7213 179.334 27.0494 178.72 27.3098C178.105 27.5598 177.376 27.6848 176.532 27.6848C175.459 27.6848 174.485 27.4713 173.61 27.0442C172.746 26.6067 172.058 26.0077 171.548 25.2473C171.048 24.4765 170.798 23.6015 170.798 22.6223C170.798 21.7369 170.964 20.9504 171.298 20.2629C171.631 19.5754 172.121 18.9973 172.766 18.5286C173.423 18.0494 174.24 17.69 175.22 17.4504C176.199 17.2004 177.334 17.0754 178.626 17.0754H181.235ZM197.782 22.7004C197.782 22.3775 197.688 22.0859 197.501 21.8254C197.313 21.565 196.964 21.3254 196.454 21.1067C195.954 20.8775 195.23 20.6692 194.282 20.4817C193.428 20.2942 192.631 20.0598 191.891 19.7786C191.162 19.4869 190.527 19.1379 189.985 18.7317C189.454 18.3254 189.037 17.8463 188.735 17.2942C188.433 16.7317 188.282 16.0911 188.282 15.3723C188.282 14.664 188.433 13.9973 188.735 13.3723C189.048 12.7473 189.49 12.1952 190.063 11.7161C190.647 11.2265 191.355 10.8463 192.188 10.5754C193.032 10.2942 193.98 10.1536 195.032 10.1536C196.501 10.1536 197.761 10.3879 198.813 10.8567C199.876 11.3254 200.688 11.9713 201.251 12.7942C201.824 13.6067 202.11 14.5338 202.11 15.5754H197.61C197.61 15.1379 197.516 14.7473 197.329 14.4036C197.152 14.0494 196.871 13.7734 196.485 13.5754C196.11 13.3671 195.621 13.2629 195.016 13.2629C194.516 13.2629 194.084 13.3515 193.72 13.5286C193.355 13.6952 193.074 13.9244 192.876 14.2161C192.688 14.4973 192.595 14.8098 192.595 15.1536C192.595 15.414 192.647 15.6484 192.751 15.8567C192.865 16.0546 193.048 16.2369 193.298 16.4036C193.548 16.5702 193.871 16.7265 194.266 16.8723C194.673 17.0077 195.173 17.1327 195.766 17.2473C196.985 17.4973 198.074 17.8254 199.032 18.2317C199.99 18.6275 200.751 19.1692 201.313 19.8567C201.876 20.5338 202.157 21.4244 202.157 22.5286C202.157 23.2786 201.99 23.9661 201.657 24.5911C201.324 25.2161 200.845 25.7629 200.22 26.2317C199.595 26.69 198.845 27.0494 197.97 27.3098C197.105 27.5598 196.131 27.6848 195.048 27.6848C193.475 27.6848 192.141 27.4036 191.048 26.8411C189.964 26.2786 189.141 25.565 188.579 24.7004C188.027 23.8254 187.751 22.9296 187.751 22.0129H192.016C192.037 22.6275 192.194 23.1223 192.485 23.4973C192.787 23.8723 193.167 24.1431 193.626 24.3098C194.095 24.4765 194.6 24.5598 195.141 24.5598C195.725 24.5598 196.209 24.4817 196.595 24.3254C196.98 24.1588 197.272 23.94 197.47 23.6692C197.678 23.3879 197.782 23.065 197.782 22.7004ZM209.47 3.37231V27.3723H204.97V3.37231H209.47ZM208.829 18.3254H207.595C207.605 17.1484 207.761 16.065 208.063 15.0754C208.365 14.0754 208.798 13.2109 209.36 12.4817C209.923 11.7421 210.595 11.1692 211.376 10.7629C212.167 10.3567 213.042 10.1536 214.001 10.1536C214.834 10.1536 215.589 10.2734 216.266 10.5129C216.954 10.7421 217.542 11.1171 218.032 11.6379C218.532 12.1484 218.917 12.8202 219.188 13.6536C219.459 14.4869 219.595 15.4973 219.595 16.6848V27.3723H215.063V16.6536C215.063 15.9036 214.954 15.315 214.735 14.8879C214.527 14.4504 214.22 14.1431 213.813 13.9661C213.417 13.7786 212.928 13.6848 212.345 13.6848C211.699 13.6848 211.147 13.8046 210.688 14.0442C210.24 14.2838 209.881 14.6171 209.61 15.0442C209.339 15.4609 209.141 15.9504 209.016 16.5129C208.891 17.0754 208.829 17.6796 208.829 18.3254ZM227.766 10.4661V27.3723H223.251V10.4661H227.766ZM222.97 6.05981C222.97 5.40356 223.199 4.8619 223.657 4.43481C224.115 4.00773 224.73 3.79419 225.501 3.79419C226.261 3.79419 226.871 4.00773 227.329 4.43481C227.798 4.8619 228.032 5.40356 228.032 6.05981C228.032 6.71606 227.798 7.25773 227.329 7.68481C226.871 8.1119 226.261 8.32544 225.501 8.32544C224.73 8.32544 224.115 8.1119 223.657 7.68481C223.199 7.25773 222.97 6.71606 222.97 6.05981ZM230.766 19.0911V18.7629C230.766 17.5234 230.944 16.3827 231.298 15.3411C231.652 14.289 232.167 13.3775 232.845 12.6067C233.522 11.8359 234.355 11.2369 235.345 10.8098C236.334 10.3723 237.47 10.1536 238.751 10.1536C240.032 10.1536 241.173 10.3723 242.173 10.8098C243.173 11.2369 244.011 11.8359 244.688 12.6067C245.376 13.3775 245.897 14.289 246.251 15.3411C246.605 16.3827 246.782 17.5234 246.782 18.7629V19.0911C246.782 20.3202 246.605 21.4609 246.251 22.5129C245.897 23.5546 245.376 24.4661 244.688 25.2473C244.011 26.0181 243.178 26.6171 242.188 27.0442C241.199 27.4713 240.063 27.6848 238.782 27.6848C237.501 27.6848 236.36 27.4713 235.36 27.0442C234.371 26.6171 233.532 26.0181 232.845 25.2473C232.167 24.4661 231.652 23.5546 231.298 22.5129C230.944 21.4609 230.766 20.3202 230.766 19.0911ZM235.266 18.7629V19.0911C235.266 19.7994 235.329 20.4609 235.454 21.0754C235.579 21.69 235.777 22.2317 236.048 22.7004C236.329 23.1588 236.694 23.5181 237.141 23.7786C237.589 24.039 238.136 24.1692 238.782 24.1692C239.407 24.1692 239.944 24.039 240.391 23.7786C240.839 23.5181 241.199 23.1588 241.47 22.7004C241.74 22.2317 241.938 21.69 242.063 21.0754C242.199 20.4609 242.266 19.7994 242.266 19.0911V18.7629C242.266 18.0754 242.199 17.4296 242.063 16.8254C241.938 16.2109 241.735 15.6692 241.454 15.2004C241.183 14.7213 240.824 14.3463 240.376 14.0754C239.928 13.8046 239.386 13.6692 238.751 13.6692C238.115 13.6692 237.574 13.8046 237.126 14.0754C236.688 14.3463 236.329 14.7213 236.048 15.2004C235.777 15.6692 235.579 16.2109 235.454 16.8254C235.329 17.4296 235.266 18.0754 235.266 18.7629ZM253.954 14.0754V27.3723H249.454V10.4661H253.673L253.954 14.0754ZM253.298 18.3254H252.079C252.079 17.0754 252.24 15.9504 252.563 14.9504C252.886 13.94 253.339 13.0806 253.923 12.3723C254.506 11.6536 255.199 11.1067 256.001 10.7317C256.813 10.3463 257.72 10.1536 258.72 10.1536C259.511 10.1536 260.235 10.2681 260.891 10.4973C261.548 10.7265 262.11 11.0911 262.579 11.5911C263.058 12.0911 263.423 12.7525 263.673 13.5754C263.933 14.3984 264.063 15.4036 264.063 16.5911V27.3723H259.532V16.5754C259.532 15.8254 259.428 15.2421 259.22 14.8254C259.011 14.4088 258.704 14.1171 258.298 13.9504C257.902 13.7734 257.412 13.6848 256.829 13.6848C256.225 13.6848 255.699 13.8046 255.251 14.0442C254.813 14.2838 254.449 14.6171 254.157 15.0442C253.876 15.4609 253.662 15.9504 253.516 16.5129C253.371 17.0754 253.298 17.6796 253.298 18.3254ZM52.6883 47.4661V48.5442C52.6883 50.2734 52.4539 51.8254 51.9852 53.2004C51.5164 54.5754 50.855 55.7473 50.0008 56.7161C49.1467 57.6744 48.1258 58.4088 46.9383 58.9192C45.7612 59.4296 44.4539 59.6848 43.0164 59.6848C41.5894 59.6848 40.2821 59.4296 39.0946 58.9192C37.9175 58.4088 36.8967 57.6744 36.0321 56.7161C35.1675 55.7473 34.4956 54.5754 34.0164 53.2004C33.5477 51.8254 33.3133 50.2734 33.3133 48.5442V47.4661C33.3133 45.7265 33.5477 44.1744 34.0164 42.8098C34.4852 41.4348 35.1467 40.2629 36.0008 39.2942C36.8654 38.3254 37.8862 37.5859 39.0633 37.0754C40.2508 36.565 41.5581 36.3098 42.9852 36.3098C44.4227 36.3098 45.73 36.565 46.9071 37.0754C48.0946 37.5859 49.1154 38.3254 49.9696 39.2942C50.8342 40.2629 51.5008 41.4348 51.9696 42.8098C52.4487 44.1744 52.6883 45.7265 52.6883 47.4661ZM47.9539 48.5442V47.4348C47.9539 46.2265 47.8446 45.164 47.6258 44.2473C47.4071 43.3306 47.0842 42.5598 46.6571 41.9348C46.23 41.3098 45.7092 40.8411 45.0946 40.5286C44.48 40.2056 43.7769 40.0442 42.9852 40.0442C42.1935 40.0442 41.4904 40.2056 40.8758 40.5286C40.2717 40.8411 39.756 41.3098 39.3289 41.9348C38.9123 42.5598 38.5946 43.3306 38.3758 44.2473C38.1571 45.164 38.0477 46.2265 38.0477 47.4348V48.5442C38.0477 49.7421 38.1571 50.8046 38.3758 51.7317C38.5946 52.6484 38.9175 53.4244 39.3446 54.0598C39.7717 54.6848 40.2925 55.1588 40.9071 55.4817C41.5217 55.8046 42.2248 55.9661 43.0164 55.9661C43.8081 55.9661 44.5112 55.8046 45.1258 55.4817C45.7404 55.1588 46.256 54.6848 46.6727 54.0598C47.0894 53.4244 47.4071 52.6484 47.6258 51.7317C47.8446 50.8046 47.9539 49.7421 47.9539 48.5442ZM60.1883 46.0754V59.3723H55.6883V42.4661H59.9071L60.1883 46.0754ZM59.5321 50.3254H58.3133C58.3133 49.0754 58.4748 47.9504 58.7977 46.9504C59.1206 45.94 59.5737 45.0806 60.1571 44.3723C60.7404 43.6536 61.4331 43.1067 62.2352 42.7317C63.0477 42.3463 63.9539 42.1536 64.9539 42.1536C65.7456 42.1536 66.4696 42.2681 67.1258 42.4973C67.7821 42.7265 68.3446 43.0911 68.8133 43.5911C69.2925 44.0911 69.6571 44.7525 69.9071 45.5754C70.1675 46.3984 70.2977 47.4036 70.2977 48.5911V59.3723H65.7664V48.5754C65.7664 47.8254 65.6623 47.2421 65.4539 46.8254C65.2456 46.4088 64.9383 46.1171 64.5321 45.9504C64.1362 45.7734 63.6467 45.6848 63.0633 45.6848C62.4592 45.6848 61.9331 45.8046 61.4852 46.0442C61.0477 46.2838 60.6831 46.6171 60.3914 47.0442C60.1102 47.4609 59.8967 47.9504 59.7508 48.5129C59.605 49.0754 59.5321 49.6796 59.5321 50.3254ZM84.1102 36.6223H88.0789L93.9227 53.3254L99.7664 36.6223H103.735L95.5164 59.3723H92.3289L84.1102 36.6223ZM81.9696 36.6223H85.9227L86.6414 52.9036V59.3723H81.9696V36.6223ZM101.923 36.6223H105.891V59.3723H101.204V52.9036L101.923 36.6223ZM117.501 59.6848C116.188 59.6848 115.011 59.4765 113.97 59.0598C112.928 58.6327 112.042 58.0442 111.313 57.2942C110.595 56.5442 110.042 55.6744 109.657 54.6848C109.272 53.6848 109.079 52.6223 109.079 51.4973V50.8723C109.079 49.5911 109.261 48.4192 109.626 47.3567C109.99 46.2942 110.511 45.3723 111.188 44.5911C111.876 43.8098 112.709 43.2109 113.688 42.7942C114.667 42.3671 115.772 42.1536 117.001 42.1536C118.199 42.1536 119.261 42.3515 120.188 42.7473C121.115 43.1431 121.891 43.7056 122.516 44.4348C123.152 45.164 123.631 46.039 123.954 47.0598C124.277 48.0702 124.438 49.1952 124.438 50.4348V52.3098H111.001V49.3098H120.016V48.9661C120.016 48.3411 119.902 47.7838 119.673 47.2942C119.454 46.7942 119.121 46.3984 118.673 46.1067C118.225 45.815 117.652 45.6692 116.954 45.6692C116.36 45.6692 115.85 45.7994 115.423 46.0598C114.996 46.3202 114.647 46.6848 114.376 47.1536C114.115 47.6223 113.917 48.1744 113.782 48.8098C113.657 49.4348 113.595 50.1223 113.595 50.8723V51.4973C113.595 52.1744 113.688 52.7994 113.876 53.3723C114.074 53.9452 114.35 54.44 114.704 54.8567C115.069 55.2734 115.506 55.5963 116.016 55.8254C116.537 56.0546 117.126 56.1692 117.782 56.1692C118.595 56.1692 119.35 56.0129 120.048 55.7004C120.756 55.3775 121.365 54.8931 121.876 54.2473L124.063 56.6223C123.709 57.1327 123.225 57.6223 122.61 58.0911C122.006 58.5598 121.277 58.9452 120.423 59.2473C119.569 59.539 118.595 59.6848 117.501 59.6848ZM131.407 46.0754V59.3723H126.907V42.4661H131.126L131.407 46.0754ZM130.751 50.3254H129.532C129.532 49.0754 129.694 47.9504 130.016 46.9504C130.339 45.94 130.792 45.0806 131.376 44.3723C131.959 43.6536 132.652 43.1067 133.454 42.7317C134.266 42.3463 135.173 42.1536 136.173 42.1536C136.964 42.1536 137.688 42.2681 138.345 42.4973C139.001 42.7265 139.563 43.0911 140.032 43.5911C140.511 44.0911 140.876 44.7525 141.126 45.5754C141.386 46.3984 141.516 47.4036 141.516 48.5911V59.3723H136.985V48.5754C136.985 47.8254 136.881 47.2421 136.673 46.8254C136.464 46.4088 136.157 46.1171 135.751 45.9504C135.355 45.7734 134.865 45.6848 134.282 45.6848C133.678 45.6848 133.152 45.8046 132.704 46.0442C132.266 46.2838 131.902 46.6171 131.61 47.0442C131.329 47.4609 131.115 47.9504 130.97 48.5129C130.824 49.0754 130.751 49.6796 130.751 50.3254ZM156.485 47.2004L160.86 44.3723C161.506 43.9452 161.938 43.5338 162.157 43.1379C162.376 42.7421 162.485 42.2994 162.485 41.8098C162.485 41.3202 162.303 40.8671 161.938 40.4504C161.574 40.0234 161.063 39.8098 160.407 39.8098C159.938 39.8098 159.542 39.9192 159.22 40.1379C158.897 40.3463 158.652 40.6275 158.485 40.9817C158.329 41.3359 158.251 41.7317 158.251 42.1692C158.251 42.6379 158.376 43.1171 158.626 43.6067C158.876 44.0859 159.214 44.5963 159.641 45.1379C160.069 45.6692 160.542 46.2473 161.063 46.8723L171.798 59.3723H166.688L157.938 49.2473C157.199 48.3306 156.553 47.4921 156.001 46.7317C155.449 45.9609 155.016 45.2109 154.704 44.4817C154.391 43.7525 154.235 43.0025 154.235 42.2317C154.235 41.0442 154.49 40.0077 155.001 39.1223C155.511 38.2265 156.23 37.5338 157.157 37.0442C158.084 36.5442 159.173 36.2942 160.423 36.2942C161.6 36.2942 162.621 36.539 163.485 37.0286C164.35 37.5077 165.016 38.1431 165.485 38.9348C165.964 39.7265 166.204 40.5963 166.204 41.5442C166.204 42.2525 166.074 42.9088 165.813 43.5129C165.553 44.1067 165.194 44.6588 164.735 45.1692C164.277 45.6692 163.751 46.1327 163.157 46.5598L158.173 50.1067C157.787 50.4609 157.496 50.8098 157.298 51.1536C157.1 51.4973 156.964 51.8254 156.891 52.1379C156.819 52.44 156.782 52.7317 156.782 53.0129C156.782 53.6171 156.912 54.1588 157.173 54.6379C157.433 55.1171 157.798 55.4921 158.266 55.7629C158.735 56.0338 159.282 56.1692 159.907 56.1692C160.761 56.1692 161.589 55.9817 162.391 55.6067C163.194 55.2317 163.912 54.6952 164.548 53.9973C165.183 53.289 165.688 52.4504 166.063 51.4817C166.438 50.5129 166.626 49.4452 166.626 48.2786H170.438C170.438 49.4452 170.324 50.5546 170.095 51.6067C169.865 52.6484 169.496 53.6171 168.985 54.5129C168.475 55.3984 167.798 56.1848 166.954 56.8723C166.891 56.9244 166.803 57.0025 166.688 57.1067C166.584 57.2004 166.496 57.2734 166.423 57.3254C165.423 58.1275 164.381 58.7265 163.298 59.1223C162.214 59.5077 161.006 59.7004 159.673 59.7004C158.152 59.7004 156.834 59.4244 155.72 58.8723C154.615 58.3202 153.761 57.5598 153.157 56.5911C152.563 55.6223 152.266 54.5129 152.266 53.2629C152.266 52.3463 152.444 51.5494 152.798 50.8723C153.162 50.1848 153.662 49.5494 154.298 48.9661C154.933 48.3827 155.662 47.7942 156.485 47.2004ZM187.704 55.7629L192.235 36.6223H194.766L195.345 39.8098L190.516 59.3723H187.798L187.704 55.7629ZM185.376 36.6223L189.126 55.7629L188.813 59.3723H185.782L180.735 36.6223H185.376ZM199.329 55.6848L203.032 36.6223H207.673L202.641 59.3723H199.61L199.329 55.6848ZM196.188 36.6223L200.751 55.8411L200.626 59.3723H197.907L193.048 39.7942L193.673 36.6223H196.188ZM208.72 51.0911V50.7629C208.72 49.5234 208.897 48.3827 209.251 47.3411C209.605 46.289 210.121 45.3775 210.798 44.6067C211.475 43.8359 212.308 43.2369 213.298 42.8098C214.287 42.3723 215.423 42.1536 216.704 42.1536C217.985 42.1536 219.126 42.3723 220.126 42.8098C221.126 43.2369 221.964 43.8359 222.641 44.6067C223.329 45.3775 223.85 46.289 224.204 47.3411C224.558 48.3827 224.735 49.5234 224.735 50.7629V51.0911C224.735 52.3202 224.558 53.4609 224.204 54.5129C223.85 55.5546 223.329 56.4661 222.641 57.2473C221.964 58.0181 221.131 58.6171 220.141 59.0442C219.152 59.4713 218.016 59.6848 216.735 59.6848C215.454 59.6848 214.313 59.4713 213.313 59.0442C212.324 58.6171 211.485 58.0181 210.798 57.2473C210.121 56.4661 209.605 55.5546 209.251 54.5129C208.897 53.4609 208.72 52.3202 208.72 51.0911ZM213.22 50.7629V51.0911C213.22 51.7994 213.282 52.4609 213.407 53.0754C213.532 53.69 213.73 54.2317 214.001 54.7004C214.282 55.1588 214.647 55.5181 215.095 55.7786C215.542 56.039 216.089 56.1692 216.735 56.1692C217.36 56.1692 217.897 56.039 218.345 55.7786C218.792 55.5181 219.152 55.1588 219.423 54.7004C219.694 54.2317 219.891 53.69 220.016 53.0754C220.152 52.4609 220.22 51.7994 220.22 51.0911V50.7629C220.22 50.0754 220.152 49.4296 220.016 48.8254C219.891 48.2109 219.688 47.6692 219.407 47.2004C219.136 46.7213 218.777 46.3463 218.329 46.0754C217.881 45.8046 217.339 45.6692 216.704 45.6692C216.069 45.6692 215.527 45.8046 215.079 46.0754C214.641 46.3463 214.282 46.7213 214.001 47.2004C213.73 47.6692 213.532 48.2109 213.407 48.8254C213.282 49.4296 213.22 50.0754 213.22 50.7629ZM232.001 45.9661V59.3723H227.485V42.4661H231.72L232.001 45.9661ZM231.376 50.3254H230.126C230.126 49.1484 230.266 48.065 230.548 47.0754C230.839 46.0754 231.261 45.2109 231.813 44.4817C232.376 43.7421 233.069 43.1692 233.891 42.7629C234.714 42.3567 235.667 42.1536 236.751 42.1536C237.501 42.1536 238.188 42.2681 238.813 42.4973C239.438 42.7161 239.975 43.065 240.423 43.5442C240.881 44.0129 241.235 44.6275 241.485 45.3879C241.735 46.1379 241.86 47.039 241.86 48.0911V59.3723H237.36V48.5911C237.36 47.8202 237.256 47.2265 237.048 46.8098C236.839 46.3931 236.542 46.1015 236.157 45.9348C235.782 45.7681 235.329 45.6848 234.798 45.6848C234.214 45.6848 233.704 45.8046 233.266 46.0442C232.839 46.2838 232.485 46.6171 232.204 47.0442C231.923 47.4609 231.714 47.9504 231.579 48.5129C231.444 49.0754 231.376 49.6796 231.376 50.3254ZM241.438 49.8098L239.829 50.0129C239.829 48.9088 239.964 47.8827 240.235 46.9348C240.516 45.9869 240.928 45.1536 241.47 44.4348C242.022 43.7161 242.704 43.1588 243.516 42.7629C244.329 42.3567 245.266 42.1536 246.329 42.1536C247.141 42.1536 247.881 42.2734 248.548 42.5129C249.214 42.7421 249.782 43.1119 250.251 43.6223C250.73 44.1223 251.095 44.7786 251.345 45.5911C251.605 46.4036 251.735 47.3984 251.735 48.5754V59.3723H247.22V48.5754C247.22 47.7942 247.115 47.2004 246.907 46.7942C246.709 46.3775 246.417 46.0911 246.032 45.9348C245.657 45.7681 245.209 45.6848 244.688 45.6848C244.147 45.6848 243.673 45.7942 243.266 46.0129C242.86 46.2213 242.522 46.5129 242.251 46.8879C241.98 47.2629 241.777 47.7004 241.641 48.2004C241.506 48.69 241.438 49.2265 241.438 49.8098ZM263.001 59.6848C261.688 59.6848 260.511 59.4765 259.47 59.0598C258.428 58.6327 257.542 58.0442 256.813 57.2942C256.095 56.5442 255.542 55.6744 255.157 54.6848C254.772 53.6848 254.579 52.6223 254.579 51.4973V50.8723C254.579 49.5911 254.761 48.4192 255.126 47.3567C255.49 46.2942 256.011 45.3723 256.688 44.5911C257.376 43.8098 258.209 43.2109 259.188 42.7942C260.167 42.3671 261.272 42.1536 262.501 42.1536C263.699 42.1536 264.761 42.3515 265.688 42.7473C266.615 43.1431 267.391 43.7056 268.016 44.4348C268.652 45.164 269.131 46.039 269.454 47.0598C269.777 48.0702 269.938 49.1952 269.938 50.4348V52.3098H256.501V49.3098H265.516V48.9661C265.516 48.3411 265.402 47.7838 265.173 47.2942C264.954 46.7942 264.621 46.3984 264.173 46.1067C263.725 45.815 263.152 45.6692 262.454 45.6692C261.86 45.6692 261.35 45.7994 260.923 46.0598C260.496 46.3202 260.147 46.6848 259.876 47.1536C259.615 47.6223 259.417 48.1744 259.282 48.8098C259.157 49.4348 259.095 50.1223 259.095 50.8723V51.4973C259.095 52.1744 259.188 52.7994 259.376 53.3723C259.574 53.9452 259.85 54.44 260.204 54.8567C260.569 55.2734 261.006 55.5963 261.516 55.8254C262.037 56.0546 262.626 56.1692 263.282 56.1692C264.095 56.1692 264.85 56.0129 265.548 55.7004C266.256 55.3775 266.865 54.8931 267.376 54.2473L269.563 56.6223C269.209 57.1327 268.725 57.6223 268.11 58.0911C267.506 58.5598 266.777 58.9452 265.923 59.2473C265.069 59.539 264.095 59.6848 263.001 59.6848ZM276.907 46.0754V59.3723H272.407V42.4661H276.626L276.907 46.0754ZM276.251 50.3254H275.032C275.032 49.0754 275.194 47.9504 275.516 46.9504C275.839 45.94 276.292 45.0806 276.876 44.3723C277.459 43.6536 278.152 43.1067 278.954 42.7317C279.766 42.3463 280.673 42.1536 281.673 42.1536C282.464 42.1536 283.188 42.2681 283.845 42.4973C284.501 42.7265 285.063 43.0911 285.532 43.5911C286.011 44.0911 286.376 44.7525 286.626 45.5754C286.886 46.3984 287.016 47.4036 287.016 48.5911V59.3723H282.485V48.5754C282.485 47.8254 282.381 47.2421 282.173 46.8254C281.964 46.4088 281.657 46.1171 281.251 45.9504C280.855 45.7734 280.365 45.6848 279.782 45.6848C279.178 45.6848 278.652 45.8046 278.204 46.0442C277.766 46.2838 277.402 46.6171 277.11 47.0442C276.829 47.4609 276.615 47.9504 276.47 48.5129C276.324 49.0754 276.251 49.6796 276.251 50.3254Z" fill="#503CEB"/>
<rect x="96.8169" y="85.9775" width="130.024" height="30.6875" rx="7" stroke="#503CEB" stroke-opacity="0.5" stroke-width="2"/>
<path d="M113.619 98.6994H115.646C115.205 96.149 113.025 94.3848 110.2 94.3848C106.812 94.3848 104.338 96.9352 104.338 101.116C104.338 105.258 106.742 107.834 110.289 107.834C113.466 107.834 115.735 105.75 115.735 102.445V100.956H110.59V102.586H113.824C113.779 104.695 112.386 106.031 110.289 106.031C107.982 106.031 106.301 104.286 106.301 101.103C106.301 97.9324 107.994 96.1873 110.213 96.1873C111.951 96.1873 113.127 97.1461 113.619 98.6994ZM118.443 107.655H126.727V105.954H120.418V101.947H126.222V100.253H120.418V96.264H126.65V94.5638H118.443V107.655ZM128.843 96.264H132.921V107.655H134.89V96.264H138.974V94.5638H128.843V96.264ZM153.516 98.0027H155.421C155.364 95.9061 153.51 94.3848 150.851 94.3848C148.224 94.3848 146.21 95.8869 146.21 98.1433C146.21 99.965 147.514 101.033 149.617 101.601L151.164 102.023C152.564 102.394 153.644 102.854 153.644 104.018C153.644 105.296 152.423 106.14 150.742 106.14C149.221 106.14 147.955 105.462 147.84 104.037H145.859C145.987 106.408 147.821 107.872 150.755 107.872C153.83 107.872 155.6 106.255 155.6 104.037C155.6 101.678 153.497 100.764 151.835 100.355L150.557 100.023C149.534 99.7605 148.173 99.2811 148.179 98.0282C148.179 96.916 149.195 96.0915 150.806 96.0915C152.308 96.0915 153.376 96.7946 153.516 98.0027ZM158.161 107.655H160.136V101.947H166.662V107.655H168.643V94.5638H166.662V100.253H160.136V94.5638H158.161V107.655ZM183.091 101.109C183.091 96.9224 180.586 94.3848 177.198 94.3848C173.797 94.3848 171.298 96.9224 171.298 101.109C171.298 105.29 173.797 107.834 177.198 107.834C180.586 107.834 183.091 105.296 183.091 101.109ZM181.135 101.109C181.135 104.299 179.448 106.031 177.198 106.031C174.941 106.031 173.26 104.299 173.26 101.109C173.26 97.9196 174.941 96.1873 177.198 96.1873C179.448 96.1873 181.135 97.9196 181.135 101.109ZM185.754 107.655H187.729V103.052H190.414C193.45 103.052 194.952 101.218 194.952 98.8017C194.952 96.3919 193.463 94.5638 190.42 94.5638H185.754V107.655ZM187.729 101.378V96.2576H190.209C192.165 96.2576 192.964 97.3187 192.964 98.8017C192.964 100.285 192.165 101.378 190.235 101.378H187.729ZM204.607 98.0027H206.512C206.455 95.9061 204.601 94.3848 201.942 94.3848C199.315 94.3848 197.301 95.8869 197.301 98.1433C197.301 99.965 198.605 101.033 200.708 101.601L202.255 102.023C203.655 102.394 204.735 102.854 204.735 104.018C204.735 105.296 203.514 106.14 201.833 106.14C200.312 106.14 199.046 105.462 198.931 104.037H196.95C197.078 106.408 198.912 107.872 201.846 107.872C204.921 107.872 206.691 106.255 206.691 104.037C206.691 101.678 204.588 100.764 202.926 100.355L201.648 100.023C200.625 99.7605 199.264 99.2811 199.27 98.0282C199.27 96.916 200.286 96.0915 201.897 96.0915C203.399 96.0915 204.467 96.7946 204.607 98.0027ZM208.242 94.5638L212.991 102.515V107.655H214.96V102.515L219.709 94.5638H217.465L214.046 100.515H213.905L210.485 94.5638H208.242Z" fill="#503CEB"/>
</svg>
