<?xml version="1.0" encoding="UTF-8"?>
<svg id="Layer_2" data-name="Layer 2" xmlns="http://www.w3.org/2000/svg" viewBox="0 0 293.68 13.57">
  <defs>
    <style>
      .cls-1 {
        fill: #fff;
      }
    </style>
  </defs>
  <g id="Layer_1-2" data-name="Layer 1">
    <g>
      <path class="cls-1" d="m7.4,7.38c-.11,1.05-.49,1.85-1.12,2.4s-1.48.83-2.54.83c-.74,0-1.39-.19-1.95-.55-.57-.37-1-.89-1.31-1.57-.31-.68-.47-1.45-.47-2.32v-1.29c0-.88.15-1.66.46-2.35.31-.68.75-1.21,1.33-1.58.58-.37,1.25-.56,2-.56,1.06,0,1.91.29,2.52.86s.97,1.37,1.08,2.38h-.85c-.21-1.69-1.13-2.53-2.75-2.53-.9,0-1.62.34-2.15,1.01-.53.67-.8,1.6-.8,2.79v1.22c0,1.15.26,2.06.78,2.74.52.68,1.22,1.02,2.11,1.02s1.54-.21,1.99-.63c.45-.42.72-1.05.83-1.89h.85Z"/>
      <path class="cls-1" d="m8.8,6.68c0-.71.14-1.35.41-1.92.28-.57.66-1.01,1.17-1.33.5-.32,1.07-.47,1.71-.47.98,0,1.78.34,2.39,1.03.61.69.91,1.6.91,2.74v.17c0,.71-.14,1.36-.41,1.93s-.66,1.01-1.16,1.32c-.5.31-1.07.46-1.71.46-.98,0-1.77-.34-2.39-1.03s-.92-1.6-.92-2.74v-.16Zm.82.23c0,.88.23,1.61.69,2.17.46.57,1.06.85,1.8.85s1.33-.28,1.79-.85c.46-.57.69-1.31.69-2.24v-.16c0-.56-.1-1.08-.31-1.55s-.5-.83-.88-1.09-.81-.39-1.3-.39c-.73,0-1.32.29-1.78.86s-.69,1.32-.69,2.24v.15Z"/>
      <path class="cls-1" d="m17.85,3.1l.03,1.26c.28-.45.62-.8,1.04-1.04.41-.24.87-.36,1.37-.36.79,0,1.38.22,1.77.67.39.45.58,1.11.59,2.01v4.85h-.81v-4.85c0-.66-.14-1.15-.42-1.47s-.72-.48-1.32-.48c-.51,0-.95.16-1.34.47-.39.32-.68.74-.86,1.28v5.06h-.81V3.1h.78Z"/>
      <path class="cls-1" d="m26.02,1.21v1.89h1.53v.67h-1.53v4.93c0,.41.07.71.22.91.15.2.39.3.74.3.14,0,.36-.02.66-.07l.03.66c-.21.08-.5.12-.87.12-.56,0-.97-.16-1.22-.49-.26-.32-.38-.8-.38-1.44V3.77h-1.36v-.67h1.36v-1.89h.82Z"/>
      <path class="cls-1" d="m33.9,10.48c-.08-.23-.13-.57-.16-1.03-.29.37-.65.66-1.1.86-.44.2-.91.3-1.41.3-.71,0-1.28-.2-1.72-.59s-.66-.9-.66-1.5c0-.72.3-1.29.9-1.71s1.43-.63,2.5-.63h1.48v-.84c0-.53-.16-.94-.49-1.25-.33-.3-.8-.45-1.42-.45-.57,0-1.04.15-1.41.44-.37.29-.56.64-.56,1.05h-.82c0-.59.27-1.1.82-1.53s1.22-.64,2.01-.64,1.47.21,1.95.62.72.99.73,1.72v3.49c0,.71.08,1.25.23,1.6v.08h-.87Zm-2.57-.59c.55,0,1.03-.13,1.46-.4.43-.26.74-.62.94-1.06v-1.62h-1.46c-.81,0-1.45.16-1.91.45-.46.29-.69.69-.69,1.19,0,.41.15.76.46,1.03.31.27.71.41,1.2.41Z"/>
      <path class="cls-1" d="m39.46,9.93c.57,0,1.05-.16,1.43-.48.38-.32.59-.74.62-1.25h.78c-.02.45-.16.86-.42,1.23-.26.37-.6.66-1.03.87-.43.21-.89.31-1.38.31-.97,0-1.74-.34-2.3-1.01-.57-.67-.85-1.58-.85-2.72v-.25c0-.73.13-1.37.38-1.93.26-.56.62-.99,1.1-1.3.48-.3,1.03-.46,1.67-.46.81,0,1.48.24,2,.72.53.48.81,1.12.84,1.9h-.78c-.04-.58-.24-1.04-.62-1.4-.38-.36-.86-.53-1.44-.53-.74,0-1.31.27-1.72.8-.41.53-.61,1.28-.61,2.24v.24c0,.94.2,1.68.61,2.2s.98.79,1.72.79Z"/>
      <path class="cls-1" d="m45.2,1.21v1.89h1.53v.67h-1.53v4.93c0,.41.07.71.22.91.15.2.39.3.74.3.14,0,.36-.02.66-.07l.03.66c-.21.08-.5.12-.87.12-.56,0-.97-.16-1.22-.49-.26-.32-.38-.8-.38-1.44V3.77h-1.36v-.67h1.36v-1.89h.82Z"/>
      <path class="cls-1" d="m58.85.55v6.78c0,.67-.15,1.25-.44,1.75-.29.5-.7.88-1.23,1.14-.53.27-1.14.4-1.83.4-1.05,0-1.88-.29-2.51-.86s-.96-1.36-.98-2.37V.55h.83v6.72c0,.84.24,1.49.72,1.95.48.46,1.13.69,1.95.69s1.47-.23,1.94-.7.71-1.11.71-1.94V.55h.85Z"/>
      <path class="cls-1" d="m65.42,8.61c0-.4-.16-.73-.49-.98-.33-.25-.82-.44-1.47-.58s-1.16-.3-1.53-.48c-.36-.18-.63-.4-.81-.66-.18-.26-.26-.57-.26-.94,0-.58.24-1.06.73-1.44s1.11-.57,1.87-.57c.82,0,1.48.2,1.98.61.5.41.75.94.75,1.59h-.82c0-.43-.18-.79-.54-1.08-.36-.29-.82-.43-1.37-.43s-.97.12-1.29.36c-.33.24-.49.55-.49.93s.13.65.41.86c.27.2.76.39,1.48.56.72.17,1.25.35,1.61.54.36.19.62.42.8.69.17.27.26.59.26.98,0,.62-.25,1.12-.75,1.49s-1.16.56-1.97.56c-.86,0-1.56-.21-2.09-.63-.53-.42-.8-.94-.8-1.58h.82c.03.48.23.85.6,1.12s.86.4,1.47.4c.57,0,1.03-.13,1.38-.38.35-.25.53-.57.53-.95Z"/>
      <path class="cls-1" d="m71.28,9.99c0-.16.05-.29.15-.41.1-.11.24-.17.43-.17s.32.06.43.17c.1.11.16.25.16.41s-.05.29-.16.39c-.1.1-.25.15-.43.15s-.32-.05-.43-.15c-.1-.1-.15-.23-.15-.39Zm.01-6.3c0-.16.05-.3.15-.41s.24-.17.43-.17.32.06.43.17c.1.11.16.25.16.41s-.05.29-.16.39c-.1.1-.25.15-.43.15s-.32-.05-.43-.15-.15-.23-.15-.39Z"/>
      <path class="cls-1" d="m82.23,8.61c0-.4-.16-.73-.49-.98-.33-.25-.82-.44-1.47-.58s-1.16-.3-1.53-.48c-.36-.18-.63-.4-.81-.66-.18-.26-.26-.57-.26-.94,0-.58.24-1.06.73-1.44s1.11-.57,1.87-.57c.82,0,1.48.2,1.98.61.5.41.75.94.75,1.59h-.82c0-.43-.18-.79-.54-1.08-.36-.29-.82-.43-1.37-.43s-.97.12-1.29.36c-.33.24-.49.55-.49.93s.13.65.41.86c.27.2.76.39,1.48.56.72.17,1.25.35,1.61.54.36.19.62.42.8.69.17.27.26.59.26.98,0,.62-.25,1.12-.75,1.49s-1.16.56-1.97.56c-.86,0-1.56-.21-2.09-.63-.53-.42-.8-.94-.8-1.58h.82c.03.48.23.85.6,1.12s.86.4,1.47.4c.57,0,1.03-.13,1.38-.38.35-.25.53-.57.53-.95Z"/>
      <path class="cls-1" d="m89.64,9.55c-.49.71-1.28,1.07-2.35,1.07-.79,0-1.39-.23-1.79-.69-.41-.46-.62-1.13-.63-2.03V3.1h.81v4.7c0,1.41.57,2.11,1.71,2.11s1.93-.49,2.25-1.47V3.1h.82v7.38h-.79v-.94Z"/>
      <path class="cls-1" d="m98.5,6.87c0,1.15-.26,2.06-.76,2.74-.51.68-1.19,1.01-2.05,1.01-1.01,0-1.78-.36-2.32-1.07v3.77h-.81V3.1h.76l.04,1.04c.53-.79,1.3-1.18,2.31-1.18.88,0,1.58.33,2.08,1s.75,1.6.75,2.78v.12Zm-.82-.14c0-.94-.19-1.69-.58-2.23-.39-.55-.93-.82-1.62-.82-.5,0-.93.12-1.29.36-.36.24-.64.59-.83,1.05v3.54c.2.42.48.75.84.97.36.22.79.33,1.29.33.69,0,1.22-.27,1.61-.82.38-.55.58-1.34.58-2.38Z"/>
      <path class="cls-1" d="m106.25,6.87c0,1.15-.26,2.06-.76,2.74-.51.68-1.19,1.01-2.05,1.01-1.01,0-1.78-.36-2.32-1.07v3.77h-.81V3.1h.76l.04,1.04c.53-.79,1.3-1.18,2.31-1.18.88,0,1.58.33,2.08,1s.75,1.6.75,2.78v.12Zm-.82-.14c0-.94-.19-1.69-.58-2.23-.39-.55-.93-.82-1.62-.82-.5,0-.93.12-1.29.36-.36.24-.64.59-.83,1.05v3.54c.2.42.48.75.84.97.36.22.79.33,1.29.33.69,0,1.22-.27,1.61-.82.38-.55.58-1.34.58-2.38Z"/>
      <path class="cls-1" d="m107.6,6.68c0-.71.14-1.35.41-1.92.28-.57.66-1.01,1.17-1.33.5-.32,1.07-.47,1.71-.47.98,0,1.78.34,2.39,1.03.61.69.91,1.6.91,2.74v.17c0,.71-.14,1.36-.41,1.93s-.66,1.01-1.16,1.32c-.5.31-1.07.46-1.71.46-.98,0-1.77-.34-2.39-1.03s-.92-1.6-.92-2.74v-.16Zm.82.23c0,.88.23,1.61.69,2.17.46.57,1.06.85,1.8.85s1.33-.28,1.79-.85c.46-.57.69-1.31.69-2.24v-.16c0-.56-.1-1.08-.31-1.55s-.5-.83-.88-1.09-.81-.39-1.3-.39c-.73,0-1.32.29-1.78.86s-.69,1.32-.69,2.24v.15Z"/>
      <path class="cls-1" d="m119.29,3.79c-.17-.03-.36-.05-.55-.05-.51,0-.94.14-1.29.43s-.6.7-.75,1.24v5.07h-.81V3.1h.8v1.17c.45-.87,1.14-1.31,2.1-1.31.23,0,.41.03.54.09l-.02.74Z"/>
      <path class="cls-1" d="m122.19,1.21v1.89h1.53v.67h-1.53v4.93c0,.41.07.71.22.91.15.2.39.3.74.3.14,0,.36-.02.66-.07l.03.66c-.21.08-.5.12-.87.12-.56,0-.97-.16-1.22-.49-.26-.32-.38-.8-.38-1.44V3.77h-1.36v-.67h1.36v-1.89h.82Z"/>
      <path class="cls-1" d="m136.32,6.98c-.02.67-.15,1.29-.37,1.86-.22.57-.53,1.01-.93,1.32-.39.31-.85.46-1.37.46-.44,0-.8-.12-1.08-.35-.28-.23-.46-.56-.55-.98-.49.88-1.17,1.32-2.03,1.32-.64,0-1.11-.28-1.43-.83-.31-.55-.43-1.29-.35-2.23.07-.74.24-1.4.51-1.98.27-.58.62-1.03,1.06-1.36.43-.33.9-.49,1.4-.49.35,0,.66.05.92.15.26.1.57.3.92.59l-.35,3.89c-.05.53.02.94.2,1.23.18.29.47.44.86.44.56,0,1.01-.27,1.36-.82.35-.55.54-1.29.58-2.23.09-1.84-.26-3.23-1.05-4.16s-1.98-1.4-3.58-1.4c-.96,0-1.83.24-2.6.72-.77.48-1.38,1.16-1.83,2.04-.45.88-.7,1.89-.75,3.04s.1,2.16.45,3.03c.36.87.9,1.54,1.62,2.01s1.58.7,2.58.7c.42,0,.83-.05,1.24-.15.41-.1.74-.23,1.02-.39l.21.55c-.26.17-.62.32-1.09.43-.46.12-.93.17-1.41.17-1.14,0-2.12-.26-2.93-.77-.82-.51-1.43-1.25-1.84-2.21-.41-.96-.58-2.09-.53-3.37.05-1.27.33-2.38.84-3.36.5-.98,1.19-1.73,2.06-2.27.87-.53,1.87-.8,2.98-.8s2.14.24,2.95.73c.81.48,1.4,1.19,1.79,2.13.39.93.55,2.04.5,3.34Zm-7.38,1.55c.05.46.18.81.38,1.06.2.25.48.37.81.37.84,0,1.46-.58,1.86-1.74l.31-3.53c-.3-.22-.66-.33-1.08-.33-.51,0-.94.2-1.31.61-.37.4-.64.96-.82,1.67s-.22,1.34-.16,1.91Z"/>
      <path class="cls-1" d="m142.6,8.61c0-.4-.16-.73-.49-.98-.33-.25-.82-.44-1.47-.58s-1.16-.3-1.53-.48c-.36-.18-.63-.4-.81-.66-.18-.26-.26-.57-.26-.94,0-.58.24-1.06.73-1.44s1.11-.57,1.87-.57c.82,0,1.48.2,1.98.61.5.41.75.94.75,1.59h-.82c0-.43-.18-.79-.54-1.08-.36-.29-.82-.43-1.37-.43s-.97.12-1.29.36c-.33.24-.49.55-.49.93s.13.65.41.86c.27.2.76.39,1.48.56.72.17,1.25.35,1.61.54.36.19.62.42.8.69.17.27.26.59.26.98,0,.62-.25,1.12-.75,1.49s-1.16.56-1.97.56c-.86,0-1.56-.21-2.09-.63-.53-.42-.8-.94-.8-1.58h.82c.03.48.23.85.6,1.12s.86.4,1.47.4c.57,0,1.03-.13,1.38-.38.35-.25.53-.57.53-.95Z"/>
      <path class="cls-1" d="m146.06,4.35c.27-.44.61-.78,1.03-1.02.42-.24.88-.36,1.37-.36.79,0,1.38.22,1.77.67.39.45.58,1.11.59,2.01v4.85h-.81v-4.85c0-.66-.15-1.15-.42-1.47-.28-.32-.72-.48-1.32-.48-.5,0-.95.16-1.34.47-.39.32-.68.74-.86,1.28v5.06h-.81V0h.81v4.35Z"/>
      <path class="cls-1" d="m152.47,6.68c0-.71.14-1.35.41-1.92.28-.57.66-1.01,1.17-1.33.5-.32,1.07-.47,1.71-.47.98,0,1.78.34,2.39,1.03.61.69.92,1.6.92,2.74v.17c0,.71-.14,1.36-.41,1.93s-.66,1.01-1.16,1.32c-.5.31-1.07.46-1.71.46-.98,0-1.77-.34-2.38-1.03-.61-.69-.92-1.6-.92-2.74v-.16Zm.82.23c0,.88.23,1.61.69,2.17.46.57,1.06.85,1.8.85s1.34-.28,1.79-.85c.46-.57.69-1.31.69-2.24v-.16c0-.56-.1-1.08-.31-1.55s-.5-.83-.88-1.09-.81-.39-1.3-.39c-.73,0-1.32.29-1.78.86s-.69,1.32-.69,2.24v.15Z"/>
      <path class="cls-1" d="m166.69,6.87c0,1.15-.26,2.06-.76,2.74-.51.68-1.19,1.01-2.05,1.01-1.01,0-1.78-.36-2.32-1.07v3.77h-.81V3.1h.76l.04,1.04c.53-.79,1.3-1.18,2.31-1.18.88,0,1.58.33,2.08,1s.75,1.6.75,2.78v.12Zm-.82-.14c0-.94-.19-1.69-.58-2.23-.39-.55-.93-.82-1.62-.82-.5,0-.93.12-1.29.36-.36.24-.63.59-.83,1.05v3.54c.19.42.47.75.84.97s.79.33,1.29.33c.69,0,1.22-.27,1.61-.82.38-.55.58-1.34.58-2.38Z"/>
      <path class="cls-1" d="m172.92,8.61c0-.4-.16-.73-.49-.98-.32-.25-.82-.44-1.47-.58s-1.16-.3-1.53-.48c-.36-.18-.63-.4-.81-.66s-.26-.57-.26-.94c0-.58.24-1.06.73-1.44s1.11-.57,1.87-.57c.83,0,1.48.2,1.98.61.5.41.75.94.75,1.59h-.82c0-.43-.18-.79-.54-1.08-.36-.29-.82-.43-1.37-.43s-.97.12-1.29.36c-.33.24-.49.55-.49.93s.14.65.41.86c.27.2.76.39,1.48.56s1.25.35,1.61.54.62.42.8.69c.17.27.26.59.26.98,0,.62-.25,1.12-.75,1.49-.5.37-1.16.56-1.97.56-.86,0-1.56-.21-2.09-.63-.53-.42-.8-.94-.8-1.58h.82c.03.48.23.85.6,1.12s.86.4,1.47.4c.57,0,1.03-.13,1.38-.38.35-.25.53-.57.53-.95Z"/>
      <path class="cls-1" d="m177.91,9.31l2.16-6.21h.88l-3.15,8.64-.17.38c-.4.9-1.03,1.34-1.88,1.34-.19,0-.4-.03-.63-.1v-.68s.42.04.42.04c.4,0,.72-.1.97-.3s.46-.54.63-1.02l.36-1-2.78-7.32h.89l2.29,6.21Z"/>
      <path class="cls-1" d="m182.14,9.99c0-.16.05-.29.15-.41.1-.11.24-.17.43-.17s.32.06.43.17c.1.11.16.25.16.41s-.05.29-.16.39c-.11.1-.25.15-.43.15s-.32-.05-.43-.15c-.1-.1-.15-.23-.15-.39Z"/>
      <path class="cls-1" d="m185.5.97c0-.15.05-.28.15-.39.1-.11.24-.16.41-.16s.31.05.41.16c.1.11.15.24.15.39s-.05.28-.15.39c-.1.1-.24.16-.41.16s-.31-.05-.41-.16c-.1-.1-.15-.23-.15-.39Zm.96,9.52h-.82V3.1h.82v7.38Z"/>
      <path class="cls-1" d="m189.46,3.1l.03,1.26c.28-.45.62-.8,1.04-1.04.41-.24.87-.36,1.37-.36.79,0,1.38.22,1.77.67.39.45.58,1.11.59,2.01v4.85h-.81v-4.85c0-.66-.14-1.15-.42-1.47s-.71-.48-1.32-.48c-.51,0-.95.16-1.34.47-.39.32-.68.74-.86,1.28v5.06h-.81V3.1h.78Z"/>
      <path class="cls-1" d="m200.6,12.32h-.69V.55h.69v11.78Z"/>
      <path class="cls-1" d="m212.1,6.34c0,1.4-.26,2.46-.77,3.19s-1.27,1.09-2.27,1.09-1.73-.36-2.26-1.07-.79-1.75-.81-3.11v-1.78c0-1.4.26-2.45.78-3.17.52-.72,1.28-1.08,2.27-1.08s1.73.35,2.25,1.04c.52.69.79,1.72.81,3.07v1.82Zm-.82-1.78c0-1.14-.19-2-.56-2.58-.37-.58-.93-.87-1.68-.87s-1.29.28-1.66.85c-.37.57-.57,1.41-.57,2.52v1.95c0,1.13.19,2,.57,2.6.39.6.94.9,1.68.9s1.28-.29,1.66-.88c.37-.59.57-1.45.57-2.58v-1.91Z"/>
      <path class="cls-1" d="m218.87,7.28h1.55v.69h-1.55v2.51h-.82v-2.51h-4.67v-.46l4.6-6.96h.89v6.74Zm-4.49,0h3.67V1.6l-.36.63-3.31,5.05Z"/>
      <path class="cls-1" d="m226.62,7.28h1.55v.69h-1.55v2.51h-.82v-2.51h-4.67v-.46l4.6-6.96h.89v6.74Zm-4.49,0h3.67V1.6l-.36.63-3.31,5.05Z"/>
      <path class="cls-1" d="m232.02,6.44h-3.27v-.69h3.27v.69Z"/>
      <path class="cls-1" d="m238.16.47v.71h-.1c-1.19,0-2.12.35-2.8,1.05-.68.7-1.06,1.67-1.13,2.92.27-.38.62-.67,1.04-.88.42-.21.9-.31,1.42-.31.87,0,1.57.3,2.08.9.52.6.78,1.39.78,2.36,0,.65-.12,1.23-.36,1.75s-.59.92-1.04,1.21c-.45.29-.96.43-1.54.43-.95,0-1.72-.34-2.32-1.03-.6-.69-.89-1.58-.89-2.67v-.82c0-1.78.4-3.16,1.21-4.13.81-.98,1.96-1.47,3.45-1.49h.2Zm-1.7,4.2c-.52,0-1,.15-1.45.46-.45.31-.75.7-.9,1.17v.7c0,.86.22,1.57.67,2.11.44.55,1.02.82,1.73.82.64,0,1.15-.25,1.55-.76.39-.5.59-1.14.59-1.91s-.2-1.41-.59-1.88-.93-.71-1.59-.71Z"/>
      <path class="cls-1" d="m247.21,1.02l-4.24,9.46h-.85l4.22-9.24h-5.65v-.7h6.53v.47Z"/>
      <path class="cls-1" d="m253.85,7.28h1.55v.69h-1.55v2.51h-.82v-2.51h-4.67v-.46l4.6-6.96h.89v6.74Zm-4.49,0h3.67V1.6l-.36.63-3.31,5.05Z"/>
      <path class="cls-1" d="m260.38,10.48h-.82V1.53l-2.7,1v-.76l3.38-1.26h.14v9.97Z"/>
      <path class="cls-1" d="m264.88,5.39l.48-4.85h4.97v.76h-4.27l-.35,3.36c.53-.36,1.15-.55,1.87-.55.9,0,1.61.29,2.14.87.53.58.8,1.36.8,2.33,0,1.05-.26,1.86-.78,2.44-.52.58-1.25.87-2.19.87-.86,0-1.57-.24-2.1-.72-.54-.48-.84-1.16-.92-2.03h.79c.08.68.31,1.19.69,1.54.38.35.9.52,1.55.52.71,0,1.25-.23,1.61-.68.36-.45.54-1.09.54-1.92,0-.73-.2-1.32-.61-1.78-.4-.46-.96-.69-1.66-.69-.39,0-.72.05-1.01.15-.29.1-.59.29-.91.57l-.65-.19Z"/>
      <path class="cls-1" d="m277.93,3.1c0,.51-.15.98-.45,1.38-.3.41-.7.71-1.19.9.57.2,1.03.51,1.38.95.34.44.52.94.52,1.52,0,.85-.29,1.53-.87,2.02s-1.34.75-2.29.75-1.73-.25-2.3-.74c-.57-.5-.86-1.17-.86-2.03,0-.56.17-1.07.5-1.51.33-.44.79-.76,1.36-.96-.49-.19-.88-.49-1.17-.9-.29-.41-.44-.87-.44-1.38,0-.82.26-1.48.8-1.97.53-.49,1.23-.73,2.11-.73s1.58.25,2.11.74c.54.49.8,1.14.8,1.96Zm-.56,4.75c0-.62-.22-1.13-.66-1.53-.44-.4-1-.6-1.69-.6s-1.25.2-1.69.59c-.44.39-.66.9-.66,1.54s.21,1.14.63,1.51,1,.56,1.72.56,1.27-.19,1.7-.56c.43-.37.64-.88.64-1.51Zm-.26-4.76c0-.57-.2-1.04-.59-1.42-.39-.38-.9-.57-1.5-.57s-1.12.18-1.5.55c-.39.37-.58.85-.58,1.44s.19,1.05.58,1.4c.38.36.89.53,1.51.53s1.12-.18,1.5-.54c.39-.36.58-.83.58-1.4Z"/>
      <path class="cls-1" d="m280.37,5.39l.48-4.85h4.97v.76h-4.27l-.35,3.36c.53-.36,1.15-.55,1.87-.55.9,0,1.61.29,2.14.87.53.58.8,1.36.8,2.33,0,1.05-.26,1.86-.78,2.44-.52.58-1.25.87-2.19.87-.86,0-1.57-.24-2.1-.72-.54-.48-.84-1.16-.92-2.03h.79c.08.68.31,1.19.69,1.54.38.35.9.52,1.55.52.71,0,1.25-.23,1.61-.68.36-.45.54-1.09.54-1.92,0-.73-.2-1.32-.61-1.78-.4-.46-.96-.69-1.66-.69-.39,0-.72.05-1.01.15-.29.1-.59.29-.91.57l-.65-.19Z"/>
      <path class="cls-1" d="m293.42,3.1c0,.51-.15.98-.45,1.38-.3.41-.7.71-1.19.9.57.2,1.03.51,1.38.95.34.44.52.94.52,1.52,0,.85-.29,1.53-.87,2.02s-1.34.75-2.29.75-1.73-.25-2.3-.74c-.57-.5-.86-1.17-.86-2.03,0-.56.17-1.07.5-1.51.33-.44.79-.76,1.36-.96-.49-.19-.88-.49-1.17-.9-.29-.41-.44-.87-.44-1.38,0-.82.26-1.48.8-1.97.53-.49,1.23-.73,2.11-.73s1.58.25,2.11.74c.54.49.8,1.14.8,1.96Zm-.56,4.75c0-.62-.22-1.13-.66-1.53-.44-.4-1-.6-1.69-.6s-1.25.2-1.69.59c-.44.39-.66.9-.66,1.54s.21,1.14.63,1.51,1,.56,1.72.56,1.27-.19,1.7-.56c.43-.37.64-.88.64-1.51Zm-.26-4.76c0-.57-.2-1.04-.59-1.42-.39-.38-.9-.57-1.5-.57s-1.12.18-1.5.55c-.39.37-.58.85-.58,1.44s.19,1.05.58,1.4c.38.36.89.53,1.51.53s1.12-.18,1.5-.54c.39-.36.58-.83.58-1.4Z"/>
    </g>
  </g>
</svg>