<svg width="319" height="354" viewBox="0 0 319 354" fill="none" xmlns="http://www.w3.org/2000/svg">
<path d="M51.5234 330.716H57.8867C59.1914 330.716 60.3125 330.911 61.25 331.302C62.1953 331.693 62.9219 332.271 63.4297 333.036C63.9375 333.802 64.1914 334.744 64.1914 335.861C64.1914 336.775 64.0352 337.56 63.7227 338.216C63.418 338.865 62.9844 339.408 62.4219 339.845C61.8672 340.275 61.2148 340.619 60.4648 340.876L59.3516 341.462H53.8203L53.7969 338.72H57.9102C58.5273 338.72 59.0391 338.611 59.4453 338.392C59.8516 338.173 60.1562 337.869 60.3594 337.478C60.5703 337.087 60.6758 336.634 60.6758 336.119C60.6758 335.572 60.5742 335.099 60.3711 334.701C60.168 334.302 59.8594 333.997 59.4453 333.786C59.0312 333.576 58.5117 333.47 57.8867 333.47H55.0391V347.779H51.5234V330.716ZM61.0625 347.779L57.1719 340.173L60.8867 340.15L64.8242 347.615V347.779H61.0625ZM72.5234 348.013C71.5391 348.013 70.6562 347.857 69.875 347.544C69.0938 347.224 68.4297 346.783 67.8828 346.22C67.3438 345.658 66.9297 345.005 66.6406 344.263C66.3516 343.513 66.207 342.716 66.207 341.872V341.404C66.207 340.443 66.3438 339.564 66.6172 338.767C66.8906 337.97 67.2812 337.279 67.7891 336.693C68.3047 336.107 68.9297 335.658 69.6641 335.345C70.3984 335.025 71.2266 334.865 72.1484 334.865C73.0469 334.865 73.8438 335.013 74.5391 335.31C75.2344 335.607 75.8164 336.029 76.2852 336.576C76.7617 337.122 77.1211 337.779 77.3633 338.544C77.6055 339.302 77.7266 340.146 77.7266 341.076V342.482H67.6484V340.232H74.4102V339.974C74.4102 339.505 74.3242 339.087 74.1523 338.72C73.9883 338.345 73.7383 338.048 73.4023 337.829C73.0664 337.611 72.6367 337.501 72.1133 337.501C71.668 337.501 71.2852 337.599 70.9648 337.794C70.6445 337.99 70.3828 338.263 70.1797 338.615C69.9844 338.966 69.8359 339.38 69.7344 339.857C69.6406 340.326 69.5938 340.841 69.5938 341.404V341.872C69.5938 342.38 69.6641 342.849 69.8047 343.279C69.9531 343.708 70.1602 344.079 70.4258 344.392C70.6992 344.704 71.0273 344.947 71.4102 345.119C71.8008 345.29 72.2422 345.376 72.7344 345.376C73.3438 345.376 73.9102 345.259 74.4336 345.025C74.9648 344.783 75.4219 344.419 75.8047 343.935L77.4453 345.716C77.1797 346.099 76.8164 346.466 76.3555 346.818C75.9023 347.169 75.3555 347.458 74.7148 347.685C74.0742 347.904 73.3438 348.013 72.5234 348.013ZM83.9492 347.779H80.5508V333.974C80.5508 333.013 80.7383 332.204 81.1133 331.548C81.4961 330.884 82.0312 330.384 82.7188 330.048C83.4141 329.704 84.2383 329.533 85.1914 329.533C85.5039 329.533 85.8047 329.556 86.0938 329.603C86.3828 329.642 86.6641 329.693 86.9375 329.755L86.9023 332.298C86.7539 332.259 86.5977 332.232 86.4336 332.216C86.2695 332.201 86.0781 332.193 85.8594 332.193C85.4531 332.193 85.1055 332.263 84.8164 332.404C84.5352 332.536 84.3203 332.736 84.1719 333.001C84.0234 333.267 83.9492 333.591 83.9492 333.974V347.779ZM86.4805 335.099V337.49H78.6641V335.099H86.4805ZM93.8047 348.013C92.8203 348.013 91.9375 347.857 91.1562 347.544C90.375 347.224 89.7109 346.783 89.1641 346.22C88.625 345.658 88.2109 345.005 87.9219 344.263C87.6328 343.513 87.4883 342.716 87.4883 341.872V341.404C87.4883 340.443 87.625 339.564 87.8984 338.767C88.1719 337.97 88.5625 337.279 89.0703 336.693C89.5859 336.107 90.2109 335.658 90.9453 335.345C91.6797 335.025 92.5078 334.865 93.4297 334.865C94.3281 334.865 95.125 335.013 95.8203 335.31C96.5156 335.607 97.0977 336.029 97.5664 336.576C98.043 337.122 98.4023 337.779 98.6445 338.544C98.8867 339.302 99.0078 340.146 99.0078 341.076V342.482H88.9297V340.232H95.6914V339.974C95.6914 339.505 95.6055 339.087 95.4336 338.72C95.2695 338.345 95.0195 338.048 94.6836 337.829C94.3477 337.611 93.918 337.501 93.3945 337.501C92.9492 337.501 92.5664 337.599 92.2461 337.794C91.9258 337.99 91.6641 338.263 91.4609 338.615C91.2656 338.966 91.1172 339.38 91.0156 339.857C90.9219 340.326 90.875 340.841 90.875 341.404V341.872C90.875 342.38 90.9453 342.849 91.0859 343.279C91.2344 343.708 91.4414 344.079 91.707 344.392C91.9805 344.704 92.3086 344.947 92.6914 345.119C93.082 345.29 93.5234 345.376 94.0156 345.376C94.625 345.376 95.1914 345.259 95.7148 345.025C96.2461 344.783 96.7031 344.419 97.0859 343.935L98.7266 345.716C98.4609 346.099 98.0977 346.466 97.6367 346.818C97.1836 347.169 96.6367 347.458 95.9961 347.685C95.3555 347.904 94.625 348.013 93.8047 348.013ZM104.305 337.865V347.779H100.93V335.099H104.105L104.305 337.865ZM108.125 335.017L108.066 338.146C107.902 338.122 107.703 338.103 107.469 338.087C107.242 338.064 107.035 338.052 106.848 338.052C106.371 338.052 105.957 338.115 105.605 338.24C105.262 338.357 104.973 338.533 104.738 338.767C104.512 339.001 104.34 339.286 104.223 339.622C104.113 339.958 104.051 340.341 104.035 340.771L103.355 340.56C103.355 339.74 103.438 338.986 103.602 338.298C103.766 337.603 104.004 336.997 104.316 336.482C104.637 335.966 105.027 335.568 105.488 335.286C105.949 335.005 106.477 334.865 107.07 334.865C107.258 334.865 107.449 334.88 107.645 334.911C107.84 334.935 108 334.97 108.125 335.017ZM118.379 338.65L121.66 336.529C122.145 336.208 122.469 335.9 122.633 335.603C122.797 335.306 122.879 334.974 122.879 334.607C122.879 334.24 122.742 333.9 122.469 333.587C122.195 333.267 121.812 333.107 121.32 333.107C120.969 333.107 120.672 333.189 120.43 333.353C120.188 333.509 120.004 333.72 119.879 333.986C119.762 334.251 119.703 334.548 119.703 334.876C119.703 335.228 119.797 335.587 119.984 335.954C120.172 336.314 120.426 336.697 120.746 337.103C121.066 337.501 121.422 337.935 121.812 338.404L129.863 347.779H126.031L119.469 340.185C118.914 339.497 118.43 338.869 118.016 338.298C117.602 337.72 117.277 337.158 117.043 336.611C116.809 336.064 116.691 335.501 116.691 334.923C116.691 334.033 116.883 333.255 117.266 332.591C117.648 331.919 118.188 331.4 118.883 331.033C119.578 330.658 120.395 330.47 121.332 330.47C122.215 330.47 122.98 330.654 123.629 331.021C124.277 331.38 124.777 331.857 125.129 332.451C125.488 333.044 125.668 333.697 125.668 334.408C125.668 334.939 125.57 335.431 125.375 335.884C125.18 336.329 124.91 336.744 124.566 337.126C124.223 337.501 123.828 337.849 123.383 338.169L119.645 340.829C119.355 341.095 119.137 341.357 118.988 341.615C118.84 341.872 118.738 342.119 118.684 342.353C118.629 342.579 118.602 342.798 118.602 343.009C118.602 343.462 118.699 343.869 118.895 344.228C119.09 344.587 119.363 344.869 119.715 345.072C120.066 345.275 120.477 345.376 120.945 345.376C121.586 345.376 122.207 345.236 122.809 344.954C123.41 344.673 123.949 344.271 124.426 343.747C124.902 343.216 125.281 342.587 125.562 341.861C125.844 341.134 125.984 340.333 125.984 339.458H128.844C128.844 340.333 128.758 341.165 128.586 341.954C128.414 342.736 128.137 343.462 127.754 344.134C127.371 344.798 126.863 345.388 126.23 345.904C126.184 345.943 126.117 346.001 126.031 346.079C125.953 346.15 125.887 346.204 125.832 346.244C125.082 346.845 124.301 347.294 123.488 347.591C122.676 347.88 121.77 348.025 120.77 348.025C119.629 348.025 118.641 347.818 117.805 347.404C116.977 346.99 116.336 346.419 115.883 345.693C115.438 344.966 115.215 344.134 115.215 343.197C115.215 342.509 115.348 341.911 115.613 341.404C115.887 340.888 116.262 340.411 116.738 339.974C117.215 339.536 117.762 339.095 118.379 338.65ZM149.129 345.036V347.779H140.047V345.036H149.129ZM141.195 330.716V347.779H137.68V330.716H141.195ZM147.945 337.665V340.337H140.047V337.665H147.945ZM149.117 330.716V333.47H140.047V330.716H149.117ZM157.812 344.919V339.271C157.812 338.865 157.746 338.517 157.613 338.228C157.48 337.931 157.273 337.701 156.992 337.536C156.719 337.372 156.363 337.29 155.926 337.29C155.551 337.29 155.227 337.357 154.953 337.49C154.68 337.615 154.469 337.798 154.32 338.04C154.172 338.275 154.098 338.552 154.098 338.872H150.723C150.723 338.333 150.848 337.822 151.098 337.337C151.348 336.853 151.711 336.427 152.188 336.06C152.664 335.685 153.23 335.392 153.887 335.181C154.551 334.97 155.293 334.865 156.113 334.865C157.098 334.865 157.973 335.029 158.738 335.357C159.504 335.685 160.105 336.177 160.543 336.833C160.988 337.49 161.211 338.31 161.211 339.294V344.72C161.211 345.415 161.254 345.986 161.34 346.431C161.426 346.869 161.551 347.251 161.715 347.579V347.779H158.305C158.141 347.435 158.016 347.005 157.93 346.49C157.852 345.966 157.812 345.443 157.812 344.919ZM158.258 340.056L158.281 341.966H156.395C155.949 341.966 155.562 342.017 155.234 342.119C154.906 342.22 154.637 342.365 154.426 342.552C154.215 342.732 154.059 342.943 153.957 343.185C153.863 343.427 153.816 343.693 153.816 343.982C153.816 344.271 153.883 344.533 154.016 344.767C154.148 344.994 154.34 345.173 154.59 345.306C154.84 345.431 155.133 345.494 155.469 345.494C155.977 345.494 156.418 345.392 156.793 345.189C157.168 344.986 157.457 344.736 157.66 344.439C157.871 344.142 157.98 343.861 157.988 343.595L158.879 345.025C158.754 345.345 158.582 345.677 158.363 346.021C158.152 346.365 157.883 346.689 157.555 346.994C157.227 347.29 156.832 347.536 156.371 347.732C155.91 347.919 155.363 348.013 154.73 348.013C153.926 348.013 153.195 347.853 152.539 347.533C151.891 347.204 151.375 346.755 150.992 346.185C150.617 345.607 150.43 344.951 150.43 344.216C150.43 343.552 150.555 342.962 150.805 342.447C151.055 341.931 151.422 341.497 151.906 341.146C152.398 340.786 153.012 340.517 153.746 340.337C154.48 340.15 155.332 340.056 156.301 340.056H158.258ZM167.188 337.865V347.779H163.812V335.099H166.988L167.188 337.865ZM171.008 335.017L170.949 338.146C170.785 338.122 170.586 338.103 170.352 338.087C170.125 338.064 169.918 338.052 169.73 338.052C169.254 338.052 168.84 338.115 168.488 338.24C168.145 338.357 167.855 338.533 167.621 338.767C167.395 339.001 167.223 339.286 167.105 339.622C166.996 339.958 166.934 340.341 166.918 340.771L166.238 340.56C166.238 339.74 166.32 338.986 166.484 338.298C166.648 337.603 166.887 336.997 167.199 336.482C167.52 335.966 167.91 335.568 168.371 335.286C168.832 335.005 169.359 334.865 169.953 334.865C170.141 334.865 170.332 334.88 170.527 334.911C170.723 334.935 170.883 334.97 171.008 335.017ZM175.906 337.806V347.779H172.531V335.099H175.695L175.906 337.806ZM175.414 340.994H174.5C174.5 340.056 174.621 339.212 174.863 338.462C175.105 337.704 175.445 337.06 175.883 336.529C176.32 335.99 176.84 335.579 177.441 335.298C178.051 335.009 178.73 334.865 179.48 334.865C180.074 334.865 180.617 334.951 181.109 335.122C181.602 335.294 182.023 335.568 182.375 335.943C182.734 336.318 183.008 336.814 183.195 337.431C183.391 338.048 183.488 338.802 183.488 339.693V347.779H180.09V339.681C180.09 339.119 180.012 338.681 179.855 338.369C179.699 338.056 179.469 337.837 179.164 337.712C178.867 337.579 178.5 337.513 178.062 337.513C177.609 337.513 177.215 337.603 176.879 337.783C176.551 337.962 176.277 338.212 176.059 338.533C175.848 338.845 175.688 339.212 175.578 339.634C175.469 340.056 175.414 340.509 175.414 340.994Z" fill="white"/>
<rect x="13" y="328.555" width="22.4466" height="22.4466" rx="11.2233" fill="#D6EB3D"/>
<path d="M28.7034 336.418L22.5434 342.578L19.7434 339.778" stroke="#4E3BE5" stroke-width="2" stroke-linecap="round" stroke-linejoin="round"/>
<path d="M65.1172 238.708V239.786C65.1172 241.068 64.957 242.216 64.6367 243.232C64.3164 244.247 63.8555 245.111 63.2539 245.822C62.6523 246.533 61.9297 247.076 61.0859 247.451C60.25 247.826 59.3125 248.013 58.2734 248.013C57.2656 248.013 56.3398 247.826 55.4961 247.451C54.6602 247.076 53.9336 246.533 53.3164 245.822C52.707 245.111 52.2344 244.247 51.8984 243.232C51.5625 242.216 51.3945 241.068 51.3945 239.786V238.708C51.3945 237.427 51.5586 236.283 51.8867 235.275C52.2227 234.259 52.6953 233.396 53.3047 232.685C53.9141 231.966 54.6367 231.419 55.4727 231.044C56.3164 230.669 57.2422 230.482 58.25 230.482C59.2891 230.482 60.2266 230.669 61.0625 231.044C61.9062 231.419 62.6289 231.966 63.2305 232.685C63.8398 233.396 64.3047 234.259 64.625 235.275C64.9531 236.283 65.1172 237.427 65.1172 238.708ZM62.8789 239.786V238.685C62.8789 237.669 62.7734 236.771 62.5625 235.99C62.3594 235.208 62.0586 234.552 61.6602 234.021C61.2617 233.49 60.7734 233.087 60.1953 232.814C59.625 232.54 58.9766 232.404 58.25 232.404C57.5469 232.404 56.9102 232.54 56.3398 232.814C55.7773 233.087 55.293 233.49 54.8867 234.021C54.4883 234.552 54.1797 235.208 53.9609 235.99C53.7422 236.771 53.6328 237.669 53.6328 238.685V239.786C53.6328 240.81 53.7422 241.716 53.9609 242.505C54.1797 243.286 54.4922 243.947 54.8984 244.486C55.3125 245.017 55.8008 245.419 56.3633 245.693C56.9336 245.966 57.5703 246.103 58.2734 246.103C59.0078 246.103 59.6602 245.966 60.2305 245.693C60.8008 245.419 61.2812 245.017 61.6719 244.486C62.0703 243.947 62.3711 243.286 62.5742 242.505C62.7773 241.716 62.8789 240.81 62.8789 239.786ZM72.0312 245.822L75.5 235.099H77.7148L73.1562 247.779H71.7031L72.0312 245.822ZM69.1367 235.099L72.7109 245.88L72.957 247.779H71.5039L66.9102 235.099H69.1367ZM84.8984 248.013C84.0156 248.013 83.2148 247.865 82.4961 247.568C81.7852 247.263 81.1719 246.837 80.6562 246.29C80.1484 245.744 79.7578 245.095 79.4844 244.345C79.2109 243.595 79.0742 242.775 79.0742 241.884V241.392C79.0742 240.361 79.2266 239.443 79.5312 238.638C79.8359 237.826 80.25 237.138 80.7734 236.576C81.2969 236.013 81.8906 235.587 82.5547 235.298C83.2188 235.009 83.9062 234.865 84.6172 234.865C85.5234 234.865 86.3047 235.021 86.9609 235.333C87.625 235.646 88.168 236.083 88.5898 236.646C89.0117 237.201 89.3242 237.857 89.5273 238.615C89.7305 239.365 89.832 240.185 89.832 241.076V242.048H80.3633V240.279H87.6641V240.115C87.6328 239.552 87.5156 239.005 87.3125 238.474C87.1172 237.943 86.8047 237.505 86.375 237.161C85.9453 236.818 85.3594 236.646 84.6172 236.646C84.125 236.646 83.6719 236.751 83.2578 236.962C82.8438 237.165 82.4883 237.47 82.1914 237.876C81.8945 238.283 81.6641 238.779 81.5 239.365C81.3359 239.951 81.2539 240.626 81.2539 241.392V241.884C81.2539 242.486 81.3359 243.052 81.5 243.583C81.6719 244.107 81.918 244.568 82.2383 244.966C82.5664 245.365 82.9609 245.677 83.4219 245.904C83.8906 246.13 84.4219 246.244 85.0156 246.244C85.7812 246.244 86.4297 246.087 86.9609 245.775C87.4922 245.462 87.957 245.044 88.3555 244.521L89.668 245.564C89.3945 245.978 89.0469 246.372 88.625 246.747C88.2031 247.122 87.6836 247.427 87.0664 247.661C86.457 247.896 85.7344 248.013 84.8984 248.013ZM94.5312 237.091V247.779H92.3633V235.099H94.4727L94.5312 237.091ZM98.4922 235.029L98.4805 237.044C98.3008 237.005 98.1289 236.982 97.9648 236.974C97.8086 236.958 97.6289 236.951 97.4258 236.951C96.9258 236.951 96.4844 237.029 96.1016 237.185C95.7188 237.341 95.3945 237.56 95.1289 237.841C94.8633 238.122 94.6523 238.458 94.4961 238.849C94.3477 239.232 94.25 239.654 94.2031 240.115L93.5938 240.466C93.5938 239.701 93.668 238.982 93.8164 238.31C93.9727 237.638 94.2109 237.044 94.5312 236.529C94.8516 236.005 95.2578 235.599 95.75 235.31C96.25 235.013 96.8438 234.865 97.5312 234.865C97.6875 234.865 97.8672 234.884 98.0703 234.923C98.2734 234.954 98.4141 234.99 98.4922 235.029ZM114.219 230.681V247.779H110.844V234.572L106.789 235.861V233.201L113.855 230.681H114.219ZM122.949 240.009L120.254 239.365L121.227 230.716H130.812V233.447H124.004L123.582 237.232C123.809 237.099 124.152 236.958 124.613 236.81C125.074 236.654 125.59 236.576 126.16 236.576C126.988 236.576 127.723 236.704 128.363 236.962C129.004 237.22 129.547 237.595 129.992 238.087C130.445 238.579 130.789 239.181 131.023 239.892C131.258 240.603 131.375 241.408 131.375 242.306C131.375 243.064 131.258 243.786 131.023 244.474C130.789 245.154 130.434 245.763 129.957 246.302C129.48 246.833 128.883 247.251 128.164 247.556C127.445 247.861 126.594 248.013 125.609 248.013C124.875 248.013 124.164 247.904 123.477 247.685C122.797 247.466 122.184 247.142 121.637 246.712C121.098 246.283 120.664 245.763 120.336 245.154C120.016 244.536 119.848 243.833 119.832 243.044H123.184C123.23 243.529 123.355 243.947 123.559 244.298C123.77 244.642 124.047 244.908 124.391 245.095C124.734 245.283 125.137 245.376 125.598 245.376C126.027 245.376 126.395 245.294 126.699 245.13C127.004 244.966 127.25 244.74 127.438 244.451C127.625 244.154 127.762 243.81 127.848 243.419C127.941 243.021 127.988 242.591 127.988 242.13C127.988 241.669 127.934 241.251 127.824 240.876C127.715 240.501 127.547 240.177 127.32 239.904C127.094 239.63 126.805 239.419 126.453 239.271C126.109 239.122 125.707 239.048 125.246 239.048C124.621 239.048 124.137 239.146 123.793 239.341C123.457 239.536 123.176 239.759 122.949 240.009ZM149.773 242.119H153.277C153.207 243.267 152.891 244.286 152.328 245.177C151.773 246.068 150.996 246.763 149.996 247.263C149.004 247.763 147.809 248.013 146.41 248.013C145.316 248.013 144.336 247.826 143.469 247.451C142.602 247.068 141.859 246.521 141.242 245.81C140.633 245.099 140.168 244.24 139.848 243.232C139.527 242.224 139.367 241.095 139.367 239.845V238.661C139.367 237.411 139.531 236.283 139.859 235.275C140.195 234.259 140.672 233.396 141.289 232.685C141.914 231.974 142.66 231.427 143.527 231.044C144.395 230.661 145.363 230.47 146.434 230.47C147.855 230.47 149.055 230.728 150.031 231.244C151.016 231.759 151.777 232.47 152.316 233.376C152.863 234.283 153.191 235.314 153.301 236.47H149.785C149.746 235.783 149.609 235.201 149.375 234.724C149.141 234.24 148.785 233.876 148.309 233.634C147.84 233.384 147.215 233.259 146.434 233.259C145.848 233.259 145.336 233.369 144.898 233.587C144.461 233.806 144.094 234.138 143.797 234.583C143.5 235.029 143.277 235.591 143.129 236.271C142.988 236.943 142.918 237.732 142.918 238.638V239.845C142.918 240.728 142.984 241.505 143.117 242.177C143.25 242.841 143.453 243.404 143.727 243.865C144.008 244.318 144.367 244.661 144.805 244.896C145.25 245.122 145.785 245.236 146.41 245.236C147.145 245.236 147.75 245.119 148.227 244.884C148.703 244.65 149.066 244.302 149.316 243.841C149.574 243.38 149.727 242.806 149.773 242.119ZM158.75 237.865V247.779H155.375V235.099H158.551L158.75 237.865ZM162.57 235.017L162.512 238.146C162.348 238.122 162.148 238.103 161.914 238.087C161.688 238.064 161.48 238.052 161.293 238.052C160.816 238.052 160.402 238.115 160.051 238.24C159.707 238.357 159.418 238.533 159.184 238.767C158.957 239.001 158.785 239.286 158.668 239.622C158.559 239.958 158.496 240.341 158.48 240.771L157.801 240.56C157.801 239.74 157.883 238.986 158.047 238.298C158.211 237.603 158.449 236.997 158.762 236.482C159.082 235.966 159.473 235.568 159.934 235.286C160.395 235.005 160.922 234.865 161.516 234.865C161.703 234.865 161.895 234.88 162.09 234.911C162.285 234.935 162.445 234.97 162.57 235.017ZM163.273 241.568V241.322C163.273 240.392 163.406 239.536 163.672 238.755C163.938 237.966 164.324 237.283 164.832 236.704C165.34 236.126 165.965 235.677 166.707 235.357C167.449 235.029 168.301 234.865 169.262 234.865C170.223 234.865 171.078 235.029 171.828 235.357C172.578 235.677 173.207 236.126 173.715 236.704C174.23 237.283 174.621 237.966 174.887 238.755C175.152 239.536 175.285 240.392 175.285 241.322V241.568C175.285 242.49 175.152 243.345 174.887 244.134C174.621 244.915 174.23 245.599 173.715 246.185C173.207 246.763 172.582 247.212 171.84 247.533C171.098 247.853 170.246 248.013 169.285 248.013C168.324 248.013 167.469 247.853 166.719 247.533C165.977 247.212 165.348 246.763 164.832 246.185C164.324 245.599 163.938 244.915 163.672 244.134C163.406 243.345 163.273 242.49 163.273 241.568ZM166.648 241.322V241.568C166.648 242.099 166.695 242.595 166.789 243.056C166.883 243.517 167.031 243.923 167.234 244.275C167.445 244.619 167.719 244.888 168.055 245.083C168.391 245.279 168.801 245.376 169.285 245.376C169.754 245.376 170.156 245.279 170.492 245.083C170.828 244.888 171.098 244.619 171.301 244.275C171.504 243.923 171.652 243.517 171.746 243.056C171.848 242.595 171.898 242.099 171.898 241.568V241.322C171.898 240.806 171.848 240.322 171.746 239.869C171.652 239.408 171.5 239.001 171.289 238.65C171.086 238.29 170.816 238.009 170.48 237.806C170.145 237.603 169.738 237.501 169.262 237.501C168.785 237.501 168.379 237.603 168.043 237.806C167.715 238.009 167.445 238.29 167.234 238.65C167.031 239.001 166.883 239.408 166.789 239.869C166.695 240.322 166.648 240.806 166.648 241.322ZM180.734 237.865V247.779H177.359V235.099H180.535L180.734 237.865ZM184.555 235.017L184.496 238.146C184.332 238.122 184.133 238.103 183.898 238.087C183.672 238.064 183.465 238.052 183.277 238.052C182.801 238.052 182.387 238.115 182.035 238.24C181.691 238.357 181.402 238.533 181.168 238.767C180.941 239.001 180.77 239.286 180.652 239.622C180.543 239.958 180.48 240.341 180.465 240.771L179.785 240.56C179.785 239.74 179.867 238.986 180.031 238.298C180.195 237.603 180.434 236.997 180.746 236.482C181.066 235.966 181.457 235.568 181.918 235.286C182.379 235.005 182.906 234.865 183.5 234.865C183.688 234.865 183.879 234.88 184.074 234.911C184.27 234.935 184.43 234.97 184.555 235.017ZM191.75 248.013C190.766 248.013 189.883 247.857 189.102 247.544C188.32 247.224 187.656 246.783 187.109 246.22C186.57 245.658 186.156 245.005 185.867 244.263C185.578 243.513 185.434 242.716 185.434 241.872V241.404C185.434 240.443 185.57 239.564 185.844 238.767C186.117 237.97 186.508 237.279 187.016 236.693C187.531 236.107 188.156 235.658 188.891 235.345C189.625 235.025 190.453 234.865 191.375 234.865C192.273 234.865 193.07 235.013 193.766 235.31C194.461 235.607 195.043 236.029 195.512 236.576C195.988 237.122 196.348 237.779 196.59 238.544C196.832 239.302 196.953 240.146 196.953 241.076V242.482H186.875V240.232H193.637V239.974C193.637 239.505 193.551 239.087 193.379 238.72C193.215 238.345 192.965 238.048 192.629 237.829C192.293 237.611 191.863 237.501 191.34 237.501C190.895 237.501 190.512 237.599 190.191 237.794C189.871 237.99 189.609 238.263 189.406 238.615C189.211 238.966 189.062 239.38 188.961 239.857C188.867 240.326 188.82 240.841 188.82 241.404V241.872C188.82 242.38 188.891 242.849 189.031 243.279C189.18 243.708 189.387 244.079 189.652 244.392C189.926 244.704 190.254 244.947 190.637 245.119C191.027 245.29 191.469 245.376 191.961 245.376C192.57 245.376 193.137 245.259 193.66 245.025C194.191 244.783 194.648 244.419 195.031 243.935L196.672 245.716C196.406 246.099 196.043 246.466 195.582 246.818C195.129 247.169 194.582 247.458 193.941 247.685C193.301 247.904 192.57 248.013 191.75 248.013ZM209.914 238.275V241.216H198.219V238.275H209.914ZM205.672 233.646V246.068H202.473V233.646H205.672ZM229.109 245.036V247.779H220.52V245.036H229.109ZM221.656 230.716V247.779H218.141V230.716H221.656ZM234.477 235.099V247.779H231.09V235.099H234.477ZM230.879 231.794C230.879 231.302 231.051 230.896 231.395 230.576C231.738 230.255 232.199 230.095 232.777 230.095C233.348 230.095 233.805 230.255 234.148 230.576C234.5 230.896 234.676 231.302 234.676 231.794C234.676 232.286 234.5 232.693 234.148 233.013C233.805 233.333 233.348 233.494 232.777 233.494C232.199 233.494 231.738 233.333 231.395 233.013C231.051 232.693 230.879 232.286 230.879 231.794ZM244.121 244.275C244.121 244.033 244.051 243.814 243.91 243.619C243.77 243.423 243.508 243.244 243.125 243.079C242.75 242.908 242.207 242.751 241.496 242.611C240.855 242.47 240.258 242.294 239.703 242.083C239.156 241.865 238.68 241.603 238.273 241.298C237.875 240.994 237.562 240.634 237.336 240.22C237.109 239.798 236.996 239.318 236.996 238.779C236.996 238.247 237.109 237.747 237.336 237.279C237.57 236.81 237.902 236.396 238.332 236.036C238.77 235.669 239.301 235.384 239.926 235.181C240.559 234.97 241.27 234.865 242.059 234.865C243.16 234.865 244.105 235.04 244.895 235.392C245.691 235.744 246.301 236.228 246.723 236.845C247.152 237.454 247.367 238.15 247.367 238.931H243.992C243.992 238.603 243.922 238.31 243.781 238.052C243.648 237.786 243.438 237.579 243.148 237.431C242.867 237.275 242.5 237.197 242.047 237.197C241.672 237.197 241.348 237.263 241.074 237.396C240.801 237.521 240.59 237.693 240.441 237.911C240.301 238.122 240.23 238.357 240.23 238.615C240.23 238.81 240.27 238.986 240.348 239.142C240.434 239.29 240.57 239.427 240.758 239.552C240.945 239.677 241.188 239.794 241.484 239.904C241.789 240.005 242.164 240.099 242.609 240.185C243.523 240.372 244.34 240.619 245.059 240.923C245.777 241.22 246.348 241.626 246.77 242.142C247.191 242.65 247.402 243.318 247.402 244.146C247.402 244.708 247.277 245.224 247.027 245.693C246.777 246.161 246.418 246.572 245.949 246.923C245.48 247.267 244.918 247.536 244.262 247.732C243.613 247.919 242.883 248.013 242.07 248.013C240.891 248.013 239.891 247.802 239.07 247.38C238.258 246.958 237.641 246.423 237.219 245.775C236.805 245.119 236.598 244.447 236.598 243.759H239.797C239.812 244.22 239.93 244.591 240.148 244.872C240.375 245.154 240.66 245.357 241.004 245.482C241.355 245.607 241.734 245.669 242.141 245.669C242.578 245.669 242.941 245.611 243.23 245.494C243.52 245.369 243.738 245.204 243.887 245.001C244.043 244.79 244.121 244.548 244.121 244.275ZM255.805 235.099V237.49H248.422V235.099H255.805ZM250.25 231.97H253.625V243.958C253.625 244.326 253.672 244.607 253.766 244.802C253.867 244.997 254.016 245.134 254.211 245.212C254.406 245.283 254.652 245.318 254.949 245.318C255.16 245.318 255.348 245.31 255.512 245.294C255.684 245.271 255.828 245.247 255.945 245.224L255.957 247.708C255.668 247.802 255.355 247.876 255.02 247.931C254.684 247.986 254.312 248.013 253.906 248.013C253.164 248.013 252.516 247.892 251.961 247.65C251.414 247.4 250.992 247.001 250.695 246.454C250.398 245.908 250.25 245.189 250.25 244.298V231.97ZM261.289 235.099V247.779H257.902V235.099H261.289ZM257.691 231.794C257.691 231.302 257.863 230.896 258.207 230.576C258.551 230.255 259.012 230.095 259.59 230.095C260.16 230.095 260.617 230.255 260.961 230.576C261.312 230.896 261.488 231.302 261.488 231.794C261.488 232.286 261.312 232.693 260.961 233.013C260.617 233.333 260.16 233.494 259.59 233.494C259.012 233.494 258.551 233.333 258.207 233.013C257.863 232.693 257.691 232.286 257.691 231.794ZM267.383 237.806V247.779H264.008V235.099H267.172L267.383 237.806ZM266.891 240.994H265.977C265.977 240.056 266.098 239.212 266.34 238.462C266.582 237.704 266.922 237.06 267.359 236.529C267.797 235.99 268.316 235.579 268.918 235.298C269.527 235.009 270.207 234.865 270.957 234.865C271.551 234.865 272.094 234.951 272.586 235.122C273.078 235.294 273.5 235.568 273.852 235.943C274.211 236.318 274.484 236.814 274.672 237.431C274.867 238.048 274.965 238.802 274.965 239.693V247.779H271.566V239.681C271.566 239.119 271.488 238.681 271.332 238.369C271.176 238.056 270.945 237.837 270.641 237.712C270.344 237.579 269.977 237.513 269.539 237.513C269.086 237.513 268.691 237.603 268.355 237.783C268.027 237.962 267.754 238.212 267.535 238.533C267.324 238.845 267.164 239.212 267.055 239.634C266.945 240.056 266.891 240.509 266.891 240.994ZM285.559 235.099H288.617V247.357C288.617 248.513 288.359 249.494 287.844 250.298C287.336 251.111 286.625 251.724 285.711 252.138C284.797 252.56 283.734 252.771 282.523 252.771C281.992 252.771 281.43 252.701 280.836 252.56C280.25 252.419 279.688 252.201 279.148 251.904C278.617 251.607 278.172 251.232 277.812 250.779L279.301 248.786C279.691 249.24 280.145 249.591 280.66 249.841C281.176 250.099 281.746 250.228 282.371 250.228C282.98 250.228 283.496 250.115 283.918 249.888C284.34 249.669 284.664 249.345 284.891 248.915C285.117 248.494 285.23 247.982 285.23 247.38V238.029L285.559 235.099ZM277.027 241.591V241.345C277.027 240.376 277.145 239.497 277.379 238.708C277.621 237.911 277.961 237.228 278.398 236.658C278.844 236.087 279.383 235.646 280.016 235.333C280.648 235.021 281.363 234.865 282.16 234.865C283.004 234.865 283.711 235.021 284.281 235.333C284.852 235.646 285.32 236.091 285.688 236.669C286.055 237.24 286.34 237.915 286.543 238.697C286.754 239.47 286.918 240.318 287.035 241.24V241.779C286.918 242.661 286.742 243.482 286.508 244.24C286.273 244.997 285.965 245.661 285.582 246.232C285.199 246.794 284.723 247.232 284.152 247.544C283.59 247.857 282.918 248.013 282.137 248.013C281.355 248.013 280.648 247.853 280.016 247.533C279.391 247.212 278.855 246.763 278.41 246.185C277.965 245.607 277.621 244.927 277.379 244.146C277.145 243.365 277.027 242.513 277.027 241.591ZM280.402 241.345V241.591C280.402 242.115 280.453 242.603 280.555 243.056C280.656 243.509 280.812 243.911 281.023 244.263C281.242 244.607 281.512 244.876 281.832 245.072C282.16 245.259 282.547 245.353 282.992 245.353C283.609 245.353 284.113 245.224 284.504 244.966C284.895 244.701 285.188 244.337 285.383 243.876C285.578 243.415 285.691 242.884 285.723 242.283V240.747C285.707 240.255 285.641 239.814 285.523 239.423C285.406 239.025 285.242 238.685 285.031 238.404C284.82 238.122 284.547 237.904 284.211 237.747C283.875 237.591 283.477 237.513 283.016 237.513C282.57 237.513 282.184 237.615 281.855 237.818C281.535 238.013 281.266 238.283 281.047 238.626C280.836 238.97 280.676 239.376 280.566 239.845C280.457 240.306 280.402 240.806 280.402 241.345ZM298.098 244.275C298.098 244.033 298.027 243.814 297.887 243.619C297.746 243.423 297.484 243.244 297.102 243.079C296.727 242.908 296.184 242.751 295.473 242.611C294.832 242.47 294.234 242.294 293.68 242.083C293.133 241.865 292.656 241.603 292.25 241.298C291.852 240.994 291.539 240.634 291.312 240.22C291.086 239.798 290.973 239.318 290.973 238.779C290.973 238.247 291.086 237.747 291.312 237.279C291.547 236.81 291.879 236.396 292.309 236.036C292.746 235.669 293.277 235.384 293.902 235.181C294.535 234.97 295.246 234.865 296.035 234.865C297.137 234.865 298.082 235.04 298.871 235.392C299.668 235.744 300.277 236.228 300.699 236.845C301.129 237.454 301.344 238.15 301.344 238.931H297.969C297.969 238.603 297.898 238.31 297.758 238.052C297.625 237.786 297.414 237.579 297.125 237.431C296.844 237.275 296.477 237.197 296.023 237.197C295.648 237.197 295.324 237.263 295.051 237.396C294.777 237.521 294.566 237.693 294.418 237.911C294.277 238.122 294.207 238.357 294.207 238.615C294.207 238.81 294.246 238.986 294.324 239.142C294.41 239.29 294.547 239.427 294.734 239.552C294.922 239.677 295.164 239.794 295.461 239.904C295.766 240.005 296.141 240.099 296.586 240.185C297.5 240.372 298.316 240.619 299.035 240.923C299.754 241.22 300.324 241.626 300.746 242.142C301.168 242.65 301.379 243.318 301.379 244.146C301.379 244.708 301.254 245.224 301.004 245.693C300.754 246.161 300.395 246.572 299.926 246.923C299.457 247.267 298.895 247.536 298.238 247.732C297.59 247.919 296.859 248.013 296.047 248.013C294.867 248.013 293.867 247.802 293.047 247.38C292.234 246.958 291.617 246.423 291.195 245.775C290.781 245.119 290.574 244.447 290.574 243.759H293.773C293.789 244.22 293.906 244.591 294.125 244.872C294.352 245.154 294.637 245.357 294.98 245.482C295.332 245.607 295.711 245.669 296.117 245.669C296.555 245.669 296.918 245.611 297.207 245.494C297.496 245.369 297.715 245.204 297.863 245.001C298.02 244.79 298.098 244.548 298.098 244.275Z" fill="white"/>
<rect x="13" y="227.835" width="22.4466" height="22.4466" rx="11.2233" fill="#D6EB3D"/>
<path d="M28.7034 235.699L22.5434 241.859L19.7434 239.059" stroke="#4E3BE5" stroke-width="2" stroke-linecap="round" stroke-linejoin="round"/>
<path d="M61.0742 293.466C61.0742 293.068 61.0117 292.716 60.8867 292.411C60.7695 292.099 60.5586 291.818 60.2539 291.568C59.957 291.318 59.543 291.079 59.0117 290.853C58.4883 290.626 57.8242 290.396 57.0195 290.161C56.1758 289.911 55.4141 289.634 54.7344 289.329C54.0547 289.017 53.4727 288.661 52.9883 288.263C52.5039 287.865 52.1328 287.408 51.875 286.892C51.6172 286.376 51.4883 285.786 51.4883 285.122C51.4883 284.458 51.625 283.845 51.8984 283.283C52.1719 282.72 52.5625 282.232 53.0703 281.818C53.5859 281.396 54.1992 281.068 54.9102 280.833C55.6211 280.599 56.4141 280.482 57.2891 280.482C58.5703 280.482 59.6562 280.728 60.5469 281.22C61.4453 281.704 62.1289 282.341 62.5977 283.13C63.0664 283.911 63.3008 284.747 63.3008 285.638H61.0508C61.0508 284.997 60.9141 284.431 60.6406 283.939C60.3672 283.439 59.9531 283.048 59.3984 282.767C58.8438 282.478 58.1406 282.333 57.2891 282.333C56.4844 282.333 55.8203 282.454 55.2969 282.697C54.7734 282.939 54.3828 283.267 54.125 283.681C53.875 284.095 53.75 284.568 53.75 285.099C53.75 285.458 53.8242 285.786 53.9727 286.083C54.1289 286.372 54.3672 286.642 54.6875 286.892C55.0156 287.142 55.4297 287.372 55.9297 287.583C56.4375 287.794 57.043 287.997 57.7461 288.193C58.7148 288.466 59.5508 288.771 60.2539 289.107C60.957 289.443 61.5352 289.822 61.9883 290.244C62.4492 290.658 62.7891 291.13 63.0078 291.661C63.2344 292.185 63.3477 292.779 63.3477 293.443C63.3477 294.138 63.207 294.767 62.9258 295.329C62.6445 295.892 62.2422 296.372 61.7188 296.771C61.1953 297.169 60.5664 297.478 59.832 297.697C59.1055 297.908 58.293 298.013 57.3945 298.013C56.6055 298.013 55.8281 297.904 55.0625 297.685C54.3047 297.466 53.6133 297.138 52.9883 296.701C52.3711 296.263 51.875 295.724 51.5 295.083C51.1328 294.435 50.9492 293.685 50.9492 292.833H53.1992C53.1992 293.419 53.3125 293.923 53.5391 294.345C53.7656 294.759 54.0742 295.103 54.4648 295.376C54.8633 295.65 55.3125 295.853 55.8125 295.986C56.3203 296.111 56.8477 296.173 57.3945 296.173C58.1836 296.173 58.8516 296.064 59.3984 295.845C59.9453 295.626 60.3594 295.314 60.6406 294.908C60.9297 294.501 61.0742 294.021 61.0742 293.466ZM73.6602 294.849V285.099H75.8398V297.779H73.7656L73.6602 294.849ZM74.0703 292.177L74.9727 292.154C74.9727 292.997 74.8828 293.779 74.7031 294.497C74.5312 295.208 74.25 295.826 73.8594 296.349C73.4688 296.872 72.957 297.283 72.3242 297.579C71.6914 297.869 70.9219 298.013 70.0156 298.013C69.3984 298.013 68.832 297.923 68.3164 297.744C67.8086 297.564 67.3711 297.286 67.0039 296.911C66.6367 296.536 66.3516 296.048 66.1484 295.447C65.9531 294.845 65.8555 294.122 65.8555 293.279V285.099H68.0234V293.302C68.0234 293.872 68.0859 294.345 68.2109 294.72C68.3438 295.087 68.5195 295.38 68.7383 295.599C68.9648 295.81 69.2148 295.958 69.4883 296.044C69.7695 296.13 70.0586 296.173 70.3555 296.173C71.2773 296.173 72.0078 295.997 72.5469 295.646C73.0859 295.286 73.4727 294.806 73.707 294.204C73.9492 293.595 74.0703 292.919 74.0703 292.177ZM81.3125 287.536V302.654H79.1328V285.099H81.125L81.3125 287.536ZM89.8555 291.333V291.579C89.8555 292.501 89.7461 293.357 89.5273 294.146C89.3086 294.927 88.9883 295.607 88.5664 296.185C88.1523 296.763 87.6406 297.212 87.0312 297.533C86.4219 297.853 85.7227 298.013 84.9336 298.013C84.1289 298.013 83.418 297.88 82.8008 297.615C82.1836 297.349 81.6602 296.962 81.2305 296.454C80.8008 295.947 80.457 295.337 80.1992 294.626C79.9492 293.915 79.7773 293.115 79.6836 292.224V290.911C79.7773 289.974 79.9531 289.134 80.2109 288.392C80.4688 287.65 80.8086 287.017 81.2305 286.494C81.6602 285.962 82.1797 285.56 82.7891 285.286C83.3984 285.005 84.1016 284.865 84.8984 284.865C85.6953 284.865 86.4023 285.021 87.0195 285.333C87.6367 285.638 88.1562 286.076 88.5781 286.646C89 287.216 89.3164 287.9 89.5273 288.697C89.7461 289.486 89.8555 290.365 89.8555 291.333ZM87.6758 291.579V291.333C87.6758 290.701 87.6094 290.107 87.4766 289.552C87.3438 288.99 87.1367 288.497 86.8555 288.076C86.582 287.646 86.2305 287.31 85.8008 287.068C85.3711 286.818 84.8594 286.693 84.2656 286.693C83.7188 286.693 83.2422 286.786 82.8359 286.974C82.4375 287.161 82.0977 287.415 81.8164 287.736C81.5352 288.048 81.3047 288.408 81.125 288.814C80.9531 289.212 80.8242 289.626 80.7383 290.056V293.091C80.8945 293.638 81.1133 294.154 81.3945 294.638C81.6758 295.115 82.0508 295.501 82.5195 295.798C82.9883 296.087 83.5781 296.232 84.2891 296.232C84.875 296.232 85.3789 296.111 85.8008 295.869C86.2305 295.619 86.582 295.279 86.8555 294.849C87.1367 294.419 87.3438 293.927 87.4766 293.372C87.6094 292.81 87.6758 292.212 87.6758 291.579ZM97.8828 298.013C97 298.013 96.1992 297.865 95.4805 297.568C94.7695 297.263 94.1562 296.837 93.6406 296.29C93.1328 295.744 92.7422 295.095 92.4688 294.345C92.1953 293.595 92.0586 292.775 92.0586 291.884V291.392C92.0586 290.361 92.2109 289.443 92.5156 288.638C92.8203 287.826 93.2344 287.138 93.7578 286.576C94.2812 286.013 94.875 285.587 95.5391 285.298C96.2031 285.009 96.8906 284.865 97.6016 284.865C98.5078 284.865 99.2891 285.021 99.9453 285.333C100.609 285.646 101.152 286.083 101.574 286.646C101.996 287.201 102.309 287.857 102.512 288.615C102.715 289.365 102.816 290.185 102.816 291.076V292.048H93.3477V290.279H100.648V290.115C100.617 289.552 100.5 289.005 100.297 288.474C100.102 287.943 99.7891 287.505 99.3594 287.161C98.9297 286.818 98.3438 286.646 97.6016 286.646C97.1094 286.646 96.6562 286.751 96.2422 286.962C95.8281 287.165 95.4727 287.47 95.1758 287.876C94.8789 288.283 94.6484 288.779 94.4844 289.365C94.3203 289.951 94.2383 290.626 94.2383 291.392V291.884C94.2383 292.486 94.3203 293.052 94.4844 293.583C94.6562 294.107 94.9023 294.568 95.2227 294.966C95.5508 295.365 95.9453 295.677 96.4062 295.904C96.875 296.13 97.4062 296.244 98 296.244C98.7656 296.244 99.4141 296.087 99.9453 295.775C100.477 295.462 100.941 295.044 101.34 294.521L102.652 295.564C102.379 295.978 102.031 296.372 101.609 296.747C101.188 297.122 100.668 297.427 100.051 297.661C99.4414 297.896 98.7188 298.013 97.8828 298.013ZM107.516 287.091V297.779H105.348V285.099H107.457L107.516 287.091ZM111.477 285.029L111.465 287.044C111.285 287.005 111.113 286.982 110.949 286.974C110.793 286.958 110.613 286.951 110.41 286.951C109.91 286.951 109.469 287.029 109.086 287.185C108.703 287.341 108.379 287.56 108.113 287.841C107.848 288.122 107.637 288.458 107.48 288.849C107.332 289.232 107.234 289.654 107.188 290.115L106.578 290.466C106.578 289.701 106.652 288.982 106.801 288.31C106.957 287.638 107.195 287.044 107.516 286.529C107.836 286.005 108.242 285.599 108.734 285.31C109.234 285.013 109.828 284.865 110.516 284.865C110.672 284.865 110.852 284.884 111.055 284.923C111.258 284.954 111.398 284.99 111.477 285.029ZM130.754 295.036V297.779H121.672V295.036H130.754ZM122.82 280.716V297.779H119.305V280.716H122.82ZM129.57 287.665V290.337H121.672V287.665H129.57ZM130.742 280.716V283.47H121.672V280.716H130.742ZM139.438 294.919V289.271C139.438 288.865 139.371 288.517 139.238 288.228C139.105 287.931 138.898 287.701 138.617 287.536C138.344 287.372 137.988 287.29 137.551 287.29C137.176 287.29 136.852 287.357 136.578 287.49C136.305 287.615 136.094 287.798 135.945 288.04C135.797 288.275 135.723 288.552 135.723 288.872H132.348C132.348 288.333 132.473 287.822 132.723 287.337C132.973 286.853 133.336 286.427 133.812 286.06C134.289 285.685 134.855 285.392 135.512 285.181C136.176 284.97 136.918 284.865 137.738 284.865C138.723 284.865 139.598 285.029 140.363 285.357C141.129 285.685 141.73 286.177 142.168 286.833C142.613 287.49 142.836 288.31 142.836 289.294V294.72C142.836 295.415 142.879 295.986 142.965 296.431C143.051 296.869 143.176 297.251 143.34 297.579V297.779H139.93C139.766 297.435 139.641 297.005 139.555 296.49C139.477 295.966 139.438 295.443 139.438 294.919ZM139.883 290.056L139.906 291.966H138.02C137.574 291.966 137.188 292.017 136.859 292.119C136.531 292.22 136.262 292.365 136.051 292.552C135.84 292.732 135.684 292.943 135.582 293.185C135.488 293.427 135.441 293.693 135.441 293.982C135.441 294.271 135.508 294.533 135.641 294.767C135.773 294.994 135.965 295.173 136.215 295.306C136.465 295.431 136.758 295.494 137.094 295.494C137.602 295.494 138.043 295.392 138.418 295.189C138.793 294.986 139.082 294.736 139.285 294.439C139.496 294.142 139.605 293.861 139.613 293.595L140.504 295.025C140.379 295.345 140.207 295.677 139.988 296.021C139.777 296.365 139.508 296.689 139.18 296.994C138.852 297.29 138.457 297.536 137.996 297.732C137.535 297.919 136.988 298.013 136.355 298.013C135.551 298.013 134.82 297.853 134.164 297.533C133.516 297.204 133 296.755 132.617 296.185C132.242 295.607 132.055 294.951 132.055 294.216C132.055 293.552 132.18 292.962 132.43 292.447C132.68 291.931 133.047 291.497 133.531 291.146C134.023 290.786 134.637 290.517 135.371 290.337C136.105 290.15 136.957 290.056 137.926 290.056H139.883ZM152.293 294.275C152.293 294.033 152.223 293.814 152.082 293.619C151.941 293.423 151.68 293.244 151.297 293.079C150.922 292.908 150.379 292.751 149.668 292.611C149.027 292.47 148.43 292.294 147.875 292.083C147.328 291.865 146.852 291.603 146.445 291.298C146.047 290.994 145.734 290.634 145.508 290.22C145.281 289.798 145.168 289.318 145.168 288.779C145.168 288.247 145.281 287.747 145.508 287.279C145.742 286.81 146.074 286.396 146.504 286.036C146.941 285.669 147.473 285.384 148.098 285.181C148.73 284.97 149.441 284.865 150.23 284.865C151.332 284.865 152.277 285.04 153.066 285.392C153.863 285.744 154.473 286.228 154.895 286.845C155.324 287.454 155.539 288.15 155.539 288.931H152.164C152.164 288.603 152.094 288.31 151.953 288.052C151.82 287.786 151.609 287.579 151.32 287.431C151.039 287.275 150.672 287.197 150.219 287.197C149.844 287.197 149.52 287.263 149.246 287.396C148.973 287.521 148.762 287.693 148.613 287.911C148.473 288.122 148.402 288.357 148.402 288.615C148.402 288.81 148.441 288.986 148.52 289.142C148.605 289.29 148.742 289.427 148.93 289.552C149.117 289.677 149.359 289.794 149.656 289.904C149.961 290.005 150.336 290.099 150.781 290.185C151.695 290.372 152.512 290.619 153.23 290.923C153.949 291.22 154.52 291.626 154.941 292.142C155.363 292.65 155.574 293.318 155.574 294.146C155.574 294.708 155.449 295.224 155.199 295.693C154.949 296.161 154.59 296.572 154.121 296.923C153.652 297.267 153.09 297.536 152.434 297.732C151.785 297.919 151.055 298.013 150.242 298.013C149.062 298.013 148.062 297.802 147.242 297.38C146.43 296.958 145.812 296.423 145.391 295.775C144.977 295.119 144.77 294.447 144.77 293.759H147.969C147.984 294.22 148.102 294.591 148.32 294.872C148.547 295.154 148.832 295.357 149.176 295.482C149.527 295.607 149.906 295.669 150.312 295.669C150.75 295.669 151.113 295.611 151.402 295.494C151.691 295.369 151.91 295.204 152.059 295.001C152.215 294.79 152.293 294.548 152.293 294.275ZM161.527 296.349L164.891 285.099H168.512L163.414 299.689C163.305 300.009 163.156 300.353 162.969 300.72C162.789 301.087 162.543 301.435 162.23 301.763C161.926 302.099 161.539 302.372 161.07 302.583C160.609 302.794 160.043 302.9 159.371 302.9C159.051 302.9 158.789 302.88 158.586 302.841C158.383 302.802 158.141 302.747 157.859 302.677V300.204C157.945 300.204 158.035 300.204 158.129 300.204C158.223 300.212 158.312 300.216 158.398 300.216C158.844 300.216 159.207 300.165 159.488 300.064C159.77 299.962 159.996 299.806 160.168 299.595C160.34 299.392 160.477 299.126 160.578 298.798L161.527 296.349ZM160.121 285.099L162.875 294.286L163.355 297.861L161.059 298.107L156.5 285.099H160.121ZM176.047 280.716H182.41C183.715 280.716 184.836 280.911 185.773 281.302C186.719 281.693 187.445 282.271 187.953 283.036C188.461 283.802 188.715 284.744 188.715 285.861C188.715 286.775 188.559 287.56 188.246 288.216C187.941 288.865 187.508 289.408 186.945 289.845C186.391 290.275 185.738 290.619 184.988 290.876L183.875 291.462H178.344L178.32 288.72H182.434C183.051 288.72 183.562 288.611 183.969 288.392C184.375 288.173 184.68 287.869 184.883 287.478C185.094 287.087 185.199 286.634 185.199 286.119C185.199 285.572 185.098 285.099 184.895 284.701C184.691 284.302 184.383 283.997 183.969 283.786C183.555 283.576 183.035 283.47 182.41 283.47H179.562V297.779H176.047V280.716ZM185.586 297.779L181.695 290.173L185.41 290.15L189.348 297.615V297.779H185.586ZM197.047 298.013C196.062 298.013 195.18 297.857 194.398 297.544C193.617 297.224 192.953 296.783 192.406 296.22C191.867 295.658 191.453 295.005 191.164 294.263C190.875 293.513 190.73 292.716 190.73 291.872V291.404C190.73 290.443 190.867 289.564 191.141 288.767C191.414 287.97 191.805 287.279 192.312 286.693C192.828 286.107 193.453 285.658 194.188 285.345C194.922 285.025 195.75 284.865 196.672 284.865C197.57 284.865 198.367 285.013 199.062 285.31C199.758 285.607 200.34 286.029 200.809 286.576C201.285 287.122 201.645 287.779 201.887 288.544C202.129 289.302 202.25 290.146 202.25 291.076V292.482H192.172V290.232H198.934V289.974C198.934 289.505 198.848 289.087 198.676 288.72C198.512 288.345 198.262 288.048 197.926 287.829C197.59 287.611 197.16 287.501 196.637 287.501C196.191 287.501 195.809 287.599 195.488 287.794C195.168 287.99 194.906 288.263 194.703 288.615C194.508 288.966 194.359 289.38 194.258 289.857C194.164 290.326 194.117 290.841 194.117 291.404V291.872C194.117 292.38 194.188 292.849 194.328 293.279C194.477 293.708 194.684 294.079 194.949 294.392C195.223 294.704 195.551 294.947 195.934 295.119C196.324 295.29 196.766 295.376 197.258 295.376C197.867 295.376 198.434 295.259 198.957 295.025C199.488 294.783 199.945 294.419 200.328 293.935L201.969 295.716C201.703 296.099 201.34 296.466 200.879 296.818C200.426 297.169 199.879 297.458 199.238 297.685C198.598 297.904 197.867 298.013 197.047 298.013ZM210.383 285.099V287.49H203V285.099H210.383ZM204.828 281.97H208.203V293.958C208.203 294.326 208.25 294.607 208.344 294.802C208.445 294.997 208.594 295.134 208.789 295.212C208.984 295.283 209.23 295.318 209.527 295.318C209.738 295.318 209.926 295.31 210.09 295.294C210.262 295.271 210.406 295.247 210.523 295.224L210.535 297.708C210.246 297.802 209.934 297.876 209.598 297.931C209.262 297.986 208.891 298.013 208.484 298.013C207.742 298.013 207.094 297.892 206.539 297.65C205.992 297.4 205.57 297.001 205.273 296.454C204.977 295.908 204.828 295.189 204.828 294.298V281.97ZM219.805 294.744V285.099H223.18V297.779H220.004L219.805 294.744ZM220.18 292.142L221.176 292.119C221.176 292.962 221.078 293.747 220.883 294.474C220.688 295.193 220.395 295.818 220.004 296.349C219.613 296.872 219.121 297.283 218.527 297.579C217.934 297.869 217.234 298.013 216.43 298.013C215.812 298.013 215.242 297.927 214.719 297.755C214.203 297.576 213.758 297.298 213.383 296.923C213.016 296.54 212.727 296.052 212.516 295.458C212.312 294.857 212.211 294.134 212.211 293.29V285.099H215.586V293.314C215.586 293.689 215.629 294.005 215.715 294.263C215.809 294.521 215.938 294.732 216.102 294.896C216.266 295.06 216.457 295.177 216.676 295.247C216.902 295.318 217.152 295.353 217.426 295.353C218.121 295.353 218.668 295.212 219.066 294.931C219.473 294.65 219.758 294.267 219.922 293.783C220.094 293.29 220.18 292.744 220.18 292.142ZM229.133 287.865V297.779H225.758V285.099H228.934L229.133 287.865ZM232.953 285.017L232.895 288.146C232.73 288.122 232.531 288.103 232.297 288.087C232.07 288.064 231.863 288.052 231.676 288.052C231.199 288.052 230.785 288.115 230.434 288.24C230.09 288.357 229.801 288.533 229.566 288.767C229.34 289.001 229.168 289.286 229.051 289.622C228.941 289.958 228.879 290.341 228.863 290.771L228.184 290.56C228.184 289.74 228.266 288.986 228.43 288.298C228.594 287.603 228.832 286.997 229.145 286.482C229.465 285.966 229.855 285.568 230.316 285.286C230.777 285.005 231.305 284.865 231.898 284.865C232.086 284.865 232.277 284.88 232.473 284.911C232.668 284.935 232.828 284.97 232.953 285.017ZM237.852 287.806V297.779H234.477V285.099H237.641L237.852 287.806ZM237.359 290.994H236.445C236.445 290.056 236.566 289.212 236.809 288.462C237.051 287.704 237.391 287.06 237.828 286.529C238.266 285.99 238.785 285.579 239.387 285.298C239.996 285.009 240.676 284.865 241.426 284.865C242.02 284.865 242.562 284.951 243.055 285.122C243.547 285.294 243.969 285.568 244.32 285.943C244.68 286.318 244.953 286.814 245.141 287.431C245.336 288.048 245.434 288.802 245.434 289.693V297.779H242.035V289.681C242.035 289.119 241.957 288.681 241.801 288.369C241.645 288.056 241.414 287.837 241.109 287.712C240.812 287.579 240.445 287.513 240.008 287.513C239.555 287.513 239.16 287.603 238.824 287.783C238.496 287.962 238.223 288.212 238.004 288.533C237.793 288.845 237.633 289.212 237.523 289.634C237.414 290.056 237.359 290.509 237.359 290.994ZM254.855 294.275C254.855 294.033 254.785 293.814 254.645 293.619C254.504 293.423 254.242 293.244 253.859 293.079C253.484 292.908 252.941 292.751 252.23 292.611C251.59 292.47 250.992 292.294 250.438 292.083C249.891 291.865 249.414 291.603 249.008 291.298C248.609 290.994 248.297 290.634 248.07 290.22C247.844 289.798 247.73 289.318 247.73 288.779C247.73 288.247 247.844 287.747 248.07 287.279C248.305 286.81 248.637 286.396 249.066 286.036C249.504 285.669 250.035 285.384 250.66 285.181C251.293 284.97 252.004 284.865 252.793 284.865C253.895 284.865 254.84 285.04 255.629 285.392C256.426 285.744 257.035 286.228 257.457 286.845C257.887 287.454 258.102 288.15 258.102 288.931H254.727C254.727 288.603 254.656 288.31 254.516 288.052C254.383 287.786 254.172 287.579 253.883 287.431C253.602 287.275 253.234 287.197 252.781 287.197C252.406 287.197 252.082 287.263 251.809 287.396C251.535 287.521 251.324 287.693 251.176 287.911C251.035 288.122 250.965 288.357 250.965 288.615C250.965 288.81 251.004 288.986 251.082 289.142C251.168 289.29 251.305 289.427 251.492 289.552C251.68 289.677 251.922 289.794 252.219 289.904C252.523 290.005 252.898 290.099 253.344 290.185C254.258 290.372 255.074 290.619 255.793 290.923C256.512 291.22 257.082 291.626 257.504 292.142C257.926 292.65 258.137 293.318 258.137 294.146C258.137 294.708 258.012 295.224 257.762 295.693C257.512 296.161 257.152 296.572 256.684 296.923C256.215 297.267 255.652 297.536 254.996 297.732C254.348 297.919 253.617 298.013 252.805 298.013C251.625 298.013 250.625 297.802 249.805 297.38C248.992 296.958 248.375 296.423 247.953 295.775C247.539 295.119 247.332 294.447 247.332 293.759H250.531C250.547 294.22 250.664 294.591 250.883 294.872C251.109 295.154 251.395 295.357 251.738 295.482C252.09 295.607 252.469 295.669 252.875 295.669C253.312 295.669 253.676 295.611 253.965 295.494C254.254 295.369 254.473 295.204 254.621 295.001C254.777 294.79 254.855 294.548 254.855 294.275Z" fill="white"/>
<rect x="13" y="278.555" width="22.4466" height="22.4466" rx="11.2233" fill="#D6EB3D"/>
<path d="M28.7034 286.418L22.5434 292.578L19.7434 289.778" stroke="#4E3BE5" stroke-width="2" stroke-linecap="round" stroke-linejoin="round"/>
<path d="M61.0742 191.466C61.0742 191.068 61.0117 190.716 60.8867 190.411C60.7695 190.099 60.5586 189.818 60.2539 189.568C59.957 189.318 59.543 189.079 59.0117 188.853C58.4883 188.626 57.8242 188.396 57.0195 188.161C56.1758 187.911 55.4141 187.634 54.7344 187.329C54.0547 187.017 53.4727 186.661 52.9883 186.263C52.5039 185.865 52.1328 185.408 51.875 184.892C51.6172 184.376 51.4883 183.786 51.4883 183.122C51.4883 182.458 51.625 181.845 51.8984 181.283C52.1719 180.72 52.5625 180.232 53.0703 179.818C53.5859 179.396 54.1992 179.068 54.9102 178.833C55.6211 178.599 56.4141 178.482 57.2891 178.482C58.5703 178.482 59.6562 178.728 60.5469 179.22C61.4453 179.704 62.1289 180.341 62.5977 181.13C63.0664 181.911 63.3008 182.747 63.3008 183.638H61.0508C61.0508 182.997 60.9141 182.431 60.6406 181.939C60.3672 181.439 59.9531 181.048 59.3984 180.767C58.8438 180.478 58.1406 180.333 57.2891 180.333C56.4844 180.333 55.8203 180.454 55.2969 180.697C54.7734 180.939 54.3828 181.267 54.125 181.681C53.875 182.095 53.75 182.568 53.75 183.099C53.75 183.458 53.8242 183.786 53.9727 184.083C54.1289 184.372 54.3672 184.642 54.6875 184.892C55.0156 185.142 55.4297 185.372 55.9297 185.583C56.4375 185.794 57.043 185.997 57.7461 186.193C58.7148 186.466 59.5508 186.771 60.2539 187.107C60.957 187.443 61.5352 187.822 61.9883 188.244C62.4492 188.658 62.7891 189.13 63.0078 189.661C63.2344 190.185 63.3477 190.779 63.3477 191.443C63.3477 192.138 63.207 192.767 62.9258 193.329C62.6445 193.892 62.2422 194.372 61.7188 194.771C61.1953 195.169 60.5664 195.478 59.832 195.697C59.1055 195.908 58.293 196.013 57.3945 196.013C56.6055 196.013 55.8281 195.904 55.0625 195.685C54.3047 195.466 53.6133 195.138 52.9883 194.701C52.3711 194.263 51.875 193.724 51.5 193.083C51.1328 192.435 50.9492 191.685 50.9492 190.833H53.1992C53.1992 191.419 53.3125 191.923 53.5391 192.345C53.7656 192.759 54.0742 193.103 54.4648 193.376C54.8633 193.65 55.3125 193.853 55.8125 193.986C56.3203 194.111 56.8477 194.173 57.3945 194.173C58.1836 194.173 58.8516 194.064 59.3984 193.845C59.9453 193.626 60.3594 193.314 60.6406 192.908C60.9297 192.501 61.0742 192.021 61.0742 191.466ZM68.0703 177.779V195.779H65.9023V177.779H68.0703ZM67.5547 188.958L66.6523 188.923C66.6602 188.056 66.7891 187.255 67.0391 186.521C67.2891 185.779 67.6406 185.134 68.0938 184.587C68.5469 184.04 69.0859 183.619 69.7109 183.322C70.3438 183.017 71.043 182.865 71.8086 182.865C72.4336 182.865 72.9961 182.951 73.4961 183.122C73.9961 183.286 74.4219 183.552 74.7734 183.919C75.1328 184.286 75.4062 184.763 75.5938 185.349C75.7812 185.927 75.875 186.634 75.875 187.47V195.779H73.6953V187.447C73.6953 186.783 73.5977 186.251 73.4023 185.853C73.207 185.447 72.9219 185.154 72.5469 184.974C72.1719 184.786 71.7109 184.693 71.1641 184.693C70.625 184.693 70.1328 184.806 69.6875 185.033C69.25 185.259 68.8711 185.572 68.5508 185.97C68.2383 186.369 67.9922 186.826 67.8125 187.341C67.6406 187.849 67.5547 188.388 67.5547 188.958ZM78.5469 189.579V189.31C78.5469 188.396 78.6797 187.548 78.9453 186.767C79.2109 185.978 79.5938 185.294 80.0938 184.716C80.5938 184.13 81.1992 183.677 81.9102 183.357C82.6211 183.029 83.418 182.865 84.3008 182.865C85.1914 182.865 85.9922 183.029 86.7031 183.357C87.4219 183.677 88.0312 184.13 88.5312 184.716C89.0391 185.294 89.4258 185.978 89.6914 186.767C89.957 187.548 90.0898 188.396 90.0898 189.31V189.579C90.0898 190.494 89.957 191.341 89.6914 192.122C89.4258 192.904 89.0391 193.587 88.5312 194.173C88.0312 194.751 87.4258 195.204 86.7148 195.533C86.0117 195.853 85.2148 196.013 84.3242 196.013C83.4336 196.013 82.6328 195.853 81.9219 195.533C81.2109 195.204 80.6016 194.751 80.0938 194.173C79.5938 193.587 79.2109 192.904 78.9453 192.122C78.6797 191.341 78.5469 190.494 78.5469 189.579ZM80.7148 189.31V189.579C80.7148 190.212 80.7891 190.81 80.9375 191.372C81.0859 191.927 81.3086 192.419 81.6055 192.849C81.9102 193.279 82.2891 193.619 82.7422 193.869C83.1953 194.111 83.7227 194.232 84.3242 194.232C84.918 194.232 85.4375 194.111 85.8828 193.869C86.3359 193.619 86.7109 193.279 87.0078 192.849C87.3047 192.419 87.5273 191.927 87.6758 191.372C87.832 190.81 87.9102 190.212 87.9102 189.579V189.31C87.9102 188.685 87.832 188.095 87.6758 187.54C87.5273 186.978 87.3008 186.482 86.9961 186.052C86.6992 185.615 86.3242 185.271 85.8711 185.021C85.4258 184.771 84.9023 184.646 84.3008 184.646C83.707 184.646 83.1836 184.771 82.7305 185.021C82.2852 185.271 81.9102 185.615 81.6055 186.052C81.3086 186.482 81.0859 186.978 80.9375 187.54C80.7891 188.095 80.7148 188.685 80.7148 189.31ZM94.9766 185.536V200.654H92.7969V183.099H94.7891L94.9766 185.536ZM103.52 189.333V189.579C103.52 190.501 103.41 191.357 103.191 192.146C102.973 192.927 102.652 193.607 102.23 194.185C101.816 194.763 101.305 195.212 100.695 195.533C100.086 195.853 99.3867 196.013 98.5977 196.013C97.793 196.013 97.082 195.88 96.4648 195.615C95.8477 195.349 95.3242 194.962 94.8945 194.454C94.4648 193.947 94.1211 193.337 93.8633 192.626C93.6133 191.915 93.4414 191.115 93.3477 190.224V188.911C93.4414 187.974 93.6172 187.134 93.875 186.392C94.1328 185.65 94.4727 185.017 94.8945 184.494C95.3242 183.962 95.8438 183.56 96.4531 183.286C97.0625 183.005 97.7656 182.865 98.5625 182.865C99.3594 182.865 100.066 183.021 100.684 183.333C101.301 183.638 101.82 184.076 102.242 184.646C102.664 185.216 102.98 185.9 103.191 186.697C103.41 187.486 103.52 188.365 103.52 189.333ZM101.34 189.579V189.333C101.34 188.701 101.273 188.107 101.141 187.552C101.008 186.99 100.801 186.497 100.52 186.076C100.246 185.646 99.8945 185.31 99.4648 185.068C99.0352 184.818 98.5234 184.693 97.9297 184.693C97.3828 184.693 96.9062 184.786 96.5 184.974C96.1016 185.161 95.7617 185.415 95.4805 185.736C95.1992 186.048 94.9688 186.408 94.7891 186.814C94.6172 187.212 94.4883 187.626 94.4023 188.056V191.091C94.5586 191.638 94.7773 192.154 95.0586 192.638C95.3398 193.115 95.7148 193.501 96.1836 193.798C96.6523 194.087 97.2422 194.232 97.9531 194.232C98.5391 194.232 99.043 194.111 99.4648 193.869C99.8945 193.619 100.246 193.279 100.52 192.849C100.801 192.419 101.008 191.927 101.141 191.372C101.273 190.81 101.34 190.212 101.34 189.579ZM121.555 178.716H125.059V189.99C125.059 191.302 124.777 192.408 124.215 193.306C123.66 194.204 122.891 194.88 121.906 195.333C120.93 195.786 119.805 196.013 118.531 196.013C117.258 196.013 116.125 195.786 115.133 195.333C114.148 194.88 113.375 194.204 112.812 193.306C112.258 192.408 111.98 191.302 111.98 189.99V178.716H115.496V189.99C115.496 190.755 115.617 191.38 115.859 191.865C116.102 192.349 116.449 192.704 116.902 192.931C117.363 193.158 117.906 193.271 118.531 193.271C119.172 193.271 119.715 193.158 120.16 192.931C120.613 192.704 120.957 192.349 121.191 191.865C121.434 191.38 121.555 190.755 121.555 189.99V178.716ZM131.047 185.806V195.779H127.672V183.099H130.836L131.047 185.806ZM130.555 188.994H129.641C129.641 188.056 129.762 187.212 130.004 186.462C130.246 185.704 130.586 185.06 131.023 184.529C131.461 183.99 131.98 183.579 132.582 183.298C133.191 183.009 133.871 182.865 134.621 182.865C135.215 182.865 135.758 182.951 136.25 183.122C136.742 183.294 137.164 183.568 137.516 183.943C137.875 184.318 138.148 184.814 138.336 185.431C138.531 186.048 138.629 186.802 138.629 187.693V195.779H135.23V187.681C135.23 187.119 135.152 186.681 134.996 186.369C134.84 186.056 134.609 185.837 134.305 185.712C134.008 185.579 133.641 185.513 133.203 185.513C132.75 185.513 132.355 185.603 132.02 185.783C131.691 185.962 131.418 186.212 131.199 186.533C130.988 186.845 130.828 187.212 130.719 187.634C130.609 188.056 130.555 188.509 130.555 188.994ZM148.684 193.013V177.779H152.082V195.779H149.023L148.684 193.013ZM140.668 189.591V189.345C140.668 188.376 140.777 187.497 140.996 186.708C141.215 185.911 141.535 185.228 141.957 184.658C142.379 184.087 142.898 183.646 143.516 183.333C144.133 183.021 144.836 182.865 145.625 182.865C146.367 182.865 147.016 183.021 147.57 183.333C148.133 183.646 148.609 184.091 149 184.669C149.398 185.24 149.719 185.915 149.961 186.697C150.203 187.47 150.379 188.318 150.488 189.24V189.779C150.379 190.661 150.203 191.482 149.961 192.24C149.719 192.997 149.398 193.661 149 194.232C148.609 194.794 148.133 195.232 147.57 195.544C147.008 195.857 146.352 196.013 145.602 196.013C144.812 196.013 144.109 195.853 143.492 195.533C142.883 195.212 142.367 194.763 141.945 194.185C141.531 193.607 141.215 192.927 140.996 192.146C140.777 191.365 140.668 190.513 140.668 189.591ZM144.043 189.345V189.591C144.043 190.115 144.082 190.603 144.16 191.056C144.246 191.509 144.383 191.911 144.57 192.263C144.766 192.607 145.016 192.876 145.32 193.072C145.633 193.259 146.012 193.353 146.457 193.353C147.035 193.353 147.512 193.224 147.887 192.966C148.262 192.701 148.547 192.337 148.742 191.876C148.945 191.415 149.062 190.884 149.094 190.283V188.747C149.07 188.255 149 187.814 148.883 187.423C148.773 187.025 148.609 186.685 148.391 186.404C148.18 186.122 147.914 185.904 147.594 185.747C147.281 185.591 146.91 185.513 146.48 185.513C146.043 185.513 145.668 185.615 145.355 185.818C145.043 186.013 144.789 186.283 144.594 186.626C144.406 186.97 144.266 187.376 144.172 187.845C144.086 188.306 144.043 188.806 144.043 189.345ZM160.555 196.013C159.57 196.013 158.688 195.857 157.906 195.544C157.125 195.224 156.461 194.783 155.914 194.22C155.375 193.658 154.961 193.005 154.672 192.263C154.383 191.513 154.238 190.716 154.238 189.872V189.404C154.238 188.443 154.375 187.564 154.648 186.767C154.922 185.97 155.312 185.279 155.82 184.693C156.336 184.107 156.961 183.658 157.695 183.345C158.43 183.025 159.258 182.865 160.18 182.865C161.078 182.865 161.875 183.013 162.57 183.31C163.266 183.607 163.848 184.029 164.316 184.576C164.793 185.122 165.152 185.779 165.395 186.544C165.637 187.302 165.758 188.146 165.758 189.076V190.482H155.68V188.232H162.441V187.974C162.441 187.505 162.355 187.087 162.184 186.72C162.02 186.345 161.77 186.048 161.434 185.829C161.098 185.611 160.668 185.501 160.145 185.501C159.699 185.501 159.316 185.599 158.996 185.794C158.676 185.99 158.414 186.263 158.211 186.615C158.016 186.966 157.867 187.38 157.766 187.857C157.672 188.326 157.625 188.841 157.625 189.404V189.872C157.625 190.38 157.695 190.849 157.836 191.279C157.984 191.708 158.191 192.079 158.457 192.392C158.73 192.704 159.059 192.947 159.441 193.119C159.832 193.29 160.273 193.376 160.766 193.376C161.375 193.376 161.941 193.259 162.465 193.025C162.996 192.783 163.453 192.419 163.836 191.935L165.477 193.716C165.211 194.099 164.848 194.466 164.387 194.818C163.934 195.169 163.387 195.458 162.746 195.685C162.105 195.904 161.375 196.013 160.555 196.013ZM171.055 185.865V195.779H167.68V183.099H170.855L171.055 185.865ZM174.875 183.017L174.816 186.146C174.652 186.122 174.453 186.103 174.219 186.087C173.992 186.064 173.785 186.052 173.598 186.052C173.121 186.052 172.707 186.115 172.355 186.24C172.012 186.357 171.723 186.533 171.488 186.767C171.262 187.001 171.09 187.286 170.973 187.622C170.863 187.958 170.801 188.341 170.785 188.771L170.105 188.56C170.105 187.74 170.188 186.986 170.352 186.298C170.516 185.603 170.754 184.997 171.066 184.482C171.387 183.966 171.777 183.568 172.238 183.286C172.699 183.005 173.227 182.865 173.82 182.865C174.008 182.865 174.199 182.88 174.395 182.911C174.59 182.935 174.75 182.97 174.875 183.017ZM193.262 182.994L192.664 185.267H181.613L182.223 182.994H193.262ZM187.602 195.779L181.953 189.087L181.941 187.083H184.695C185.336 187.083 185.863 186.958 186.277 186.708C186.691 186.458 187 186.122 187.203 185.701C187.406 185.271 187.508 184.794 187.508 184.271C187.508 183.724 187.414 183.24 187.227 182.818C187.039 182.396 186.738 182.068 186.324 181.833C185.91 181.591 185.359 181.47 184.672 181.47H181.625L182.316 178.716H184.672C186.078 178.716 187.25 178.927 188.188 179.349C189.125 179.771 189.828 180.38 190.297 181.177C190.766 181.966 191 182.923 191 184.048C191 185.033 190.844 185.896 190.531 186.638C190.219 187.38 189.723 187.994 189.043 188.478C188.363 188.954 187.469 189.29 186.359 189.486L191.445 195.615V195.779H187.602ZM193.285 178.716L192.676 180.978H183.523L184.133 178.716H193.285ZM206.891 189.404V192.052H194.598L194.434 190.001L201.547 178.716H204.23L201.324 183.579L197.785 189.404H206.891ZM204.957 178.716V195.779H201.582V178.716H204.957ZM211.895 188.009L209.199 187.365L210.172 178.716H219.758V181.447H212.949L212.527 185.232C212.754 185.099 213.098 184.958 213.559 184.81C214.02 184.654 214.535 184.576 215.105 184.576C215.934 184.576 216.668 184.704 217.309 184.962C217.949 185.22 218.492 185.595 218.938 186.087C219.391 186.579 219.734 187.181 219.969 187.892C220.203 188.603 220.32 189.408 220.32 190.306C220.32 191.064 220.203 191.786 219.969 192.474C219.734 193.154 219.379 193.763 218.902 194.302C218.426 194.833 217.828 195.251 217.109 195.556C216.391 195.861 215.539 196.013 214.555 196.013C213.82 196.013 213.109 195.904 212.422 195.685C211.742 195.466 211.129 195.142 210.582 194.712C210.043 194.283 209.609 193.763 209.281 193.154C208.961 192.536 208.793 191.833 208.777 191.044H212.129C212.176 191.529 212.301 191.947 212.504 192.298C212.715 192.642 212.992 192.908 213.336 193.095C213.68 193.283 214.082 193.376 214.543 193.376C214.973 193.376 215.34 193.294 215.645 193.13C215.949 192.966 216.195 192.74 216.383 192.451C216.57 192.154 216.707 191.81 216.793 191.419C216.887 191.021 216.934 190.591 216.934 190.13C216.934 189.669 216.879 189.251 216.77 188.876C216.66 188.501 216.492 188.177 216.266 187.904C216.039 187.63 215.75 187.419 215.398 187.271C215.055 187.122 214.652 187.048 214.191 187.048C213.566 187.048 213.082 187.146 212.738 187.341C212.402 187.536 212.121 187.759 211.895 188.009Z" fill="white"/>
<rect x="13" y="176.835" width="22.4466" height="22.4466" rx="11.2233" fill="#D6EB3D"/>
<path d="M28.7034 184.699L22.5434 190.859L19.7434 188.059" stroke="#4E3BE5" stroke-width="2" stroke-linecap="round" stroke-linejoin="round"/>
<path d="M57.9004 17.6289V19.1113C57.9004 21.4889 57.5781 23.623 56.9336 25.5137C56.2891 27.4043 55.3796 29.0156 54.2051 30.3477C53.0306 31.6654 51.627 32.6751 49.9941 33.377C48.3757 34.0788 46.5781 34.4297 44.6016 34.4297C42.6393 34.4297 40.8418 34.0788 39.209 33.377C37.5905 32.6751 36.1868 31.6654 34.998 30.3477C33.8092 29.0156 32.8854 27.4043 32.2266 25.5137C31.582 23.623 31.2598 21.4889 31.2598 19.1113V17.6289C31.2598 15.237 31.582 13.1029 32.2266 11.2266C32.8711 9.33594 33.7806 7.72461 34.9551 6.39258C36.1439 5.06055 37.5475 4.04362 39.166 3.3418C40.7988 2.63997 42.5964 2.28906 44.5586 2.28906C46.5352 2.28906 48.3327 2.63997 49.9512 3.3418C51.584 4.04362 52.9876 5.06055 54.1621 6.39258C55.3509 7.72461 56.2676 9.33594 56.9121 11.2266C57.571 13.1029 57.9004 15.237 57.9004 17.6289ZM51.3906 19.1113V17.5859C51.3906 15.9245 51.2402 14.4635 50.9395 13.2031C50.6387 11.9427 50.1947 10.8828 49.6074 10.0234C49.0202 9.16406 48.304 8.51953 47.459 8.08984C46.6139 7.64583 45.6471 7.42383 44.5586 7.42383C43.4701 7.42383 42.5033 7.64583 41.6582 8.08984C40.8275 8.51953 40.1185 9.16406 39.5312 10.0234C38.9583 10.8828 38.5215 11.9427 38.2207 13.2031C37.9199 14.4635 37.7695 15.9245 37.7695 17.5859V19.1113C37.7695 20.7585 37.9199 22.2194 38.2207 23.4941C38.5215 24.7546 38.9655 25.8216 39.5527 26.6953C40.14 27.5547 40.8561 28.2064 41.7012 28.6504C42.5462 29.0944 43.513 29.3164 44.6016 29.3164C45.6901 29.3164 46.6569 29.0944 47.502 28.6504C48.347 28.2064 49.056 27.5547 49.6289 26.6953C50.2018 25.8216 50.6387 24.7546 50.9395 23.4941C51.2402 22.2194 51.3906 20.7585 51.3906 19.1113ZM70.0605 29.4883L75.2168 10.7539H81.6836L73.8418 34H69.9316L70.0605 29.4883ZM66.5156 10.7539L71.6934 29.5098L71.8008 34H67.8691L60.0273 10.7539H66.5156ZM94.8535 34.4297C93.0488 34.4297 91.4303 34.1432 89.998 33.5703C88.5658 32.9831 87.3483 32.1738 86.3457 31.1426C85.3574 30.1113 84.5983 28.9154 84.0684 27.5547C83.5384 26.1797 83.2734 24.7188 83.2734 23.1719V22.3125C83.2734 20.5508 83.5241 18.9395 84.0254 17.4785C84.5267 16.0176 85.2428 14.75 86.1738 13.6758C87.1191 12.6016 88.265 11.778 89.6113 11.2051C90.9577 10.6178 92.4759 10.3242 94.166 10.3242C95.8132 10.3242 97.2741 10.5964 98.5488 11.1406C99.8236 11.6849 100.891 12.4583 101.75 13.4609C102.624 14.4635 103.283 15.6667 103.727 17.0703C104.171 18.4596 104.393 20.0065 104.393 21.7109V24.2891H85.916V20.1641H98.3125V19.6914C98.3125 18.832 98.1549 18.0658 97.8398 17.3926C97.5391 16.7051 97.0807 16.1608 96.4648 15.7598C95.849 15.3587 95.0612 15.1582 94.1016 15.1582C93.2852 15.1582 92.5833 15.3372 91.9961 15.6953C91.4089 16.0534 90.929 16.5547 90.5566 17.1992C90.1986 17.8438 89.9264 18.6029 89.7402 19.4766C89.5684 20.3359 89.4824 21.2812 89.4824 22.3125V23.1719C89.4824 24.1029 89.6113 24.9622 89.8691 25.75C90.1413 26.5378 90.5208 27.2181 91.0078 27.791C91.5091 28.3639 92.1107 28.8079 92.8125 29.123C93.5286 29.4382 94.3379 29.5957 95.2402 29.5957C96.3574 29.5957 97.3958 29.3809 98.3555 28.9512C99.3294 28.5072 100.167 27.8411 100.869 26.9531L103.877 30.2188C103.39 30.9206 102.724 31.5938 101.879 32.2383C101.048 32.8828 100.046 33.4128 98.8711 33.8281C97.6966 34.2292 96.3574 34.4297 94.8535 34.4297ZM114.104 15.8242V34H107.916V10.7539H113.738L114.104 15.8242ZM121.107 10.6035L121 16.3398C120.699 16.2969 120.334 16.2611 119.904 16.2324C119.489 16.1895 119.109 16.168 118.766 16.168C117.892 16.168 117.133 16.2826 116.488 16.5117C115.858 16.7266 115.328 17.0488 114.898 17.4785C114.483 17.9082 114.168 18.431 113.953 19.0469C113.753 19.6628 113.638 20.3646 113.609 21.1523L112.363 20.7656C112.363 19.2617 112.514 17.8796 112.814 16.6191C113.115 15.3444 113.552 14.2344 114.125 13.2891C114.712 12.3438 115.428 11.6133 116.273 11.0977C117.118 10.582 118.085 10.3242 119.174 10.3242C119.518 10.3242 119.868 10.3529 120.227 10.4102C120.585 10.4531 120.878 10.5176 121.107 10.6035ZM149.811 2.6543V34H143.623V9.78711L136.189 12.1504V7.27344L149.145 2.6543H149.811ZM181.049 15.6094V21.0234C181.049 23.3724 180.798 25.3991 180.297 27.1035C179.796 28.7936 179.072 30.1829 178.127 31.2715C177.196 32.3457 176.086 33.1406 174.797 33.6562C173.508 34.1719 172.076 34.4297 170.5 34.4297C169.24 34.4297 168.065 34.2721 166.977 33.957C165.888 33.6276 164.907 33.1191 164.033 32.4316C163.174 31.7441 162.429 30.8776 161.799 29.832C161.183 28.7721 160.71 27.5117 160.381 26.0508C160.051 24.5898 159.887 22.9141 159.887 21.0234V15.6094C159.887 13.2604 160.137 11.248 160.639 9.57227C161.154 7.88216 161.878 6.5 162.809 5.42578C163.754 4.35156 164.871 3.5638 166.16 3.0625C167.449 2.54688 168.882 2.28906 170.457 2.28906C171.717 2.28906 172.885 2.45378 173.959 2.7832C175.048 3.09831 176.029 3.59245 176.902 4.26562C177.776 4.9388 178.521 5.80534 179.137 6.86523C179.753 7.91081 180.225 9.16406 180.555 10.625C180.884 12.0716 181.049 13.7331 181.049 15.6094ZM174.84 21.8398V14.7715C174.84 13.64 174.775 12.6517 174.646 11.8066C174.532 10.9616 174.353 10.2454 174.109 9.6582C173.866 9.05664 173.565 8.56966 173.207 8.19727C172.849 7.82487 172.441 7.55273 171.982 7.38086C171.524 7.20898 171.016 7.12305 170.457 7.12305C169.755 7.12305 169.132 7.25911 168.588 7.53125C168.058 7.80339 167.607 8.24023 167.234 8.8418C166.862 9.42904 166.576 10.2168 166.375 11.2051C166.189 12.179 166.096 13.3678 166.096 14.7715V21.8398C166.096 22.9714 166.153 23.9668 166.268 24.8262C166.396 25.6855 166.583 26.4232 166.826 27.0391C167.084 27.6406 167.385 28.1348 167.729 28.5215C168.087 28.8939 168.495 29.166 168.953 29.3379C169.426 29.5098 169.941 29.5957 170.5 29.5957C171.188 29.5957 171.796 29.4596 172.326 29.1875C172.87 28.901 173.329 28.457 173.701 27.8555C174.088 27.2396 174.374 26.4375 174.561 25.4492C174.747 24.4609 174.84 23.2578 174.84 21.8398ZM216.971 28.9727V34H201.223V28.9727H216.971ZM203.307 2.71875V34H196.861V2.71875H203.307ZM232.826 28.7578V18.4023C232.826 17.6576 232.704 17.0202 232.461 16.4902C232.217 15.946 231.838 15.5234 231.322 15.2227C230.821 14.9219 230.169 14.7715 229.367 14.7715C228.68 14.7715 228.085 14.8932 227.584 15.1367C227.083 15.3659 226.696 15.7025 226.424 16.1465C226.152 16.5762 226.016 17.0846 226.016 17.6719H219.828C219.828 16.6836 220.057 15.7454 220.516 14.8574C220.974 13.9694 221.64 13.1888 222.514 12.5156C223.387 11.8281 224.426 11.291 225.629 10.9043C226.846 10.5176 228.207 10.3242 229.711 10.3242C231.516 10.3242 233.12 10.625 234.523 11.2266C235.927 11.8281 237.03 12.7305 237.832 13.9336C238.648 15.1367 239.057 16.6406 239.057 18.4453V28.3926C239.057 29.6673 239.135 30.7129 239.293 31.5293C239.451 32.3314 239.68 33.0332 239.98 33.6348V34H233.729C233.428 33.3698 233.199 32.582 233.041 31.6367C232.898 30.6771 232.826 29.7174 232.826 28.7578ZM233.643 19.8418L233.686 23.3438H230.227C229.41 23.3438 228.701 23.4368 228.1 23.623C227.498 23.8092 227.004 24.0742 226.617 24.418C226.23 24.7474 225.944 25.1341 225.758 25.5781C225.586 26.0221 225.5 26.5091 225.5 27.0391C225.5 27.569 225.622 28.0488 225.865 28.4785C226.109 28.8939 226.46 29.2233 226.918 29.4668C227.376 29.696 227.913 29.8105 228.529 29.8105C229.46 29.8105 230.27 29.6243 230.957 29.252C231.645 28.8796 232.174 28.4212 232.547 27.877C232.934 27.3327 233.134 26.8171 233.148 26.3301L234.781 28.9512C234.552 29.5384 234.237 30.1471 233.836 30.7773C233.449 31.4076 232.955 32.002 232.354 32.5605C231.752 33.1048 231.029 33.556 230.184 33.9141C229.339 34.2578 228.336 34.4297 227.176 34.4297C225.701 34.4297 224.361 34.1361 223.158 33.5488C221.969 32.9473 221.024 32.1237 220.322 31.0781C219.635 30.0182 219.291 28.8151 219.291 27.4688C219.291 26.2513 219.52 25.1699 219.979 24.2246C220.437 23.2793 221.11 22.4844 221.998 21.8398C222.9 21.181 224.025 20.6868 225.371 20.3574C226.717 20.0137 228.279 19.8418 230.055 19.8418H233.643ZM250.014 0.978516V34H243.826V0.978516H250.014ZM264.666 10.7539L254.568 22.2695L249.154 27.748L246.898 23.2793L251.195 17.8223L257.232 10.7539H264.666ZM258.242 34L251.367 23.2578L255.643 19.5195L265.375 34H258.242ZM273.367 1V34H267.18V1H273.367ZM272.486 21.5605H270.789C270.803 19.9421 271.018 18.4525 271.434 17.0918C271.849 15.7168 272.443 14.528 273.217 13.5254C273.99 12.5085 274.914 11.7207 275.988 11.1621C277.077 10.6035 278.28 10.3242 279.598 10.3242C280.743 10.3242 281.782 10.4889 282.713 10.8184C283.658 11.1335 284.467 11.6491 285.141 12.3652C285.828 13.0671 286.358 13.9909 286.73 15.1367C287.103 16.2826 287.289 17.6719 287.289 19.3047V34H281.059V19.2617C281.059 18.2305 280.908 17.4212 280.607 16.834C280.321 16.2324 279.898 15.8099 279.34 15.5664C278.796 15.3086 278.122 15.1797 277.32 15.1797C276.432 15.1797 275.673 15.3444 275.043 15.6738C274.427 16.0033 273.933 16.4616 273.561 17.0488C273.188 17.6217 272.916 18.2949 272.744 19.0684C272.572 19.8418 272.486 20.6725 272.486 21.5605ZM79.707 74.8496H71.7363V69.8223H79.707C80.9388 69.8223 81.9414 69.6217 82.7148 69.2207C83.4883 68.8053 84.054 68.2324 84.4121 67.502C84.7702 66.7715 84.9492 65.9479 84.9492 65.0312C84.9492 64.1003 84.7702 63.2337 84.4121 62.4316C84.054 61.6296 83.4883 60.985 82.7148 60.498C81.9414 60.0111 80.9388 59.7676 79.707 59.7676H73.9707V86H67.5254V54.7188H79.707C82.1562 54.7188 84.2546 55.1628 86.002 56.0508C87.7637 56.9245 89.11 58.1348 90.041 59.6816C90.972 61.2285 91.4375 62.9974 91.4375 64.9883C91.4375 67.0078 90.972 68.7552 90.041 70.2305C89.11 71.7057 87.7637 72.8444 86.002 73.6465C84.2546 74.4486 82.1562 74.8496 79.707 74.8496ZM101.686 67.8242V86H95.498V62.7539H101.32L101.686 67.8242ZM108.689 62.6035L108.582 68.3398C108.281 68.2969 107.916 68.2611 107.486 68.2324C107.071 68.1895 106.691 68.168 106.348 68.168C105.474 68.168 104.715 68.2826 104.07 68.5117C103.44 68.7266 102.91 69.0488 102.48 69.4785C102.065 69.9082 101.75 70.431 101.535 71.0469C101.335 71.6628 101.22 72.3646 101.191 73.1523L99.9453 72.7656C99.9453 71.2617 100.096 69.8796 100.396 68.6191C100.697 67.3444 101.134 66.2344 101.707 65.2891C102.294 64.3438 103.01 63.6133 103.855 63.0977C104.701 62.582 105.667 62.3242 106.756 62.3242C107.1 62.3242 107.451 62.3529 107.809 62.4102C108.167 62.4531 108.46 62.5176 108.689 62.6035ZM109.979 74.6133V74.1621C109.979 72.4577 110.222 70.8893 110.709 69.457C111.196 68.0104 111.905 66.7572 112.836 65.6973C113.767 64.6374 114.913 63.8138 116.273 63.2266C117.634 62.625 119.195 62.3242 120.957 62.3242C122.719 62.3242 124.287 62.625 125.662 63.2266C127.037 63.8138 128.19 64.6374 129.121 65.6973C130.066 66.7572 130.783 68.0104 131.27 69.457C131.757 70.8893 132 72.4577 132 74.1621V74.6133C132 76.3034 131.757 77.8717 131.27 79.3184C130.783 80.7507 130.066 82.0039 129.121 83.0781C128.19 84.138 127.044 84.9616 125.684 85.5488C124.323 86.1361 122.762 86.4297 121 86.4297C119.238 86.4297 117.67 86.1361 116.295 85.5488C114.934 84.9616 113.781 84.138 112.836 83.0781C111.905 82.0039 111.196 80.7507 110.709 79.3184C110.222 77.8717 109.979 76.3034 109.979 74.6133ZM116.166 74.1621V74.6133C116.166 75.5872 116.252 76.4967 116.424 77.3418C116.596 78.1868 116.868 78.9316 117.24 79.5762C117.627 80.2064 118.128 80.7005 118.744 81.0586C119.36 81.4167 120.112 81.5957 121 81.5957C121.859 81.5957 122.597 81.4167 123.213 81.0586C123.829 80.7005 124.323 80.2064 124.695 79.5762C125.068 78.9316 125.34 78.1868 125.512 77.3418C125.698 76.4967 125.791 75.5872 125.791 74.6133V74.1621C125.791 73.2168 125.698 72.3288 125.512 71.498C125.34 70.653 125.061 69.9082 124.674 69.2637C124.301 68.6048 123.807 68.0892 123.191 67.7168C122.576 67.3444 121.831 67.1582 120.957 67.1582C120.083 67.1582 119.339 67.3444 118.723 67.7168C118.121 68.0892 117.627 68.6048 117.24 69.2637C116.868 69.9082 116.596 70.653 116.424 71.498C116.252 72.3288 116.166 73.2168 116.166 74.1621ZM149.531 80.9297V53H155.762V86H150.154L149.531 80.9297ZM134.836 74.6562V74.2051C134.836 72.429 135.036 70.8177 135.438 69.3711C135.839 67.9102 136.426 66.6569 137.199 65.6113C137.973 64.5658 138.925 63.7565 140.057 63.1836C141.188 62.6107 142.477 62.3242 143.924 62.3242C145.285 62.3242 146.473 62.6107 147.49 63.1836C148.521 63.7565 149.395 64.5729 150.111 65.6328C150.842 66.6784 151.429 67.9173 151.873 69.3496C152.317 70.7676 152.639 72.3216 152.84 74.0117V75C152.639 76.6185 152.317 78.1224 151.873 79.5117C151.429 80.901 150.842 82.1185 150.111 83.1641C149.395 84.1953 148.521 84.9974 147.49 85.5703C146.459 86.1432 145.256 86.4297 143.881 86.4297C142.434 86.4297 141.145 86.1361 140.014 85.5488C138.896 84.9616 137.951 84.138 137.178 83.0781C136.419 82.0182 135.839 80.7721 135.438 79.3398C135.036 77.9076 134.836 76.3464 134.836 74.6562ZM141.023 74.2051V74.6562C141.023 75.6159 141.095 76.5111 141.238 77.3418C141.396 78.1725 141.646 78.9102 141.99 79.5547C142.348 80.1849 142.807 80.679 143.365 81.0371C143.938 81.3809 144.633 81.5527 145.449 81.5527C146.509 81.5527 147.383 81.3164 148.07 80.8438C148.758 80.3568 149.281 79.6908 149.639 78.8457C150.011 78.0007 150.226 77.0267 150.283 75.9238V73.1094C150.24 72.207 150.111 71.3978 149.896 70.6816C149.696 69.9512 149.395 69.3281 148.994 68.8125C148.607 68.2969 148.12 67.8958 147.533 67.6094C146.96 67.3229 146.28 67.1797 145.492 67.1797C144.69 67.1797 144.003 67.3659 143.43 67.7383C142.857 68.0964 142.391 68.5905 142.033 69.2207C141.689 69.8509 141.432 70.5957 141.26 71.4551C141.102 72.3001 141.023 73.2168 141.023 74.2051ZM174.346 80.4355V62.7539H180.533V86H174.711L174.346 80.4355ZM175.033 75.666L176.859 75.623C176.859 77.1699 176.68 78.6094 176.322 79.9414C175.964 81.2591 175.427 82.4049 174.711 83.3789C173.995 84.3385 173.092 85.0905 172.004 85.6348C170.915 86.1647 169.633 86.4297 168.158 86.4297C167.027 86.4297 165.981 86.2721 165.021 85.957C164.076 85.6276 163.26 85.1191 162.572 84.4316C161.899 83.7298 161.369 82.8346 160.982 81.7461C160.61 80.6432 160.424 79.3184 160.424 77.7715V62.7539H166.611V77.8145C166.611 78.502 166.69 79.082 166.848 79.5547C167.02 80.0273 167.256 80.4141 167.557 80.7148C167.857 81.0156 168.208 81.2305 168.609 81.3594C169.025 81.4883 169.483 81.5527 169.984 81.5527C171.259 81.5527 172.262 81.2949 172.992 80.7793C173.737 80.2637 174.26 79.5618 174.561 78.6738C174.876 77.7715 175.033 76.7689 175.033 75.666ZM194.863 81.5957C195.622 81.5957 196.296 81.4525 196.883 81.166C197.47 80.8652 197.928 80.4499 198.258 79.9199C198.602 79.3757 198.781 78.7383 198.795 78.0078H204.617C204.603 79.6406 204.166 81.0944 203.307 82.3691C202.447 83.6296 201.294 84.625 199.848 85.3555C198.401 86.0716 196.783 86.4297 194.992 86.4297C193.188 86.4297 191.612 86.1289 190.266 85.5273C188.934 84.9258 187.824 84.0951 186.936 83.0352C186.048 81.9609 185.382 80.7148 184.938 79.2969C184.493 77.8646 184.271 76.332 184.271 74.6992V74.0762C184.271 72.429 184.493 70.8965 184.938 69.4785C185.382 68.0462 186.048 66.8001 186.936 65.7402C187.824 64.666 188.934 63.8281 190.266 63.2266C191.598 62.625 193.159 62.3242 194.949 62.3242C196.854 62.3242 198.523 62.6895 199.955 63.4199C201.402 64.1504 202.533 65.196 203.35 66.5566C204.18 67.903 204.603 69.5 204.617 71.3477H198.795C198.781 70.5742 198.616 69.8724 198.301 69.2422C198 68.612 197.556 68.1107 196.969 67.7383C196.396 67.3516 195.687 67.1582 194.842 67.1582C193.939 67.1582 193.202 67.3516 192.629 67.7383C192.056 68.1107 191.612 68.6263 191.297 69.2852C190.982 69.9297 190.76 70.6673 190.631 71.498C190.516 72.3145 190.459 73.1738 190.459 74.0762V74.6992C190.459 75.6016 190.516 76.4681 190.631 77.2988C190.745 78.1296 190.96 78.8672 191.275 79.5117C191.605 80.1562 192.056 80.6647 192.629 81.0371C193.202 81.4095 193.947 81.5957 194.863 81.5957ZM219.592 62.7539V67.1367H206.057V62.7539H219.592ZM209.408 57.0176H215.596V78.9961C215.596 79.6693 215.682 80.1849 215.854 80.543C216.04 80.901 216.312 81.1517 216.67 81.2949C217.028 81.4238 217.479 81.4883 218.023 81.4883C218.41 81.4883 218.754 81.474 219.055 81.4453C219.37 81.4023 219.635 81.3594 219.85 81.3164L219.871 85.8711C219.341 86.043 218.768 86.179 218.152 86.2793C217.536 86.3796 216.856 86.4297 216.111 86.4297C214.751 86.4297 213.562 86.2077 212.545 85.7637C211.542 85.3053 210.769 84.5749 210.225 83.5723C209.68 82.5697 209.408 81.252 209.408 79.6191V57.0176ZM235.684 79.5762C235.684 79.1322 235.555 78.7311 235.297 78.373C235.039 78.015 234.559 77.6855 233.857 77.3848C233.17 77.0697 232.174 76.7832 230.871 76.5254C229.697 76.2676 228.601 75.9453 227.584 75.5586C226.581 75.1576 225.708 74.6777 224.963 74.1191C224.232 73.5605 223.66 72.9017 223.244 72.1426C222.829 71.3691 222.621 70.4883 222.621 69.5C222.621 68.526 222.829 67.6094 223.244 66.75C223.674 65.8906 224.283 65.1315 225.07 64.4727C225.872 63.7995 226.846 63.2767 227.992 62.9043C229.152 62.5176 230.456 62.3242 231.902 62.3242C233.922 62.3242 235.655 62.6465 237.102 63.291C238.562 63.9355 239.68 64.8236 240.453 65.9551C241.241 67.0723 241.635 68.347 241.635 69.7793H235.447C235.447 69.1777 235.318 68.6406 235.061 68.168C234.817 67.681 234.43 67.3014 233.9 67.0293C233.385 66.7428 232.712 66.5996 231.881 66.5996C231.193 66.5996 230.599 66.7214 230.098 66.9648C229.596 67.194 229.21 67.5091 228.938 67.9102C228.68 68.2969 228.551 68.7266 228.551 69.1992C228.551 69.5573 228.622 69.8796 228.766 70.166C228.923 70.4382 229.174 70.6888 229.518 70.918C229.861 71.1471 230.305 71.362 230.85 71.5625C231.408 71.7487 232.096 71.9206 232.912 72.0781C234.588 72.4219 236.085 72.873 237.402 73.4316C238.72 73.9759 239.766 74.7207 240.539 75.666C241.312 76.597 241.699 77.8216 241.699 79.3398C241.699 80.3711 241.47 81.3164 241.012 82.1758C240.553 83.0352 239.895 83.7871 239.035 84.4316C238.176 85.0618 237.145 85.556 235.941 85.9141C234.753 86.2578 233.413 86.4297 231.924 86.4297C229.761 86.4297 227.928 86.043 226.424 85.2695C224.934 84.4961 223.803 83.515 223.029 82.3262C222.27 81.123 221.891 79.8913 221.891 78.6309H227.756C227.785 79.4759 227.999 80.1562 228.4 80.6719C228.816 81.1875 229.339 81.5599 229.969 81.7891C230.613 82.0182 231.308 82.1328 232.053 82.1328C232.855 82.1328 233.521 82.0254 234.051 81.8105C234.581 81.5814 234.982 81.2806 235.254 80.9082C235.54 80.5215 235.684 80.0775 235.684 79.5762ZM78.0742 106.719H84.498V127.387C84.498 129.793 83.9824 131.82 82.9512 133.467C81.9342 135.114 80.5234 136.353 78.7188 137.184C76.9284 138.014 74.8659 138.43 72.5312 138.43C70.1966 138.43 68.1198 138.014 66.3008 137.184C64.4961 136.353 63.0781 135.114 62.0469 133.467C61.0299 131.82 60.5215 129.793 60.5215 127.387V106.719H66.9668V127.387C66.9668 128.79 67.1888 129.936 67.6328 130.824C68.0768 131.712 68.7142 132.364 69.5449 132.779C70.39 133.195 71.3854 133.402 72.5312 133.402C73.7057 133.402 74.7012 133.195 75.5176 132.779C76.3483 132.364 76.9785 131.712 77.4082 130.824C77.8522 129.936 78.0742 128.79 78.0742 127.387V106.719ZM95.4766 119.717V138H89.2891V114.754H95.0898L95.4766 119.717ZM94.5742 125.561H92.8984C92.8984 123.842 93.1204 122.295 93.5645 120.92C94.0085 119.531 94.6315 118.349 95.4336 117.375C96.2357 116.387 97.1882 115.635 98.291 115.119C99.4082 114.589 100.654 114.324 102.029 114.324C103.118 114.324 104.113 114.482 105.016 114.797C105.918 115.112 106.691 115.613 107.336 116.301C107.995 116.988 108.496 117.898 108.84 119.029C109.198 120.161 109.377 121.543 109.377 123.176V138H103.146V123.154C103.146 122.123 103.003 121.321 102.717 120.748C102.43 120.175 102.008 119.774 101.449 119.545C100.905 119.301 100.232 119.18 99.4297 119.18C98.599 119.18 97.8757 119.344 97.2598 119.674C96.6582 120.003 96.1569 120.462 95.7559 121.049C95.3691 121.622 95.0755 122.295 94.875 123.068C94.6745 123.842 94.5742 124.673 94.5742 125.561ZM127.811 132.93V105H134.041V138H128.434L127.811 132.93ZM113.115 126.656V126.205C113.115 124.429 113.316 122.818 113.717 121.371C114.118 119.91 114.705 118.657 115.479 117.611C116.252 116.566 117.204 115.757 118.336 115.184C119.467 114.611 120.757 114.324 122.203 114.324C123.564 114.324 124.753 114.611 125.77 115.184C126.801 115.757 127.674 116.573 128.391 117.633C129.121 118.678 129.708 119.917 130.152 121.35C130.596 122.768 130.919 124.322 131.119 126.012V127C130.919 128.618 130.596 130.122 130.152 131.512C129.708 132.901 129.121 134.118 128.391 135.164C127.674 136.195 126.801 136.997 125.77 137.57C124.738 138.143 123.535 138.43 122.16 138.43C120.714 138.43 119.424 138.136 118.293 137.549C117.176 136.962 116.23 136.138 115.457 135.078C114.698 134.018 114.118 132.772 113.717 131.34C113.316 129.908 113.115 128.346 113.115 126.656ZM119.303 126.205V126.656C119.303 127.616 119.374 128.511 119.518 129.342C119.675 130.173 119.926 130.91 120.27 131.555C120.628 132.185 121.086 132.679 121.645 133.037C122.217 133.381 122.912 133.553 123.729 133.553C124.788 133.553 125.662 133.316 126.35 132.844C127.037 132.357 127.56 131.691 127.918 130.846C128.29 130.001 128.505 129.027 128.562 127.924V125.109C128.52 124.207 128.391 123.398 128.176 122.682C127.975 121.951 127.674 121.328 127.273 120.812C126.887 120.297 126.4 119.896 125.812 119.609C125.24 119.323 124.559 119.18 123.771 119.18C122.969 119.18 122.282 119.366 121.709 119.738C121.136 120.096 120.671 120.59 120.312 121.221C119.969 121.851 119.711 122.596 119.539 123.455C119.382 124.3 119.303 125.217 119.303 126.205ZM149.574 138.43C147.77 138.43 146.151 138.143 144.719 137.57C143.286 136.983 142.069 136.174 141.066 135.143C140.078 134.111 139.319 132.915 138.789 131.555C138.259 130.18 137.994 128.719 137.994 127.172V126.312C137.994 124.551 138.245 122.939 138.746 121.479C139.247 120.018 139.964 118.75 140.895 117.676C141.84 116.602 142.986 115.778 144.332 115.205C145.678 114.618 147.197 114.324 148.887 114.324C150.534 114.324 151.995 114.596 153.27 115.141C154.544 115.685 155.611 116.458 156.471 117.461C157.344 118.464 158.003 119.667 158.447 121.07C158.891 122.46 159.113 124.007 159.113 125.711V128.289H140.637V124.164H153.033V123.691C153.033 122.832 152.876 122.066 152.561 121.393C152.26 120.705 151.801 120.161 151.186 119.76C150.57 119.359 149.782 119.158 148.822 119.158C148.006 119.158 147.304 119.337 146.717 119.695C146.13 120.053 145.65 120.555 145.277 121.199C144.919 121.844 144.647 122.603 144.461 123.477C144.289 124.336 144.203 125.281 144.203 126.312V127.172C144.203 128.103 144.332 128.962 144.59 129.75C144.862 130.538 145.242 131.218 145.729 131.791C146.23 132.364 146.831 132.808 147.533 133.123C148.249 133.438 149.059 133.596 149.961 133.596C151.078 133.596 152.117 133.381 153.076 132.951C154.05 132.507 154.888 131.841 155.59 130.953L158.598 134.219C158.111 134.921 157.445 135.594 156.6 136.238C155.769 136.883 154.766 137.413 153.592 137.828C152.417 138.229 151.078 138.43 149.574 138.43ZM168.824 119.824V138H162.637V114.754H168.459L168.824 119.824ZM175.828 114.604L175.721 120.34C175.42 120.297 175.055 120.261 174.625 120.232C174.21 120.189 173.83 120.168 173.486 120.168C172.613 120.168 171.854 120.283 171.209 120.512C170.579 120.727 170.049 121.049 169.619 121.479C169.204 121.908 168.889 122.431 168.674 123.047C168.473 123.663 168.359 124.365 168.33 125.152L167.084 124.766C167.084 123.262 167.234 121.88 167.535 120.619C167.836 119.344 168.273 118.234 168.846 117.289C169.433 116.344 170.149 115.613 170.994 115.098C171.839 114.582 172.806 114.324 173.895 114.324C174.238 114.324 174.589 114.353 174.947 114.41C175.305 114.453 175.599 114.518 175.828 114.604ZM209.537 114.561L208.441 118.729H188.182L189.299 114.561H209.537ZM199.16 138L188.805 125.732L188.783 122.059H193.832C195.007 122.059 195.973 121.829 196.732 121.371C197.492 120.913 198.057 120.297 198.43 119.523C198.802 118.736 198.988 117.862 198.988 116.902C198.988 115.9 198.816 115.012 198.473 114.238C198.129 113.465 197.577 112.863 196.818 112.434C196.059 111.99 195.049 111.768 193.789 111.768H188.203L189.471 106.719H193.789C196.367 106.719 198.516 107.105 200.234 107.879C201.953 108.652 203.242 109.77 204.102 111.23C204.961 112.677 205.391 114.432 205.391 116.494C205.391 118.299 205.104 119.882 204.531 121.242C203.958 122.603 203.049 123.727 201.803 124.615C200.557 125.489 198.917 126.105 196.883 126.463L206.207 137.699V138H199.16ZM209.58 106.719L208.463 110.865H191.684L192.801 106.719H209.58ZM216.992 133.295H217.4C219.119 133.295 220.594 133.087 221.826 132.672C223.072 132.242 224.096 131.626 224.898 130.824C225.701 130.022 226.295 129.041 226.682 127.881C227.068 126.706 227.262 125.374 227.262 123.885V117.955C227.262 116.824 227.147 115.828 226.918 114.969C226.703 114.109 226.388 113.4 225.973 112.842C225.572 112.269 225.099 111.839 224.555 111.553C224.025 111.266 223.438 111.123 222.793 111.123C222.105 111.123 221.497 111.295 220.967 111.639C220.437 111.968 219.986 112.419 219.613 112.992C219.255 113.565 218.976 114.224 218.775 114.969C218.589 115.699 218.496 116.465 218.496 117.268C218.496 118.07 218.589 118.836 218.775 119.566C218.962 120.283 219.241 120.92 219.613 121.479C219.986 122.023 220.451 122.46 221.01 122.789C221.568 123.104 222.227 123.262 222.986 123.262C223.717 123.262 224.368 123.126 224.941 122.854C225.529 122.567 226.023 122.195 226.424 121.736C226.839 121.278 227.154 120.77 227.369 120.211C227.598 119.652 227.713 119.087 227.713 118.514L229.754 119.631C229.754 120.633 229.539 121.622 229.109 122.596C228.68 123.57 228.078 124.458 227.305 125.26C226.546 126.048 225.665 126.678 224.662 127.15C223.66 127.623 222.585 127.859 221.439 127.859C219.979 127.859 218.682 127.594 217.551 127.064C216.419 126.52 215.46 125.775 214.672 124.83C213.898 123.87 213.311 122.753 212.91 121.479C212.509 120.204 212.309 118.822 212.309 117.332C212.309 115.814 212.552 114.389 213.039 113.057C213.54 111.725 214.249 110.55 215.166 109.533C216.097 108.516 217.207 107.721 218.496 107.148C219.799 106.561 221.246 106.268 222.836 106.268C224.426 106.268 225.872 106.576 227.176 107.191C228.479 107.807 229.596 108.681 230.527 109.812C231.458 110.93 232.174 112.269 232.676 113.83C233.191 115.391 233.449 117.124 233.449 119.029V121.178C233.449 123.212 233.227 125.102 232.783 126.85C232.354 128.597 231.702 130.18 230.828 131.598C229.969 133.001 228.895 134.204 227.605 135.207C226.331 136.21 224.848 136.976 223.158 137.506C221.468 138.036 219.577 138.301 217.486 138.301H216.992V133.295ZM242.258 133.295H242.666C244.385 133.295 245.86 133.087 247.092 132.672C248.338 132.242 249.362 131.626 250.164 130.824C250.966 130.022 251.561 129.041 251.947 127.881C252.334 126.706 252.527 125.374 252.527 123.885V117.955C252.527 116.824 252.413 115.828 252.184 114.969C251.969 114.109 251.654 113.4 251.238 112.842C250.837 112.269 250.365 111.839 249.82 111.553C249.29 111.266 248.703 111.123 248.059 111.123C247.371 111.123 246.762 111.295 246.232 111.639C245.702 111.968 245.251 112.419 244.879 112.992C244.521 113.565 244.242 114.224 244.041 114.969C243.855 115.699 243.762 116.465 243.762 117.268C243.762 118.07 243.855 118.836 244.041 119.566C244.227 120.283 244.507 120.92 244.879 121.479C245.251 122.023 245.717 122.46 246.275 122.789C246.834 123.104 247.493 123.262 248.252 123.262C248.982 123.262 249.634 123.126 250.207 122.854C250.794 122.567 251.288 122.195 251.689 121.736C252.105 121.278 252.42 120.77 252.635 120.211C252.864 119.652 252.979 119.087 252.979 118.514L255.02 119.631C255.02 120.633 254.805 121.622 254.375 122.596C253.945 123.57 253.344 124.458 252.57 125.26C251.811 126.048 250.93 126.678 249.928 127.15C248.925 127.623 247.851 127.859 246.705 127.859C245.244 127.859 243.948 127.594 242.816 127.064C241.685 126.52 240.725 125.775 239.938 124.83C239.164 123.87 238.577 122.753 238.176 121.479C237.775 120.204 237.574 118.822 237.574 117.332C237.574 115.814 237.818 114.389 238.305 113.057C238.806 111.725 239.515 110.55 240.432 109.533C241.363 108.516 242.473 107.721 243.762 107.148C245.065 106.561 246.512 106.268 248.102 106.268C249.691 106.268 251.138 106.576 252.441 107.191C253.745 107.807 254.862 108.681 255.793 109.812C256.724 110.93 257.44 112.269 257.941 113.83C258.457 115.391 258.715 117.124 258.715 119.029V121.178C258.715 123.212 258.493 125.102 258.049 126.85C257.619 128.597 256.967 130.18 256.094 131.598C255.234 133.001 254.16 134.204 252.871 135.207C251.596 136.21 250.114 136.976 248.424 137.506C246.734 138.036 244.843 138.301 242.752 138.301H242.258V133.295Z" fill="white"/>
</svg>
