<svg width="513" height="114" viewBox="0 0 513 114" fill="none" xmlns="http://www.w3.org/2000/svg">
<path d="M35.5324 22.4316V24.3847C35.5324 27.5171 35.1078 30.3287 34.2587 32.8195C33.4095 35.3104 32.2113 37.4332 30.6639 39.1882C29.1166 40.9242 27.2673 42.2545 25.1162 43.1792C22.9839 44.1038 20.6157 44.5661 18.0116 44.5661C15.4264 44.5661 13.0582 44.1038 10.9071 43.1792C8.77476 42.2545 6.9255 40.9242 5.35929 39.1882C3.79308 37.4332 2.57597 35.3104 1.70795 32.8195C0.858802 30.3287 0.434228 27.5171 0.434228 24.3847V22.4316C0.434228 19.2803 0.858802 16.4687 1.70795 13.9967C2.5571 11.5059 3.75534 9.38302 5.30268 7.62811C6.86889 5.8732 8.71815 4.53343 10.8505 3.6088C13.0016 2.68417 15.3698 2.22186 17.955 2.22186C20.5591 2.22186 22.9272 2.68417 25.0596 3.6088C27.2107 4.53343 29.06 5.8732 30.6073 7.62811C32.1735 9.38302 33.3812 11.5059 34.2304 13.9967C35.0984 16.4687 35.5324 19.2803 35.5324 22.4316ZM26.956 24.3847V22.375C26.956 20.1861 26.7579 18.2613 26.3616 16.6008C25.9653 14.9402 25.3803 13.5438 24.6067 12.4116C23.833 11.2795 22.8895 10.4303 21.7762 9.8642C20.6628 9.27923 19.3891 8.98675 17.955 8.98675C16.5209 8.98675 15.2472 9.27923 14.1338 9.8642C13.0394 10.4303 12.1053 11.2795 11.3316 12.4116C10.5768 13.5438 10.0013 14.9402 9.60504 16.6008C9.20877 18.2613 9.01063 20.1861 9.01063 22.375V24.3847C9.01063 26.5547 9.20877 28.4794 9.60504 30.1589C10.0013 31.8194 10.5863 33.2252 11.3599 34.3763C12.1336 35.5085 13.0771 36.3671 14.1904 36.9521C15.3038 37.537 16.5775 37.8295 18.0116 37.8295C19.4457 37.8295 20.7195 37.537 21.8328 36.9521C22.9461 36.3671 23.8802 35.5085 24.635 34.3763C25.3898 33.2252 25.9653 31.8194 26.3616 30.1589C26.7579 28.4794 26.956 26.5547 26.956 24.3847ZM51.553 38.056L58.3462 13.374H66.866L56.5347 44H51.3832L51.553 38.056ZM46.8827 13.374L53.7042 38.0843L53.8457 44H48.6659L38.3346 13.374H46.8827ZM84.2169 44.5661C81.8393 44.5661 79.707 44.1887 77.82 43.4339C75.933 42.6602 74.3291 41.5941 73.0082 40.2354C71.7061 38.8768 70.706 37.3012 70.0078 35.5085C69.3097 33.697 68.9606 31.7723 68.9606 29.7343V28.6021C68.9606 26.2811 69.2908 24.1582 69.9512 22.2335C70.6117 20.3087 71.5552 18.6387 72.7817 17.2235C74.0272 15.8082 75.5368 14.7232 77.3105 13.9684C79.0843 13.1948 81.0845 12.8079 83.3112 12.8079C85.4812 12.8079 87.406 13.1664 89.0854 13.8835C90.7648 14.6006 92.1706 15.6195 93.3028 16.9404C94.4539 18.2613 95.3219 19.8464 95.9069 21.6957C96.4919 23.5261 96.7844 25.564 96.7844 27.8096V31.2062H72.4421V25.7716H88.774V25.1489C88.774 24.0167 88.5665 23.0071 88.1513 22.1203C87.7551 21.2145 87.1512 20.4974 86.3398 19.9691C85.5284 19.4407 84.4906 19.1765 83.2263 19.1765C82.1507 19.1765 81.2261 19.4124 80.4524 19.8842C79.6787 20.3559 79.0466 21.0164 78.556 21.8655C78.0842 22.7147 77.7257 23.7148 77.4804 24.8658C77.2539 25.998 77.1407 27.2435 77.1407 28.6021V29.7343C77.1407 30.9608 77.3105 32.093 77.6502 33.1309C78.0087 34.1687 78.5088 35.0651 79.1504 35.8199C79.8108 36.5747 80.6033 37.1596 81.528 37.5748C82.4715 37.9899 83.5376 38.1975 84.7264 38.1975C86.1983 38.1975 87.5664 37.9144 88.8307 37.3483C90.1138 36.7634 91.2177 35.8859 92.1423 34.716L96.105 39.0183C95.4635 39.943 94.586 40.8298 93.4727 41.679C92.3782 42.5281 91.0573 43.2263 89.51 43.7736C87.9626 44.3019 86.1983 44.5661 84.2169 44.5661ZM109.578 20.054V44H101.426V13.374H109.097L109.578 20.054ZM118.806 13.1759L118.664 20.7333C118.268 20.6767 117.787 20.6295 117.221 20.5918C116.673 20.5352 116.173 20.5069 115.72 20.5069C114.569 20.5069 113.569 20.6578 112.72 20.9598C111.89 21.2428 111.192 21.6674 110.625 22.2335C110.078 22.7996 109.663 23.4883 109.38 24.2997C109.116 25.1111 108.965 26.0358 108.927 27.0736L107.286 26.5641C107.286 24.5828 107.484 22.7618 107.88 21.1013C108.276 19.4218 108.852 17.9594 109.607 16.714C110.38 15.4686 111.324 14.5062 112.437 13.8269C113.55 13.1476 114.824 12.8079 116.258 12.8079C116.711 12.8079 117.173 12.8457 117.645 12.9211C118.117 12.9777 118.504 13.0627 118.806 13.1759ZM156.621 2.70304V44H148.469V12.1003L138.676 15.2138V8.78861L155.744 2.70304H156.621ZM197.777 19.7709V26.9038C197.777 29.9985 197.446 32.6686 196.786 34.9141C196.125 37.1408 195.172 38.9711 193.927 40.4053C192.7 41.8205 191.238 42.8678 189.54 43.5471C187.841 44.2264 185.954 44.5661 183.879 44.5661C182.218 44.5661 180.671 44.3585 179.237 43.9434C177.803 43.5094 176.51 42.8395 175.359 41.9337C174.227 41.028 173.246 39.8863 172.415 38.5088C171.604 37.1125 170.981 35.4519 170.547 33.5272C170.113 31.6024 169.896 29.3946 169.896 26.9038V19.7709C169.896 16.6763 170.226 14.025 170.887 11.8172C171.566 9.59059 172.519 7.76963 173.746 6.35439C174.991 4.93914 176.463 3.90129 178.161 3.24084C179.859 2.56152 181.746 2.22186 183.822 2.22186C185.483 2.22186 187.021 2.43886 188.436 2.87287C189.87 3.28801 191.163 3.93903 192.314 4.82592C193.465 5.71281 194.446 6.85444 195.257 8.25082C196.069 9.62833 196.691 11.2795 197.125 13.2042C197.56 15.1101 197.777 17.299 197.777 19.7709ZM189.596 27.9794V18.667C189.596 17.1763 189.511 15.8743 189.342 14.761C189.191 13.6476 188.955 12.7041 188.634 11.9305C188.313 11.1379 187.917 10.4963 187.445 10.0057C186.973 9.51511 186.436 9.15658 185.832 8.93014C185.228 8.7037 184.558 8.59048 183.822 8.59048C182.898 8.59048 182.077 8.76974 181.36 9.12827C180.661 9.4868 180.067 10.0623 179.576 10.8549C179.086 11.6285 178.708 12.6664 178.444 13.9684C178.199 15.2516 178.076 16.8178 178.076 18.667V27.9794C178.076 29.4701 178.152 30.7816 178.303 31.9138C178.473 33.046 178.718 34.0178 179.039 34.8292C179.378 35.6217 179.775 36.2727 180.227 36.7822C180.699 37.2729 181.237 37.6314 181.841 37.8578C182.464 38.0843 183.143 38.1975 183.879 38.1975C184.785 38.1975 185.587 38.0182 186.285 37.6597C187.002 37.2823 187.606 36.6973 188.096 35.9048C188.606 35.0934 188.983 34.0366 189.228 32.7346C189.474 31.4326 189.596 29.8475 189.596 27.9794ZM245.102 37.3766V44H224.355V37.3766H245.102ZM227.1 2.78796V44H218.609V2.78796H227.1ZM265.991 37.0936V23.4506C265.991 22.4694 265.831 21.6296 265.51 20.9314C265.19 20.2144 264.689 19.6577 264.01 19.2615C263.35 18.8652 262.491 18.667 261.434 18.667C260.529 18.667 259.746 18.8274 259.085 19.1482C258.425 19.4502 257.915 19.8936 257.557 20.4786C257.198 21.0447 257.019 21.7146 257.019 22.4882H248.867C248.867 21.1862 249.169 19.9502 249.773 18.7803C250.377 17.6103 251.254 16.5819 252.405 15.695C253.556 14.7893 254.924 14.0816 256.509 13.5722C258.113 13.0627 259.906 12.8079 261.887 12.8079C264.265 12.8079 266.378 13.2042 268.228 13.9967C270.077 14.7893 271.53 15.9781 272.587 17.5632C273.662 19.1482 274.2 21.1296 274.2 23.5072V36.6124C274.2 38.2918 274.304 39.6693 274.511 40.7449C274.719 41.8016 275.021 42.7263 275.417 43.5188V44H267.18C266.784 43.1697 266.482 42.1319 266.275 40.8865C266.086 39.6222 265.991 38.3579 265.991 37.0936ZM267.067 25.347L267.124 29.9607H262.567C261.491 29.9607 260.557 30.0834 259.764 30.3287C258.972 30.574 258.321 30.9231 257.811 31.376C257.302 31.81 256.924 32.3195 256.679 32.9045C256.453 33.4894 256.339 34.131 256.339 34.8292C256.339 35.5274 256.5 36.1595 256.821 36.7256C257.141 37.2729 257.604 37.7069 258.208 38.0277C258.811 38.3296 259.519 38.4805 260.33 38.4805C261.557 38.4805 262.623 38.2352 263.529 37.7446C264.435 37.254 265.133 36.6501 265.624 35.9331C266.133 35.216 266.397 34.5367 266.416 33.8951L268.567 37.3483C268.265 38.122 267.85 38.924 267.322 39.7543C266.812 40.5845 266.161 41.3676 265.369 42.1036C264.576 42.8206 263.623 43.415 262.51 43.8868C261.397 44.3397 260.076 44.5661 258.547 44.5661C256.604 44.5661 254.839 44.1793 253.254 43.4056C251.688 42.6131 250.443 41.528 249.518 40.1505C248.612 38.7541 248.159 37.1691 248.159 35.3953C248.159 33.7913 248.461 32.3667 249.065 31.1212C249.669 29.8758 250.556 28.8285 251.726 27.9794C252.915 27.1114 254.396 26.4604 256.17 26.0263C257.943 25.5735 260 25.347 262.34 25.347H267.067ZM288.635 0.495256V44H280.484V0.495256H288.635ZM307.939 13.374L294.636 28.5455L287.503 35.7633L284.531 29.8758L290.192 22.6864L298.146 13.374H307.939ZM299.476 44L290.419 29.8475L296.051 24.9224L308.874 44H299.476ZM319.403 0.523561V44H311.251V0.523561H319.403ZM318.242 27.6114H316.006C316.025 25.4791 316.308 23.5166 316.856 21.724C317.403 19.9125 318.186 18.3463 319.205 17.0254C320.224 15.6856 321.441 14.6477 322.856 13.9118C324.29 13.1759 325.875 12.8079 327.611 12.8079C329.121 12.8079 330.489 13.0249 331.716 13.4589C332.961 13.8741 334.027 14.5534 334.914 15.4969C335.82 16.4215 336.518 17.6386 337.009 19.1482C337.499 20.6578 337.745 22.4882 337.745 24.6394V44H329.536V24.5828C329.536 23.2241 329.338 22.158 328.942 21.3843C328.564 20.5918 328.008 20.0351 327.272 19.7143C326.555 19.3747 325.668 19.2048 324.611 19.2048C323.441 19.2048 322.441 19.4218 321.611 19.8559C320.799 20.2899 320.148 20.8937 319.658 21.6674C319.167 22.4222 318.809 23.3091 318.582 24.328C318.356 25.347 318.242 26.4415 318.242 27.6114ZM17.7286 98.3097H7.22742V91.6864H17.7286C19.3514 91.6864 20.6723 91.4222 21.6913 90.8938C22.7102 90.3466 23.4556 89.5918 23.9274 88.6294C24.3991 87.667 24.635 86.582 24.635 85.3743C24.635 84.1478 24.3991 83.0062 23.9274 81.9494C23.4556 80.8927 22.7102 80.0436 21.6913 79.402C20.6723 78.7604 19.3514 78.4396 17.7286 78.4396H10.1711V113H1.67965V71.788H17.7286C20.9553 71.788 23.7198 72.3729 26.0219 73.5429C28.3429 74.6939 30.1167 76.2884 31.3433 78.3264C32.5698 80.3644 33.1831 82.6948 33.1831 85.3177C33.1831 87.9784 32.5698 90.2805 31.3433 92.2241C30.1167 94.1678 28.3429 95.6679 26.0219 96.7246C23.7198 97.7814 20.9553 98.3097 17.7286 98.3097ZM46.6846 89.054V113H38.5327V82.374H46.2034L46.6846 89.054ZM55.912 82.1759L55.7705 89.7333C55.3742 89.6767 54.893 89.6295 54.3269 89.5918C53.7797 89.5352 53.2796 89.5069 52.8267 89.5069C51.6757 89.5069 50.6756 89.6578 49.8264 89.9598C48.9961 90.2428 48.2979 90.6674 47.7318 91.2335C47.1846 91.7996 46.7695 92.4883 46.4864 93.2997C46.2222 94.1111 46.0713 95.0358 46.0335 96.0736L44.3919 95.5641C44.3919 93.5828 44.59 91.7618 44.9863 90.1013C45.3825 88.4218 45.9581 86.9594 46.7129 85.714C47.4865 84.4686 48.43 83.5062 49.5434 82.8269C50.6567 82.1476 51.9304 81.8079 53.3645 81.8079C53.8174 81.8079 54.2797 81.8457 54.7515 81.9211C55.2232 81.9777 55.6101 82.0627 55.912 82.1759ZM57.6103 97.9984V97.404C57.6103 95.1584 57.9311 93.0922 58.5726 91.2052C59.2142 89.2993 60.1483 87.6482 61.3748 86.2518C62.6014 84.8554 64.111 83.7704 65.9036 82.9967C67.6963 82.2042 69.7531 81.8079 72.0741 81.8079C74.3951 81.8079 76.4614 82.2042 78.2729 82.9967C80.0844 83.7704 81.6035 84.8554 82.83 86.2518C84.0754 87.6482 85.0189 89.2993 85.6605 91.2052C86.3021 93.0922 86.6229 95.1584 86.6229 97.404V97.9984C86.6229 100.225 86.3021 102.291 85.6605 104.197C85.0189 106.084 84.0754 107.735 82.83 109.151C81.6035 110.547 80.0939 111.632 78.3012 112.406C76.5086 113.179 74.4517 113.566 72.1307 113.566C69.8097 113.566 67.7435 113.179 65.9319 112.406C64.1393 111.632 62.6203 110.547 61.3748 109.151C60.1483 107.735 59.2142 106.084 58.5726 104.197C57.9311 102.291 57.6103 100.225 57.6103 97.9984ZM65.7621 97.404V97.9984C65.7621 99.2815 65.8753 100.48 66.1018 101.593C66.3282 102.706 66.6867 103.688 67.1774 104.537C67.6868 105.367 68.3473 106.018 69.1587 106.49C69.9701 106.962 70.9608 107.197 72.1307 107.197C73.2629 107.197 74.2347 106.962 75.0461 106.49C75.8575 106.018 76.5086 105.367 76.9992 104.537C77.4898 103.688 77.8483 102.706 78.0748 101.593C78.3201 100.48 78.4427 99.2815 78.4427 97.9984V97.404C78.4427 96.1585 78.3201 94.9886 78.0748 93.8941C77.8483 92.7808 77.4804 91.7996 76.9709 90.9504C76.4803 90.0824 75.8292 89.4031 75.0178 88.9125C74.2064 88.4218 73.2252 88.1765 72.0741 88.1765C70.923 88.1765 69.9418 88.4218 69.1304 88.9125C68.3379 89.4031 67.6868 90.0824 67.1774 90.9504C66.6867 91.7996 66.3282 92.7808 66.1018 93.8941C65.8753 94.9886 65.7621 96.1585 65.7621 97.404ZM109.72 106.32V69.5236H117.928V113H110.541L109.72 106.32ZM90.3591 98.055V97.4606C90.3591 95.1207 90.6233 92.9978 91.1517 91.092C91.68 89.1672 92.4537 87.5161 93.4727 86.1386C94.4917 84.7611 95.7465 83.6949 97.2372 82.9401C98.728 82.1853 100.426 81.8079 102.332 81.8079C104.125 81.8079 105.691 82.1853 107.031 82.9401C108.389 83.6949 109.54 84.7705 110.484 86.1669C111.446 87.5444 112.22 89.1766 112.805 91.0636C113.39 92.9318 113.815 94.9792 114.079 97.2058V98.5079C113.815 100.64 113.39 102.622 112.805 104.452C112.22 106.282 111.446 107.886 110.484 109.264C109.54 110.622 108.389 111.679 107.031 112.434C105.672 113.189 104.087 113.566 102.276 113.566C100.37 113.566 98.6714 113.179 97.1806 112.406C95.7088 111.632 94.4633 110.547 93.4444 109.151C92.4443 107.754 91.68 106.112 91.1517 104.225C90.6233 102.338 90.3591 100.282 90.3591 98.055ZM98.511 97.4606V98.055C98.511 99.3193 98.6053 100.499 98.794 101.593C99.0016 102.688 99.3318 103.659 99.7847 104.509C100.256 105.339 100.86 105.99 101.596 106.462C102.351 106.914 103.266 107.141 104.342 107.141C105.738 107.141 106.889 106.83 107.795 106.207C108.701 105.565 109.39 104.688 109.861 103.574C110.352 102.461 110.635 101.178 110.71 99.725V96.017C110.654 94.8282 110.484 93.7621 110.201 92.8186C109.937 91.8562 109.54 91.0353 109.012 90.356C108.503 89.6767 107.861 89.1483 107.087 88.7709C106.333 88.3935 105.436 88.2048 104.398 88.2048C103.342 88.2048 102.436 88.4502 101.681 88.9408C100.926 89.4125 100.313 90.0635 99.8413 90.8938C99.3884 91.7241 99.0488 92.7053 98.8223 93.8375C98.6147 94.9509 98.511 96.1585 98.511 97.4606ZM142.412 105.669V82.374H150.564V113H142.893L142.412 105.669ZM143.318 99.3853L145.724 99.3287C145.724 101.367 145.488 103.263 145.016 105.018C144.544 106.754 143.837 108.264 142.893 109.547C141.95 110.811 140.761 111.802 139.327 112.519C137.893 113.217 136.204 113.566 134.26 113.566C132.769 113.566 131.392 113.359 130.128 112.943C128.882 112.509 127.807 111.839 126.901 110.934C126.014 110.009 125.316 108.83 124.806 107.396C124.316 105.943 124.07 104.197 124.07 102.159V82.374H132.222V102.216C132.222 103.122 132.326 103.886 132.534 104.509C132.76 105.131 133.071 105.641 133.468 106.037C133.864 106.433 134.326 106.716 134.855 106.886C135.402 107.056 136.006 107.141 136.666 107.141C138.345 107.141 139.666 106.801 140.629 106.122C141.61 105.443 142.299 104.518 142.695 103.348C143.11 102.159 143.318 100.838 143.318 99.3853ZM169.443 107.197C170.443 107.197 171.33 107.009 172.104 106.631C172.878 106.235 173.481 105.688 173.915 104.99C174.368 104.273 174.604 103.433 174.623 102.471H182.294C182.275 104.622 181.699 106.537 180.567 108.216C179.435 109.877 177.916 111.188 176.01 112.151C174.104 113.094 171.972 113.566 169.613 113.566C167.235 113.566 165.16 113.17 163.386 112.377C161.631 111.585 160.169 110.49 158.999 109.094C157.829 107.679 156.951 106.037 156.366 104.169C155.781 102.282 155.489 100.263 155.489 98.1116V97.2907C155.489 95.1207 155.781 93.1016 156.366 91.2335C156.951 89.3465 157.829 87.7048 158.999 86.3084C160.169 84.8932 161.631 83.7893 163.386 82.9967C165.141 82.2042 167.198 81.8079 169.556 81.8079C172.066 81.8079 174.265 82.2891 176.152 83.2515C178.057 84.2138 179.548 85.5914 180.624 87.384C181.718 89.1578 182.275 91.2618 182.294 93.696H174.623C174.604 92.677 174.387 91.7524 173.972 90.9221C173.576 90.0918 172.991 89.4314 172.217 88.9408C171.462 88.4313 170.528 88.1765 169.415 88.1765C168.226 88.1765 167.254 88.4313 166.5 88.9408C165.745 89.4314 165.16 90.1107 164.745 90.9787C164.329 91.8279 164.037 92.7997 163.867 93.8941C163.716 94.9697 163.641 96.1019 163.641 97.2907V98.1116C163.641 99.3004 163.716 100.442 163.867 101.536C164.018 102.631 164.301 103.603 164.716 104.452C165.15 105.301 165.745 105.971 166.5 106.462C167.254 106.952 168.236 107.197 169.443 107.197ZM202.022 82.374V88.1482H184.19V82.374H202.022ZM188.606 74.8166H196.758V103.773C196.758 104.659 196.871 105.339 197.097 105.811C197.343 106.282 197.701 106.613 198.173 106.801C198.645 106.971 199.239 107.056 199.956 107.056C200.465 107.056 200.918 107.037 201.315 106.999C201.73 106.943 202.079 106.886 202.362 106.83L202.39 112.83C201.692 113.057 200.937 113.236 200.126 113.368C199.314 113.5 198.418 113.566 197.437 113.566C195.644 113.566 194.078 113.274 192.738 112.689C191.417 112.085 190.398 111.122 189.681 109.802C188.964 108.481 188.606 106.745 188.606 104.593V74.8166ZM223.223 104.537C223.223 103.952 223.053 103.423 222.713 102.952C222.374 102.48 221.741 102.046 220.817 101.65C219.911 101.235 218.6 100.857 216.882 100.518C215.335 100.178 213.891 99.7533 212.552 99.2438C211.231 98.7154 210.08 98.0833 209.098 97.3473C208.136 96.6114 207.381 95.7434 206.834 94.7433C206.287 93.7243 206.013 92.5638 206.013 91.2618C206.013 89.9786 206.287 88.7709 206.834 87.6387C207.4 86.5065 208.202 85.5064 209.24 84.6384C210.297 83.7515 211.58 83.0628 213.089 82.5722C214.618 82.0627 216.335 81.8079 218.241 81.8079C220.902 81.8079 223.185 82.2325 225.091 83.0816C227.016 83.9308 228.487 85.1007 229.506 86.5915C230.544 88.0633 231.063 89.7427 231.063 91.6297H222.911C222.911 90.8372 222.741 90.1296 222.402 89.5069C222.081 88.8653 221.572 88.3652 220.873 88.0067C220.194 87.6293 219.307 87.4406 218.213 87.4406C217.307 87.4406 216.524 87.601 215.863 87.9218C215.203 88.2237 214.693 88.6389 214.335 89.1672C213.995 89.6767 213.825 90.2428 213.825 90.8655C213.825 91.3373 213.92 91.7618 214.108 92.1392C214.316 92.4978 214.646 92.828 215.099 93.1299C215.552 93.4318 216.137 93.7149 216.854 93.9791C217.59 94.2244 218.496 94.4508 219.571 94.6584C221.779 95.1113 223.751 95.7057 225.487 96.4416C227.223 97.1586 228.601 98.1399 229.62 99.3853C230.639 100.612 231.148 102.225 231.148 104.225C231.148 105.584 230.846 106.83 230.242 107.962C229.638 109.094 228.77 110.085 227.638 110.934C226.506 111.764 225.147 112.415 223.562 112.887C221.996 113.34 220.232 113.566 218.269 113.566C215.42 113.566 213.005 113.057 211.023 112.038C209.061 111.019 207.57 109.726 206.551 108.16C205.551 106.575 205.051 104.952 205.051 103.291H212.778C212.816 104.405 213.099 105.301 213.627 105.98C214.175 106.66 214.863 107.15 215.694 107.452C216.543 107.754 217.458 107.905 218.439 107.905C219.496 107.905 220.373 107.764 221.071 107.481C221.77 107.179 222.298 106.782 222.657 106.292C223.034 105.782 223.223 105.197 223.223 104.537ZM274.143 71.788H282.607V99.0173C282.607 102.188 281.927 104.858 280.569 107.028C279.229 109.198 277.37 110.83 274.992 111.924C272.634 113.019 269.916 113.566 266.841 113.566C263.765 113.566 261.029 113.019 258.632 111.924C256.255 110.83 254.386 109.198 253.028 107.028C251.688 104.858 251.018 102.188 251.018 99.0173V71.788H259.51V99.0173C259.51 100.867 259.802 102.376 260.387 103.546C260.972 104.716 261.812 105.575 262.906 106.122C264.02 106.669 265.331 106.943 266.841 106.943C268.388 106.943 269.699 106.669 270.775 106.122C271.869 105.575 272.7 104.716 273.266 103.546C273.851 102.376 274.143 100.867 274.143 99.0173V71.788ZM297.07 88.9125V113H288.919V82.374H296.561L297.07 88.9125ZM295.882 96.6114H293.674C293.674 94.347 293.966 92.3091 294.551 90.4975C295.136 88.6672 295.957 87.1104 297.014 85.8272C298.07 84.5252 299.325 83.5345 300.778 82.8552C302.25 82.157 303.892 81.8079 305.703 81.8079C307.137 81.8079 308.449 82.0155 309.638 82.4306C310.827 82.8458 311.846 83.5062 312.695 84.412C313.563 85.3177 314.223 86.516 314.676 88.0067C315.148 89.4974 315.384 91.3184 315.384 93.4696V113H307.175V93.4413C307.175 92.0826 306.987 91.0259 306.609 90.2711C306.232 89.5163 305.675 88.9879 304.939 88.686C304.222 88.3652 303.335 88.2048 302.278 88.2048C301.184 88.2048 300.231 88.4218 299.42 88.8559C298.627 89.2899 297.967 89.8937 297.438 90.6674C296.929 91.4222 296.542 92.3091 296.278 93.328C296.014 94.347 295.882 95.4415 295.882 96.6114ZM339.669 106.32V69.5236H347.878V113H340.49L339.669 106.32ZM320.309 98.055V97.4606C320.309 95.1207 320.573 92.9978 321.101 91.092C321.63 89.1672 322.403 87.5161 323.422 86.1386C324.441 84.7611 325.696 83.6949 327.187 82.9401C328.678 82.1853 330.376 81.8079 332.282 81.8079C334.074 81.8079 335.641 82.1853 336.98 82.9401C338.339 83.6949 339.49 84.7705 340.434 86.1669C341.396 87.5444 342.17 89.1766 342.755 91.0636C343.34 92.9318 343.764 94.9792 344.028 97.2058V98.5079C343.764 100.64 343.34 102.622 342.755 104.452C342.17 106.282 341.396 107.886 340.434 109.264C339.49 110.622 338.339 111.679 336.98 112.434C335.622 113.189 334.037 113.566 332.225 113.566C330.319 113.566 328.621 113.179 327.13 112.406C325.658 111.632 324.413 110.547 323.394 109.151C322.394 107.754 321.63 106.112 321.101 104.225C320.573 102.338 320.309 100.282 320.309 98.055ZM328.461 97.4606V98.055C328.461 99.3193 328.555 100.499 328.744 101.593C328.951 102.688 329.281 103.659 329.734 104.509C330.206 105.339 330.81 105.99 331.546 106.462C332.301 106.914 333.216 107.141 334.291 107.141C335.688 107.141 336.839 106.83 337.745 106.207C338.65 105.565 339.339 104.688 339.811 103.574C340.301 102.461 340.585 101.178 340.66 99.725V96.017C340.603 94.8282 340.434 93.7621 340.151 92.8186C339.886 91.8562 339.49 91.0353 338.962 90.356C338.452 89.6767 337.811 89.1483 337.037 88.7709C336.282 88.3935 335.386 88.2048 334.348 88.2048C333.291 88.2048 332.386 88.4502 331.631 88.9408C330.876 89.4125 330.263 90.0635 329.791 90.8938C329.338 91.7241 328.998 92.7053 328.772 93.8375C328.564 94.9509 328.461 96.1585 328.461 97.4606ZM368.342 113.566C365.965 113.566 363.832 113.189 361.945 112.434C360.058 111.66 358.454 110.594 357.133 109.235C355.831 107.877 354.831 106.301 354.133 104.509C353.435 102.697 353.086 100.772 353.086 98.7343V97.6021C353.086 95.2811 353.416 93.1582 354.077 91.2335C354.737 89.3087 355.681 87.6387 356.907 86.2235C358.152 84.8082 359.662 83.7232 361.436 82.9684C363.21 82.1948 365.21 81.8079 367.437 81.8079C369.607 81.8079 371.531 82.1664 373.211 82.8835C374.89 83.6006 376.296 84.6195 377.428 85.9404C378.579 87.2613 379.447 88.8464 380.032 90.6957C380.617 92.5261 380.91 94.564 380.91 96.8096V100.206H356.567V94.7716H372.899V94.1489C372.899 93.0167 372.692 92.0071 372.277 91.1203C371.88 90.2145 371.277 89.4974 370.465 88.9691C369.654 88.4407 368.616 88.1765 367.352 88.1765C366.276 88.1765 365.351 88.4124 364.578 88.8842C363.804 89.3559 363.172 90.0164 362.681 90.8655C362.21 91.7147 361.851 92.7148 361.606 93.8658C361.379 94.998 361.266 96.2435 361.266 97.6021V98.7343C361.266 99.9608 361.436 101.093 361.776 102.131C362.134 103.169 362.634 104.065 363.276 104.82C363.936 105.575 364.729 106.16 365.653 106.575C366.597 106.99 367.663 107.197 368.852 107.197C370.324 107.197 371.692 106.914 372.956 106.348C374.239 105.763 375.343 104.886 376.268 103.716L380.23 108.018C379.589 108.943 378.711 109.83 377.598 110.679C376.504 111.528 375.183 112.226 373.635 112.774C372.088 113.302 370.324 113.566 368.342 113.566ZM393.704 89.054V113H385.552V82.374H393.222L393.704 89.054ZM402.931 82.1759L402.789 89.7333C402.393 89.6767 401.912 89.6295 401.346 89.5918C400.799 89.5352 400.299 89.5069 399.846 89.5069C398.695 89.5069 397.695 89.6578 396.845 89.9598C396.015 90.2428 395.317 90.6674 394.751 91.2335C394.204 91.7996 393.788 92.4883 393.505 93.2997C393.241 94.1111 393.09 95.0358 393.053 96.0736L391.411 95.5641C391.411 93.5828 391.609 91.7618 392.005 90.1013C392.402 88.4218 392.977 86.9594 393.732 85.714C394.506 84.4686 395.449 83.5062 396.562 82.8269C397.676 82.1476 398.949 81.8079 400.384 81.8079C400.836 81.8079 401.299 81.8457 401.77 81.9211C402.242 81.9777 402.629 82.0627 402.931 82.1759ZM447.341 82.1193L445.898 87.6104H419.206L420.678 82.1193H447.341ZM433.67 113L420.027 96.8379L419.999 91.9977H426.651C428.198 91.9977 429.472 91.6958 430.472 91.092C431.472 90.4881 432.217 89.6767 432.708 88.6577C433.198 87.6199 433.444 86.4688 433.444 85.2045C433.444 83.8836 433.217 82.7137 432.764 81.6947C432.312 80.6757 431.585 79.8832 430.585 79.3171C429.585 78.7321 428.254 78.4396 426.594 78.4396H419.235L420.905 71.788H426.594C429.991 71.788 432.821 72.2974 435.085 73.3164C437.35 74.3354 439.048 75.8073 440.18 77.732C441.312 79.6379 441.879 81.9494 441.879 84.6667C441.879 87.0443 441.501 89.1295 440.746 90.9221C439.992 92.7148 438.793 94.1961 437.152 95.366C435.51 96.5171 433.349 97.3285 430.67 97.8002L442.954 112.604V113H433.67ZM447.398 71.788L445.926 77.2508H423.82L425.292 71.788H447.398ZM457.163 106.801H457.701C459.965 106.801 461.909 106.528 463.532 105.98C465.174 105.414 466.523 104.603 467.58 103.546C468.636 102.489 469.419 101.197 469.929 99.6684C470.438 98.121 470.693 96.3661 470.693 94.4036V86.5915C470.693 85.1007 470.542 83.7893 470.24 82.6571C469.957 81.5249 469.542 80.5908 468.995 79.8549C468.466 79.1001 467.844 78.534 467.127 78.1566C466.428 77.7792 465.655 77.5905 464.806 77.5905C463.9 77.5905 463.098 77.8169 462.4 78.2698C461.702 78.7038 461.107 79.2982 460.616 80.053C460.145 80.8078 459.777 81.6758 459.513 82.6571C459.267 83.6194 459.145 84.629 459.145 85.6857C459.145 86.7424 459.267 87.752 459.513 88.7143C459.758 89.6578 460.126 90.4975 460.616 91.2335C461.107 91.9505 461.72 92.5261 462.456 92.9601C463.192 93.3752 464.06 93.5828 465.06 93.5828C466.023 93.5828 466.881 93.4035 467.636 93.045C468.41 92.6676 469.061 92.177 469.589 91.5731C470.136 90.9693 470.552 90.2994 470.835 89.5635C471.136 88.8276 471.287 88.0822 471.287 87.3274L473.976 88.7992C473.976 90.1201 473.693 91.4222 473.127 92.7053C472.561 93.9885 471.769 95.1584 470.75 96.2152C469.75 97.253 468.589 98.0833 467.268 98.706C465.947 99.3287 464.532 99.6401 463.022 99.6401C461.098 99.6401 459.39 99.291 457.899 98.5928C456.408 97.8757 455.144 96.8945 454.106 95.6491C453.087 94.3848 452.314 92.9129 451.785 91.2335C451.257 89.554 450.993 87.7331 450.993 85.7706C450.993 83.7704 451.314 81.8928 451.955 80.1379C452.616 78.383 453.55 76.8357 454.757 75.4959C455.984 74.1561 457.446 73.1089 459.145 72.3541C460.862 71.5804 462.768 71.1936 464.862 71.1936C466.957 71.1936 468.863 71.5993 470.58 72.4107C472.297 73.2221 473.769 74.3731 474.995 75.8639C476.222 77.3357 477.165 79.1001 477.826 81.1569C478.505 83.2137 478.845 85.497 478.845 88.0067V90.8372C478.845 93.5167 478.552 96.0076 477.967 98.3097C477.401 100.612 476.543 102.697 475.392 104.565C474.259 106.414 472.844 107.999 471.146 109.32C469.467 110.641 467.513 111.651 465.287 112.349C463.06 113.047 460.569 113.396 457.814 113.396H457.163V106.801ZM490.45 106.801H490.988C493.252 106.801 495.196 106.528 496.819 105.98C498.46 105.414 499.809 104.603 500.866 103.546C501.923 102.489 502.706 101.197 503.215 99.6684C503.725 98.121 503.98 96.3661 503.98 94.4036V86.5915C503.98 85.1007 503.829 83.7893 503.527 82.6571C503.244 81.5249 502.829 80.5908 502.281 79.8549C501.753 79.1001 501.13 78.534 500.413 78.1566C499.715 77.7792 498.941 77.5905 498.092 77.5905C497.187 77.5905 496.385 77.8169 495.686 78.2698C494.988 78.7038 494.394 79.2982 493.903 80.053C493.431 80.8078 493.063 81.6758 492.799 82.6571C492.554 83.6194 492.431 84.629 492.431 85.6857C492.431 86.7424 492.554 87.752 492.799 88.7143C493.045 89.6578 493.413 90.4975 493.903 91.2335C494.394 91.9505 495.007 92.5261 495.743 92.9601C496.479 93.3752 497.347 93.5828 498.347 93.5828C499.309 93.5828 500.168 93.4035 500.923 93.045C501.696 92.6676 502.347 92.177 502.876 91.5731C503.423 90.9693 503.838 90.2994 504.121 89.5635C504.423 88.8276 504.574 88.0822 504.574 87.3274L507.263 88.7992C507.263 90.1201 506.98 91.4222 506.414 92.7053C505.848 93.9885 505.055 95.1584 504.036 96.2152C503.036 97.253 501.876 98.0833 500.555 98.706C499.234 99.3287 497.819 99.6401 496.309 99.6401C494.384 99.6401 492.677 99.291 491.186 98.5928C489.695 97.8757 488.431 96.8945 487.393 95.6491C486.374 94.3848 485.6 92.9129 485.072 91.2335C484.544 89.554 484.279 87.7331 484.279 85.7706C484.279 83.7704 484.6 81.8928 485.242 80.1379C485.902 78.383 486.836 76.8357 488.044 75.4959C489.271 74.1561 490.733 73.1089 492.431 72.3541C494.148 71.5804 496.054 71.1936 498.149 71.1936C500.243 71.1936 502.149 71.5993 503.866 72.4107C505.584 73.2221 507.056 74.3731 508.282 75.8639C509.509 77.3357 510.452 79.1001 511.113 81.1569C511.792 83.2137 512.132 85.497 512.132 88.0067V90.8372C512.132 93.5167 511.839 96.0076 511.254 98.3097C510.688 100.612 509.829 102.697 508.678 104.565C507.546 106.414 506.131 107.999 504.433 109.32C502.753 110.641 500.8 111.651 498.573 112.349C496.347 113.047 493.856 113.396 491.101 113.396H490.45V106.801Z" fill="white"/>
</svg>
